<svg width="1000" height="700" version="1.0" xmlns="http://www.w3.org/2000/svg">
 <g id="county-group" class="counties" transform="scale(3.5), translate(0 -450)" style="fill:#d3d3d3;stroke-width:.17829;stroke:#000">
    <path id="North_Slope__AK" class="c02185" d="m111.75 462.41 1.5725-1.571 1.1767-0.784 0.39045 0.784-0.78268 0.393h0.78268l3.9294-1.177 3.5354-4.324 3.1414 1.573v0.788l-1.1785 1.175v1.182l1.1785-0.394 0.78624-1.963 0.78447-0.788 1.1785 1.177 0.39223 1.574 1.1785 0.394 0.39045-0.786 1.9629-0.396h3.1432l0.39045 0.396-0.78447 1.176v0.393l2.3587 0.394-0.3958 1.176h1.5725l1.9629-1.176 4.3199-0.394 2.7492 0.786h1.1838l1.1731 0.392 0.39758 0.392h1.5707l1.9629-0.392h2.3587l2.7492 0.788 0.78446-0.396 1.5725-1.176 0.39045-0.394 0.78625-0.783 2.751 0.39 6.2828 1.963 1.9629 6.287 1.1785 3.927-16.103 3.928 0.78625 4.318-3.1414 0.786-8.2493 1.576h-0.39758l-18.454 1.962h-4.3217v-0.787h-3.1396v-0.786h-3.1432l-3.1414 0.392h-2.3587v-0.781h-1.1767v0.389h-3.5336l-0.78624-0.389h-0.39402v0.389h-1.5689l-0.3958-0.784h-1.9629v0.784h-0.78803l-5.5002-0.389v1.566h-2.7492l-2.3552-1.177-1.1785-1.572 0.78446-2.354 0.39401-2.752 2.7492 0.395 3.5372-0.395 1.1749-0.391 2.3569-2.751 1.182-3.534 2.3552-3.533 1.5725-1.574 1.1767 0.397 1.5725-0.788 2.357-2.751"/>
  <path id="Northwest_Arctic__AK" class="c02188" d="m132.56 496.98h-0.78268l-1.5707 0.784 0.39401 0.786h-2.3552v2.355l-1.5725 0.395v-0.785l-0.78446-0.783h-1.5707v1.568h-1.5725v-1.568h-3.1396v3.534h-3.9277v1.569h-2.3552v3.928h-0.78624v0.788h-0.78625l-13.748-0.394v-1.573h-0.3958l-0.39045-0.392v-1.177l-0.78625-0.394v-3.141l-0.3958-3.93h1.5725l0.78625 0.393-0.78625 2.749 0.3958 1.574 7.0691 0.781 1.9647-1.961h1.1803l-0.3958-0.786-1.1767-0.785-1.1767-0.783-1.5778-1.968-0.7809-0.39-0.39223-1.179 0.39223-0.394h0.7809l1.182 2.749 1.5725 1.571 0.78625-0.389-0.78625-0.394-1.1767-1.574 0.78446-2.355 0.39223 0.392v-0.392l-1.1767-0.785-1.9647 0.391h-1.5743l-2.751-1.177-1.1749-4.32-3.9312-4.323h2.7492v-1.566l5.5002 0.389h0.78803v-0.784h1.9629l0.3958 0.784h1.5689v-0.389h0.39402l0.78624 0.389h3.5336v-0.389h1.1767v0.781h2.3587l3.1414-0.392h3.1432v0.786h3.1396v0.787h3.1432v1.963h0.78446v0.786l1.5689 1.572v2.354h1.5707l0.78268 0.786 0.39579 2.357-0.39579 1.571"/>
  <path id="Prince_of_Wales_Hyder__AK" class="c02198" d="m236.25 561-0.39063 0.78516 1.1797 0.78515 0.39258 0.39258 0.78125 0.39258 0.39648 0.39258 1.1777 2.3574 0.7871-0.39063v-0.39453l-1.4355-2.5781 1.1348-1.0566-1.2734-0.68555h-2.75zm1.9629 2.3555h-1.1738l-1.1797-0.78516-0.78711 0.39258-0.39062 1.1816 0.78711 1.1758 1.9629 1.1777 0.78125 0.78515h-0.78125v1.1816l0.78125 1.9629 0.78711 0.39063-0.39063-1.9648 0.7832 0.78906v-2.3594h-0.7832l-0.39648-1.1777v-0.78516l0.78711-0.39062-0.78711-1.5742zm18.854-1.9609-0.38867 0.78516 0.0488 1.4883 1.5234 0.86914v-2.3574l-1.1836-0.78516zm-14.926 4.7109-1.959 0.78515v0.39258l0.78515 1.9648-0.39258 1.1797 0.39258 0.39063 0.78516-0.39063 0.38867-1.1797 1.1836 1.5703-0.39648 0.39453h-0.78711l-0.38867 0.39258 1.9648 0.78515h1.1777l1.1777 1.1777-1.5703 1.5723 0.39258 0.78516 4.7129 3.1426h1.1797l-0.78711-1.9629-0.78321-0.39453-0.78906 0.78711-1.9629-2.75 3.5352 1.1777 2.3555 1.9629 1.1797-0.39062v-1.1816l-1.9648-3.5352-1.5703-0.7832-2.3574-2.75-5.502-3.1426zm-6.6719 3.1426 0.39062 0.7832v-0.7832h-0.39062zm5.1055 1.5703-0.39257 0.39453 0.39257 0.39258v-0.78711zm-1.9648 0.78711-0.39648 0.39258 0.78711 0.39257 0.39257-0.78515h-0.7832zm14.926 0 0.39258 1.5723 0.39258 0.78516 1.1797-0.78516-0.39258-1.1797-1.5723-0.39258zm-9.4277 1.1758-1.5742 0.78711v1.1797l1.5742 0.39257 0.78711-1.9629-0.78711-0.39648z"/>
  <path id="Ketchikan_Gateway__AK" class="c02130" d="m256.29 573.18-0.78515 1.1758h1.1777v-0.78516zm0.39258-10.998h-1.1777l-2.3574-1.1797-1.5723 0.39453 1.1797 0.78516-0.39453 0.7832-1.1758 1.5742-1.1797 0.7832-0.39258 0.78516v1.5723l0.39258 0.39258v1.5723l-1.1777-0.39453h-0.39453l1.1797 1.1797h1.1797v-2.75l-0.78711-0.39453 0.78711-0.39258 1.1777 2.3574-0.39453 0.7832v0.78711l0.43555 0.125 0.34961 1.0547 1.1797 1.1797-0.39258-1.5723-0.88281-0.58985 2.0606 0.58985 1.5703-0.39258 0.39453-1.1816-0.78515-2.3535-3.1445-2.748 2.752 1.9609 1.5703 2.752-0.39258 1.5703 1.9648 2.75 0.78125 0.39063 1.1777-0.39063 0.78516-2.75v-3.1426l-2.7441-3.5332-1.5228-0.86855z"/>
  <path id="Wrangell__AK" class="c02275" d="m245.11 559.57-0.30078 1.5547-0.85742 0.34766 0.95117 0.31641 0.78515 2.752-0.78515 1.5684v0.78515l1.1777 0.78711 1.9648 0.39258 0.39062-0.78711-0.39062-0.78515 0.39062-1.5684 0.78906 3.1406-0.39453 1.1777 1.1777 0.39453v-1.5723l-0.39258-0.39258v-1.5723l0.39258-0.78516 1.1797-0.7832 1.1758-1.5742 0.39453-0.7832-1.1797-0.78516-3.1426-0.78711-0.78516 0.39258-1.1777-1.1777-1.3633-0.25586zm-0.99414 4.5781-1.1797 0.78516v1.1758h1.1797l0.78711-0.39063-0.78711-1.5703z"/>
  <path id="Petersburg__AK" class="c02195" d="m239.21 554-3.4082 0.33789-0.33007 0.76758v0.78515l1.3144 2.3809 0.1875 1.4004 0.85351 0.14649h1.1758l1.9668-0.39454 0.38868 0.78516 1.1777 0.78711 1.4102 0.46875 0.85742-0.34766 0.30078-1.5547-0.16016-1.3379-1.6172 0.0234v-1.1797l-1.1836-1.1777-1.5527-1.2617-0.75196 0.23828-0.59179-0.15625-0.0371-0.71093zm0.97461 6.209-1.1816 0.78711 1.2734 0.68555-1.1348 1.0566 1.4355 2.5781h1.1777l0.38867-0.7832-0.38867-0.78906-1.5703-0.78516v-0.7832l1.959 1.1758v0.78906h1.1836l1.1777-1.5742-4.3203-2.3574z"/>
  <path id="Sitka__AK" class="c02220" d="m226.04 557.46 1.9629 0.788 1.5725-0.788 1.1767 1.965v0.394l-1.1767 0.39-2.751-1.176-0.394 0.392 1.1802 1.572-0.39401 1.179h-0.78623l-3.5336-3.143 1.5707-0.391v-1.572l1.5725 0.39m9.8201 12.569v0.396l-0.78625-0.396-1.9647-1.962v-1.179l-0.78444 0.786-0.39403-0.786-1.1785-0.394-0.78446-2.353-0.78803-0.788v-0.785l-0.78447 0.391-1.1785-0.783 0.78624-2.357 1.5725 0.786 1.5707-0.396 0.39221 0.788-0.78624 0.394h0.78624l2.7528 4.32 1.5689 3.534h-0.39045l0.39045 0.784m-9.0356-7.461 0.39223-0.392 1.5707 1.569v1.182l-0.78447 0.39-1.1785-2.749"/>
  <path id="Haines__AK" class="c02100" d="m224.86 547.25-0.39223 0.392-1.1785-1.963-1.1767-0.786v0.394l1.9647 3.141 1.5689 2.357 1.9647 3.142h-1.5707l-1.1802-1.177-0.39223-0.392 0.78623-0.787-0.78623-0.786-1.963-0.394 0.39225-1.963-1.5707-1.178h-3.5354v-3.143l1.5707-1.963 3.1432 2.358 1.1767-0.395 0.39578 0.395h1.5689l0.78448 0.785 0.394-0.394 0.78624 1.178h0.39223l-3.1432 1.179"/>
  <path id="Juneau__AK" class="c02110" d="m235.08 553.93v0.786h-0.78268l-2.7528-2.355-1.9629 0.781-3.145-1.96-1.9629-3.537 0.39223-0.392 3.1432-1.179 0.78447 0.785 1.1803 0.394 3.9277 1.572v0.785l1.9647 1.178-0.78625 2.748v0.394m-5.1062 0.394h-0.78803l-0.39223-1.182 0.39223 0.394 0.39581-0.394 1.9629-0.389-1.1785 0.783-0.39223 0.394v0.394"/>
  <path id="Skagway__AK" class="c02230" d="m222.51 544.51-3.1432-2.358 0.78801-1.177 1.5689 0.39 1.1785 0.787 0.78446 1.963-1.1767 0.395"/>
  <path id="Hoonah_Angoon__AK" class="c02105" d="m217.79 547.25v0.78515l-1.1777 0.39258-2.3555 3.5352-1.5703 1.5703 3.9258 1.5723 1.1777 0.39257h0.78711l1.5723 0.78516 2.3555-2.3574-1.5723-2.3555-2.3555-0.78516h-1.5723v-0.39453l3.5352 0.78711h0.39258v-0.78711l1.1797 1.1797 0.78321 2.3555 1.9629-1.1758-0.39063-0.39258 0.78516-0.78711-0.78516-0.78516-1.9629-0.39453 0.39063-1.9629-1.5703-1.1777h-3.5352zm9.4258 4.7129v0.39453l1.5703 1.9629 1.5742 3.1387 1.9629 1.5742v2.3574l1.1777 1.5684 1.1816-1.9629v-1.1777l0.78711-1.1777-0.39649-0.78711-2.75-2.748 0.39258-0.39258 1.1797 1.5703h0.78711l-3.1445-3.1445v-0.38867l-1.1777 0.7832-0.39258 0.39258v0.39453h-0.78906l-0.39258-1.1816-1.1758-1.1758h-0.39453zm-3.1387 2.3574-0.78906 0.78516-1.5703 0.39257-0.39258 1.9609 0.39258 1.1816 1.1777 0.39258 1.5723-0.39258v-1.5723l1.5723 0.39062 1.9629 0.39453 0.7832-0.39453 0.39258-0.39062-0.39258-1.1777-0.39062-0.78515-4.3184-0.78516z"/>
  <path id="Hoonah_Angoon__AK__1_" class="c02105" d="m240.59 554.63-4.7282-3.8431-0.78711 2.748v0.39258l0.39649 1.1797 0.32932-0.76835 3.4099-0.33781 0.036 0.71194 0.59229 0.15561z"/>
  <path id="Yakutat__AK" class="c02282" d="m195.41 544.51h1.9612l0.39582-0.788 2.357 0.393 0.78625-1.568 2.3552-0.788 0.39401 2.356 0.78447 0.395 1.9647 0.391 0.78446 1.178 5.8924 3.142 1.1785 2.751-1.5707 1.569v-0.783l-1.1803-0.786-8.638-1.965-0.39401-0.392v-0.785h0.78446v-0.786l-1.1767-1.965-0.39401 1.179-1.5707 1.572-3.539 0.391-2.3534-1.177-5.1044 0.392-5.4984 1.963 1.9665-5.104 5.1026-1.573h0.78446v0.788l2.7492-0.788h0.78626l0.39222 0.788"/>
  <path id="Aleutians_West__AK" class="c02016" d="m62.259 580.25-0.78446 0.786-0.39401-0.396v-0.39h1.1785m1.9647 6.284h0.39223l-0.39223 0.392-0.78625-0.786 0.78625 0.394m13.348 25.137 1.5725 1.571-0.39401 0.786-3.1414 2.355-1.1785 0.394h-1.1767l-3.1432 1.178-1.1785-0.786 4.3217-1.572 0.39045-3.142 0.39402-0.392 2.3552-0.392v0.784l0.39401 0.394 0.39401-0.394 0.39045-0.784m-13.742 6.284 2.3587-1.572 0.38688-0.786 0.78625-0.392 1.1785-0.391 1.1785 0.391-0.78625 1.572-1.5707 0.392-1.9612 1.963-2.357 1.18-1.1767 0.393 1.9629-1.965v-0.785m-56.565 0 0.39758 0.393-0.39758 0.392-0.39223-0.392 0.39223-0.393m3.9312 0.393h0.78446l0.78625 1.572-1.1767 0.785-0.78625-0.393-0.39401-1.964h0.78625m47.53 0v0.784l-0.39401-0.392 0.39401-0.392m-1.9647 0.784h0.38867l-0.38867 0.394-0.39758-0.394h0.39758m-24.356 1.18-0.39223-0.392 1.5725-0.788 0.78268 1.18-1.1767 1.571h-2.357l-4.3199-0.788 3.9277 0.396 1.9629-0.786 0.39401-0.393h-0.39401m-10.212-0.786h0.78446v0.786l-0.39045 0.393-0.78624-0.393v-0.786h0.39223m-5.8924 0 0.78625 0.394-1.1785 1.571h-0.78446l-1.1785-0.786 1.9629-0.393 0.39223-0.786m42.031 0 0.39401 0.394-0.39401 0.392-1.5707-0.392 0.38867-0.394h1.182m-38.494 1.569 1.1767 0.396-0.39223 0.784-3.9277 0.391 1.9647-2.746h1.1785v0.392h-0.39401l-0.39401 0.783h0.78803m36.133-0.783h0.39223v0.393h-0.39223v-0.393zm-2.7492 0 0.3958 0.393-0.3958 0.786h-1.1749v-0.786l1.1749-0.393m-29.066 0.783 0.39401 0.396h-0.39401v-0.396m-2.7474 0.396h1.1785l0.39045 0.392-1.1767 0.392-0.78625-0.392 0.39401-0.392m-16.103 0v0.392l-0.39758 0.392 0.39758-0.784m44.381 0 0.39402 0.392-0.39402 0.392-0.39223-0.392 0.39223-0.392m-6.6768 0 0.39402 0.392v0.392h-1.5725l0.39402-0.392 0.78446-0.392m-7.0709 0.784 0.78803 0.391 2.7492 0.788h-3.1432l-1.5689-0.394-1.1785-1.177 1.1785 0.392h1.1749m-31.421-0.392v0.783h-0.39401l0.39401-0.783"/>
  <path id="Aleutians_East__AK" class="c02013" d="m113.71 597.92v0.782l-0.39045-0.782v-0.788l-0.78624-0.394-0.39402 0.786h-0.78446l-0.3958 0.786-1.9629 1.573-3.5319 1.176-1.5778-0.392 0.78981-1.965h-1.1767l-1.9683 4.713-1.5689 0.786-1.182-0.392v-1.963l-0.7809-0.394-0.3958 0.784 0.3958 0.786 0.39045 1.573-1.5725 0.392-0.78625-1.965-1.1785 0.393 0.78803 1.572v2.355l-1.1785-0.392-1.5725 0.392h-2.7492l-0.78625 0.396-1.1767 1.177h-1.9647l-0.39223-1.177v-0.788l1.1785-0.394 0.78446-1.177 4.3199-1.964h1.1785l0.39401 1.964h0.78625v-2.357l2.3552-0.786 3.5408-3.926 2.3552-1.965 2.3552-0.786 1.1803 0.392 1.1785 0.394h-0.39402v0.787l0.39402 0.788 0.78624-0.396 0.39223-0.786v-1.179l1.1767-2.749 2.357-1.961 4.7121-3.145 0.39401 0.396v0.388l-0.78446 0.788h-1.1785v0.787h-1.5725v0.786h-1.5707v1.567h0.39402v3.143l-0.39402 0.786h1.5707v1.575m-3.5336 2.351h0.78268v0.788h-0.78268l-0.39401-0.392 0.39401-0.396m-1.1803 1.181h0.78625v0.784l-0.78625 1.179-1.5689-0.393-0.39402-1.57 0.39402-0.393h0.78624l0.78268 0.393m3.1432 0.394 0.39402 1.569-1.9647 2.356v-2.356l0.39045-0.393 0.78803 0.393 0.39223-1.569m1.9647 0.39v1.965h-0.78446l0.78446-1.965m-10.999 1.179 0.39401 0.394h-0.78624l-0.78803-0.787 0.39223-0.392 0.78803 0.785m11.781 0.394 0.3958 0.786-0.78625 0.392v-1.178h0.39045m-14.924 0.786v0.784l-0.39045 0.392-0.79159-0.784 1.182-0.392m15.32 0.392 0.39223 0.392-0.39223 0.392v-0.784m-18.465 3.928 1.182 0.39v0.396h-1.182l-0.39045-0.396 0.39045-0.39m-14.532 0.786h0.39223v0.784l-0.78446 0.787-0.39402-1.179 0.39402-0.392h0.39223m-1.1767 1.178-0.39401 0.785h-1.1785l-0.39223-0.785 0.78625-0.786 1.1785 0.786m3.9259 0.393h0.39402v0.392h-1.5707l1.1767-0.392m-1.5707 0.392 0.39401 0.392-1.1803-0.392h0.78625"/>
  <path id="Kodiak_Island__AK" class="c02150" d="m128.64 582.6 0.78268-1.175 1.1803-0.788 0.39045-0.39 0.39402 0.39 0.39223-0.39 0.78268-1.179 1.5725-1.18-0.39223-3.14 1.5725-0.786 1.9647-0.785 1.1767-0.786v-1.963h1.1803l1.1749-0.396-0.39223-0.784h1.9629l-0.39223-1.178h0.78981l-0.39758 1.178-0.78446 0.784-0.78624 0.396-0.78447 1.177-0.39044 2.749-0.78803 1.179-1.1785 0.784-0.78625-0.392-1.1785 0.392-0.78447 0.788-0.78624 1.963h-0.78268l-1.1803 1.569-0.78446 0.396-0.39402-0.396v0.788l-2.3534 1.571v0.39l0.78268-0.39v1.572h-1.9576v-0.788l0.78268-0.394 0.39223-0.786m16.886-7.067-0.39223 0.392-1.9629-0.785 1.5689-2.358 1.5761-2.75 1.1731-0.39-0.38688 1.571v0.784l1.5707-0.392 0.78446 0.392 0.38867 1.18-0.38867 0.785-3.1414 1.178-1.182-0.786-0.39401 0.394 0.78624 0.785m-4.7139 4.714 0.39401 1.178 0.78446 0.392-0.78446-0.784-0.39401-3.145 0.78624-0.783 2.357-0.394 0.78446-0.394h1.1838l-0.39758 1.18 0.39758 0.391 1.5654-1.571 0.78803-0.392-0.39045 1.572 0.78625 1.179h0.78446l-0.78446 1.571-1.9701 1.964-1.9629 2.357-0.39223 0.392-0.39223-0.786 0.39223-0.788h-0.39223l-1.1749 2.751-1.182 1.18-1.1785 0.391-0.78268-1.177-1.1803-1.963-0.39402-1.182-0.78268-0.786 0.39045-1.963 1.1785-1.177 1.9629-0.392v1.179m-0.39223 8.641 1.5707 0.392-0.39223 0.391h-1.5707l-0.39044-0.391 0.78268-0.392m-1.5707 0 0.78803 0.392-1.9665 1.573v-0.786l1.1785-1.179m-5.1061 6.675 0.78624 0.392v1.573l-1.5707-0.392v-0.787l0.78447-0.786"/>
  <path id="Bristol_Bay__AK" class="c02060" d="m125.89 568.85h3.1432v2.359l-4.3217 0.392 0.78625-1.177 0.39223-1.574"/>
  <path id="Dillingham__AK" class="c02070" d="m125.1 568.85v0.394l-4.7121 2.357-0.78625-0.392-1.5707-2.359-0.39402 0.394-0.39223 1.571 0.78625 1.963-1.1803 0.786h-0.78268l-2.3587-4.32-0.78625-0.394-0.39044 1.178h-0.39402l-1.9629-1.567 0.39223-0.395-0.39223-0.393-3.1432 1.965v-1.572h0.78446l0.78803-2.356 0.78447-0.784 0.39223-2.359 0.78624-1.571h1.1785v-1.572l1.1767-2.355 0.78625-1.571h0.78624l1.9647-4.714h4.7121v0.786h0.78625l0.78268-0.786v-1.178h1.5725v0.784h5.1026v0.788l0.3958 2.748 0.39045 7.464h-0.78625v1.177h-1.5671l-0.78624 0.785-0.39402 1.574h-1.1767l-1.1785 0.784 0.78625 3.14m-19.637 1.574v-0.786h1.1767l-1.1767 0.786"/>
  <path id="Lake_and_Peninsula__AK" class="c02164" d="m128.64 582.6-0.39223 0.786-0.78268 0.394v0.788h1.9576l-4.3163 3.14-0.78625-0.391-0.39223 1.571-2.3552 0.783v0.396h0.39223l0.39223 0.786h-2.357l-0.78447 1.178 1.5689 1.569-1.5689 1.963-5.1061 1.179v1.182l-0.39401 0.782v-2.357h-1.5707l0.39402-0.786v-3.143h-0.39402v-1.567h1.5707v-0.786h1.5725v-0.787h1.1785l0.78446-0.788v-0.388h1.1785l-0.39223-1.573 0.78446-1.571 3.9259-3.927 0.78803-7.465 1.1767-1.963 4.3217-0.392v-2.359h-3.1432l-0.39223-0.389-0.39223 0.783v-0.394l-0.78625-3.14 1.1785-0.784h1.1767l0.39402-1.574 0.78624-0.785h1.5671v-1.177h0.78625l-0.39045-7.464-0.3958-2.748v-0.788l6.2828-0.392 2.357-0.392h2.357l0.78624 3.926h-0.78624l0.39223 3.143h-0.78447l0.39224 0.784v2.359h-0.39224v0.786h-0.78446v0.786l-0.39401 0.785-0.39223 0.392-0.78625 0.785-0.39045 1.574h-1.1803v1.567l0.39223 0.394v0.786l0.39223 2.751h1.5725v1.963l-1.1767 0.786-1.9647 0.785-1.5725 0.786 0.39223 3.14-1.5725 1.18-0.78268 1.179-0.39223 0.39-0.39402-0.39-0.39045 0.39-1.1803 0.788-0.78268 1.175m-2.7492 7.467 0.78446 0.39h-1.5689l0.39223-0.39h0.39223"/>
  <path id="Kenai_Peninsula__AK" class="c02122" d="m137.28 564.93 0.39045-1.574 0.78625-0.785 0.39223-0.392 0.39401-0.785v-0.786h0.78446v-0.786h0.39224v-2.359l-0.39224-0.784h0.78447l-0.39223-3.143h0.78624l-0.78624-3.926v-0.394l-0.39224-3.534v-0.786h0.39224l1.5707-0.391h1.5707l0.78625-0.395 4.7192-0.393v1.573h1.1767l0.78803 0.392-0.78803 0.786-1.9665 1.571-1.5743 2.749-1.5689 4.322v1.963l-1.9629 3.139-1.9647 1.182-1.1785 1.568-1.1785 0.786-0.39223 2.357 0.39223 0.786 0.39401-0.394 1.5689-0.392 1.9683 1.572v0.393h-0.78981l0.39223 1.178h-1.9629l0.39223 0.784-1.1749 0.396h-2.7528l-0.39223-2.751v-0.786l-0.39223-0.394v-1.567h1.1803m11.393-2.359 2.7438-1.963 0.79159-1.572h-0.79159l-1.1731 1.176-0.78625-0.39-0.78446-0.786 0.39401-2.357 0.77912-1.963 0.39758-1.574v-1.568l-0.78625-1.572 1.5743-0.786 2.3534-2.357 0.78802 0.786h1.1767l1.1767-0.786 1.1785 0.394h1.5725l0.39223 0.392 1.1803 0.786h0.78268v0.394l0.39402 1.569v0.394l0.39223 0.394 0.39401 3.534v0.394l-3.1432 0.392-1.5689 0.785v2.358l-2.751 2.355-0.39223-0.392-0.78447 0.786-0.78802 1.962-3.539 1.18-1.1731-0.788v-1.177"/>
  <path id="Anchorage__AK" class="c02020" d="m156.52 546.86-1.9629-1.569 0.39402-0.394v-0.391h0.39223l0.78624-1.572 0.39045-0.391h0.3958l0.39045-0.395h0.39223l0.3958 0.395 3.1414-0.788v1.179l0.39045 1.177v1.18l0.39402 0.392v1.571h-1.1767v0.786l0.39223 0.392h-0.39223l-1.1803-0.786-0.39223-0.392h-1.5725l-1.1785-0.394"/>
  <path id="Valdez-Cordova__AK" class="c02261" d="m162.02 546.47v-0.786l-0.39402-0.392v-1.18l-0.39045-1.177v-1.179l3.1396-0.394 2.3587-0.39-0.39401-0.396h0.39401l0.78268-0.39-0.78268-4.32v-0.394l-0.78624-1.965 1.9647-0.392 0.39045-0.391-0.39045-1.18v-0.392l-1.1785-5.106-0.39401-1.179 1.5725-0.786 1.1767-0.394h0.39224l0.78446-0.39h1.1803l1.1785 0.39h0.39223l6.6786-1.569 0.78446 1.179 0.39223 1.963v1.178h1.1785l0.39399-1.178h1.569l1.9647 1.178 0.78448 2.751 0.78801 0.392v0.392l0.39224 1.571 3.1414-1.18 3.9277 13.355h-0.78626l-2.7492 0.788v-0.788h-0.78446l-5.1026 1.573-1.9665 5.104-5.1079-1.569v-1.18l-1.5707 0.786 0.78625 0.785-3.1432-1.177-3.5336 3.143-0.78803-1.18 0.3958-1.177h0.78446l1.5707-0.786 0.78624-0.786v-0.785l-1.9647 0.785h-1.5725l-0.39045-0.394 1.5707-1.177 0.39223-0.392-1.5725 0.784-0.39045-0.784-0.39401 0.392v-1.965l-2.3552 1.179-0.39224 1.178-2.7492 1.179h-0.3958l0.3958-2.357-0.78625 0.394-0.39223 1.963 1.1785 0.392 1.1785 2.749-0.39402 1.573 1.5707 1.569-0.78625 1.18-2.7474 0.394v-0.394l-0.39401-3.534-0.39223-0.394v-0.394l-0.39402-1.569v-0.394h-0.39045l-0.39223-0.392v-0.786h1.1767v-0.785m5.8924-0.786v0.392h-0.78624l0.78624-0.392m-1.1785 1.963 0.78268 0.394-0.78268 0.392v-0.786m-2.3587 0 0.78803 0.394-0.39402 0.392-0.39401-0.392v-0.394m1.9647 1.18v3.928l-1.1767-0.786 0.39044-1.965 0.78625-1.177m2.7492 3.142-0.78624 1.175-0.39045 2.36-1.5725 0.785v-1.571l1.9629-3.142v-0.786l0.39401-0.394 1.1785 0.394-0.78625 1.179"/>
  <path id="Matanuska-Susitna__AK" class="c02170" d="m157.7 542.15h-0.39223l-0.39045 0.395h-0.3958l-0.39045 0.391-0.78624 1.572h-0.39223v0.391h-3.1432l-0.78268 0.786-0.78803-0.392h-1.1767v-1.573l-4.7192 0.393-0.78625 0.395h-1.5707v-0.788l-0.39223-0.394v-3.533l-0.39223-0.393v-2.749l-0.39401-3.926 4.3217-0.395v-0.785l9.4296-6.284 5.5002-0.789v-0.39l-0.39402-0.784 4.3217-0.787 1.9629-0.392 0.39223 2.749 0.39401 1.179 1.1785 5.106v0.392l0.39045 1.18-0.39045 0.391-1.9647 0.392 0.78624 1.965v0.394l0.78268 4.32-0.78268 0.39h-0.39401l0.39401 0.396-2.3587 0.39-3.1396 0.394-3.1414 0.788-0.3958-0.395"/>
  <path id="Southeast_Fairbanks__AK" class="c02240" d="m169.09 523.69-1.1767 0.394-1.5725 0.786-0.39223-2.749-1.9629 0.392-1.5725-7.071 2.357-0.788 0.78446-1.173 1.1803-0.788h1.1785l4.7121-3.533h1.5707v-0.394l0.78625-1.179-0.78625-1.178 0.39224-0.785 0.39401-0.786 1.1767-0.788 0.39402-2.355h0.39223l1.1785-1.177 1.1785-0.394 1.1785-1.571v-1.176l0.78623-1.179 9.8183 34.169-3.1414 1.18-0.39224-1.571v-0.392l-0.78801-0.392-0.78448-2.751-1.9647-1.178h-1.569l-0.39399 1.178h-1.1785v-1.178l-0.39223-1.963-0.78446-1.179-6.6786 1.569h-0.39223l-1.1785-0.39h-1.1803l-0.78446 0.39h-0.39224"/>
  <path id="Fairbanks_North_Star__AK" class="c02090" d="m155.74 513.48v-0.392l-1.1785-5.108h0.39402l3.9277-0.786 0.39223-0.786h1.5725l0.78268-0.785 0.78625-1.178 0.78624-0.396 0.78625 0.396v0.788l0.78446 0.784h0.39402l0.78446 1.177 0.39223 0.392 4.3217-1.569 1.9629-0.394-0.39224 0.785 0.39224 2.751-4.7121 3.533h-1.1785l-1.1803 0.788-0.78446 1.173-2.357 0.788-2.7492 0.396-1.1785-0.396h-0.39044l-1.5743-1.961h-0.78446"/>
  <path id="Denali__AK" class="c02068" d="m154.56 525.26-9.4296 6.284v0.785l-4.3217 0.395 1.5707-4.323v-1.179l-1.5707-0.39-0.39223-2.361 2.3605-0.39 0.7809-1.571-0.39045-1.572 1.1767-1.177h0.78624l1.182 0.392 1.5707-3.141 5.8906-0.786 4.7139-0.787 1.1785 0.396 2.7492-0.396 1.5725 7.071-4.3217 0.787 0.39402 0.784v0.39l-5.5002 0.789"/>
  <path id="Bethel__AK" class="c02050" d="m140.02 545.68 0.39224 3.534v0.394h-2.357l-2.357 0.392-6.2828 0.392h-5.1026v-0.784h-1.5725v1.178l-0.78268 0.786h-0.78625v-0.786h-4.7121l-1.9647 4.714h-0.78624l-0.78625 1.571-1.1767 2.355v1.572h-1.1785l-0.78624 1.571-0.39223 2.359-0.78447 0.784-0.78803 2.356h-0.78446v1.572h-1.5689v1.571l-1.1785 0.392-2.7545-0.392 0.78625-0.394 0.78803 0.394 0.39401-1.571-0.39401-2.359-0.78803-1.569 1.5689-1.966-0.7809-2.354v-0.394l-1.9647-3.927-0.78268 1.572-2.7545 1.567-2.751 0.396-1.5707-0.786-0.39223-1.177-1.5707-2.358-3.5354-3.145 2.357-1.568-0.39223-1.18h-0.78624v-0.392l0.39223-0.392h2.3587l1.9629-0.394 1.9647-3.142 3.9312-0.784 0.39045-0.394 1.1785-0.391 2.3587 0.785 3.5336-0.785 1.1803-1.182 1.9629-1.176-0.39401-0.787h5.1044v-0.786h3.145v-0.784l6.2828-0.393v0.787h5.8888l1.9629-0.394h3.5336l1.5743-0.393h0.78268v-0.786l1.5743-0.39v-0.396l0.39044-0.39h0.78447l0.39401-0.787v2.749l0.39223 0.393v3.533l0.39223 0.394v0.788l-1.5707 0.391h-0.39224v0.786m-85.23 1.963 0.3958 1.18 0.38867 0.785 1.5725 0.784 0.3958 0.394h-1.5743l-0.39401-0.786-1.1713-1.571 0.38688-0.786m28.672 6.679 1.1767-0.394 1.9647 1.572-0.39223 2.355-0.39223 0.788-1.9629 0.783-3.9277-1.965-1.1803-1.176v-0.785l0.39401-0.392h2.3552l1.5725-1.18 0.39223 0.394"/>
  <path id="Kusilvak__AK" class="c02158" d="m109.78 541.36 0.39401 0.787-1.9629 1.176-1.1803 1.182-3.5336 0.785-2.3587-0.785-1.1785 0.391-0.39045 0.394-3.9312 0.784-1.9647 3.142-1.9629 0.394h-2.3587v-0.394l0.78625-0.391 0.39401-0.786-1.5725-0.786-0.39223 0.786-1.1785-0.394-1.9629-3.928 0.39223-2.357 4.3199-5.496 1.9629-1.574-0.39045-1.177 0.78446-1.963 1.5707-1.963 1.5725-0.394 2.7492 2.357 1.182-0.394 1.9594-1.963 0.78625 0.394 1.5689 2.355h4.7192-0.39223l-0.3958 1.18-0.39044 3.142v3.143h0.78624l-0.3958 1.177v0.786l0.3958 0.39h1.5689"/>
  <path id="Nome__AK" class="c02180" d="m112.92 522.9v1.567h-0.78446v0.789l-0.78446 0.786h-1.5725l-0.78625 0.786v2.357h-0.39045v2.355h-4.7192l-1.5689-2.355-0.78625-0.394 1.182-1.573 1.1731 0.394h1.5778l1.9629-0.394 1.1785-2.355 0.39045-1.18-1.1785-3.534-0.78446-1.178v-1.179h0.78446l1.1785-0.784v-1.177l-1.5689-1.574-0.78625 1.178-3.1414 0.787-1.5743 1.176-6.2846-0.39-3.1432 0.784-4.3199-1.57-0.78625-0.787-0.39223-0.788 0.39223-1.173-0.39223-2.358 0.39223-0.394 0.39223-1.175-3.5354-1.573-2.3552-1.572v-1.175l7.0691-3.931 0.78624 0.786 1.9647 0.394v-0.394l-1.1785-0.786v-0.785l5.4966-1.965 0.3958 3.93v3.141l0.78625 0.394v1.177l0.39045 0.392h0.3958v1.573l13.748 0.394h0.78625v-0.788h1.5707v2.357h-0.39401v3.141h-0.78625v1.574h-0.78446v6.283h0.78446v0.786m-22.783-21.999-0.39223 0.395v-0.395h0.39223m-9.426 10.607 0.78446-0.392 0.39402 0.784-0.78446 0.396-0.39401-0.788m-15.315 9.426 0.38867-0.785v1.179l2.357 1.572 1.9647-1.18 0.78446 0.394 0.78625 0.786v1.177l1.9629 1.573 3.1432 0.784-0.78625 1.571-1.5707-0.787-1.1767 0.787-1.1803-0.393-2.3552-2.749-1.5725-0.786h-0.78446l-1.5725 0.786-1.1731-0.786v-0.784l0.78446-2.359m36.918 4.716v0.784h-1.1767l0.39044-0.784h0.78625"/>
  <path id="Yukon-Koyukuk__AK" class="c02290" d="m140.41 537.44h-0.39224l-0.39044 0.39v0.396l-1.5743 0.39v0.786h-0.78268l-1.5743 0.393h-3.5336l-1.9629 0.394h-5.8888v-0.787l-6.2828 0.393v0.784h-3.145v0.786h-6.6733l-0.3958-0.39v-0.786l0.3958-1.177h-0.78624v-3.143l0.39044-3.142 0.3958-1.18h0.39223v-2.355h0.39045v-2.357l0.78625-0.786h1.5725l0.78446-0.786v-0.789h0.78446v-2.353h-0.78446v-6.283h0.78446v-1.574h0.78625v-3.141h0.39401v-2.357h-0.78446v-3.928h2.3552v-1.569h3.9277v-3.534h3.1396v1.568h1.5725v-1.568h1.5707l0.78446 0.783v0.785l1.5725-0.395v-2.355h2.3552l-0.39401-0.786 1.5707-0.784h0.78268l0.39579-1.571-0.39579-2.357-0.78268-0.786h-1.5707v-2.354l-1.5689-1.572v-0.786h-0.78446v-1.963h1.1785l18.454-1.962h0.39758l8.2493-1.576 3.1414-0.786-0.78625-4.318 16.103-3.928 6.6786 23.174-0.78623 1.179v1.176l-1.1785 1.571-1.1785 0.394-1.1785 1.177h-0.39223l-0.39402 2.355-1.1767 0.788-0.39401 0.786-0.39224 0.785 0.78625 1.178-0.78625 1.179v0.394h-1.5707l-0.39224-2.751 0.39224-0.785-1.9629 0.394-4.3217 1.569-0.39223-0.392-0.78446-1.177h-0.39402l-0.78446-0.784v-0.788l-0.78625-0.396-0.78624 0.396-0.78625 1.178-0.78268 0.785h-1.5725l-0.39223 0.786-3.9277 0.786h-0.39402l1.1785 5.108v0.392h0.78446l1.5743 1.961h0.39044l-4.7139 0.787-5.8906 0.786-1.5707 3.141-1.182-0.392h-0.78624l-1.1767 1.177 0.39045 1.572-0.7809 1.571-2.3605 0.39 0.39223 2.361 1.5707 0.39v1.179l-1.5707 4.323 0.39401 3.926-0.39401 0.787h-0.39223"/>
 </g>
</svg>