<svg width="700" height="700" version="1.0" xmlns="http://www.w3.org/2000/svg">
 <g id="county-group" class="counties" transform="scale(7), translate(-545 -340)" style="fill:#d3d3d3;stroke-width:.17829;stroke:#000">
 <path id="Chicot__AR" class="c05017" d="m614.23 412.76 0.26386 0.73 0.025 0.01 0.97345 0.663 0.79516 0.537 0.15155 0.536-0.23178 0.459-0.98949 0.288 0.96453 2.758 0.65075 1.181 0.4992 0.529 0.0553 1.747v0.02l-0.60261 2.501-0.016 0.02-0.56161 0.634-0.15511 0.177-1.8952 0.07-3.2787 0.134-0.47424 0.03-0.36014-8.83-0.12123-4.033 1.9772-0.1 0.10519 0.692 0.5206 0.319 1.4067-0.04 0.29774-1.036"/>
  <path id="Ashley__AR" class="c05003" d="m599.86 417.19 10.182-0.239 0.36014 8.83-11.676 0.474-1.462-3.521 0.44929-1.155 0.70958-0.925 0.84151-0.681 0.37975-0.106 0.55269-0.467 0.25674-1.775-0.5937-0.435"/>
  <path id="Pope__AR" class="c05115" d="m582.41 364.07 0.0481 3.101-0.65253 0.934 0.041 2 0.073 6.294-0.66896 0.0594-2.3694 0.255 0.31403 1.1963-0.71382-0.0759-2.831-3.4634-1.6555-0.6564-0.39045-0.218-0.0428-3.302h0.33875l1.0038-1.059 0.95561-1.955-0.0303-3.037 3.9526-0.02 2.628-0.04"/>
  <path id="Newton__AR" class="c05101" d="m579.61 355.06 0.16938 9.05-3.9526 0.02-6.5984-0.617-0.16046-1.392 9e-3 -1.341 0.40828-1.012 0.57051-1.004-0.312-3.641h3.309l6.5574-0.06"/>
  <path id="Madison__AR" class="c05087" d="m563.45 351.08 2.9096 0.01 0.49742 0.569 0.2496 0.908v0.868l0.16224 0.33 0.50633 0.706 0.64897 0.659h1.3193l0.312 3.641-0.57051 1.004-0.40828 1.012-9e-3 1.341 0.16046 1.392-3.2787-0.04-3.9687 0.298h-0.96454v-1.679l0.17651-5.98 0.96275-3.352 0.0754-1.6502 1.2189-0.0358"/>
  <path id="Franklin__AR" class="c05047" d="m561.98 363.78 3.9687-0.298-0.0392 9.113-1.5964-0.6213 0.0202 1.7619-2.2219 0.0639 0.11038 1.9229-1.3764-0.0392-0.78718 0.77669-0.72536-7e-3 -0.2463-5.3295 0.28882-0.153 0.34588-1.108 0.25852-1.317-0.94339-0.58029-0.15514-2.3144 0.71674-0.0323 2.3822-1.165 0.33696-0.335 7e-3 -0.339h-0.34409"/>
  <path id="Johnson__AR" class="c05071" d="m565.95 363.48 3.2787 0.04 6.5984 0.617 0.0303 3.037-0.95561 1.955-1.0038 1.059h-0.33875l0.0428 3.302-2.0357 0.0217-0.23332-2.3428-1.0739 0.40309-0.78981 0.312-1.4156 0.451-2.143 0.248 0.0392-9.113"/>
  <path id="Logan__AR" class="c05083" d="m565.91 372.59 2.143-0.248 1.4156-0.451 0.78981-0.312 1.0739-0.40309 0.23332 2.3428 2.0357-0.0217 0.39045 0.218 0.16988 2.0131-3.3648 0.23559-1.5599 1.4522-3.1482 0.52907 0.0227 2.247 0.0945 0.619-3.9455 0.02-2.9738-0.02-1.2676-0.651v-1.022l7e-3 -1.012 2.0182 0.02 0.0143-1.694 0.78718-0.77669 1.3764 0.0392-0.11038-1.9229 2.2219-0.0639-0.0202-1.762 1.5964 0.6213"/>
  <path id="Yell__AR" class="c05149" d="m573.99 373.72 1.6555 0.6564 2.831 3.4634 0.71382 0.0759-0.31403-1.1963 2.3694-0.255-2.6577 2.6856-1.5119 1.4-1.3889 1.341-0.63648 0.709-0.95562 1.309 0.0731 2.403-1.9754 0.747-5.9387 0.104-0.0499-6.347-0.0945-0.619-0.0227-2.247 3.1482-0.52907 1.5599-1.4522 3.3648-0.23559-0.16988-2.0131"/>
  <path id="Perry__AR" class="c05105" d="m578.59 379.15 6.019-0.08 1.5654-0.151 0.29774-0.06 0.24069-0.09 0.93422-0.772 0.0874 0.09 0.17651 0.472 0.025 0.216-0.0713 0.564-0.082 0.201-0.14441 0.207-0.2086 0.219-0.29595 0.25-0.13015 0.16-0.082 0.273 0.0713 0.28 0.21751 0.362 0.19611 0.169 0.22286 0.129 0.33697 0.103-0.55983 0.387-1.3764 0.346-1.9433 0.378 0.0143 1.333h0.29061l-0.18542 0.412-1.503-0.396h-2.6422l-1.9362 0.08 0.0392 1.993-3.9936 0.09-0.0731-2.403 0.95562-1.309 0.63648-0.71 1.3889-1.34 1.5119-1.4"/>
  <path id="Conway__AR" class="c05029" d="m581.84 370.11 6.9122-0.07 0.0392 2.016-1.1482 5.946-0.93422 0.772-0.24069 0.09-0.29774 0.06-1.5654 0.151-6.019 0.08 2.6577-2.6856 0.66896-0.0595-0.073-6.294"/>
  <path id="Faulkner__AR" class="c05045" d="m595.68 371.92 0.13015 6.853 0.0214 1.252-1.9932 0.03-0.58478 2.018-3.81 0.04-1.478-0.419-0.33697-0.103-0.22286-0.129-0.19611-0.169-0.21751-0.362-0.0713-0.28 0.082-0.273 0.13015-0.16 0.29595-0.25 0.2086-0.219 0.14441-0.207 0.082-0.201 0.0713-0.564-0.025-0.215-0.17651-0.473-0.0874-0.09 1.1482-5.946 4.2593-0.06 2.6262-0.08"/>
  <path id="Van_Buren__AR" class="c05141" d="m589.63 362.28 0.0553 1.7026 3.2769-0.0546 0.0909 8.069-4.2593 0.06-0.0392-2.016-6.9122 0.07-0.041-2 0.65253-0.934-0.0481-3.101 3.3108-0.02-0.0321-1.678 3.9455-0.1"/>
  <path id="Searcy__AR" class="c05129" d="m579.61 355.06h0.99663l0.97983-8e-3 0.0328 0.99434 7.8678-0.111 0.0232 2.019 0.12124 4.328-3.9455 0.1 0.0321 1.678-3.3108 0.02-2.628 0.04-0.16938-9.05"/>
  <path id="Stone__AR" class="c05137" d="m593.41 354.16 2.2001 1.679 0.10697 0.08 0.33518 0.409 9e-3 0.105-0.8022 2.0715 2.7454 0.1586 1.1733 1.0569 0.87717 0.314 0.39402 3.751-7.4827 0.145-3.2769 0.0546-0.0553-1.7026-0.12124-4.328 1.9861-0.03-0.0109-2.011 1.9542-0.046-0.0321-1.704"/>
  <path id="Cleburne__AR" class="c05023" d="m600.45 363.78 0.81599-0.0239 0.15567 3.9379 0.0499 1.816-0.94849 2.299-4.8387 0.105-2.6262 0.08-0.0909-8.069 7.4827-0.145"/>
  <path id="White__AR" class="c05145" d="m601.42 367.7 3.9473-0.09 0.0355 1.9854 4.4217-0.0824-1.5101 1.864-0.0481 1.382 0.041 0.145 0.50633 0.698-0.40293 3.57-0.39401 0.531-2.2092 0.035 0.0241 1.4584-1.2367-0.0633-0.37822-0.8962-1.3658 0.32039-1.0777 0.8007-2.6511-0.241-0.87539-0.307-2.4336-0.03-0.13015-6.853 4.8387-0.105 0.94849-2.299-0.0499-1.816"/>
  <path id="Independence__AR" class="c05063" d="m609.12 359.07 2.9328-0.13-0.1034 0.403-0.18542 0.547-0.51347 1.196-1.6045 1.2548 0.0552 2.2092-0.3958 2.958-2.5067 0.08h-1.437l-3.9473 0.09-0.15567-3.9379-0.81599 0.0239-0.39402-3.751 2.4924-1.833 4.5713-0.1 0.025 1.029 1.9826-0.06"/>
  <path id="Jackson__AR" class="c05067" d="m612.06 358.94 3.079-0.05 0.13015 4.09 0.271 6.14 0.10519 2.051-3.9437 0.126-0.13015-2.041-1.8096 0.112 0.0642 0.129-4.4217 0.0824-0.0355-1.9854h1.437l2.5067-0.08 0.3958-2.958-0.0552-2.2092 1.6045-1.2548 0.51347-1.196 0.18542-0.547 0.1034-0.403"/>
  <path id="Woodruff__AR" class="c05147" d="m609.82 369.5-0.0642-0.129 1.8096-0.112 0.13015 2.041 3.9437-0.126 0.19255 4.762 0.1647 3.4186-1.9886 0.0564-1.6456 0.05-0.83795 0.481-0.15154 0.708 0.0232 0.979-1.3835 0.06-0.0624-3.222-1.79 0.08-0.0909-0.255-0.0571-0.603 0.39401-0.531 0.40293-3.57-0.50633-0.698-0.041-0.145 0.0481-1.382 1.5101-1.864"/>
  <path id="St._Francis__AR" class="c05123" d="m625.9 375.48 1.913-0.201 0.16046 3.368 0.0161 2.273-10.034 0.499-1.9077-0.02-0.98592 0.06 0.0392 1.027-0.88901-0.96557-0.20389-2.1074 1.9886-0.0564-0.1647-3.4186 10.068-0.457"/>
  <path id="Crittenden__AR" class="c05035" d="m631.77 368.33 0.0826 0.95529 0.33065-0.0871-3e-3 -0.5322 0.58501-0.24604 1.046 0.89856-0.46921 0.48046 0.1004 0.41812-0.14434 0.75462-0.97029 0.58638 0.26865 0.41812 0.86517-0.0254 0.53298 0.566 0.15059 0.62718-0.54284 0.86711 0.70142 0.32742-0.0595 0.82488-0.59016 0.46514-1.0568-0.37181-0.35021 0.41971-0.58569 1.8158-1.7422 0.16275-0.22464 0.717 0.0321 0.321 0.47246 3.102-2.0966 0.768-0.11232-1.645-0.0161-2.273-0.16046-3.368-1.913 0.201-0.3851-6.878 4.0115-0.16 2.2434-0.113"/>
  <path id="Cross__AR" class="c05037" d="m625.52 368.61 0.3851 6.878-10.068 0.457-0.19255-4.762-0.10519-2.051 1.6955-0.07 4.3074-0.408 1.9612-0.09 2.0164 0.05"/>
  <path id="Poinsett__AR" class="c05111" d="m615.26 362.99 3.4784-0.114 7.3846-0.383 3.038-0.09 0.36192 6.044-4.0115 0.16-2.0164-0.05-1.9612 0.09-4.3074 0.408-1.6955 0.07-0.271-6.14"/>
  <path id="Mississippi__AR" class="c05093" d="m639.6 354.72 0.0852 0.56319 0.89211 0.45974 0.4572 0.43906-0.22462 1.039-1.377-0.24826-0.33517 0.06-0.21496 0.66415 1.2014 0.49515-0.11767 0.9926-1.2435 0.18845-0.20906 0.56085-0.4987 0.58153-1.1194 0.33327-0.63758-0.0999-0.69964 0.62414 0.58304 1.1414 0.93475-0.45166 0.54167 0.7069-0.28588 0.72758-1.4651 0.91378 0.56235 0.76896 0.25979 1.0446-1.314-0.25898-0.31251-0.56102-0.70995 0.059-0.12132 1.0784 0.57815 0.64923-0.26106 1.8925-0.289 0.032-0.77362-0.57834-0.35978-0.9882-0.51378 0.50294-0.8417 0.28677-2.2434 0.113-0.36192-6.044-0.45107-6.847 6.0742-0.433 4.8115-0.39675"/>
  <path id="Craighead__AR" class="c05031" d="m628.71 355.55 0.45107 6.847-3.038 0.09-7.3846 0.383-3.4784 0.114-0.13015-4.09 3.3264-0.0416-0.10474-2.0474 8.5827-0.41 0.30844-0.747 1.4673-0.1"/>
  <path id="Izard__AR" class="c05065" d="m602.57 350.97-0.0232 7.224-2.4924 1.833-0.87717-0.314-1.1733-1.0569-2.7454-0.1586 0.8022-2.0715-9e-3 -0.105-0.33518-0.409-0.10697-0.08-2.2001-1.679h-0.36192l-0.016-0.963 0.98949-0.412-0.025-1.624 8.5738-0.184"/>
  <path id="Lawrence__AR" class="c05075" d="m610.51 350.49 2.2357 1.97 1.2534 1.093 0.57765-0.804 4.3324-0.185 1.1018-0.05 7e-3 0.09-0.34766 0.868-0.50634 0.488-0.26386 0.195-0.72206 2.016 0.17472 0.635 0.10474 2.0474-3.3264 0.0416-3.079 0.05-2.9328 0.13-0.0713-3.085-0.15155-3.496-0.025-1.294 0.3227-0.346 1.3158-0.362"/>
  <path id="Sharp__AR" class="c05135" d="m607.53 345.09 7e-3 0.224 1.1268 1.141 0.66679 0.321 0.73811 1.029 0.3851 1.198 0.0642 1.485-1.3158 0.362-0.3227 0.346 0.025 1.294 0.15155 3.496 0.0713 3.085-1.9826 0.06-0.025-1.029-4.5713 0.1 0.0232-7.224 2.316-0.03-0.0815-2.6381 2.0088-0.0999-0.0713-3.095 0.78624-0.02"/>
  <path id="Greene__AR" class="c05055" d="m618.82 349.85 1.6652-0.123 5.9922-0.144 1.3176 0.602 0.041 0.685 2.2482-0.162-2.8401 4.942-0.30844 0.747-8.5827 0.41-0.17472-0.635 0.72206-2.016 0.26386-0.195 0.50634-0.488 0.34766-0.868-7e-3 -0.09-1.1018 0.05-0.0891-2.714"/>
  <path id="Clay__AR" class="c05021" d="m622.75 344.26 6.5164-0.371 0.49029-0.03 0.72385-0.02 1.6385 2.314 0.17828 0.239 0.11945 1.826-0.19433 0.529-0.12836 0.202-2.0093 1.767-2.2482 0.162-0.041-0.685-1.3176-0.602-5.9922 0.144-1.6652 0.123 1.6599-0.65071-0.31883-3.6258-1.2306-1.1094 3.8189-0.207"/>
  <path id="Randolph__AR" class="c05121" d="m618.93 344.47 1.2306 1.1094 0.31883 3.6258-1.6599 0.65071 0.0891 2.714-4.3324 0.185-0.57765 0.804-1.2534-1.093-2.2357-1.97-0.0642-1.485-0.3851-1.198-0.73811-1.029-0.66679-0.321-1.1268-1.141-7e-3 -0.224 5.1436-0.273 6.265-0.355"/>
  <path id="Fulton__AR" class="c05049" d="m606.74 345.12 0.0713 3.095-2.0088 0.0999 0.0815 2.6381-2.316 0.03-8.5738 0.184-0.0981-5.493 0.54734-0.03 8.219-0.369 4.0774-0.146"/>
  <path id="Baxter__AR" class="c05005" d="m586.95 345.95 6.9496-0.287 0.0981 5.493 0.025 1.624-0.98949 0.412 0.016 0.963h0.36192l0.0321 1.704-1.9542 0.046 0.0109 2.011-1.9861 0.03-0.0232-2.019-0.0107-1.349-0.46355-1.079-0.98236-2.013-0.85043-1.005-0.30487-0.22 0.0874-1.822-0.0161-2.492"/>
  <path id="Marion__AR" class="c05089" d="m582.49 346.11 4.459-0.153 0.0161 2.492-0.0874 1.822 0.30487 0.22 0.85043 1.005 0.98236 2.013 0.46355 1.079 0.0107 1.349-7.8678 0.111-0.0328-0.99434-0.97983 8e-3 0.37618-8.904 1.5048-0.05"/>
  <path id="Boone__AR" class="c05009" d="m580.98 346.15-0.37618 8.904h-0.99663l-6.5574 0.06-0.16759-8.727 8.0978-0.241"/>
  <path id="Carroll__AR" class="c05015" d="m572.88 346.39 0.16759 8.727h-4.6283l-0.64897-0.659-0.50633-0.706-0.16224-0.33v-0.868l-0.2496-0.908-0.49742-0.569-2.9096-0.01-1.0372-1.2074 1e-3 -3.2196 5.1757-0.129 4.9403-0.121h0.35479"/>
  <path id="Benton__AR" class="c05007" d="m558.55 346.73 3.8653-0.08-1e-3 3.2196 1.0372 1.2074-1.2189 0.0358-0.0754 1.6502-0.33485-0.82135-1.8964 0.14437-0.0141 0.95571-5.9487 0.36327-0.82012 1.678-0.19255 1.006-2.9738-0.02-0.21751-1.377-1.1339-7.803 9.9252-0.159"/>
  <path id="Washington__AR" class="c05143" d="m549.97 356.07 2.9738 0.02 0.19255-1.006 0.82012-1.678 5.9487-0.36327 0.0141-0.95571 1.8964-0.14437 0.33485 0.82135-0.96275 3.352-0.17651 5.98v1.679l-2.997-0.03-2.291 0.284-4.5392-0.04-1.2141-7.921"/>
  <path id="Crawford__AR" class="c05033" d="m561.02 363.78h1.3086l-7e-3 0.339-0.33696 0.335-2.3822 1.165-0.71674 0.0323 0.15514 2.3144 0.94339 0.58029-0.25852 1.317-0.34588 1.108-0.28882 0.153-1.1018-0.111-0.15868 0.02-0.1141 0.06-0.16046 0.135-0.0784 0.177 0.0874 0.192 0.27278 0.243 0.0802 0.144 0.0713 0.248-0.0143 0.169-0.0571 0.147-0.13728 0.119-1.1731 0.529-0.30487 0.1-1.2854 0.1-0.47424-0.154-0.43324-0.538-0.0642-0.314 0.0731-0.305v-0.09l-0.10518-0.234-0.61153-0.474-0.30487-0.135-0.2496-0.05-0.0481 0.02-0.33874 1.205-0.84152-5.554-0.4261-2.788 4.5392 0.04 2.291-0.284 2.997 0.03"/>
  <path id="Sebastian__AR" class="c05131" d="m552.46 372.33 0.33874-1.205 0.0481-0.02 0.2496 0.05 0.30487 0.135 0.61153 0.474 0.10518 0.234v0.09l-0.0731 0.305 0.0642 0.314 0.43324 0.538 0.47424 0.154 1.2854-0.1 0.30487-0.1 1.1731-0.529 0.13728-0.119 0.0571-0.147 0.0143-0.169-0.0713-0.248-0.0802-0.144-0.27278-0.243-0.0874-0.192 0.0784-0.177 0.16046-0.135 0.1141-0.06 0.15868-0.02 1.1018 0.111 0.2463 5.3295 0.72536 7e-3 -0.0143 1.694-2.0182-0.02-7e-3 1.012h-0.33875l-1.1892 0.501-0.51525 0.328v0.17h0.42076v2.057l-0.63649 0.264-3.0933 0.668-0.32983-0.06 0.11232-10.34 7e-3 -0.403"/>
  <path id="Scott__AR" class="c05127" d="m558.02 379.14v1.022l1.2676 0.651 2.9738 0.02 3.9455-0.02 0.0499 6.347h-0.65253l-1.5725 0.841-0.88609 1.07-0.97879 0.04v-0.337l-1.6634-0.25h-5.625l-0.071-0.74335-2.5177 0.0614 0.0481-4.748 0.32983 0.06 3.0933-0.669 0.63649-0.263v-2.058h-0.42076v-0.169l0.51525-0.328 1.1892-0.501h0.33875"/>
  <path id="Montgomery__AR" class="c05097" d="m572.19 387.05-0.025 8.019 0.016 1.327h-9.9573l-0.0624-7.297 0.97879-0.04 0.88609-1.069 1.5725-0.842h0.65253l5.9387-0.103"/>
  <path id="Garland__AR" class="c05051" d="m578.16 386.22 1.9843-0.07 0.0571 2.025-6e-3 1.0621 1.2254 0.0359 0.32923 0.97037 1.5606 0.0126 0.33518 0.65 0.0107 1.35-2.291 0.02-0.57765 1.341 0.0392 1.381-8.6612 0.08 0.025-8.019 1.9754-0.747 3.9936-0.09"/>
  <path id="Saline__AR" class="c05125" d="m584.39 384.13 1.6481-0.17406 0.0225 1.3891 1.9772 1.904 2.7563 1.906 3.0238 0.928 0.15867 2.028-2.9738 0.06-3e-3 1.0586-2.8086-6e-3 -1.1731 0.908-0.93957 0.103-0.0569-1.9766-2.3624-7e-3 -0.0107-1.35-0.33518-0.65-1.5606-0.0126-0.32923-0.97037-1.2254-0.0359 6e-3 -1.0621-0.0571-2.025-1.9843 0.07-0.0392-1.993 1.9362-0.08h2.6422l1.503 0.395 0.18542-0.412"/>
  <path id="Pulaski__AR" class="c05119" d="m595.83 380.02 0.94314-0.02 0.14441 6.46-0.13429 2.5343 1.138-0.0103 0.11946 3.054-3.3482 0.05-0.71672 0.02-0.15867-2.028-3.0238-0.928-2.7563-1.906-1.9772-1.904-0.0225-1.3891-1.6481 0.17406h-0.29061l-0.0143-1.333 1.9433-0.378 1.3764-0.346 0.55983-0.387 1.478 0.419 3.81-0.04 0.58478-2.018 1.9932-0.03"/>
  <path id="Lonoke__AR" class="c05085" d="m595.81 378.77 2.4336 0.03 0.87539 0.307 2.6511 0.241 0.0891 2.515 2.0664-0.05-0.14527 5.4848 1.4878 1.2582 0.16759 1.478-9e-3 0.353-0.74702 1.535h-0.51347l-6.1242 0.114-0.11946-3.054-1.138 0.0103 0.13429-2.5343-0.14441-6.46-0.94314 0.02-0.0214-1.252"/>
  <path id="Prairie__AR" class="c05117" d="m601.77 379.35 1.0777-0.8007 1.3658-0.32039 0.37822 0.8962 1.2367 0.0633-0.0241-1.4584 2.2092-0.035 0.0571 0.603 0.0909 0.255 1.79-0.08 0.0624 3.222-0.0309 5.527-1.4924 2e-3 0.0823 1.3938 1.29 0.19255 0.37738 0.96104-4.081 0.1 0.0695 2.009-0.55269 0.05h-0.99663l0.74702-1.535 9e-3 -0.353-0.16759-1.478-1.4878-1.2582 0.14527-5.4848-2.0664 0.05-0.0891-2.515"/>
  <path id="Monroe__AR" class="c05095" d="m610.01 381.69 1.3835-0.06-0.0232-0.979 0.15154-0.708 0.83795-0.481 1.6456-0.05 0.20389 2.1074 0.88901 0.96557 0.10519 3.063 1.0038-0.03 0.0571 2.042 0.15154 4.041 1.0269-0.03 0.016 0.362 0.10697 2.724-1.0144 0.04-0.1355 0.01-0.59548-0.226-0.29596-0.207-1.7116-1.851-1.3354-1.913-0.61687-0.786-1.6242 0.04-0.37738-0.96104-1.29-0.19255-0.0823-1.3938 1.4924-2e-3 0.0309-5.527"/>
  <path id="Lee__AR" class="c05077" d="m615.1 382.49-0.0392-1.027 0.98592-0.06 1.9077 0.02 10.034-0.499 0.11232 1.645-2.8918 4.606-8.9429 0.386-0.0571-2.041-1.0038 0.03-0.10519-3.063"/>
  <path id="Phillips__AR" class="c05107" d="m625.21 387.17 0.25673 2.676 0.20147 2.064-0.1355 0.442-0.0178 0.04-0.041 0.03-0.65075 0.57-0.81834 0.392-0.98949 0.203-0.98593 0.193-1.8007 3.231-0.85399 1.759-0.27278 0.569 0.0642 0.225 9e-3 0.03-3.5265 0.176 0.9057-5.079 1.0144-0.04-0.10697-2.724-0.016-0.362-1.0269 0.03-0.15154-4.041 8.9429-0.387"/>
  <path id="Jefferson__AR" class="c05069" d="m598.04 392.04 6.1242-0.114 0.1355 5.753 2.2518 0.02 0.98949 0.05 0.19077 0.137 1.7686 2.057 0.24961 0.878-0.1462 0.135-0.10341 0.05-1.0679 0.209-1.4245-0.466-2.9328-1.424-0.43324 1.624-3.769 0.184 0.025 0.675-5.2969 0.257-0.0713-2.457 0.30665-1.44-0.14441-6.067 3.3482-0.05"/>
  <path id="Grant__AR" class="c05053" d="m594.69 392.09 0.14441 6.067-0.30665 1.44 0.0713 2.457-1.9433 0.139-1.7668-1.455-1.3104-0.386h-3.473l-0.0303-6.116 0.93957-0.103 1.1731-0.908 2.8086 6e-3 3e-3 -1.0586 2.9738-0.06 0.71672-0.02"/>
  <path id="Hot_Spring__AR" class="c05059" d="m583.66 392.25 2.3624 7e-3 0.0569 1.9766 0.0303 6.116h-5.8657l-0.76307-1.15-6.2828-1.446 0.0258-1.2994-1.0384-0.0417-0.016-1.326 8.6612-0.08-0.0392-1.381 0.57765-1.341 2.291-0.02"/>
  <path id="Dallas__AR" class="c05039" d="m582.17 400.35h7.4114l1.3104 0.387 1.7668 1.455-2.5548 0.257-7e-3 1.856 0.34409 0.06 0.68284 0.617 0.44215 0.636 1.2854 2.266 0.0784 0.419h-4.7317l-5.9049 0.02-0.42789-1.928-0.85005-2.441 1.1549 0.36598v-3.992"/>
  <path id="Cleveland__AR" class="c05025" d="m594.6 402.06 5.2969-0.257-0.15333 6.308 0.0891 2.018-6.7589 0.193-0.14619-2.007-0.0784-0.419-1.2854-2.266-0.44215-0.637-0.68284-0.617-0.34409-0.06 7e-3 -1.856 2.5548-0.257 1.9433-0.139"/>
  <path id="Lincoln__AR" class="c05079" d="m609.5 401 0.5206 1.494 7e-3 0.368-0.79337 0.563-1.5761 0.05 9e-3 3.446 0.0321 1.031-7.9552 0.158 0.15333-6.308-0.025-0.675 3.769-0.184 0.43324-1.624 2.9328 1.424 1.4245 0.466 1.0679-0.209"/>
  <path id="Arkansas__AR" class="c05001" d="m604.17 391.92h1.5101l0.55269-0.05-0.0695-2.009 4.081-0.1 1.6242-0.04 0.61687 0.787 1.3354 1.913 1.7116 1.85 0.29596 0.207 0.59548 0.226 0.1355-0.01-0.9057 5.079-0.93422 0.635-0.29596 0.281-0.15511 0.25-0.0214 0.522 0.0553 0.345 0.3958 0.395 0.87539 1.35-0.33874 0.451-2.3142-0.685-1.1321-0.691-1.7615-0.145-0.5206-1.494 0.10341-0.05 0.1462-0.135-0.24961-0.878-1.7686-2.057-0.19077-0.137-0.98949-0.05-2.2518-0.02-0.1355-5.754"/>
  <path id="Desha__AR" class="c05041" d="m619.18 399.61 0.85221 0.682 0.20146 0.5-0.11232 0.772-3.7137 1.87-1.5261 6.573-0.10519 0.523 0.025 0.05 0.1141 0.203 0.56874 0.426 0.53842 0.435v0.02l-0.0499 0.247-0.33696 0.289-1.4049 0.565-0.29774 1.036-1.4067 0.04-0.5206-0.32-0.10519-0.691-1.9772 0.1-0.15164-5.0132-2.0662 0.0392-0.0321-1.031-9e-3 -3.446 1.5761-0.05 0.79337-0.563-7e-3 -0.368 1.7615 0.145 1.1321 0.691 2.3142 0.685 0.33874-0.451-0.87539-1.35-0.3958-0.395-0.0553-0.345 0.0214-0.522 0.15511-0.25 0.29596-0.281 0.93422-0.635 3.5265-0.176"/>
  <path id="Drew__AR" class="c05043" d="m599.75 408.11 7.9552-0.158 2.0662-0.0392 0.15164 5.0132 0.12123 4.033-10.182 0.239-0.21038-0.296-0.312-0.924-0.0178-0.112 0.0588-1.632 0.0143-0.04 0.60261-0.03-0.15868-4.033-0.0891-2.018"/>
  <path id="Bradley__AR" class="c05011" d="m593.08 410.32 6.7589-0.193 0.15868 4.033-0.60261 0.03-0.0143 0.04-0.0588 1.632 0.0178 0.112 0.312 0.924 0.21038 0.296 0.5937 0.435-0.25674 1.775-0.55269 0.467-0.37975 0.106-0.84151 0.681-0.70958 0.925-0.44929 1.155-1.6884-1.283-2.5049-1.295-0.0499-0.248 0.0499-0.146-0.53842-0.344-0.11411-0.717 0.082-0.716 0.16046-0.1 0.0802 0.03 0.32092-0.812 0.43324-1.29 0.14441-0.717-0.35123-3.222-0.21038-1.567"/>
  <path id="Calhoun__AR" class="c05013" d="m588.2 408.32h4.7317l0.14619 2.007 0.21038 1.567 0.35123 3.222-0.14441 0.717-0.43324 1.29-0.32092 0.812-0.0802-0.03-0.16046 0.1-0.082 0.717 0.11411 0.716 0.53842 0.344-0.56338 0.491-0.83617 0.176-0.36905-0.02-0.57944-0.449 0.0267-0.06-0.17829-0.715-1.4299-0.771-0.27278-0.07-2.685-1.383-1.2034-1.375-0.16224-0.394-0.0642-0.818 0.92346-0.56259-0.0891-1.8644 0.13015-0.105 1.2694-0.217 0.0874-0.07 0.61866-0.973 0.50633-2.266"/>
  <path id="Ouachita__AR" class="c05103" d="m582.29 408.34 5.9049-0.02-0.50633 2.266-0.61866 0.973-0.0874 0.07-1.2694 0.217-0.13015 0.105 0.0891 1.8644-0.92346 0.56259 0.0642 0.818 0.16224 0.394 1.2034 1.375 2.685 1.383-7.8678 0.04-2.6833 0.0204 7e-5 -1.6924v-7.49l3.9776-0.884"/>
  <path id="Nevada__AR" class="c05099" d="m573.09 405.22 1.3728 1.97 2.9649 1.26 0.40114 0.225 0.49207 0.547v7.49l-4.7496 0.335-2.294 0.0545 0.0279-0.71948 9e-3 -4.548 0.19968-3.519v-3.054l1.576-0.04"/>
  <path id="Hempstead__AR" class="c05057" d="m564.54 404.24 6.9746 1.027v3.054l-0.19968 3.519-9e-3 4.548-4.582-0.03-2.0307-2.908-2.0603-1.2604-0.51238-1.9376 2.3944 0.01 0.025-6.031"/>
  <path id="Clark__AR" class="c05019" d="m570.86 396.4h1.3247l1.0384 0.0417-0.0258 1.2994 6.2828 1.446 0.76307 1.15h1.9273v3.991l-1.1549-0.36548 0.85005 2.4415 0.42789 1.927-3.9776 0.884-0.49207-0.547-0.40114-0.225-2.9649-1.26-1.3728-1.97-1.1089-2.065-0.28348-0.779-0.81834-3.954-0.0143-2.024"/>
  <path id="Pike__AR" class="c05109" d="m562.23 396.4h8.6326l0.0143 2.024 0.81834 3.954 0.28348 0.779 1.1089 2.065-1.576 0.04-6.9746-1.027-0.0481-4.044-1.9915-0.02-0.24961-1.767-0.0178-2.007"/>
  <path id="Howard__AR" class="c05061" d="m562.23 396.4 0.0178 2.007 0.24961 1.767 1.9915 0.02 0.0481 4.044-0.025 6.031-2.3944-0.01h-0.0321l-2.1198-3.808-0.0802-0.234-0.37084-2.443-0.13728-1.1-0.0571-1.745 0.0731-0.699-0.2086-0.1-2.7082 0.03-0.26386-1.774-0.0107-1.993h6.0279"/>
  <path id="Polk__AR" class="c05113" d="m552.29 387.82 2.5177-0.0604 0.071 0.74335h5.625l1.6634 0.25v0.337l0.0624 7.297h-6.0279l0.0107 1.993 0.26386 1.774-4.2824 0.13 0.0963-12.464"/>
  <path id="Sevier__AR" class="c05133" d="m556.47 400.16 2.7082-0.03 0.2086 0.1-0.0731 0.699 0.0571 1.746 0.13728 1.1 0.37084 2.442 0.0802 0.234 2.1198 3.808-1.5743-0.02-4.9992-1.48-3.3589-2.701 0.041-5.761 4.2824-0.13"/>
  <path id="Little_River__AR" class="c05081" d="m552.15 406.05 3.3589 2.701 4.9992 1.48 1.5743 0.02h0.0321l0.51238 1.9376 2.0603 1.2604-4.1149 1.421-0.4582-0.378-0.353-0.144-1.8488-0.371-1.0697 0.155-0.27991 0.03-0.0963 0.09-1.8488 0.938-1.0287-0.561-0.27991-0.184-0.7809-0.499-0.12658-0.17-0.1462-0.335-0.15154-0.394 0.0463-7.001"/>
  <path id="Miller__AR" class="c05091" d="m564.69 413.45 2.0307 2.908-0.13549 1.478 1.3193 1.954v0.121l-0.31378 1.02-1.4388 2.539-0.13728 0.177-0.1355 0.128-0.22464 0.03-1.0768 1.911 0.82725 1.359h-0.18542l-4.3859 0.1-0.25852-12.304 4.1149-1.421"/>
  <path id="Lafayette__AR" class="c05073" d="m566.72 416.36 4.582 0.03-0.0279 0.71948 2.294-0.0545-0.2086 0.266-1.897 4.051-0.0232 5.585h-0.58835l-5.4467 0.121-0.82725-1.358 1.0768-1.911 0.22464-0.03 0.1355-0.129 0.13728-0.176 1.4388-2.539 0.31378-1.02v-0.121l-1.3193-1.954 0.13549-1.478"/>
  <path id="Columbia__AR" class="c05027" d="m573.57 417.05 4.7496-0.335-7e-5 1.6924 2.6833-0.0204 0.0713 8.307-4.7959 0.13-4.8369 0.128 0.0232-5.586 1.897-4.05 0.2086-0.266"/>
  <path id="Union__AR" class="c05139" d="m581 418.39 7.8678-0.04 0.27278 0.07 1.4299 0.771 0.17829 0.715-0.0267 0.06 0.57944 0.449 0.36905 0.02 0.83617-0.176 0.56338-0.491-0.0499 0.147 0.0499 0.247 2.5049 1.295 1.6884 1.283 1.462 3.522-12.592 0.338-5.0616 0.1-0.0713-8.307"/>

 </g>
</svg>
























