<svg width="600" height="500" version="1.0" xmlns="http://www.w3.org/2000/svg">
 <g id="county-group" class="counties" transform="scale(15), translate(-900 -165)" style="fill:#d3d3d3;stroke-width:.17829;stroke:#000">
<path id="Hartford__CT" class="c09003" d="m910.38 171.67 3.1779-0.74731 0.22757 0.87968 0.82688-0.25166 0.049-0.89993 3.9788-0.93278 0.77198 1.888-0.50103 0.13505 0.48085 1.91 0.3197-0.0698 0.14846 1.1444 0.48574-0.2036 1.3114 2.9161 0.35685 0.16748 0.56266 0.75038 0.0571 0.127 0.0963 0.531-0.82725 0.643-1.0038-1.253-1.995 0.66-1.3568 0.642-0.36192 1.253-2.9268 1.0966-0.5598-1.7687-0.68358 0.26216-1.4388-3.43 1.0786-0.459 0.0945-4.002-2.3142 0.731-0.0553-1.719"/>
  <path id="Litchfield__CT" class="c09005" d="m909.64 171.84 0.73989-0.168 0.0553 1.719 2.3142-0.731-0.0945 4.002-1.0786 0.459 1.4388 3.43-1.7757 2.218-0.65852 0.34006 0.3381 0.96295-2.7497 0.86699-0.0553 0.306 0.0374 0.191 0.1462 0.146 0.21751 0.136-0.0321 0.05h-0.24069l-0.77515-0.246-0.35728-0.42266-0.73867 0.5944-0.39671-0.63874-0.14976-0.264-0.3227-0.531-0.90035-1.89-0.14441-0.168-0.46712-0.1-1.5743-8.743 7.2242-1.528"/>
  <path id="Fairfield__CT" class="c09001" d="m904.53 185.29-0.54556-3.182 0.46712 0.1 0.14441 0.168 0.90035 1.89 0.3227 0.531 0.14976 0.264 0.39671 0.63874 0.73867-0.5944 0.35728 0.42266 0.77515 0.246h0.24069l0.0321-0.05 0.62579 0.233 1.3514 0.442 2.9881 2.115-0.0571 1.116-0.2086 0.481-0.041 0.186 0.0499 1.094 0.0481 0.109 0.27456 0.171-1.1589 0.314-2.9096 2.2-3.9918 3.389-0.0981 0.188-0.0499 0.247-1.7971-2.312 1.2516-1.278 2.264-2.3339-1.6114-1.4831-0.2817-1.623-0.62757-3.68"/>
  <path id="New_Haven__CT" class="c09009" d="m917.18 180.96 0.58656 1.792 0.2953 1.5488 0.92597-0.28684 0.62043-0.307 0.24069 0.154 0.74702 0.843 2.0075 2.492-0.88431-0.05-0.5616 0.136-2.3142 0.7-1.4459 0.608-0.78803 0.115-0.37084-0.459-0.1355 0.06-1.9612 2.283-0.26564 0.371-0.31379 0.594-0.0214 0.09v0.02l-0.27456-0.171-0.0481-0.109-0.0499-1.094 0.041-0.186 0.2086-0.481 0.0571-1.116-2.9881-2.115-1.3514-0.442-0.62579-0.233-0.21751-0.136-0.1462-0.146-0.0374-0.191 0.0553-0.306 2.7497-0.86699-0.3381-0.96295 0.65852-0.34006 1.7757-2.218 0.68358-0.26216 0.5598 1.7687 2.9268-1.0966"/>
  <path id="Middlesex__CT" class="c09007" d="m921.9 179.66 0.9834 0.86094 1.686-0.52982 0.78267 2.0366-1.8698 0.78925 2.2991 3.071-3.1753 1.31-2.0075-2.492-0.74702-0.843-0.24069-0.154-0.62043 0.307-0.92597 0.28662-0.2956-1.5486-0.58626-1.792 0.36192-1.253 1.3568-0.642 1.995-0.66 1.0038 1.253"/>
  <path id="New_London__CT" class="c09011" d="m933.05 176.48 0.96081 3.9425-0.0783 0.0701-0.26579-3e-3 -0.274 0.35605 0.0488 0.31509 0.20975 0.25828 0.0393 0.44768 0.20028 0.26774 0.0406 0.21847-0.23405 0.3037-0.11093 0.0764-0.10146 0.19952-0.5057-0.20947-0.99405 0.29866-0.629 0.50681-0.3464 0.27884-1.286 0.14348-0.33613 0.62381-0.44615 0.1009-0.46959-0.0718-0.29481-0.22121-0.3019 0.11786 0.0195 0.63166-0.871 0.4035-0.90748 0.355-0.16937 0.02-0.16759-0.03-2.2991-3.071 1.8698-0.78925-0.78267-2.0366-1.686 0.52982-0.9834-0.86094 0.82725-0.643 1.2615-0.60147 0.93146-2.6365 1.0929 0.626 0.58656 0.291 3.5354-0.355 1.503-0.617 1.1589-0.202 0.25495 0.965m-2.1582 8.8071 0.18785-0.60504 0.18662-0.0129 0.10743 0.0977 0.12855-0.36953 0.58387-0.31957 0.2143-0.16388 0.2563-0.10113-0.0594 0.29583-0.32804 0.24894-0.45893 0.33465-0.21661 0.4029-0.23153-2e-3z"/>
  <path id="Tolland__CT" class="c09013" d="m925.38 168.14 0.4475 1.549-1.5868 0.401-0.34587 0.112 0.68997 2.766 0.78803-0.18352 0.68997 1.7505-0.62433-2e-3 0.13582 0.5795-1.0033 0.2528 0.35075 0.4072-0.93146 2.6365-1.2615 0.60147-0.0963-0.531-0.0571-0.127-0.56266-0.75038-0.35685-0.16748-1.3114-2.9161-0.48574 0.2036-0.14846-1.1444-0.3197 0.0698-0.48085-1.91 0.50103-0.13505-0.77198-1.888 6.1794-1.464 0.56161-0.11"/>
  <path id="Windham__CT" class="c09015" d="m930.49 167.31 1.8096 6.307 0.4992 1.897-1.1589 0.202-1.503 0.617-3.5354 0.355-0.58656-0.291-1.0929-0.626-0.35075-0.4072 1.0033-0.2528-0.13582-0.5795 0.62433 2e-3 -0.68997-1.7505-0.78803 0.18352-0.68997-2.766 0.34587-0.112 1.5868-0.401-0.4475-1.549 0.7078-0.147 4.2896-1.019 0.11232 0.337"/>
 </g>
</svg>