<svg width="500" height="800" version="1.0" xmlns="http://www.w3.org/2000/svg">
 <g id="county-group" class="counties" transform="scale(7), translate(-660 -210)" style="fill:#d3d3d3;stroke-width:.17829;stroke:#000">
  <path id="Porter__IN" class="18127" d="m677.91 218.94 1.0965 10.913-0.14619 0.192-0.49207 0.275-0.15155-0.04-1.3264-0.841-0.93066-0.323-0.34588-0.09-0.19255 0.04-0.97166 0.563-0.40293 0.578-0.87717-8.799 4.7406-2.467"/>
  <path id="Lake__IN" class="18089" d="m667.86 219.93 5.3094 1.479 0.87717 8.799-0.92531 0.628-1.9334 1.2776-2.2528 0.31939-0.27278-3.045-0.80229-9.458"/>
  <path id="Perry__IN" class="18123" d="m690.04 298.02 1.9433-0.272 0.20296 1.2844 1.8955-0.10436 0.2906 2.542-0.35479 1.211-0.10519 0.01-0.36905 0.07-0.0963 0.06-0.0731 0.104-0.0303 0.251 0.1355 1.373-1.1731 2.674-0.49921 0.387-0.2389 0.08h-0.13728l-3.1967-3.316-0.0588-4.814-0.11054-1.012 2.0253-0.17-0.0499-0.346"/>
  <path id="Spencer__IN" class="18147" d="m688.18 299.55 0.0588 4.814-2.7973 1.854-1.1179 1.047-1.3425 2.425-2.6262-1.751-0.0874-1.109 0.0303-0.09 3.0451-4.598 0.94154-0.045-0.13746-2.123 4.0328-0.426"/>
  <path id="Warrick__IN" class="18173" d="m678.71 299.49 4.3805-0.1 0.0464 0.64917 1.0055-0.0702 0.13746 2.123-0.94154 0.045-3.0451 4.598-0.0303 0.09 0.0874 1.109-0.64361-0.45-2.7563-0.739-0.1765-2.17-0.41898 0.04-0.15867-2.009-9e-3 -1.013-0.0571-0.827 2.6707-0.257-0.0909-1.02"/>
  <path id="Vanderburgh__IN" class="18163" d="m672.23 301.88 3.9544-0.28 9e-3 1.013 0.15867 2.009 0.41898-0.04 0.1765 2.17-1.5026 0.43681-1.0138-1.151-0.43221 1.6764 0.81185 0.98166-0.67758 0.94419-1.0492-0.26756 0.2272-1.4954-0.75836 0.20098-0.3227-6.197"/>
  <path id="Posey__IN" class="18129" d="m667.34 300.87-0.0234 0.10938-0.10352 2.4121-0.25781 5.3242-0.0488 0.0996-0.01 0.0215-0.0391 0.0293h-0.0313l-0.85937 0.0293 0.90625 2.0352 0.83113-0.0668 0.66431 0.42621 0.37813-0.65038 0.44626-0.29606-0.84836-1.3726 0.13595-0.56964 4.0742-0.32421-0.32226-6.1953-0.0366-0.47457-2.4088-0.0313 0.0186-0.5849z"/>
  <path id="Gibson__IN" class="18051" d="m675.51 293.1-4.7012 3.1719v-6e-3l-3.4629 4.5977 2.4659-0.0771-0.0186 0.58295 2.4088 0.0332 0.0366 0.47262 3.9551-0.27929-0.0566-0.82813 2.6699-0.25586-0.36523-4.1152-0.15234-0.0606-0.94532 0.16016-0.25 0.0898-1.0547-1.2715-0.39258-0.65039z"/>
  <path id="Pike__IN" class="18125" d="m679.41 292.47 3.079 0.417 0.60261 6.509-4.3805 0.1-0.27456-3.095-0.15154-0.06-0.94671 0.16-0.2496 0.09-1.0537-1.271-0.39223-0.651-0.13728-1.565 0.65075-0.233 1.182-0.186 0.11945 0.03 0.97345 0.656 0.22999-0.06 0.30666-0.273 0.23355-0.234 0.2086-0.329"/>
  <path id="Dubois__IN" class="18037" d="m689.4 291.95 0.31379 3.028 0.32983 3.039 0.0499 0.346-2.0253 0.17 0.11054 1.012-4.0328 0.426-1.0055 0.0702-0.0464-0.64917-0.60261-6.509 2.6583-0.01 1.0454-0.61325 3.205-0.30475"/>
  <path id="Crawford__IN" class="18025" d="m696.29 293.67 0.95562-0.09 0.40293 6.776-3.6246 2.329 0.35479-1.211-0.2906-2.542-1.8955 0.10436-0.20296-1.2844-1.9433 0.272-0.32983-3.039 4.0828-0.448 2.5548-0.2-0.0642-0.666"/>
  <path id="Harrison__IN" class="18061" d="m701.2 293.27 0.21751 2.009 0.39401 0.635h0.0571l0.73098 0.538 0.36905 0.305 0.0391 1.5281 1.1108 0.0889 0.0232 0.177-0.44215 4.041-0.86826 0.296-0.53664 0.177-2.5959-0.128-0.12837-0.02-0.78089-0.307-0.81121-0.537-0.0874-0.06-0.041-0.06-0.10519-0.161-0.12836-0.449-0.0161-0.04-7e-3 -0.105-7e-3 -0.161v-0.04l0.0553-0.649-0.40293-6.776 3.9615-0.305"/>
  <path id="Floyd__IN" class="18043" d="m701.88 293.19 0.0178 0.168 0.51347 0.119 2.8205-0.319 0.98058 1.157-0.39402 1.478-1.6723 2.757-0.0232-0.177-1.1108-0.0889-0.0391-1.5281-0.36905-0.305-0.73098-0.538h-0.0571l-0.39401-0.635-0.21751-2.009 0.6757-0.08"/>
  <path id="Clark__IN" class="18019" d="m708.95 288.05 1.2944-0.055 1.2944 0.22803 0.0553 1.449-3.2787 3.712-2.4978 2.41 0.39402-1.478-0.98058-1.157-2.8205 0.319-0.51347-0.119-0.0178-0.168-0.14441-1.624 0.77912-0.394 1.1089-0.15 0.29774-0.379 0.25673-0.701-0.041-0.319 0.46042-0.42888 0.083-0.85347 4.2703-0.29165"/>
  <path id="Ohio__IN" class="18115" d="m715.8 279.31 4.2611-2.418 1.774 2.828-6.0404 0.02 5e-3 -0.433"/>
  <path id="Switzerland__IN" class="18155" d="m715.8 279.74 6.0404-0.02 0.24247 1.003-3.8902 2.63-2.9239 2.001-0.61865-5.11-0.0716-0.42886 1.2216-0.0721"/>
  <path id="Jefferson__IN" class="18077" d="m710.38 280.73 4.2682-0.495 0.61865 5.11-2.4835-0.862-1.2444 3.736-1.2944-0.22803-1.2944 0.055-0.20147-1.673-0.68997-0.256-0.53129-0.291-0.57587-0.612-0.3958-0.506-0.14441-1.262 1.2694-0.344 0.56161-0.901 0.17828-0.543 0.32092-0.728 1.6385-0.2"/>
  <path id="Scott__IN" class="18143" d="m706.41 283.45 0.14441 1.262 0.3958 0.506 0.57587 0.612 0.53129 0.291 0.68997 0.256 0.20147 1.673-4.2703 0.29165-0.083 0.85347-0.46042 0.42888-0.0865-0.66032-0.65265 1.5e-4 -0.40897-3.2548 1.0421-0.57768 0.42879-1.2853 1.9522-0.396"/>
  <path id="Washington__IN" class="18175" d="m696.07 285.75 6.9175-0.04 0.40897 3.2548 0.65265-1.4e-4 0.0865 0.66031 0.041 0.319-0.25673 0.701-0.29774 0.379-1.1089 0.15-0.77912 0.394 0.14441 1.624-0.6757 0.08-3.9615 0.305-0.95562 0.09-0.62579-6.117-0.06-1.058 0.47008-0.73997"/>
  <path id="Orange__IN" class="18117" d="m695.66 287.55 0.62579 6.117 0.0642 0.666-2.5548 0.2-4.0828 0.448-0.31379-3.028-0.37618-3.696 6.6376-0.707"/>
  <path id="Martin__IN" class="18101" d="m684.62 283.61 3.9134-0.39 0.49029 5.036 0.37618 3.696-3.205 0.30475-1.0454 0.61325-0.52951-9.26"/>
  <path id="Daviess__IN" class="18027" d="m681.18 283.94 3.4392-0.332 0.52951 9.26-2.6583 0.01-3.079-0.417-0.80229-3.522 0.24068-1.886 0.31379-0.62 1.503-2.088 0.51346-0.41"/>
  <path id="Knox__IN" class="18083" d="m678.66 284.09 2.5228-0.144-0.51346 0.41-1.503 2.088-0.31379 0.62-0.24068 1.886 0.80229 3.522-0.2086 0.329-0.23355 0.234-0.30666 0.273-0.22999 0.06-0.97345-0.656-0.11945-0.03-1.182 0.186-0.65075 0.233-4.7014 3.172 1.2783-3.68 0.34588-0.941 1.4067-1.799 0.14263-0.12 0.17651-0.322 0.25138-1.462 7e-3 -0.562-0.68462-1.471-0.0392-0.06h-0.0731l-0.14441-1.146 5.1846-0.605"/>
  <path id="Sullivan__IN" class="18153" d="m677.91 275.99 0.17829 2.009 0.56338 6.09-5.1846 0.605 0.10519-0.145 0.12836-0.363 0.0481-0.733-1.2765-2.28-0.83617-0.983-0.36192-1.235 0.23355-2.395 6.4023-0.57"/>
  <path id="Greene__IN" class="18055" d="m681.38 277.78 6.5574-0.577 0.40115 3.993 0.19255 2.026-3.9134 0.39-3.4392 0.332-2.5228 0.144-0.56338-6.09 3.2876-0.218"/>
  <path id="Lawrence__IN" class="18093" d="m688.34 281.19 6.4433-0.611 0.85565-0.093 0.43158 5.261-0.47008 0.73997 0.06 1.058-6.6376 0.707-0.49029-5.036-0.19255-2.026"/>
  <path id="Jackson__IN" class="18071" d="m698.83 278.78 4.0052-0.4894 0.90484-0.4486 0.71493 6.002-0.42879 1.2853-1.0421 0.57768-6.9175 0.04-0.43158-5.261-0.85565 0.093-0.14441-1.334 4.1951-0.467"/>
  <path id="Jennings__IN" class="18079" d="m709.75 274.22 0.63292 6.516-1.6385 0.2-0.32092 0.728-0.17828 0.543-0.56161 0.901-1.2694 0.344-1.9522 0.396-0.71493-6.002-0.17-1.2563 1.9921-0.39966 2.6701-0.62827 1.5107-1.3417"/>
  <path id="Ripley__IN" class="18137" d="m716.03 270.9-0.22464 8.405-5e-3 0.433-1.2216 0.0721 0.0716 0.42886-4.2682 0.495-0.63292-6.516 2.3302-1.961 1.2174-0.85686 2.7335-0.50014"/>
  <path id="Dearborn__IN" class="18029" d="m716.03 270.9 4.3252-0.458 0.52951 4.598-0.81833 1.847-4.2611 2.418 0.22464-8.405"/>
  <path id="Franklin__IN" class="18047" d="m719.84 265.44 0.51346 4.999-4.3252 0.458-2.7335 0.50014-1.2174 0.85686-0.4992-4.258-0.20147-1.654 4.5873-0.547 3.876-0.355"/>
  <path id="Decatur__IN" class="18031" d="m705.76 268.66 5.8175-0.66 0.4992 4.258-2.3302 1.961-1.5107 1.3417-2.6701 0.62827-0.51347-5.054 0.9548-0.20147-0.247-2.2735"/>
  <path id="Bartholomew__IN" class="18005" d="m705.05 271.13 0.51347 5.054-1.9921 0.39966 0.17 1.2563-0.90484 0.4486-4.0052 0.4894-0.80229-6.766 2.3373-0.312 4.6836-0.57"/>
  <path id="Brown__IN" class="18013" d="m695.11 272.38 2.9186-0.364 0.80229 6.766-4.1951 0.467-1.0855 0.14722-0.71342-6.7362 2.2732-0.28"/>
  <path id="Monroe__IN" class="18105" d="m688.44 272.91 4.3948-0.248 0.71342 6.7362 1.0855-0.14722 0.14441 1.334-6.4433 0.611-0.40115-3.993-0.35086-4.2374 0.8572-0.0556"/>
  <path id="Owen__IN" class="18119" d="m682.73 270.55 4.4429-0.36 1.1235-0.0789 0.14773 2.8019-0.8572 0.0556 0.35086 4.2374-6.5574 0.577-0.36192-4.032 1.9505-0.17-0.23891-3.031"/>
  <path id="Clay__IN" class="18021" d="m677.89 267.89 3.268-0.258 0.24934 3.0634 1.3196-0.14735 0.23891 3.031-1.9505 0.17 0.36192 4.032-3.2876 0.218-0.17829-2.009-0.52773-6.044 0.67392-0.04-0.16759-2.017"/>
  <path id="Vigo__IN" class="18167" d="m677.89 267.89 0.16759 2.017-0.67392 0.04 0.52773 6.044-6.4023 0.57 0.82012-5.143-0.27456-3.004 2.6208-0.25 3.2145-0.273"/>
  <path id="Vermillion__IN" class="18165" d="m673.17 256.21 0.12836 4.06 0.80408 1.052 0.22642 0.298 0.31914 0.634-0.15155 4.113 0.18542 1.794-2.6208 0.25-0.58656-6.364-0.51347-6.115 2.209 0.278"/>
  <path id="Parke__IN" class="18121" d="m679.04 259.73 0.20016 1.951 1.408-0.093 0.51169 6.041-3.268 0.258-3.2145 0.273-0.18542-1.794 0.15155-4.113-0.31914-0.634-0.22642-0.298-0.80408-1.052 5.7462-0.539"/>
  <path id="Putnam__IN" class="18133" d="m680.65 261.59 5.4877-0.492 0.14441-0.02 0.30487 3.158 0.22092 2.245 0.30324-0.019 0.29596 0.651 0.0548 1.0145-0.43915 0.60285 0.15078 1.4527-4.4429 0.36-1.3196 0.14735-0.24934-3.0634-0.51169-6.041"/>
  <path id="Morgan__IN" class="18109" d="m694.45 265.64 0.65788 6.736-2.2732 0.28-4.3948 0.248-0.14773-2.8019-1.1235 0.0789-0.15078-1.4527 0.43915-0.60285-0.0548-1.0145 3.3518-0.33-0.0731-0.674 2.266-0.272 0.16938-0.02 1.3336-0.179"/>
  <path id="Johnson__IN" class="18081" d="m699.65 265 0.71493 6.709-2.3373 0.312-2.9186 0.364-0.65788-6.736 5.1988-0.649"/>
  <path id="Shelby__IN" class="18145" d="m699.52 263.64 5.5608-0.633 0.68284 5.657 0.247 2.2735-0.9548 0.20147-4.6836 0.57-0.71493-6.709-0.13728-1.36"/>
  <path id="Rush__IN" class="18139" d="m705.49 260.9 5.1525-0.596 0.93958 7.691-5.8175 0.66-0.68284-5.657-0.26146-2.0112 0.66974-0.0868"/>
  <path id="Fayette__IN" class="18041" d="m710.64 260.31 1.3978-0.176 0.65967-0.07 0.16759 1.68 2.628-0.28 0.47246 4.338-4.5873 0.547-0.73811-6.037"/>
  <path id="Union__IN" class="18161" d="m715.49 261.46 3.8082-0.726 0.41897 3.666 0.12124 1.043-3.876 0.355-0.47246-4.338"/>
  <path id="Wayne__IN" class="18177" d="m718.6 254.31 0.2086 2.034 0.48851 4.386-3.8082 0.726-2.628 0.28-0.16759-1.68-0.65967 0.07-0.26284-2.1916 0.27096-0.0342-0.23454-2.7882 6.7927-0.804"/>
  <path id="Henry__IN" class="18065" d="m705.11 254.18 6.2935-0.701 0.13652 1.643 0.26997-3e-3 0.23454 2.7882-0.27096 0.0342 0.26284 2.1916-1.3978 0.176-5.1525 0.596-0.27541-2.1058 0.46954-0.0571-0.24043-1.5421-0.32984-3.02"/>
  <path id="Hancock__IN" class="18059" d="m705.44 257.2 0.24038 1.5421-0.46957 0.0571 0.27539 2.1058-0.66974 0.0868 0.26146 2.0112-5.5608 0.633-0.32092-5.325 1.3176-0.1028-0.0482-0.4132 4.9742-0.595"/>
  <path id="Marion__IN" class="18097" d="m699.2 258.31 0.32092 5.325 0.13728 1.36-5.1988 0.649-1.3336 0.179-0.68463-6.736 1.4887-0.191 5.2702-0.586"/>
  <path id="Hendricks__IN" class="18063" d="m692.44 259.09 0.68463 6.736-0.16938 0.02-2.266 0.272 0.0731 0.674-3.3518 0.33-0.29596-0.651-0.30324 0.019-0.22092-2.245-0.30487-3.158-0.14441 0.02-0.12837-1.333 6.4272-0.676"/>
  <path id="Boone__IN" class="18011" d="m693.29 253.02 0.63648 5.874-1.4887 0.191-6.4272 0.676-0.59548-5.898 7.8749-0.843"/>
  <path id="Hamilton__IN" class="18057" d="m693.2 252.21 6.5984-0.762 0.6668 6.347 0.0482 0.4132-1.3176 0.1028-5.2702 0.586-0.63648-5.874-0.0892-0.813"/>
  <path id="Randolph__IN" class="18135" d="m710.72 248.19 7.1743-0.908 0.70958 7.032-6.7927 0.804-0.26997 3e-3 -0.13652-1.643-0.68463-5.288"/>
  <path id="Delaware__IN" class="18035" d="m710.51 246.53 0.20859 1.662 0.68463 5.288-6.2935 0.701-0.80229-6.961 2.3213-0.248 3.8813-0.442"/>
  <path id="Madison__IN" class="18095" d="m704.31 247.22 0.80229 6.961 0.32984 3.02-4.9742 0.595-0.6668-6.347-0.40292-3.674 4.9118-0.555"/>
  <path id="Tipton__IN" class="18159" d="m699.39 247.77 0.40292 3.674-6.5984 0.762-0.3851-3.641-0.0534-0.61047 6.5698-0.83553 0.0642 0.651"/>
  <path id="Clinton__IN" class="18023" d="m684.86 248.01 5.5198-0.545 1.15-0.112 0.10519 0.996 0.52952 0.289 0.65074-0.07 0.3851 3.641 0.0892 0.813-7.8749 0.843-0.0802-0.827-0.47424-5.025"/>
  <path id="Montgomery__IN" class="18107" d="m685.33 253.04 0.0802 0.827 0.59548 5.898 0.12837 1.333-5.4877 0.492-1.408 0.093-0.20016-1.951-0.59548-6.042 6.8872-0.65"/>
  <path id="Fountain__IN" class="18045" d="m678.45 253.69 0.59548 6.042-5.7462 0.539-0.12836-4.06-0.54556-0.586-0.0891-0.216 0.016-0.121 0.23534-0.448 2.7706-2.909 0.42611-0.353 2.1448-1.384 0.32091 3.496"/>
  <path id="Jay__IN" class="18075" d="m717.2 241.25 0.56874 5.056 0.11945 0.977-7.1743 0.908-0.20859-1.662 0.30501-0.0387-0.47439-4.3253 2.2839-0.289 4.5802-0.626"/>
  <path id="Blackford__IN" class="18009" d="m706.1 242.66 4.2432-0.492 0.47439 4.3253-0.30501 0.0387-3.8813 0.442-0.5313-4.314"/>
  <path id="Grant__IN" class="18053" d="m702.58 241.03 3.268-0.376 0.2496 2 0.5313 4.314-2.3213 0.248-4.9118 0.555-0.0642-0.651-0.4261-3.655-0.22286-1.986 3.8974-0.449"/>
  <path id="Howard__IN" class="18067" d="m693.71 244.08 5.1899-0.61 0.4261 3.655-6.5698 0.83553 0.0534 0.61047-0.65074 0.07-0.52952-0.289-0.10519-0.996-1.15 0.112-0.27278-2.981 3.6085-0.41"/>
  <path id="Carroll__IN" class="18015" d="m690.11 244.49 0.27278 2.981-5.5198 0.545-0.35408-2.98-1.2594 0.112-0.21751-1.919 0.0874-1.904 0.066-0.162 0.0713-0.09 2.8686-0.245 0.9788-0.09 0.10461 0.87649 2.6036-0.15249 0.29774 3.029"/>
  <path id="Tippecanoe__IN" class="18157" d="m677.64 245.67 5.6036-0.524 1.2605-0.112 0.35297 2.98 0.47424 5.025-6.8872 0.65-0.32091-3.496-0.26565-2.515-0.21751-2.008"/>
  <path id="Warren__IN" class="18171" d="m670.36 248.33 7.4952-0.65 0.26565 2.515-2.1448 1.384-0.42611 0.353-2.7706 2.909-0.23534 0.448-0.016 0.121 0.0891 0.216 0.54556 0.586-2.209-0.278-0.59369-7.604"/>
  <path id="Benton__IN" class="18007" d="m674.3 241.94 2.9096-0.271 0.65075 6.009-7.4952 0.65-0.0267-0.328-0.50455-5.666 4.4661-0.394"/>
  <path id="Adams__IN" class="18001" d="m716.24 233.2 0.542 4.468 0.42075 3.583-4.5802 0.626-1.0216-8.026 4.639-0.651"/>
  <path id="Wells__IN" class="18179" d="m707.11 234.38 4.4928-0.529 1.0216 8.026-2.2839 0.289-4.2432 0.492-0.2496-2 1.9701-0.236-0.7078-6.042"/>
  <path id="Huntington__IN" class="18069" d="m701.61 233.01 5.2862-0.661 0.21751 2.034 0.7078 6.042-1.9701 0.236-3.268 0.376-0.97344-8.027"/>
  <path id="Wabash__IN" class="18169" d="m700.8 232.06 0.10753 0.98938 0.69655-0.0414 0.97344 8.027-3.8974 0.449-1.2962 0.153-0.96275-8.001-0.0963-1.004 4.475-0.572"/>
  <path id="Miami__IN" class="18103" d="m696.42 233.63 0.96275 8.001 1.2962-0.153 0.22286 1.986-5.1899 0.61-0.90035-7.978-0.20789-1.9794 3.8164-0.48656"/>
  <path id="Cass__IN" class="18017" d="m687.67 236.62 5.1436-0.522 0.90035 7.978-3.6085 0.41-0.29774-3.029-2.6036 0.15249-0.10461-0.87649-0.9788 0.09-0.40293-4.032 1.9522-0.168"/>
  <path id="White__IN" class="18181" d="m685.72 236.79 0.40293 4.032-2.8686 0.245-0.0713 0.09-0.066 0.162-0.0874 1.904 0.21751 1.919-5.6036 0.524-0.43324-4.001-0.19053-2.3088 1.7503-0.21471-0.13945-1.6959 1.0864-0.11256 6.0029-0.547"/>
  <path id="Allen__IN" class="18003" d="m715.33 225.6 0.72384 6.06 0.1872 1.535-4.639 0.651-4.4928 0.529-0.21751-2.034-0.36122-3.7888 0.39368-0.0404-0.23214-2.1788 1.9683-0.227 6.6198-0.931 0.0499 0.425"/>
  <path id="Whitley__IN" class="18183" d="m700.73 226.29 1.9772-0.226 0.057 0.667 3.9294-0.392 0.23214 2.1788-0.39368 0.0404 0.36122 3.7888-5.2862 0.661-0.69655 0.0414-0.10753-0.98938-0.37084-3.029 0.58122-0.07-0.16224-1.735-0.12124-0.94"/>
  <path id="Fulton__IN" class="18049" d="m687.08 230.59 6.6697-0.715 0.26995 2.0363 0.82167-0.13808 0.17258 1.0303 1.3085-0.17053 0.0963 1.004-3.8164 0.48656 0.20789 1.9794-5.1436 0.522-0.58656-6.035"/>
  <path id="Pulaski__IN" class="18131" d="m687.08 230.59 0.58656 6.035-1.9522 0.168-6.0029 0.547-0.56874-5.987 7.9373-0.763"/>
  <path id="DeKalb__IN" class="18033" d="m707.94 220.08 6.6144-0.852 0.28882 2.394 0.43324 3.56-6.6198 0.931-0.71671-6.033"/>
  <path id="Noble__IN" class="18113" d="m707.94 220.08 0.71671 6.033-1.9683 0.227-3.9294 0.392-0.057-0.667-1.9772 0.226-0.38331-3.271-0.24069-1.984 7.8393-0.956"/>
  <path id="Kosciusko__IN" class="18085" d="m693.43 223.78 6.9104-0.763 0.38331 3.271 0.12124 0.94 0.16224 1.735-0.58122 0.07 0.37084 3.029-4.475 0.572-1.3085 0.17053-0.17258-1.0303-0.82167 0.13808-0.26995-2.0363 0.4246-0.0602-0.74374-6.0318"/>
  <path id="Marshall__IN" class="18099" d="m693.43 223.78 0.74374 6.0318-0.4246 0.0602-6.6697 0.715-0.60261-6.028-0.10162-0.995 3.0665-0.362 3.876-0.41 0.11232 0.988"/>
  <path id="Starke__IN" class="18149" d="m686.48 224.56 0.60261 6.028-7.9373 0.763-0.1355-1.494 1.8863-1.029 0.50634-0.33 0.39223-0.618 0.29952-0.564 0.1141-0.305 0.35123-1.351 0.92353-0.795 2.0075-0.2 0.98949-0.105"/>
  <path id="Jasper__IN" class="18073" d="m679.01 229.86 0.1355 1.494 0.56874 5.987-1.0864 0.11256 0.13945 1.6959-1.7503 0.21471 0.19053 2.3088-2.9096 0.271-0.39936-4.033-0.0963-0.04-0.0499-0.1-0.62757-6.933 0.92531-0.628 0.40293-0.578 0.97166-0.563 0.19255-0.04 0.34588 0.09 0.93066 0.323 1.3264 0.841 0.15155 0.04 0.49207-0.274 0.14619-0.193"/>
  <path id="Newton__IN" class="18111" d="m668.94 232.43 2.2528-0.31939 1.9334-1.2776 0.62757 6.933 0.0499 0.1 0.0963 0.04 0.39936 4.033-4.4661 0.394-0.56339-6.308-0.32983-3.592"/>
  <path id="Steuben__IN" class="18151" d="m713.59 213.99 0.49742 1.428 0.47425 3.81-6.6144 0.852-0.65788-5.35 6.3007-0.74"/>
  <path id="LaGrange__IN" class="18087" d="m705.66 214.9 1.6224-0.174 0.65788 5.35-7.8393 0.956-0.67749-5.415 6.2365-0.717"/>
  <path id="Elkhart__IN" class="18039" d="m699.43 215.62 0.67749 5.415 0.24069 1.984-6.9104 0.763-0.84508-7.456 4.6034-0.467 2.2339-0.239"/>
  <path id="St._Joseph__IN" class="18141" d="m692.59 216.32 0.73276 6.468-3.876 0.41-3.0665 0.362 0.10162 0.995-0.98949 0.105-0.73811-7.522 5.0634-0.522 2.7724-0.296"/>
  <path id="LaPorte__IN" class="18091" d="m679.64 217.63 5.1097-0.491 0.73811 7.522-2.0075 0.2-0.92353 0.795-0.35123 1.351-0.1141 0.305-0.29952 0.564-0.39223 0.618-0.50634 0.33-1.8863 1.029-1.0965-10.913 1.7294-1.31"/>
  
 </g>
</svg>