<svg width="900" height="500" version="1.0" xmlns="http://www.w3.org/2000/svg">
 <g id="county-group" class="counties" transform="scale(6), translate(-410 -260)" style="fill:#d3d3d3;stroke-width:.17829;stroke:#000">
<path id="Doniphan__KS" class="20043" d="m534.81 265.9h0.55447l9e-3 0.216 0.11232 0.162 2.1216 1.92 0.85935 0.553 0.43324 0.16 0.33696 0.128 0.0642 0.02h0.0802l0.66858-0.06 0.13015-0.05 0.1034-0.1 0.0143-0.02 0.60261-0.683 1.4709 1.849 0.14442 0.683 0.13728 0.634-0.36906 0.822-0.37083 0.06-1.2694 1.124-0.0713 0.08-0.6044 0.882-0.20859 0.298-0.87007-0.61232-4.0221-0.0317-0.0571-8.042"/>
  <path id="Brown__KS" class="20013" d="m526.97 265.93 7.8428-0.03 0.0571 8.042-3.9455 0.02-3.9544 0.02v-8.053"/>
  <path id="Stanton__KS" class="20187" d="m414.27 314.89 9.2745 0.619-0.44215 8.044-0.56339-0.03-8.7824-0.556 0.3851-5.898 0.12836-2.177"/>
  <path id="Morton__KS" class="20129" d="m413.76 322.97 8.7824 0.556-0.50633 9.096-8.6059-0.474-0.25674-0.02 0.58657-9.162"/>
  <path id="Stevens__KS" class="20189" d="m422.54 323.53 0.56339 0.03 7.891 0.457 0.39223 0.02-0.45641 9.025-8.8965-0.443 0.50633-9.096"/>
  <path id="Grant__KS" class="20067" d="m423.54 315.51 7.8821 0.433-0.43324 8.068-7.891-0.457 0.44215-8.044"/>
  <path id="Haskell__KS" class="20081" d="m439.32 316.36-0.31378 6.051-0.0963 2.026-7.5219-0.394-0.39223-0.02 0.43324-8.068 7.891 0.41"/>
  <path id="Seward__KS" class="20175" d="m438.91 324.43-0.0874 8.984-5.682-0.241-2.209-0.112 0.45641-9.025 7.5219 0.394"/>
  <path id="Meade__KS" class="20119" d="m446.91 322.76 1.9701 0.105-0.15333 10.958-9.9074-0.408 0.0874-8.984 0.0963-2.026 7.907 0.355"/>
  <path id="Gray__KS" class="20069" d="m447.16 312.6-0.2496 10.164-7.907-0.355 0.31378-6.051-0.12836-2.161 0.20859-4.016 7.8678 0.41-0.10519 2.009"/>
  <path id="Ford__KS" class="20057" d="m447.16 312.6 11.829 0.512 0.0321 4.132-0.16937 6.185-9.9716-0.56-1.9701-0.105 0.2496-10.164"/>
  <path id="Clark__KS" class="20025" d="m458.85 323.43 0.15154 2.018-0.28882 8.838-8.4062-0.385-1.5814-0.07 0.15333-10.958 9.9716 0.56"/>
  <path id="Comanche__KS" class="20033" d="m468.65 325.7-0.0874 8.92-8.2939-0.282-1.5511-0.06 0.28882-8.838 9.6436 0.257"/>
  <path id="Kiowa__KS" class="20097" d="m459.02 317.24 9.8432 0.385-0.16938 6.082-0.0481 1.993-9.6436-0.257-0.15154-2.018 0.16937-6.185"/>
  <path id="Edwards__KS" class="20047" d="m459.15 309.07 3.9294 0.137-0.0642 2.016 5.8977 0.2 0.025 4.067-0.0713 2.137-9.8432-0.385-0.0321-4.132 0.15868-4.04"/>
  <path id="Pratt__KS" class="20151" d="m478.69 315.79 0.0802 2.13-0.16045 6.058-9.9163-0.265 0.16938-6.082 0.0713-2.137 9.7559 0.296"/>
  <path id="Barber__KS" class="20007" d="m468.7 323.71 9.9163 0.265 3e-3 1.9775 2.029 0.0965-0.16937 8.945-3.6068-0.115-8.3082-0.256 0.0874-8.92 0.0481-1.993"/>
  <path id="Harper__KS" class="20077" d="m480.64 326.05 9.8432 0.162-0.0802 8.982-5.6499-0.105-4.2824-0.09 0.16937-8.945"/>
  <path id="Kingman__KS" class="20095" d="m478.77 317.92 11.853 0.239-0.10519 6.019-0.0321 2.036-9.8432-0.162-2.029-0.0965-3e-3 -1.9775 0.16045-6.058"/>
  <path id="Reno__KS" class="20155" d="m488.77 307.93 3.9526 0.07-0.11232 6.044-0.0167 4.1235-1.9676-0.0125-11.853-0.239-0.0802-2.13 0.19968-8.068 9.8771 0.211"/>
  <path id="Harvey__KS" class="20079" d="m498.64 308.1 3.87 0.15506 0.0256 1.8929-0.0303 4.049-9.9003-0.151 0.11232-6.044 5.9227 0.1"/>
  <path id="Sedgwick__KS" class="20173" d="m492.61 314.04 9.9003 0.151-0.13728 10.134-11.853-0.155 0.10519-6.019 1.9676 0.0125 0.0167-4.1235"/>
  <path id="Sumner__KS" class="20191" d="m490.52 324.17 11.853 0.155-0.0321 11.042-5.7373-0.07-6.1955-0.107 0.0802-8.982 0.0321-2.036"/>
  <path id="Cowley__KS" class="20035" d="m502.37 324.33 11.362 0.08v4.026l-0.0571 7.03-4.0899-0.02-7.2474-0.07 0.0321-11.042"/>
  <path id="Butler__KS" class="20015" d="m508.15 310.25 5.7212 0.02-0.11232 11.106-0.025 3.03-11.362-0.08 0.13728-10.134 0.0303-4.049 5.6107 0.104"/>
  <path id="Chautauqua__KS" class="20019" d="m513.73 328.44 10.175 0.105 5e-3 6.959h-0.66501l-9.5722-0.03 0.0571-7.03"/>
  <path id="Elk__KS" class="20049" d="m523.96 321.48v5.031l-0.0535 2.027-10.175-0.105v-4.026l0.025-3.03 10.203 0.103"/>
  <path id="Greenwood__KS" class="20073" d="m524 308.33-9e-3 3.036-0.025 7.087v3.027l-10.203-0.103 0.11232-11.106 2.9611 0.0176 0.0199-2.0086 7.144 0.05"/>
  <path id="Montgomery__KS" class="20125" d="m523.96 326.51 7.8999 0.04h0.082l0.0713 2.717-0.0553 4.741 5e-3 1.453-4.8209 0.03h-3.2306l-5e-3 -6.959 0.0535-2.027"/>
  <path id="Wilson__KS" class="20205" d="m523.96 318.46 7.8589 0.02 0.041 8.083-7.8999-0.04v-8.058"/>
  <path id="Woodson__KS" class="20207" d="m523.99 311.37 7.9159 0.02-0.082 7.08-7.8589-0.02 0.025-7.087"/>
  <path id="Labette__KS" class="20099" d="m531.94 326.55 7.8571-0.06 0.24069 1.02 0.11232 7.884-6.0974 0.06h-2.0913l-5e-3 -1.453 0.0553-4.741-0.0713-2.717"/>
  <path id="Neosho__KS" class="20133" d="m539.72 318.42 0.0178 1.339 0.0624 6.734-7.8571 0.06h-0.082l-0.041-8.083 7.8999-0.05"/>
  <path id="Allen__KS" class="20001" d="m539.84 311.34-0.11945 7.081-7.8999 0.05 0.082-7.08 7.9373-0.05"/>
  <path id="Cherokee__KS" class="20021" d="m540.04 327.52 8.3082-0.06 0.10519 7.884-7.103 0.06h-1.1981l-0.11232-7.884"/>
  <path id="Crawford__KS" class="20037" d="m548.23 319.69 0.11232 7.158 7e-3 0.603-8.3082 0.06-0.24069-1.02-0.0624-6.734 8.4918-0.07"/>
  <path id="Bourbon__KS" class="20011" d="m539.84 311.34 8.3349-0.08 0.0553 8.429-8.4918 0.07-0.0178-1.339 0.11945-7.081"/>
  <path id="Hamilton__KS" class="20075" d="m414.99 302.77 8.5346 0.508 0.44928 0.02-0.37797 6.72 0.0642 3.382-0.11945 2.113-9.2745-0.619 0.72385-12.125"/>
  <path id="Greeley__KS" class="20071" d="m415.63 292.71 8.4936 0.472-0.59369 10.095-8.5346-0.508 0.50633-8.157 0.12837-1.902"/>
  <path id="Wallace__KS" class="20199" d="m426.29 283.2-0.69176 10.052-1.478-0.07-8.4936-0.472 0.49029-8.084 0.11232-1.995 10.061 0.571"/>
  <path id="Sherman__KS" class="20181" d="m416.83 272.56 11.177 0.677 0.43324 0.02-0.61688 10.022-1.5279-0.08-10.061-0.571 0.59548-10.069"/>
  <path id="Cheyenne__KS" class="20023" d="m417.44 262.5 11.186 0.694-0.61866 10.044-11.177-0.677 7e-3 -0.134 0.60261-9.927"/>
  <path id="Stafford__KS" class="20185" d="m471.06 305.45 7.7555 0.225 0.0713 2.041-0.19968 8.068-9.7559-0.296-0.025-4.067 1.954 0.06 0.19968-6.035"/>
  <path id="Kearny__KS" class="20093" d="m423.98 303.3 7.4649 0.395 0.39401 0.02-0.18542 3.866-0.36192 6.216 0.13728 2.154-7.8821-0.433 0.11945-2.113-0.0642-3.382 0.37797-6.72"/>
  <path id="Finney__KS" class="20055" d="m439.33 304.1 7.8821 0.421 0.30487 0.02-0.25495 6.051-7.8678-0.41-0.20859 4.016 0.12836 2.161-7.891-0.41-0.13728-2.154 0.36192-6.216 0.18542-3.866 7.497 0.391"/>
  <path id="Hodgeman__KS" class="20083" d="m459.04 305.01 0.11233 4.06-0.15868 4.04-11.829-0.512 0.10519-2.009 0.25495-6.051 11.516 0.472"/>
  <path id="Pawnee__KS" class="20145" d="m459.1 302.99 9.8824 0.372-0.0718 1.9961 2.1524 0.0989-0.19968 6.035-1.954-0.06-5.8977-0.2 0.0642-2.016-3.9294-0.137-0.11233-4.06 0.066-2.025"/>
  <path id="Coffey__KS" class="20031" d="m532.05 302.21v1.021l0.0339 3.036h-0.16937l-0.0161 5.128-7.9159-0.02 9e-3 -3.036 0.15155-6.1 7.907-0.03"/>
  <path id="Anderson__KS" class="20003" d="m532.05 303.23 7.9248-0.05 0.0392 3.036-0.17828 3.102v2.026l-7.9373 0.05 0.0161-5.128h0.16937l-0.0339-3.036"/>
  <path id="Linn__KS" class="20107" d="m548.07 303.11 0.0963 7.614 9e-3 0.541-8.3349 0.08v-2.026l0.17828-3.102-0.0392-3.036 8.0907-0.07"/>
  <path id="Miami__KS" class="20121" d="m548.02 295.01 0.025 6.044 0.0232 2.058-8.0907 0.07 0.0784-8.083 7.9641-0.09"/>
  <path id="Franklin__KS" class="20059" d="m532.14 295.16 7.9142-0.06-0.0784 8.083-7.9248 0.05v-1.021l0.0891-7.046"/>
  <path id="Osage__KS" class="20139" d="m532.13 292.12 9e-3 3.045-0.0891 7.046-7.907 0.03 0.0731-7.056-7e-3 -3.036 7.9213-0.03"/>
  <path id="Lyon__KS" class="20111" d="m516.98 295.15 7.2402 0.03-0.0731 7.056-0.15155 6.1-7.144-0.05 0.0874-8.086 0.041-5.045"/>
  <path id="Chase__KS" class="20017" d="m508.62 300.13 8.3171 0.07-0.0874 8.086-0.0199 2.0086-2.9611-0.0176-5.7212-0.02 0.0321-3.808 0.0802-2.291 0.32804 0.01 0.0321-4.036"/>
  <path id="Morris__KS" class="20127" d="m514.34 292.12 0.0789 1.0202 1.8199 0.0626 0.0209 1.9487 0.71725 5e-3 -0.041 5.045-8.3171-0.07-2.0636 0.0378 0.10421-2.0698 0.27589-5.1137 0.51234 3e-3 -0.0162-0.92334 6.9086 0.06"/>
  <path id="Marion__KS" class="20115" d="m506.66 298.09-0.10421 2.0698 2.0636-0.0378-0.0321 4.036-0.32804-0.01-0.0802 2.291-0.0321 3.808-5.6107-0.104-0.0256-1.8929-3.87-0.15506 0.14442-10.102 7.8749 0.1"/>
  <path id="McPherson__KS" class="20113" d="m498.79 298-0.14442 10.102-5.9227-0.1-3.9526-0.07 0.15867-10.109 9.8611 0.176"/>
  <path id="Rice__KS" class="20159" d="m478.96 299.63 9.9324 0.208-0.12836 8.093-9.8771-0.211-0.0713-2.041 0.14441-6.049"/>
  <path id="Saline__KS" class="20169" d="m498.91 289.92-0.12123 8.076-9.8611-0.176 0.0499-6.06 0.0392-2.017 9.8932 0.177"/>
  <path id="Ellsworth__KS" class="20053" d="m479.1 291.54 9.8771 0.225-0.0499 6.06-0.0303 2.016-9.9324-0.208 9e-3 -4.067 0.12658-4.026"/>
  <path id="Barton__KS" class="20009" d="m478.97 295.56-9e-3 4.067-0.14441 6.049-7.7555-0.225-2.1524-0.0989 0.0718-1.9961 0.2496-8.069 9.7398 0.273"/>
  <path id="Rush__KS" class="20165" d="m459.4 294.95 9.6578 0.328h0.17829l-0.2496 8.069-9.8824-0.372 0.29596-8.034"/>
  <path id="Ness__KS" class="20135" d="m447.61 294.43 1.6634 0.09 9.8842 0.426h0.24069l-0.29596 8.034-0.066 2.025-11.516-0.472-0.30487-0.02 0.39401-10.093"/>
  <path id="Lane__KS" class="20101" d="m439.77 294.01 7.8428 0.419-0.39401 10.093-7.8821-0.421 0.43324-10.091"/>
  <path id="Scott__KS" class="20171" d="m431.93 293.59 5.5126 0.304 2.3213 0.113-0.43324 10.091-7.497-0.391-0.39401-0.02 0.49029-10.1"/>
  <path id="Wichita__KS" class="20203" d="m425.6 293.25 6.3328 0.339-0.49029 10.1-7.4649-0.395-0.44928-0.02 0.59369-10.095 1.478 0.07"/>
  <path id="Logan__KS" class="20109" d="m427.82 283.28 2.6351 0.144 2.6904 0.193 4.9261 0.257-0.62579 10.019-5.5126-0.304-6.3328-0.339 0.69176-10.052 1.5279 0.08"/>
  <path id="Gove__KS" class="20063" d="m439.68 283.96 9.8504 0.49h0.29061l-0.54734 10.061-1.6634-0.09-7.8428-0.419-2.3213-0.113 0.62579-10.019 1.6082 0.08"/>
  <path id="Trego__KS" class="20195" d="m449.82 284.46 9.6025 0.387h0.24068l-0.50633 10.093-9.8842-0.426 0.54734-10.061"/>
  <path id="Ellis__KS" class="20051" d="m459.66 284.85 9.6257 0.321h0.18542l-0.41898 10.1-9.6578-0.328h-0.24069l0.50633-10.093"/>
  <path id="Russell__KS" class="20167" d="m469.47 285.18 9.6899 0.289-0.0642 6.067-0.12658 4.026-9.7398-0.273h-0.17829l0.41898-10.1"/>
  <path id="Lincoln__KS" class="20105" d="m489.12 283.69-0.10519 6.051-0.0392 2.017-9.8771-0.225 0.0642-6.067 0.0571-2.018 9.9003 0.242"/>
  <path id="Ottawa__KS" class="20143" d="m489.17 281.68 9.8914 0.176-0.0874 4.035-0.0642 4.033-9.8932-0.177 0.10519-6.051 0.0481-2.016"/>
  <path id="Dickinson__KS" class="20041" d="m506.2 285.97 1.2373 6.092 0.0163 0.92334-0.51234-3e-3 -0.27589 5.1137-7.8749-0.1 0.12123-8.076 0.0642-4.033 7.2242 0.08"/>
  <path id="Geary__KS" class="20061" d="m506.2 285.97 0.0553-2.041 1.9683 0.05-0.0481 3.033 4.8048 0.39 1.3978 0.02v0.678l-0.0321 4.026-6.9086-0.06-1.2373-6.092"/>
  <path id="Wabaunsee__KS" class="20197" d="m522.56 286.19 0.0324 0.72729 1.6103 0.026 6e-3 5.1947 7e-3 3.036-7.2402-0.03-0.71725-5e-3 -0.0209-1.9487-1.8199-0.0626-0.0789-1.0202 0.0321-4.026 2.0336 0.0173-0.0315-3.0003 0.11232 0.105 0.44928 0.282 0.18542 0.05 0.93244-0.955 1.1981-0.289 2.1127 0.169 0.41898 0.17 0.25673 0.328 0.49742 1.046 0.0232 0.184"/>
  <path id="Shawnee__KS" class="20177" d="m522.63 284.1h7.891l-0.0268 1.7523-0.0369 2.1252 1.6629-0.17454 0.016 4.317-7.9213 0.03-6e-3 -5.1947-1.6103-0.026-0.0324-0.72729 0.0642-2.09"/>
  <path id="Douglas__KS" class="20045" d="m537.67 288.04 2.3373 1.414 0.0481 5.641-7.9142 0.06-9e-3 -3.045-0.016-4.317 0.77376-0.28 0.36014-0.04 0.24782 0.04 0.35479 0.152 0.22465 0.257 0.56338 0.338 0.31379 0.08 0.25495-0.02 2.4604-0.289"/>
  <path id="Johnson__KS" class="20091" d="m542.62 289.22 0.47424-1.462 0.11232-0.1 0.23356-0.08h0.27277l1.519 0.386 2.7242-0.04 0.0571 4.565 7e-3 2.522-7.9641 0.09-0.0481-5.641 2.6119-0.234"/>
  <path id="Wyandotte__KS" class="20209" d="m548.01 285.23-0.082 1.079 0.025 1.606-2.7242 0.04-1.519-0.386h-0.27277l-0.23356 0.08-0.11232 0.1-0.47424 1.462-0.025-3.19 0.12124-1.704h1.897l3.3999 0.907"/>
  <path id="Leavenworth__KS" class="20103" d="m537.73 279.35 3.7191-0.04 3.1664 5.017h-1.897l-0.12124 1.704 0.025 3.19-2.6119 0.234-2.3373-1.414-0.0321-1.961 0.11945-2.331-0.0303-4.403"/>
  <path id="Jefferson__KS" class="20087" d="m530.83 279.39 6.8961-0.04 0.0303 4.403-0.11945 2.331 0.0321 1.961-2.4604 0.289-0.25495 0.02-0.31379-0.08-0.56338-0.338-0.22465-0.257-0.35479-0.152-0.24782-0.04-0.36014 0.04-0.77376 0.28-1.6629 0.17454 0.0369-2.1252 0.0268-1.7523-0.0672-2.7438 0.38094-1.9642"/>
  <path id="Atchison__KS" class="20005" d="m539.06 276.69 2.3855 2.624-3.7191 0.04-6.8961 0.04 0.0891-5.419 3.9455-0.02 4.0221 0.0317 0.87007 0.61232-0.6971 2.097"/>
  <path id="Jackson__KS" class="20085" d="m530.83 279.39-0.38094 1.9642 0.0671 2.7438h-7.891v-8.099l2.4229 0.0476 1.8767 0.0252 0.0399-2.0899 3.9544-0.02-0.0891 5.419"/>
  <path id="Pottawatomie__KS" class="20149" d="m522.63 284.1-0.0642 2.09-0.0232-0.184-0.49742-1.046-0.25673-0.328-0.41898-0.17-2.1127-0.169-1.1981 0.289-0.93244 0.955-0.18542-0.05-0.44928-0.282-0.11232-0.105-1.2694-0.378-1.1731-0.515-1.6634-1.541-0.87539-1.367-0.86826-1.597 7e-3 -0.926 0.21752-0.362 2.266-2.458 6.035 0.03h3.5746v8.099"/>
  <path id="Riley__KS" class="20161" d="m506.25 283.93 0.12837-8.02 2.6832 0.02 3.9544 0.03-2.266 2.458-0.21752 0.362-7e-3 0.926 0.86826 1.597 0.87539 1.367 1.6634 1.541 1.1731 0.515 1.2694 0.378 0.0315 3.0003-2.0336-0.0173v-0.678l-1.3978-0.02-4.8048-0.39 0.0481-3.033-1.9683-0.05"/>
  <path id="Clay__KS" class="20027" d="m499.06 281.85 0.10519-6.044 7.2153 0.1-0.12837 8.02-0.0553 2.041-7.2242-0.08 0.0874-4.035"/>
  <path id="Cloud__KS" class="20029" d="m489.25 275.63 0.0481-2.019 9.8914 0.177-0.0232 2.016-0.10519 6.044-9.8914-0.176 0.0802-6.042"/>
  <path id="Mitchell__KS" class="20123" d="m489.25 275.63-0.0802 6.042-0.0481 2.016-9.9003-0.242 0.25851-8.057 9.7701 0.241"/>
  <path id="Osborne__KS" class="20141" d="m479.22 283.45-0.0571 2.018-9.6899-0.289h-0.18542l0.10519-3.366 0.13728-2.676 0.14441-4.024 9.4813 0.28h0.3227l-0.25851 8.057"/>
  <path id="Rooks__KS" class="20163" d="m459.86 274.77 9.4421 0.315 0.37797 0.02-0.14441 4.024-0.13728 2.676-0.10519 3.366-9.6257-0.321h-0.24068l0.43323-10.071"/>
  <path id="Graham__KS" class="20065" d="m449.53 284.45 0.49029-10.077 9.385 0.38 0.45106 0.02-0.43323 10.071-9.6025-0.387h-0.29061"/>
  <path id="Sheridan__KS" class="20179" d="m440.19 273.89 9.4991 0.478h0.32805l-0.49029 10.077-9.8504-0.49 0.51346-10.072"/>
  <path id="Thomas__KS" class="20193" d="m427.82 283.28 0.61688-10.022 11.394 0.61 0.36192 0.01-0.51346 10.072-1.6082-0.08-4.9261-0.257-2.6904-0.193-2.6351-0.144"/>
  <path id="Rawlins__KS" class="20153" d="m428.62 263.2 1.519 0.08 9.8824 0.529 0.34766 0.03-0.54021 10.043-11.394-0.61-0.43324-0.02 0.61866-10.044"/>
  <path id="Decatur__KS" class="20039" d="m440.37 263.83 9.5294 0.457 0.27278 0.02-0.48138 10.06-9.4991-0.478-0.36192-0.01 0.54021-10.043"/>
  <path id="Phillips__KS" class="20147" d="m467.64 264.97 1.9594 0.06-0.30487 10.06-9.4421-0.315-0.45106-0.02 0.41897-10.062 7.8197 0.281"/>
  <path id="Norton__KS" class="20137" d="m459.78 264.69h0.041l-0.41897 10.062-9.385-0.38h-0.32805l0.48138-10.06 9.6097 0.385"/>
  <path id="Smith__KS" class="20183" d="m469.6 265.03 5.9548 0.185 3.8813 0.105-0.2817 10.068-9.4813-0.28-0.37797-0.02 0.30487-10.06"/>
  <path id="Jewell__KS" class="20089" d="m483.47 265.41 5.9869 0.144-0.16046 8.06-0.0481 2.019-9.7701-0.241h-0.3227l0.2817-10.068 4.0328 0.09"/>
  <path id="Republic__KS" class="20157" d="m491.39 265.6 7.9142 0.127-0.11232 8.067-9.8914-0.177 0.16046-8.06 1.9291 0.04"/>
  <path id="Washington__KS" class="20201" d="m499.3 265.73 7.932 0.105 1.9362 0.02-0.10519 10.078-2.6832-0.02-7.2153-0.1 0.0232-2.016 0.11232-8.067"/>
  <path id="Marshall__KS" class="20117" d="m515.15 265.9 3.9277 0.02-0.0232 10.07-6.035-0.03-3.9544-0.03 0.10519-10.078 5.9797 0.05"/>
  <path id="Nemaha__KS" class="20131" d="m523.07 265.93h3.8974v8.053l-0.0399 2.0899-1.8767-0.0252-2.4229-0.0476h-3.5746l0.0232-10.07h3.9936"/>
  
 </g>
</svg>