<svg width="500" height="800" version="1.0" xmlns="http://www.w3.org/2000/svg">
 <g id="county-group" class="counties" transform="scale(6), translate(-605 -366)" style="fill:#d3d3d3;stroke-width:.17829;stroke:#000">
  <path id="Harrison__MS" class="28047" d="m663.79 476.24 1.2373 6.18-1.4958 0.378-3.1503 0.816-3.8653 1.113-1.2373-0.852-0.45819-6.301 2.0004-0.137 0.0909-0.69 6.8783-0.507"/>
  <path id="Jackson__MS" class="28059" d="m663.68 474.91 9.2994-0.72 1.0198 8.363-0.016 0.337-1.4156 0.909-0.15868 0.06-4.9671-0.176-0.37084-0.08-1.3407-0.756-0.70601-0.417-1.2373-6.18-0.10697-1.335"/>
  <path id="Grenada__MS" class="28043" d="m638.5 403.58 2.972-0.165 0.0481 0.681 4.9653-0.328 0.30487 4.371-5.3183 0.376-6.4932 0.41-0.21573-1.019-0.12123-2.026 2.0503-0.146 1.9202-0.44-0.0481-0.667-0.0642-1.047"/>
  <path id="Yalobusha__MS" class="28161" d="m645.97 396.98 0.51347 6.791-4.9653 0.328-0.0481-0.681-2.972 0.165-0.48851-6.129 3.9635-0.30945-0.0358-0.59855 3.9679-0.21666 0.065 0.65066"/>
  <path id="Clay__MS" class="28025" d="m661.5 403.98 0.24069 3.004 4.1648-0.312 0.11411 0.138-0.31557 0.57 0.73822 0.75136-0.0634 1.8809-3.4062 0.91972-0.1141-1.357-5.9441 0.472-0.65075 0.09-0.59547-4.058 0.22951-0.66344 2.2901-0.1483-0.0875-1.1786 3.3996-0.10867"/>
  <path id="Webster__MS" class="28155" d="m652.68 406.32 2.9881-0.233 0.59547 4.058-1.2712 0.764-3.3244 0.51751-2.1312 1.5615-2.3855 0.178-0.42789-6.043 5.9566-0.803"/>
  <path id="Chickasaw__MS" class="28017" d="m659.06 398.06 1.9932-0.146 0.44215 6.074-3.3996 0.10867 0.0875 1.1786-2.2901 0.1483-0.22951 0.66344-2.9881 0.233-0.0909-1.688 0.98949-0.08-0.4582-6.033 5.9441-0.457"/>
  <path id="Calhoun__MS" class="28013" d="m645.97 396.98 4.9903-0.328 0.13726 1.9916 2.0164-0.12855 0.4582 6.033-0.98949 0.08 0.0909 1.688-5.9566 0.803-0.23356-3.35-0.51347-6.791"/>
  <path id="Pontotoc__MS" class="28115" d="m658.55 391.37 0.51168 6.686-5.9441 0.457-2.0164 0.12855-0.13726-1.9916-0.37084-5.041 7.957-0.239"/>
  <path id="Lee__MS" class="28081" d="m659.96 387.92 3.6731-0.20848 0.0549 0.93148 0.66145 8.671-3.3317 0.23831 0.0423 0.35669-1.9932 0.146-0.51168-6.686 1.4049-3.449"/>
  <path id="Union__MS" class="28145" d="m653.2 386.36 6.6216-0.46 0.1355 2.026-1.4049 3.449-7.957 0.239-0.19255-2.674-0.12658-2.018 2.9239-0.562"/>
  <path id="Lafayette__MS" class="28071" d="m641.39 388.19 0.98949-0.06 1.9469-0.162 1.6599-0.08 0.48856 0.60478 1.9558-0.0408 1.9754 0.481 0.19255 2.674 0.37084 5.041-4.9903 0.328-0.065-0.65066-3.9679 0.21666-0.55625-8.351"/>
  <path id="Tate__MS" class="28137" d="m632.14 384.84 1.831-0.303 3.5105-1.15 3.5283-0.226 0.15155 2 1.0127 0.163 0.20146 2.804-0.98949 0.06-8.9661 0.573-0.94512-1.9615 0.66521-1.9615"/>
  <path id="Panola__MS" class="28107" d="m632.42 388.77 8.9661-0.573 0.55625 8.351 0.0358 0.59855-3.9635 0.30945-3.851 0.337-0.13728-2.443-1.1981-1.308-0.35301-4.269-0.0553-1.003"/>
  <path id="Quitman__MS" class="28119" d="m632.47 389.77 0.35301 4.269 1.1981 1.308 0.13728 2.443 0.12124 2.009-1.0216 0.06-4.9421 0.296-0.24961-4.37 0.98237-0.04-0.23534-3.746 1.8435-0.128-0.17115-1.961 1.9843-0.144"/>
  <path id="Tallahatchie__MS" class="28135" d="m634.16 397.79 3.851-0.337 0.48851 6.129 0.0642 1.047 0.0481 0.667-1.9202 0.44-2.0503 0.146 0.12123 2.026-0.72239 0.0981-7e-3 -0.39803-0.57956-0.1368-0.74964 0.9383-1.197 0.1926-0.0576-1.1311 0.26556-0.41022 2.3051-0.24889-7e-3 -0.39803-0.0241-0.475-5.3334 0.255-0.21929-4.025-0.11945-2.01 4.9421-0.296 1.0216-0.06-0.12124-2.009"/>
  <path id="Leflore__MS" class="28083" d="m628.66 406.19 5.3334-0.255 0.0241 0.475 7e-3 0.39803-2.3051 0.24889-0.26556 0.41022 0.0576 1.1311 1.197-0.1926 0.74964-0.9383 0.57956 0.1368 7e-3 0.39803 0.72239-0.0981 0.21573 1.019 0.50099 0.314 0.0463 0.241 0.27991 4.436-0.63292 1.019-0.6971 0.03 0.11945 1.928-2.0515-0.67655-0.90808 1.5606-0.34752-0.53593-0.36642 0.50267 9e-3 1.3472-0.98138 8e-3 -0.5898-0.69362-0.0778-1.1018-0.62579-11.115"/>
  <path id="Sunflower__MS" class="28133" d="m628.44 402.17 0.21929 4.025 0.62579 11.115-1.9629 0.121 0.0909 1.35-3.0772 0.183-0.97094 0.0522-0.26102-5.9822-0.11054-2 1.9932-0.111-0.45107-8.566 3.9045-0.187"/>
  <path id="Humphreys__MS" class="28053" d="m629.29 417.31 0.0778 1.1018 0.58979 0.69362 0.98139-8e-3 -9e-3 -1.3472 0.36642-0.50267 0.34752 0.53593 0.25851 3.865-0.61865 1.141-0.11232 0.08-0.21751-0.04-0.51347-0.319-0.24069-0.322-0.082 0.02-0.0464 0.08-0.0677 0.383 0.0891 0.763 0.0428 0.121 0.93066 0.772 0.36192 0.23-1.6313 0.13 0.10519 1.979-3.9704 0.248-1.0911-3.952-0.49921-3.996 3.0772-0.183-0.0909-1.35 1.9629-0.121"/>
  <path id="Holmes__MS" class="28051" d="m631.64 417.78 0.90808-1.5606 2.0515 0.67655 8.2904 2.225-3.6478 7.982-7.8179-2.552-0.36192-0.23-0.93066-0.772-0.0428-0.121-0.0891-0.763 0.0677-0.383 0.0464-0.08 0.082-0.02 0.24069 0.322 0.51347 0.319 0.21751 0.04 0.11232-0.08 0.61865-1.141-0.25851-3.865"/>
  <path id="Carroll__MS" class="28015" d="m634.98 408.93 6.4932-0.41 0.42611 6.003 1.3514 0.241 1.3158-0.103 0.20146 2.699-1.3345 0.0954-0.54643 1.6716-8.2904-2.225-0.11945-1.928 0.6971-0.03 0.63292-1.019-0.27991-4.436-0.0463-0.241-0.50099-0.314"/>
  <path id="Montgomery__MS" class="28097" d="m646.79 408.14 0.35658 5.022 2.3855-0.178-0.30209 0.30741-0.3021 0.28255-0.55066-0.21459 0.0459 3.7376-3.6567 0.259-0.20146-2.699-1.3158 0.103-1.3514-0.241-0.42611-6.003 5.3183-0.376"/>
  <path id="Choctaw__MS" class="28019" d="m654.99 410.91 0.41184 5.695-0.3958 0.03 0.14409 2.0454-1.9894 0.12963 0.1355 2.027-1.9861 0.152-0.2274-4.0142-2.6573 0.12318-0.0459-3.7376 0.55066 0.21459 0.30209-0.28255 0.3021-0.30741 2.1312-1.5615 3.3244-0.51751"/>
  <path id="Oktibbeha__MS" class="28105" d="m656.26 410.14 0.65075-0.09 5.9441-0.472 0.1141 1.357 0.43681 5.038-2.7528 0.223-5.2523 0.403-0.41184-5.695 1.2712-0.765"/>
  <path id="Lowndes__MS" class="28087" d="m665.7 407.38 4.8601-2.589-0.10162 4.894-0.10519 5.704-6.9478 0.581-0.43681-5.038 3.4062-0.91972 0.0634-1.8809-0.73822-0.75136"/>
  <path id="Monroe__MS" class="28095" d="m670.77 396.86-0.0178 0.658-0.18542 7.279-4.8601 2.589 0.31557-0.57-0.11411-0.138-4.1648 0.312-0.24069-3.004-0.44215-6.074-0.0423-0.35669 3.3317-0.23831 6.4201-0.457"/>
  <path id="Itawamba__MS" class="28057" d="m670.96 388.11-0.19255 8.75-6.4201 0.457-0.66145-8.671 4.0115-0.281 3.2626-0.255"/>
  <path id="Prentiss__MS" class="28117" d="m666.46 381.69 0.96912 0.4997 0.26819 6.1773-4.0115 0.281-0.0549-0.93148-3.6731 0.20848-0.1355-2.026 0.5047-0.0449-0.0971-3.6741 6.23-0.49"/>
  <path id="Tishomingo__MS" class="28141" d="m666.06 376.15 3.0523-0.251 2.1074 2.225-0.19255 7.226-0.0642 2.756-3.2626 0.255-0.26819-6.1773-0.96912-0.4997-0.40293-5.534"/>
  <path id="Alcorn__MS" class="28003" d="m665.74 376.17 0.31379-0.02 0.40293 5.534-6.23 0.49-0.39258 7e-3 -0.0115-2.3057-1.9802 0.1276-0.3608-3.1714 0.68284-0.06 7.5754-0.603"/>
  <path id="Tippah__MS" class="28139" d="m653.86 377.12 3.6264-0.282 0.3608 3.1714 1.9802-0.1276 0.0115 2.3057 0.39258-7e-3 0.0971 3.6741-0.5047 0.0449-6.6216 0.46-0.36192-5.006 0.98771-0.07 0.25852-1.031-0.22643-3.132"/>
  <path id="Benton__MS" class="28009" d="m650.48 377.36 3.3732-0.247 0.22643 3.132-0.25852 1.031-0.98771 0.07 0.36192 5.006-2.9239 0.562-0.9895 0.07-0.44928-6.035-0.74702-1.1-0.49029-2.289 2.8847-0.204"/>
  <path id="Marshall__MS" class="28093" d="m642.15 377.92 5.4484-0.353 0.49029 2.289 0.74702 1.1 0.44928 6.035 0.9895-0.07 0.12658 2.018-1.9754-0.481-1.9558 0.0408-0.48856-0.60478-1.6599 0.08-1.9469 0.162-0.20146-2.804-1.0127-0.163-0.15155-2-0.35301-5.135 1.494-0.11"/>
  <path id="DeSoto__MS" class="28033" d="m640.66 378.03 0.35301 5.135-3.5283 0.226-3.5105 1.15-1.831 0.303-0.22828-3.0894-1.7115 0.0464-0.47246-3.102 10.929-0.669"/>
  <path id="Tunica__MS" class="28143" d="m630.2 381.8 1.7115-0.0464 0.22828 3.0894-0.66521 1.9615 0.94512 1.9615 0.0553 1.003-1.9843 0.145 0.17115 1.961-1.8435 0.128-3.35-2.153-0.25673-2.676 2.8918-4.606 2.0966-0.768"/>
  <path id="Coahoma__MS" class="28027" d="m625.47 389.85 3.35 2.153 0.23534 3.746-0.98237 0.04 0.24961 4.37 0.11945 2.01-3.9045 0.187-0.21572-3.031-3.022 0.119-2.1305 0.129-0.0642-0.225 0.27278-0.569 0.85399-1.759 1.8007-3.231 0.98593-0.193 0.98949-0.203 0.81834-0.392 0.65075-0.571 0.041-0.03 0.0178-0.04 0.1355-0.442-0.20147-2.064"/>
  <path id="Bolivar__MS" class="28011" d="m619.17 399.57 2.1305-0.129 3.022-0.119 0.21572 3.031 0.45107 8.566-1.9932 0.111 0.11054 2-8.613 0.459-0.26386-0.73 1.4049-0.565 0.33696-0.289 0.0499-0.247v-0.02l-0.53842-0.435-0.56874-0.426-0.1141-0.203-0.025-0.05 0.10519-0.523 1.5261-6.573 3.7137-1.87 0.11232-0.772-0.20146-0.5-0.85221-0.682-9e-3 -0.03"/>
  <path id="Washington__MS" class="28151" d="m614.49 413.49 8.613-0.459 0.26102 5.9822 0.97094-0.0522 0.49921 3.996-3.652 0.29426-0.31308 1.9637-4.6658 0.159 0.56161-0.635 0.016-0.02 0.60261-2.501v-0.02l-0.0553-1.747-0.4992-0.529-0.65075-1.181-0.96453-2.758 0.98949-0.289 0.23178-0.458-0.15155-0.536-0.79516-0.537-0.97345-0.663-0.025-0.01"/>
  <path id="Sharkey__MS" class="28125" d="m624.84 422.96 1.0911 3.952-1.872 2.113 0.0321 0.499 0.36192 0.09 0.52238 0.416 0.5206 0.522 0.60261 1.817-0.0232 0.297-0.18541 0.193-0.89857 0.121-4.6604 0.241-0.19255-4.044 0.11232-0.337 0.0963-0.01 0.1355-0.103 0.0891-0.148 0.32804-1.79-0.025-1.566 0.31308-1.9637 3.652-0.29426"/>
  <path id="Issaquena__MS" class="28055" d="m620.87 425.22 0.025 1.566-0.32804 1.79-0.0891 0.148-0.1355 0.103-0.0963 0.01-0.11232 0.336 0.19255 4.044 4.6604-0.241 0.11054 0.995 0.0157 0.97218-2.5818 0.26973 0.0594 2.9761-1.9433 0.605-0.20146-3.568-2.5548 0.104-0.61153-0.191-0.0481-0.04-0.18364-0.16-0.041-0.03-0.0214-0.04-0.0606-0.07-0.0214-0.04-0.11411-0.274-1.5422-6.989-0.0321-0.186 0.20146-0.731 0.63292-1.021 0.15511-0.177 4.6658-0.158"/>
  <path id="Yazoo__MS" class="28163" d="m631.42 424.55 7.8179 2.552-1.2213 3.132-0.19255 0.305-1.1 0.788-5.6499 3.207-0.71493 0.168-1.9112 1.647-3.3536-2.38-0.11054-0.995 0.89857-0.121 0.18541-0.192 0.0232-0.298-0.60261-1.817-0.5206-0.522-0.52238-0.416-0.36192-0.09-0.0321-0.499 1.872-2.113 3.9704-0.248-0.10519-1.979 1.6313-0.13"/>
  <path id="Attala__MS" class="28007" d="m648.43 417.1 2.6573-0.12318 0.2274 4.0142 0.25674 4.082-4.6034 0.346-3.2716 0.232 0.0713 1.045-4.5232 0.412 3.6478-7.982 0.54643-1.6716 1.3345-0.0954 3.6567-0.259"/>
  <path id="Winston__MS" class="28159" d="m655.4 416.6 5.2523-0.403 0.63648 8.296-1.9522 0.135-7.7715 0.442-0.25674-4.082 1.9861-0.152-0.1355-2.027 1.9894-0.12963-0.14409-2.0454 0.3958-0.03"/>
  <path id="Noxubee__MS" class="28103" d="m663.41 415.97 6.9478-0.581-0.1355 6.896-0.0267 1.439-8.9019 0.765-0.63648-8.296 2.7528-0.223"/>
  <path id="Kemper__MS" class="28069" d="m661.29 424.49 8.9019-0.765-0.1355 8.131-10.118 0.812-0.60082-8.043 1.9522-0.135"/>
  <path id="Neshoba__MS" class="28099" d="m651.57 425.07 7.7715-0.442 0.60082 8.043-7.7608 0.57-0.61152-8.171"/>
  <path id="Leake__MS" class="28079" d="m651.57 425.07 0.61152 8.171-0.0981 0.01-7.85 0.52-0.0963-1.317-0.37083-5.762-0.0713-1.045 3.2716-0.232 4.6034-0.346"/>
  <path id="Madison__MS" class="28089" d="m639.24 427.11 4.5232-0.412 0.37083 5.762-0.96453 1.166-0.42611 0.02-1.0038 0.119-2.701 2.484-1.0519 1.171-0.0713 0.171-9e-3 0.296 0.11232 0.394-2.4514 0.138-0.99484-0.1-0.11232-1.847-0.70958 0.04-3.268 0.185-0.12124-1.984 0.71493-0.168 5.6499-3.207 1.1-0.788 0.19255-0.305 1.2213-3.133"/>
  <path id="Rankin__MS" class="28121" d="m643.17 433.62 1.3563 4.9463 0.23583 3.3777 0.27278 4.017-9.7077 0.556-0.49743-1.423 0.69889-3.255 1.1731-1.696 1.3175-1.872-0.11232-0.394 9e-3 -0.296 0.0713-0.171 1.0519-1.171 2.701-2.484 1.0038-0.119 0.42611-0.02"/>
  <path id="Hinds__MS" class="28049" d="m628.45 436.35 1.9112-1.647 0.12124 1.984 3.268-0.185 0.70958-0.04 0.11232 1.847 0.99484 0.1 2.4514-0.137-1.3175 1.872-1.1731 1.695-0.69889 3.256 0.49743 1.422-9.4653 0.585-0.42254-4.056 3.0113-6.695"/>
  <path id="Warren__MS" class="28149" d="m617.89 435.33 2.5548-0.104 0.20146 3.568 1.9433-0.605-0.0594-2.9761 2.5818-0.26973-0.0157-0.97218 3.3536 2.38-3.0113 6.695-0.4689 0.562-0.95561 1.132-2.0182 1.783-0.5313-0.07-1.6866-0.524-1.9612-2.291 2.2411-0.278-0.1355-3.318-2.1448-2.282-0.016-0.04-0.082-0.128-0.0553-0.08v-0.03l-0.0339-0.369 0.4368-1.471-0.13728-0.313"/>
  <path id="Jefferson__MS" class="28063" d="m615.79 451.76 4.5713-0.06 3.3768 0.635 0.0481 0.271 7e-3 0.258 0.15333 0.401 1.9041-0.112 0.10341 2.016 0.0981 2.01-8.1228 0.46-1.9279-0.0125-0.94604-1.046-0.49685-1.8336-0.99371-0.0499 2.225-2.942"/>
  <path id="Claiborne__MS" class="28021" d="m625.44 443.05 0.42254 4.056-0.0161 6.051-1.9041 0.112-0.15333-0.401-7e-3 -0.258-0.0481-0.271-3.3768-0.635-4.5713 0.06 3.9936-5.828 1.6866 0.524 0.5313 0.07 2.0182-1.783 0.95561-1.132 0.4689-0.562"/>
  <path id="Copiah__MS" class="28029" d="m635.33 446.52 2.0521 2.656 0.46352 4.046-2.3391 0.956-9.5544 0.994-0.10341-2.016 0.0161-6.051 9.4653-0.585"/>
  <path id="Simpson__MS" class="28127" d="m645.04 445.96 1.2373-0.0954 0.66679 6.1234-1.9772 0.273-4.2504 0.57-2.8686 0.387-0.46352-4.046-2.0521-2.656 9.7077-0.556"/>
  <path id="Smith__MS" class="28129" d="m644.76 441.95 7.891-0.569 0.79516 9.672-1.6402 0.234-4.869 0.708-0.66679-6.1234-1.2373 0.0954-0.27278-4.017"/>
  <path id="Scott__MS" class="28123" d="m644.13 432.46 0.0963 1.317 7.85-0.52 0.57231 8.124-7.891 0.569-0.23583-3.3777-1.3563-4.9463 0.96453-1.166"/>
  <path id="Newton__MS" class="28101" d="m652.18 433.24 7.7608-0.57 0.61866 8.11-7.9052 0.595-0.57231-8.124 0.0981-0.01"/>
  <path id="Lauderdale__MS" class="28075" d="m659.94 432.67 10.118-0.812-0.13728 6.246-0.0464 1.879-9.3155 0.797-0.61866-8.11"/>
  <path id="Clarke__MS" class="28023" d="m669.87 439.98-0.13015 7.707-8.4365 2.218-0.74881-9.128 9.3155-0.797"/>
  <path id="Jasper__MS" class="28061" d="m660.56 440.78 0.74881 9.128-0.63649 0.09-7.2224 1.044-0.79516-9.672 7.9052-0.595"/>
  <path id="Jones__MS" class="28067" d="m660.67 450 0.66145 8.982-3.9526 0.276-4.9457 0.353-0.62578-8.333 1.6402-0.234 7.2224-1.044"/>
  <path id="Covington__MS" class="28031" d="m651.81 451.28 0.62578 8.333-1.0287 0.07-2.6422 0.188-0.11945-1.833-0.35479-0.563-0.69889-0.411-0.70601-0.09-0.52417-0.256-1.1571-0.667-0.24069-3.792 1.9772-0.273 4.869-0.708"/>
  <path id="Jefferson_Davis__MS" class="28065" d="m640.71 452.83 4.2504-0.57 0.24069 3.792 1.1571 0.667 0.52417 0.256 0.70601 0.09 0.69889 0.41 0.35479 0.563 0.11945 1.833-1.3175 0.09-3.325 0.212 0.0874 1.011-2.6529 0.161-0.19255-3.027-0.46533-2.406-0.18542-3.077"/>
  <path id="Lawrence__MS" class="28077" d="m637.84 453.22 2.8686-0.387 0.18542 3.077 0.46533 2.405 0.19255 3.028-1.6309 0.1452 0.11906 1.2058-4.0008-0.08-0.53843-8.438 2.3391-0.956"/>
  <path id="Lincoln__MS" class="28085" d="m635.5 454.18 0.53843 8.438-0.32805 0.02-5.6267 0.348-1.6706 0.103-0.33696-6.027-2.0325 0.121-0.0981-2.01 9.5544-0.994"/>
  <path id="Franklin__MS" class="28037" d="m617.92 457.64 8.1228-0.46 2.0325-0.121 0.33696 6.027-6.8462 0.387-2.159 0.747-1.2641-0.524-0.22286-6.056"/>
  <path id="Adams__MS" class="28001" d="m613.56 454.7 0.99371 0.0499 0.49685 1.8336 0.94604 1.046 1.9279 0.0125 0.22286 6.056-0.0963-0.09-1.3817-0.463-0.80229 0.144-0.63648 0.225-2.6351 1.085-2.5067 2.331-0.18542 0.408-0.28882 1.198 0.47424-2.476 0.73098-5.993 7e-3 -0.02 0.0731-0.155 0.0481-0.09 2.0967-4.211 0.0143-0.02 0.30844-0.528 0.19255-0.346"/>
  <path id="Wilkinson__MS" class="28157" d="m618.15 463.7 1.2641 0.524 0.77232 0.66999 0.29383 6.699-2.2838 0.112-9.0552 0.426 0.47603-3.592 0.28882-1.198 0.18542-0.408 2.5067-2.331 2.6351-1.085 0.63648-0.225 0.80229-0.145 1.3817 0.464 0.0963 0.09"/>
  <path id="Amite__MS" class="28005" d="m630.09 462.98 0.46711 8.037-0.37618 0.01-5.0954 0.297-4.6052 0.259-0.29383-6.699-0.77232-0.66999 2.159-0.747 6.8462-0.387 1.6706-0.103"/>
  <path id="Pike__MS" class="28113" d="m630.09 462.98 5.6267-0.348 0.50633 8.029-1.7276 0.105-3.9384 0.251-0.46711-8.037"/>
  <path id="Walthall__MS" class="28147" d="m636.04 462.61 4.0008 0.08 0.14619 2.345 0.33875 1.326 0.76307 0.941 1.437 0.908 1.4388 0.232 0.37797 1.665-8.3242 0.553-0.50633-8.029 0.32805-0.02"/>
  <path id="Marion__MS" class="28091" d="m647.45 459.96 0.6668 9.901-1.4548 0.107-2.1127 0.144-0.37797-1.665-1.4388-0.232-1.437-0.908-0.76307-0.941-0.33875-1.326-0.14619-2.345-0.11906-1.2058 1.6309-0.1452 2.6529-0.161-0.0874-1.011 3.325-0.212"/>
  <path id="Lamar__MS" class="28073" d="m651.41 459.69 0.15511 2.01 2.0164-0.145 0.51525 7.715-5.9797 0.594-0.6668-9.901 1.3175-0.09 2.6422-0.188"/>
  <path id="Forrest__MS" class="28035" d="m657.38 459.26 0.5206 7.087 0.3441 2.853 0.16224 2.08-3.9936 0.278-0.32092-2.294-0.51525-7.715-2.0164 0.145-0.15511-2.01 1.0287-0.07 4.9457-0.353"/>
  <path id="Wayne__MS" class="28153" d="m669.74 447.69 0.46533 4.507 0.76485 5.994-7.6485 0.644-1.9932 0.15-0.66145-8.982 0.63649-0.09 8.4365-2.218"/>
  <path id="Greene__MS" class="28041" d="m663.33 458.84 7.6485-0.644 0.93065 7.342 0.34053 2.655-8.0211 0.628-0.89857-9.981"/>
  <path id="Perry__MS" class="28111" d="m661.33 458.99 1.9932-0.15 0.89857 9.981 0.14955 1.9552-1.0018 0.11583-4.9653 0.394-0.16224-2.08-0.3441-2.853-0.5206-7.087 3.9526-0.276"/>
  <path id="Stone__MS" class="28131" d="m663.37 470.89 0.312 4.017 0.10697 1.335-6.8783 0.507-0.0909 0.69-2.0004 0.137-0.40828-6.014 3.9936-0.278 4.9653-0.394"/>
  <path id="Pearl_River__MS" class="28109" d="m654.09 469.27 0.32092 2.294 0.40828 6.014-2.7314 0.185-1.2141 0.764 0.15155 2.339-1.9433 1.453-0.86826 0.06-3.3019-4.548 0.21929-1.642 0.2389-1.213 0.29774-1.469 0.25852-1.075 0.0463-0.05 0.16046-0.02 0.12302-0.02 0.1979-0.442 0.24247-1.214-0.041-0.713 1.4548-0.107 5.9797-0.594"/>
  <path id="Hancock__MS" class="28045" d="m648.22 482.37 0.86826-0.06 1.9433-1.453-0.15155-2.34 1.2141-0.763 2.7314-0.185 0.45819 6.301-0.36269 2.069-2.9713 2.584-0.91818 0.06h-0.0374l-0.0481-0.03-0.0713-0.05-0.0499-0.03-0.1462-0.169-0.43145-0.505-0.19255-0.371-0.62936-1.194-0.016-0.123 0.0499-0.193 0.18363-0.465-0.0303-0.426-1.2302-2.5-0.12836-0.13-0.0339-0.03"/>
  <path id="George__MS" class="28039" d="m664.22 468.82 8.0211-0.628 0.73811 5.996-9.2994 0.72-0.312-4.017 1.0018-0.11583-0.14955-1.9552"/>
 
 </g>
  <text x="10" y="50" font-size="50" fill="black" visibility="hidden">Harrison
    <set attributeName="visibility" from="visible" to="hidden" begin="county_group.mouseover"/>
    <set attributeName="visibility" from="hidden" to="visible" begin="Harrison__MS.mouseover" end="Harrison__MS.mouseout"/>
  </text>
  <text x="10" y="50" font-size="50" fill="black" visibility="hidden">Jackson
    <set attributeName="visibility" from="visible" to="hidden" begin="county_group.mouseover"/>
    <set attributeName="visibility" from="hidden" to="visible" begin="Jackson__MS.mouseover" end="Jackson__MS.mouseout"/>
  </text>
  <text x="10" y="50" font-size="50" fill="black" visibility="hidden">Grenada
    <set attributeName="visibility" from="visible" to="hidden" begin="county_group.mouseover"/>
    <set attributeName="visibility" from="hidden" to="visible" begin="Grenada__MS.mouseover" end="Grenada__MS.mouseout"/>
  </text>
  <text x="10" y="50" font-size="50" fill="black" visibility="hidden">Yalobusha
    <set attributeName="visibility" from="visible" to="hidden" begin="county_group.mouseover"/>
    <set attributeName="visibility" from="hidden" to="visible" begin="Yalobusha__MS.mouseover" end="Yalobusha__MS.mouseout"/>
  </text>
  <text x="10" y="50" font-size="50" fill="black" visibility="hidden">Clay
    <set attributeName="visibility" from="visible" to="hidden" begin="county_group.mouseover"/>
    <set attributeName="visibility" from="hidden" to="visible" begin="Clay__MS.mouseover" end="Clay__MS.mouseout"/>
  </text>
  <text x="10" y="50" font-size="50" fill="black" visibility="hidden">Webster
    <set attributeName="visibility" from="visible" to="hidden" begin="county_group.mouseover"/>
    <set attributeName="visibility" from="hidden" to="visible" begin="Webster__MS.mouseover" end="Webster__MS.mouseout"/>
  </text>
  <text x="10" y="50" font-size="50" fill="black" visibility="hidden">Chickasaw
    <set attributeName="visibility" from="visible" to="hidden" begin="county_group.mouseover"/>
    <set attributeName="visibility" from="hidden" to="visible" begin="Chickasaw__MS.mouseover" end="Chickasaw__MS.mouseout"/>
  </text>
  <text x="10" y="50" font-size="50" fill="black" visibility="hidden">Calhoun
    <set attributeName="visibility" from="visible" to="hidden" begin="county_group.mouseover"/>
    <set attributeName="visibility" from="hidden" to="visible" begin="Calhoun__MS.mouseover" end="Calhoun__MS.mouseout"/>
  </text>
  <text x="10" y="50" font-size="50" fill="black" visibility="hidden">Pontotoc
    <set attributeName="visibility" from="visible" to="hidden" begin="county_group.mouseover"/>
    <set attributeName="visibility" from="hidden" to="visible" begin="Pontotoc__MS.mouseover" end="Pontotoc__MS.mouseout"/>
  </text>
  <text x="10" y="50" font-size="50" fill="black" visibility="hidden">Lee
    <set attributeName="visibility" from="visible" to="hidden" begin="county_group.mouseover"/>
    <set attributeName="visibility" from="hidden" to="visible" begin="Lee__MS.mouseover" end="Lee__MS.mouseout"/>
  </text>
  <text x="10" y="50" font-size="50" fill="black" visibility="hidden">Union
    <set attributeName="visibility" from="visible" to="hidden" begin="county_group.mouseover"/>
    <set attributeName="visibility" from="hidden" to="visible" begin="Union__MS.mouseover" end="Union__MS.mouseout"/>
  </text>
  <text x="10" y="50" font-size="50" fill="black" visibility="hidden">Lafayette
    <set attributeName="visibility" from="visible" to="hidden" begin="county_group.mouseover"/>
    <set attributeName="visibility" from="hidden" to="visible" begin="Lafayette__MS.mouseover" end="Lafayette__MS.mouseout"/>
  </text>
  <text x="10" y="50" font-size="50" fill="black" visibility="hidden">Tate
    <set attributeName="visibility" from="visible" to="hidden" begin="county_group.mouseover"/>
    <set attributeName="visibility" from="hidden" to="visible" begin="Tate__MS.mouseover" end="Tate__MS.mouseout"/>
  </text>
  <text x="10" y="50" font-size="50" fill="black" visibility="hidden">Panola
    <set attributeName="visibility" from="visible" to="hidden" begin="county_group.mouseover"/>
    <set attributeName="visibility" from="hidden" to="visible" begin="Panola__MS.mouseover" end="Panola__MS.mouseout"/>
  </text>
  <text x="10" y="50" font-size="50" fill="black" visibility="hidden">Quitman
    <set attributeName="visibility" from="visible" to="hidden" begin="county_group.mouseover"/>
    <set attributeName="visibility" from="hidden" to="visible" begin="Quitman__MS.mouseover" end="Quitman__MS.mouseout"/>
  </text>
  <text x="10" y="50" font-size="50" fill="black" visibility="hidden">Tallahatchie
    <set attributeName="visibility" from="visible" to="hidden" begin="county_group.mouseover"/>
    <set attributeName="visibility" from="hidden" to="visible" begin="Tallahatchie__MS.mouseover" end="Tallahatchie__MS.mouseout"/>
  </text>
  <text x="10" y="50" font-size="50" fill="black" visibility="hidden">Leflore
    <set attributeName="visibility" from="visible" to="hidden" begin="county_group.mouseover"/>
    <set attributeName="visibility" from="hidden" to="visible" begin="Leflore__MS.mouseover" end="Leflore__MS.mouseout"/>
  </text>
  <text x="10" y="50" font-size="50" fill="black" visibility="hidden">Sunflower
    <set attributeName="visibility" from="visible" to="hidden" begin="county_group.mouseover"/>
    <set attributeName="visibility" from="hidden" to="visible" begin="Sunflower__MS.mouseover" end="Sunflower__MS.mouseout"/>
  </text>
  <text x="10" y="50" font-size="50" fill="black" visibility="hidden">Humphreys
    <set attributeName="visibility" from="visible" to="hidden" begin="county_group.mouseover"/>
    <set attributeName="visibility" from="hidden" to="visible" begin="Humphreys__MS.mouseover" end="Humphreys__MS.mouseout"/>
  </text>
  <text x="10" y="50" font-size="50" fill="black" visibility="hidden">Holmes
    <set attributeName="visibility" from="visible" to="hidden" begin="county_group.mouseover"/>
    <set attributeName="visibility" from="hidden" to="visible" begin="Holmes__MS.mouseover" end="Holmes__MS.mouseout"/>
  </text>
  <text x="10" y="50" font-size="50" fill="black" visibility="hidden">Carroll
    <set attributeName="visibility" from="visible" to="hidden" begin="county_group.mouseover"/>
    <set attributeName="visibility" from="hidden" to="visible" begin="Carroll__MS.mouseover" end="Carroll__MS.mouseout"/>
  </text>
  <text x="10" y="50" font-size="50" fill="black" visibility="hidden">Montgomery
    <set attributeName="visibility" from="visible" to="hidden" begin="county_group.mouseover"/>
    <set attributeName="visibility" from="hidden" to="visible" begin="Montgomery__MS.mouseover" end="Montgomery__MS.mouseout"/>
  </text>
  <text x="10" y="50" font-size="50" fill="black" visibility="hidden">Choctaw
    <set attributeName="visibility" from="visible" to="hidden" begin="county_group.mouseover"/>
    <set attributeName="visibility" from="hidden" to="visible" begin="Choctaw__MS.mouseover" end="Choctaw__MS.mouseout"/>
  </text>
  <text x="10" y="50" font-size="50" fill="black" visibility="hidden">Oktibbeha
    <set attributeName="visibility" from="visible" to="hidden" begin="county_group.mouseover"/>
    <set attributeName="visibility" from="hidden" to="visible" begin="Oktibbeha__MS.mouseover" end="Oktibbeha__MS.mouseout"/>
  </text>
  <text x="10" y="50" font-size="50" fill="black" visibility="hidden">Lowndes
    <set attributeName="visibility" from="visible" to="hidden" begin="county_group.mouseover"/>
    <set attributeName="visibility" from="hidden" to="visible" begin="Lowndes__MS.mouseover" end="Lowndes__MS.mouseout"/>
  </text>
  <text x="10" y="50" font-size="50" fill="black" visibility="hidden">Monroe
    <set attributeName="visibility" from="visible" to="hidden" begin="county_group.mouseover"/>
    <set attributeName="visibility" from="hidden" to="visible" begin="Monroe__MS.mouseover" end="Monroe__MS.mouseout"/>
  </text>
  <text x="10" y="50" font-size="50" fill="black" visibility="hidden">Itawamba
    <set attributeName="visibility" from="visible" to="hidden" begin="county_group.mouseover"/>
    <set attributeName="visibility" from="hidden" to="visible" begin="Itawamba__MS.mouseover" end="Itawamba__MS.mouseout"/>
  </text>
  <text x="10" y="50" font-size="50" fill="black" visibility="hidden">Prentiss
    <set attributeName="visibility" from="visible" to="hidden" begin="county_group.mouseover"/>
    <set attributeName="visibility" from="hidden" to="visible" begin="Prentiss__MS.mouseover" end="Prentiss__MS.mouseout"/>
  </text>
  <text x="10" y="50" font-size="50" fill="black" visibility="hidden">Tishomingo
    <set attributeName="visibility" from="visible" to="hidden" begin="county_group.mouseover"/>
    <set attributeName="visibility" from="hidden" to="visible" begin="Tishomingo__MS.mouseover" end="Tishomingo__MS.mouseout"/>
  </text>
  <text x="10" y="50" font-size="50" fill="black" visibility="hidden">Alcorn
    <set attributeName="visibility" from="visible" to="hidden" begin="county_group.mouseover"/>
    <set attributeName="visibility" from="hidden" to="visible" begin="Alcorn__MS.mouseover" end="Alcorn__MS.mouseout"/>
  </text>
  <text x="10" y="50" font-size="50" fill="black" visibility="hidden">Tippah
    <set attributeName="visibility" from="visible" to="hidden" begin="county_group.mouseover"/>
    <set attributeName="visibility" from="hidden" to="visible" begin="Tippah__MS.mouseover" end="Tippah__MS.mouseout"/>
  </text>
  <text x="10" y="50" font-size="50" fill="black" visibility="hidden">Benton
    <set attributeName="visibility" from="visible" to="hidden" begin="county_group.mouseover"/>
    <set attributeName="visibility" from="hidden" to="visible" begin="Benton__MS.mouseover" end="Benton__MS.mouseout"/>
  </text>
  <text x="10" y="50" font-size="50" fill="black" visibility="hidden">Marshall
    <set attributeName="visibility" from="visible" to="hidden" begin="county_group.mouseover"/>
    <set attributeName="visibility" from="hidden" to="visible" begin="Marshall__MS.mouseover" end="Marshall__MS.mouseout"/>
  </text>
  <text x="10" y="50" font-size="50" fill="black" visibility="hidden">DeSoto
    <set attributeName="visibility" from="visible" to="hidden" begin="county_group.mouseover"/>
    <set attributeName="visibility" from="hidden" to="visible" begin="DeSoto__MS.mouseover" end="DeSoto__MS.mouseout"/>
  </text>
  <text x="10" y="50" font-size="50" fill="black" visibility="hidden">Tunica
    <set attributeName="visibility" from="visible" to="hidden" begin="county_group.mouseover"/>
    <set attributeName="visibility" from="hidden" to="visible" begin="Tunica__MS.mouseover" end="Tunica__MS.mouseout"/>
  </text>
  <text x="10" y="50" font-size="50" fill="black" visibility="hidden">Coahoma
    <set attributeName="visibility" from="visible" to="hidden" begin="county_group.mouseover"/>
    <set attributeName="visibility" from="hidden" to="visible" begin="Coahoma__MS.mouseover" end="Coahoma__MS.mouseout"/>
  </text>
  <text x="10" y="50" font-size="50" fill="black" visibility="hidden">Bolivar
    <set attributeName="visibility" from="visible" to="hidden" begin="county_group.mouseover"/>
    <set attributeName="visibility" from="hidden" to="visible" begin="Bolivar__MS.mouseover" end="Bolivar__MS.mouseout"/>
  </text>
  <text x="10" y="50" font-size="50" fill="black" visibility="hidden">Washington
    <set attributeName="visibility" from="visible" to="hidden" begin="county_group.mouseover"/>
    <set attributeName="visibility" from="hidden" to="visible" begin="Washington__MS.mouseover" end="Washington__MS.mouseout"/>
  </text>
  <text x="10" y="50" font-size="50" fill="black" visibility="hidden">Sharkey
    <set attributeName="visibility" from="visible" to="hidden" begin="county_group.mouseover"/>
    <set attributeName="visibility" from="hidden" to="visible" begin="Sharkey__MS.mouseover" end="Sharkey__MS.mouseout"/>
  </text>
  <text x="10" y="50" font-size="50" fill="black" visibility="hidden">Issaquena
    <set attributeName="visibility" from="visible" to="hidden" begin="county_group.mouseover"/>
    <set attributeName="visibility" from="hidden" to="visible" begin="Issaquena__MS.mouseover" end="Issaquena__MS.mouseout"/>
  </text>
  <text x="10" y="50" font-size="50" fill="black" visibility="hidden">Yazoo
    <set attributeName="visibility" from="visible" to="hidden" begin="county_group.mouseover"/>
    <set attributeName="visibility" from="hidden" to="visible" begin="Yazoo__MS.mouseover" end="Yazoo__MS.mouseout"/>
  </text>
  <text x="10" y="50" font-size="50" fill="black" visibility="hidden">Attala
    <set attributeName="visibility" from="visible" to="hidden" begin="county_group.mouseover"/>
    <set attributeName="visibility" from="hidden" to="visible" begin="Attala__MS.mouseover" end="Attala__MS.mouseout"/>
  </text>
  <text x="10" y="50" font-size="50" fill="black" visibility="hidden">Winston
    <set attributeName="visibility" from="visible" to="hidden" begin="county_group.mouseover"/>
    <set attributeName="visibility" from="hidden" to="visible" begin="Winston__MS.mouseover" end="Winston__MS.mouseout"/>
  </text>
  <text x="10" y="50" font-size="50" fill="black" visibility="hidden">Noxubee
    <set attributeName="visibility" from="visible" to="hidden" begin="county_group.mouseover"/>
    <set attributeName="visibility" from="hidden" to="visible" begin="Noxubee__MS.mouseover" end="Noxubee__MS.mouseout"/>
  </text>
  <text x="10" y="50" font-size="50" fill="black" visibility="hidden">Kemper
    <set attributeName="visibility" from="visible" to="hidden" begin="county_group.mouseover"/>
    <set attributeName="visibility" from="hidden" to="visible" begin="Kemper__MS.mouseover" end="Kemper__MS.mouseout"/>
  </text>
  <text x="10" y="50" font-size="50" fill="black" visibility="hidden">Neshoba
    <set attributeName="visibility" from="visible" to="hidden" begin="county_group.mouseover"/>
    <set attributeName="visibility" from="hidden" to="visible" begin="Neshoba__MS.mouseover" end="Neshoba__MS.mouseout"/>
  </text>
  <text x="10" y="50" font-size="50" fill="black" visibility="hidden">Leake
    <set attributeName="visibility" from="visible" to="hidden" begin="county_group.mouseover"/>
    <set attributeName="visibility" from="hidden" to="visible" begin="Leake__MS.mouseover" end="Leake__MS.mouseout"/>
  </text>
  <text x="10" y="50" font-size="50" fill="black" visibility="hidden">Madison
    <set attributeName="visibility" from="visible" to="hidden" begin="county_group.mouseover"/>
    <set attributeName="visibility" from="hidden" to="visible" begin="Madison__MS.mouseover" end="Madison__MS.mouseout"/>
  </text>
  <text x="10" y="50" font-size="50" fill="black" visibility="hidden">Rankin
    <set attributeName="visibility" from="visible" to="hidden" begin="county_group.mouseover"/>
    <set attributeName="visibility" from="hidden" to="visible" begin="Rankin__MS.mouseover" end="Rankin__MS.mouseout"/>
  </text>
  <text x="10" y="50" font-size="50" fill="black" visibility="hidden">Hinds
    <set attributeName="visibility" from="visible" to="hidden" begin="county_group.mouseover"/>
    <set attributeName="visibility" from="hidden" to="visible" begin="Hinds__MS.mouseover" end="Hinds__MS.mouseout"/>
  </text>
  <text x="10" y="50" font-size="50" fill="black" visibility="hidden">Warren
    <set attributeName="visibility" from="visible" to="hidden" begin="county_group.mouseover"/>
    <set attributeName="visibility" from="hidden" to="visible" begin="Warren__MS.mouseover" end="Warren__MS.mouseout"/>
  </text>
  <text x="10" y="50" font-size="50" fill="black" visibility="hidden">Jefferson
    <set attributeName="visibility" from="visible" to="hidden" begin="county_group.mouseover"/>
    <set attributeName="visibility" from="hidden" to="visible" begin="Jefferson__MS.mouseover" end="Jefferson__MS.mouseout"/>
  </text>
  <text x="10" y="50" font-size="50" fill="black" visibility="hidden">Claiborne
    <set attributeName="visibility" from="visible" to="hidden" begin="county_group.mouseover"/>
    <set attributeName="visibility" from="hidden" to="visible" begin="Claiborne__MS.mouseover" end="Claiborne__MS.mouseout"/>
  </text>
  <text x="10" y="50" font-size="50" fill="black" visibility="hidden">Copiah
    <set attributeName="visibility" from="visible" to="hidden" begin="county_group.mouseover"/>
    <set attributeName="visibility" from="hidden" to="visible" begin="Copiah__MS.mouseover" end="Copiah__MS.mouseout"/>
  </text>
  <text x="10" y="50" font-size="50" fill="black" visibility="hidden">Simpson
    <set attributeName="visibility" from="visible" to="hidden" begin="county_group.mouseover"/>
    <set attributeName="visibility" from="hidden" to="visible" begin="Simpson__MS.mouseover" end="Simpson__MS.mouseout"/>
  </text>
  <text x="10" y="50" font-size="50" fill="black" visibility="hidden">Smith
    <set attributeName="visibility" from="visible" to="hidden" begin="county_group.mouseover"/>
    <set attributeName="visibility" from="hidden" to="visible" begin="Smith__MS.mouseover" end="Smith__MS.mouseout"/>
  </text>
  <text x="10" y="50" font-size="50" fill="black" visibility="hidden">Scott
    <set attributeName="visibility" from="visible" to="hidden" begin="county_group.mouseover"/>
    <set attributeName="visibility" from="hidden" to="visible" begin="Scott__MS.mouseover" end="Scott__MS.mouseout"/>
  </text>
  <text x="10" y="50" font-size="50" fill="black" visibility="hidden">Newton
    <set attributeName="visibility" from="visible" to="hidden" begin="county_group.mouseover"/>
    <set attributeName="visibility" from="hidden" to="visible" begin="Newton__MS.mouseover" end="Newton__MS.mouseout"/>
  </text>
  <text x="10" y="50" font-size="50" fill="black" visibility="hidden">Lauderdale
    <set attributeName="visibility" from="visible" to="hidden" begin="county_group.mouseover"/>
    <set attributeName="visibility" from="hidden" to="visible" begin="Lauderdale__MS.mouseover" end="Lauderdale__MS.mouseout"/>
  </text>
  <text x="10" y="50" font-size="50" fill="black" visibility="hidden">Clarke
    <set attributeName="visibility" from="visible" to="hidden" begin="county_group.mouseover"/>
    <set attributeName="visibility" from="hidden" to="visible" begin="Clarke__MS.mouseover" end="Clarke__MS.mouseout"/>
  </text>
  <text x="10" y="50" font-size="50" fill="black" visibility="hidden">Jasper
    <set attributeName="visibility" from="visible" to="hidden" begin="county_group.mouseover"/>
    <set attributeName="visibility" from="hidden" to="visible" begin="Jasper__MS.mouseover" end="Jasper__MS.mouseout"/>
  </text>
  <text x="10" y="50" font-size="50" fill="black" visibility="hidden">Jones
    <set attributeName="visibility" from="visible" to="hidden" begin="county_group.mouseover"/>
    <set attributeName="visibility" from="hidden" to="visible" begin="Jones__MS.mouseover" end="Jones__MS.mouseout"/>
  </text>
  <text x="10" y="50" font-size="50" fill="black" visibility="hidden">Covington
    <set attributeName="visibility" from="visible" to="hidden" begin="county_group.mouseover"/>
    <set attributeName="visibility" from="hidden" to="visible" begin="Covington__MS.mouseover" end="Covington__MS.mouseout"/>
  </text>
  <text x="10" y="50" font-size="50" fill="black" visibility="hidden">Jefferson Davis
    <set attributeName="visibility" from="visible" to="hidden" begin="county_group.mouseover"/>
    <set attributeName="visibility" from="hidden" to="visible" begin="Jefferson_Davis__MS.mouseover" end="Jefferson_Davis__MS.mouseout"/>
  </text>
  <text x="10" y="50" font-size="50" fill="black" visibility="hidden">Lawrence
    <set attributeName="visibility" from="visible" to="hidden" begin="county_group.mouseover"/>
    <set attributeName="visibility" from="hidden" to="visible" begin="Lawrence__MS.mouseover" end="Lawrence__MS.mouseout"/>
  </text>
  <text x="10" y="50" font-size="50" fill="black" visibility="hidden">Lincoln
    <set attributeName="visibility" from="visible" to="hidden" begin="county_group.mouseover"/>
    <set attributeName="visibility" from="hidden" to="visible" begin="Lincoln__MS.mouseover" end="Lincoln__MS.mouseout"/>
  </text>
  <text x="10" y="50" font-size="50" fill="black" visibility="hidden">Franklin
    <set attributeName="visibility" from="visible" to="hidden" begin="county_group.mouseover"/>
    <set attributeName="visibility" from="hidden" to="visible" begin="Franklin__MS.mouseover" end="Franklin__MS.mouseout"/>
  </text>
  <text x="10" y="50" font-size="50" fill="black" visibility="hidden">Adams
    <set attributeName="visibility" from="visible" to="hidden" begin="county_group.mouseover"/>
    <set attributeName="visibility" from="hidden" to="visible" begin="Adams__MS.mouseover" end="Adams__MS.mouseout"/>
  </text>
  <text x="10" y="50" font-size="50" fill="black" visibility="hidden">Wilkinson
    <set attributeName="visibility" from="visible" to="hidden" begin="county_group.mouseover"/>
    <set attributeName="visibility" from="hidden" to="visible" begin="Wilkinson__MS.mouseover" end="Wilkinson__MS.mouseout"/>
  </text>
  <text x="10" y="50" font-size="50" fill="black" visibility="hidden">Amite
    <set attributeName="visibility" from="visible" to="hidden" begin="county_group.mouseover"/>
    <set attributeName="visibility" from="hidden" to="visible" begin="Amite__MS.mouseover" end="Amite__MS.mouseout"/>
  </text>
  <text x="10" y="50" font-size="50" fill="black" visibility="hidden">Pike
    <set attributeName="visibility" from="visible" to="hidden" begin="county_group.mouseover"/>
    <set attributeName="visibility" from="hidden" to="visible" begin="Pike__MS.mouseover" end="Pike__MS.mouseout"/>
  </text>
  <text x="10" y="50" font-size="50" fill="black" visibility="hidden">Walthall
    <set attributeName="visibility" from="visible" to="hidden" begin="county_group.mouseover"/>
    <set attributeName="visibility" from="hidden" to="visible" begin="Walthall__MS.mouseover" end="Walthall__MS.mouseout"/>
  </text>
  <text x="10" y="50" font-size="50" fill="black" visibility="hidden">Marion
    <set attributeName="visibility" from="visible" to="hidden" begin="county_group.mouseover"/>
    <set attributeName="visibility" from="hidden" to="visible" begin="Marion__MS.mouseover" end="Marion__MS.mouseout"/>
  </text>
  <text x="10" y="50" font-size="50" fill="black" visibility="hidden">Lamar
    <set attributeName="visibility" from="visible" to="hidden" begin="county_group.mouseover"/>
    <set attributeName="visibility" from="hidden" to="visible" begin="Lamar__MS.mouseover" end="Lamar__MS.mouseout"/>
  </text>
  <text x="10" y="50" font-size="50" fill="black" visibility="hidden">Forrest
    <set attributeName="visibility" from="visible" to="hidden" begin="county_group.mouseover"/>
    <set attributeName="visibility" from="hidden" to="visible" begin="Forrest__MS.mouseover" end="Forrest__MS.mouseout"/>
  </text>
  <text x="10" y="50" font-size="50" fill="black" visibility="hidden">Wayne
    <set attributeName="visibility" from="visible" to="hidden" begin="county_group.mouseover"/>
    <set attributeName="visibility" from="hidden" to="visible" begin="Wayne__MS.mouseover" end="Wayne__MS.mouseout"/>
  </text>
  <text x="10" y="50" font-size="50" fill="black" visibility="hidden">Greene
    <set attributeName="visibility" from="visible" to="hidden" begin="county_group.mouseover"/>
    <set attributeName="visibility" from="hidden" to="visible" begin="Greene__MS.mouseover" end="Greene__MS.mouseout"/>
  </text>
  <text x="10" y="50" font-size="50" fill="black" visibility="hidden">Perry
    <set attributeName="visibility" from="visible" to="hidden" begin="county_group.mouseover"/>
    <set attributeName="visibility" from="hidden" to="visible" begin="Perry__MS.mouseover" end="Perry__MS.mouseout"/>
  </text>
  <text x="10" y="50" font-size="50" fill="black" visibility="hidden">Stone
    <set attributeName="visibility" from="visible" to="hidden" begin="county_group.mouseover"/>
    <set attributeName="visibility" from="hidden" to="visible" begin="Stone__MS.mouseover" end="Stone__MS.mouseout"/>
  </text>
  <text x="10" y="50" font-size="50" fill="black" visibility="hidden">Pearl River
    <set attributeName="visibility" from="visible" to="hidden" begin="county_group.mouseover"/>
    <set attributeName="visibility" from="hidden" to="visible" begin="Pearl_River__MS.mouseover" end="Pearl_River__MS.mouseout"/>
  </text>
  <text x="10" y="50" font-size="50" fill="black" visibility="hidden">Hancock
    <set attributeName="visibility" from="visible" to="hidden" begin="county_group.mouseover"/>
    <set attributeName="visibility" from="hidden" to="visible" begin="Hancock__MS.mouseover" end="Hancock__MS.mouseout"/>
  </text>
  <text x="10" y="50" font-size="50" fill="black" visibility="hidden">George
    <set attributeName="visibility" from="visible" to="hidden" begin="county_group.mouseover"/>
    <set attributeName="visibility" from="hidden" to="visible" begin="George__MS.mouseover" end="George__MS.mouseout"/>
  </text>

</svg>