<svg width="800" height="500" version="1.0" xmlns="http://www.w3.org/2000/svg">
 <g id="county-group" class="counties" transform="scale(6), translate(-390 -50)" style="fill:#d3d3d3;stroke-width:.17829;stroke:#000">
<path id="Cass__ND" class="38017" d="m500.41 98.85 9.7398 0.153 0.0802 1.993 0.0232 2.908 0.66679 2.186 0.19434 0.531-0.30666 4.998 9e-3 1.287-7.8981-0.06-6.3809-0.113 0.14442-7.987-0.38347-0.044 0.1018-5.943 4.0097 0.09"/>
  <path id="Richland__ND" class="38077" d="m510.82 112.91 0.68284 1.984 2.209 5.32 0.61153 4.821 0.0481 0.403-0.0321 0.465-0.0392 0.145-0.29774 0.836 0.21751 1.993-10.681-0.105-0.33696-1.391-0.12837-1.422 0.0731-5.149h-0.33875l0.1141-7.955 7.8981 0.06"/>
  <path id="Burke__ND" class="38013" d="m430.78 60.352-1.9915-0.135-0.13921 1.9375-1.2443-0.04248-0.26386 3.954-10.038-0.708 0.14441-1.968 0.14441-1.984-0.83438-0.06 0.48138-6.317 14.031 0.965-0.29061 4.355"/>
  <path id="Divide__ND" class="38023" d="m400.1 53.675 16.946 1.357-0.48138 6.317 0.83438 0.06-0.14441 1.984-17.847-1.423 0.69176-8.292"/>
  <path id="Williams__ND" class="38105" d="m399.4 61.967 17.847 1.423-0.14441 1.968-0.27278 3.946 0.8843 0.06-0.41719 5.666-0.65253-0.346-3.5336-0.481-1.576 0.135-0.19255 0.138-0.40293 0.419-0.27991 0.385-9e-3 0.04 0.0321 0.05 0.23356 0.103 0.12837 0.138 7e-3 0.1-0.0321 0.128-0.11946 0.129-0.72384 0.265-1.0608 0.289-2.25 0.417-0.19968-0.02-0.81121-0.715-0.34766-0.577-0.0392-0.708-0.27278-0.523-1.0127-0.337-0.32092 0.07-0.31378 0.16-0.48138 0.369-9e-3 0.105 0.0481 0.104 0.32091 0.314-0.44928 0.659-1.3657 1.045-0.98058 0.538-0.54734 0.113-1.856-1.077 0.71493-8.936 0.45819-5.545"/>
  <path id="Mountrail__ND" class="38061" d="m427.14 66.066 4.0186 0.225-0.24781 3.9808 0.78445 0.04524-0.49742 7.939-0.0693 1.2632 0.5114 0.10185 0.0963 2.676-8.0033-0.513-0.13728 2.04-3.8884-1.767-0.0642-0.07-0.0321-0.113-0.066-0.674 0.041-0.322 0.15332-0.603 0.0553-0.112 0.55448-0.667 0.33874-0.209 0.25673-0.233 0.23178-0.314 0.20146-0.408 9e-3 -0.121-0.0499-0.07-2.2161-2.167-1.1589-0.854-0.66501-0.09 0.41719-5.666-0.8843-0.06 0.27278-3.946 10.038 0.708"/>
  <path id="McKenzie__ND" class="38053" d="m417.3 75.025 0.66501 0.09 1.1589 0.854 2.2161 2.168 0.0499 0.07-9e-3 0.121-0.20146 0.408-0.23178 0.314-0.25673 0.233-0.33874 0.209-0.55448 0.667-0.0553 0.112-0.15332 0.603-0.041 0.322 0.066 0.674 0.0321 0.113 0.0642 0.07-0.2496 3.407-7.1279-0.531-0.57765 7.876-8.8965-0.7-5.9298-0.514 0.13728-1.535 1.1642-13.612 1.856 1.077 0.54734-0.113 0.98058-0.538 1.3657-1.045 0.44928-0.659-0.32091-0.314-0.0481-0.104 9e-3 -0.105 0.48138-0.369 0.31378-0.16 0.32092-0.06 1.0127 0.336 0.27278 0.523 0.0392 0.708 0.34766 0.577 0.81121 0.715 0.19968 0.02 2.25-0.417 1.0608-0.289 0.72384-0.265 0.11946-0.129 0.0321-0.128-7e-3 -0.1-0.12837-0.138-0.23356-0.103-0.0321-0.05 9e-3 -0.04 0.27991-0.385 0.40293-0.419 0.19255-0.138 1.576-0.135 3.5336 0.481 0.65253 0.346"/>
  <path id="Dunn__ND" class="38025" d="m423.6 83.824 0.51347-0.763 0.11232-0.106 0.1141-0.06 0.22464 0.04 0.85043 0.378 0.16224 0.103 0.0392 0.122-7e-3 0.144-0.0642 0.168-0.26564 3.175 0.0321 0.112 0.0642 0.1 0.76485 0.948-0.37084 5.625 0.95562 0.06-0.47424 7.257-6.0011-0.402-0.041 0.658-8.0033-0.545 0.5937-7.948-1.043-0.08 0.57765-7.876 7.1279 0.531 0.2496-3.407 3.8884 1.767"/>
  <path id="Stark__ND" class="38089" d="m426.25 101.13 0.76681 0.0378-0.0501 0.67716-0.37797 6.019-0.13728 1.977-13.179-0.877-4.812-0.361 0.61866-7.996 3.1254 0.234 8.0033 0.545 0.041-0.658 6.0011 0.402"/>
  <path id="Golden_Valley__ND" class="38033" d="m402.86 92.109-0.65075 7.964 0.90926 0.07-0.6347 7.992-3.038-0.247-0.16937 2.032-3.8724-0.328 0.19255-2.3 1.3336-15.7 5.9298 0.514"/>
  <path id="Billings__ND" class="38007" d="m402.86 92.109 8.8965 0.7 1.043 0.08-0.5937 7.948-3.1254-0.234-0.61866 7.996-5.978-0.46 0.6347-7.992-0.90926-0.07 0.65075-7.964"/>
  <path id="Bowman__ND" class="38011" d="m411.62 116.87-0.57052 7.675-16.802-1.334 0.64183-7.657 16.73 1.316"/>
  <path id="Slope__ND" class="38087" d="m402.48 108.14 5.978 0.46 4.812 0.361-0.52951 7.973-1.125-0.07-16.73-1.316 0.51525-5.955 3.8724 0.328 0.16937-2.032 3.038 0.247"/>
  <path id="Hettinger__ND" class="38041" d="m426.45 109.84 0.72385 0.06-0.45855 8.0618 0.7955 0.0712-0.11232 1.655-7.9712-0.538 0.12837-1.767-6.8141-0.442 0.52951-7.973 13.179 0.877"/>
  <path id="Adams__ND" class="38001" d="m411.62 116.87 1.125 0.07 6.8141 0.442-0.12837 1.767 7.9712 0.538-0.3851 5.971h-0.0321l-15.076-1.045-0.85934-0.06 0.57052-7.675"/>
  <path id="Mercer__ND" class="38057" d="m426.14 88.188 0.3441 0.177 4.4518 1.718 1.0198 0.305 0.22464-0.04 0.36371-0.184 0.77911-0.483 0.54556-0.176 3.9936-0.337h0.28169l0.12837 0.06 0.86826 0.898-0.0321 0.138-0.13015 0.144-0.58478 0.298-0.1462 0.128-0.27278 0.312-0.0553 0.17 0.0232 0.16 1.2462 3.471 1.3817 1.205-0.041 0.539-7.9623-0.465-0.36193 5.938-5.2381-0.322 0.0501-0.67716-0.76681-0.0378 0.47424-7.257-0.95562-0.06 0.37084-5.625"/>
  <path id="Grant__ND" class="38037" d="m426.59 107.86 5.9869 0.361-0.12123 1.992 6.6537 0.403-0.33697 5.923 3.9918 0.215 0.25852 2.018-1.5279 1.527-1.6313 1.271-1.5012 1.059-3.4249 1.558-1.2694 0.378h-0.0464l-1.5921-0.33-2.3801-0.836-1.0501-0.353-1.4227 0.121 0.22464-3.48 0.11232-1.654-0.7955-0.0722 0.45855-8.0618-0.72385-0.06 0.13728-1.977"/>
  <path id="Sioux__ND" class="38085" d="m443.02 118.77 0.18363-0.82 1.6402-1.519 0.67393-0.224 0.22464 0.201 0.62757 0.129 1.6242 0.103 0.40115-0.127 1.7276-0.677 0.13728 0.274 0.30487 0.804 0.11232 0.427 9e-3 0.69-0.2496 2.098-0.066 0.216-0.24782 0.506-0.29774 0.305-0.44215 0.66-0.19255 0.458-7e-3 0.265 0.16046 1.43 0.0642 0.232 1.4388 2.79-3.6478-0.185-0.36192-0.02h-0.13015l-1.9273-0.1-1.4548-0.08-6.2989-0.346-0.93244-0.06-2.0093-0.112-2.4283-0.153-2.3052-0.136-1.9362-0.121-0.25852-0.02h-0.14261l0.16046-2.491 1.4227-0.121 1.0501 0.353 2.3801 0.836 1.5921 0.33h0.0464l1.2694-0.378 3.4249-1.558 1.5012-1.059 1.6313-1.272 1.5279-1.526"/>
  <path id="Morton__ND" class="38059" d="m426.97 101.84 5.2381 0.322 13.074 0.699 0.025 0.426 0.36192 1.501 0.96275 3.545 0.69889 1.381 0.78089 0.772 1.109 0.562 0.92353 0.756 0.30665 0.538 0.44037 0.981-0.49029 0.74-0.14441 0.289-0.24069 1.02 0.0161 0.201 0.0963 0.264-1.7276 0.677-0.40115 0.127-1.6242-0.103-0.62757-0.129-0.22464-0.201-0.67393 0.224-1.6402 1.519-0.18363 0.82-0.25852-2.018-3.9918-0.215 0.33697-5.923-6.6537-0.403 0.12123-1.992-5.9869-0.361 0.37797-6.019"/>
  <path id="Oliver__ND" class="38065" d="m445.03 98.867 0.2496 3.994-13.074-0.699 0.36193-5.939 7.9623 0.466 0.041-0.539 2.1537-0.529 0.55447-0.05 0.44928 0.119 0.36193 0.154 0.52238 0.401 0.27278 0.355 0.0571 0.128 0.0874 2.138"/>
  <path id="Renville__ND" class="38075" d="m430.78 60.352 0.29061-4.355 8.0176 0.474-0.36906 6.342 0.68474 0.05191-0.21762 3.9321 6.035 0.353-0.10519 1.97-12.061-0.707 0.353-5.923-2.7474-0.17 0.11945-1.968"/>
  <path id="Ward__ND" class="38101" d="m427.14 66.066 0.26386-3.954 1.2443 0.04248 0.13921-1.9375 1.9915 0.135-0.11945 1.968 2.7474 0.17-0.353 5.923 12.061 0.707-0.10519 1.983 0.42976 0.04694-0.0588 6.1571 0.40115 1.801h0.19254l-0.21572 3.96-14.022-0.779-0.0963-2.677-0.5114-0.10185 0.0692-1.2632 0.49742-7.939-0.78445-0.04524 0.24781-3.9808-4.0186-0.225"/>
  <path id="McLean__ND" class="38055" d="m445.76 83.077 6.01 0.329-0.18363 3.955-1.3675-0.07-0.0802 1.166-0.32805 6.743-1.191-0.07-0.20146 3.89-3.391-0.161-0.0874-2.137-0.0571-0.129-0.27278-0.354-0.52238-0.402-0.36193-0.153-0.44928-0.119-0.55447 0.05-2.1537 0.529-1.3817-1.205-1.2462-3.471-0.0232-0.161 0.0553-0.169 0.27278-0.312 0.1462-0.128 0.58478-0.298 0.13015-0.145 0.0321-0.137-0.86826-0.898-0.12837-0.06h-0.28169l-3.9936 0.336-0.54556 0.177-0.77911 0.483-0.36371 0.184-0.22464 0.04-1.0198-0.305-4.4518-1.719-0.3441-0.176-0.76485-0.949-0.0642-0.1-0.0321-0.112 0.26564-3.175 0.0642-0.168 7e-3 -0.144-0.0392-0.122-0.16224-0.103-0.85043-0.378-0.22464-0.04-0.1141 0.06-0.11232 0.105-0.51347 0.763 0.13728-2.039 8.0033 0.513 14.022 0.779"/>
  <path id="Bottineau__ND" class="38009" d="m439.09 56.471 20.107 1.029-0.2817 6.364 0.57052 0.03-0.17829 3.944-2.0164-0.07-2.0004-0.09 0.0891-1.994-6.0118-0.305-4.0418-0.201-0.10341 1.977-6.035-0.353 0.21762-3.9321-0.68474-0.05191 0.36906-6.342"/>
  <path id="McHenry__ND" class="38049" d="m457.29 67.76-0.16759 3.938 0.43259 0.0041-0.18478 7.9839 0.4693 6e-3 -0.0361 3.987-6.0332-0.273-6.01-0.329 0.21572-3.96h-0.19254l-0.40115-1.801 0.0588-6.1571-0.42976-0.04694 0.21038-3.953 0.10341-1.977 4.0418 0.201 6.0118 0.305-0.0891 1.994 2.0004 0.09"/>
  <path id="Sheridan__ND" class="38083" d="m457.81 83.679 2.0093 0.1-0.17651 3.961 0.57052 0.03-0.33696 7.907-1.2623-0.05-8.7967-0.417 0.32805-6.743 0.0802-1.166 1.3675 0.07 0.18363-3.954 6.0332 0.272"/>
  <path id="Burleigh__ND" class="38015" d="m458.61 95.621-0.36014 7.891 0.62579 0.02-0.44216 7.964-9.2156-0.451-1.109-0.562-0.78089-0.772-0.69889-1.381-0.96275-3.545-0.36192-1.501-0.025-0.426-0.2496-3.993 3.391 0.16 0.20146-3.89 1.191 0.07 8.7967 0.417"/>
  <path id="Emmons__ND" class="38029" d="m458.43 111.5 2.628 0.12-0.35538 8.009 0.62103 0.035-0.35301 7.82-9.9252-0.484h-0.19968l-1.4388-2.79-0.0642-0.232-0.16046-1.429 7e-3 -0.266 0.19255-0.458 0.44215-0.66 0.29774-0.305 0.24782-0.506 0.066-0.216 0.2496-2.098-9e-3 -0.69-0.11232-0.426-0.30487-0.804-0.13728-0.275-0.0963-0.264-0.0161-0.201 0.24069-1.02 0.14441-0.289 0.49029-0.74-0.44037-0.98-0.30665-0.539-0.92353-0.756 9.2156 0.451"/>
  <path id="McIntosh__ND" class="38051" d="m461.33 119.66 13.427 0.481 0.54734 0.03-0.29061 7.868-11.434-0.435-2.603-0.119 0.35301-7.82"/>
  <path id="Logan__ND" class="38047" d="m461.06 111.62 7.4007 0.313 6.5574 0.257-0.26564 7.955-13.427-0.481-0.62103-0.035 0.35538-8.009"/>
  <path id="Kidder__ND" class="38043" d="m458.61 95.621 1.2623 0.05 8.679 0.346-0.29774 7.914 0.54556 0.02-0.33696 7.987-7.4007-0.313-2.628-0.12 0.44216-7.964-0.62579-0.02 0.36014-7.891"/>
  <path id="Wells__ND" class="38103" d="m459.81 83.775 4.0097 0.163 8.0122 0.312-0.12837 3.97 0.48138 0.02-0.0642 1.945-0.2086 5.946-3.3661-0.119-8.679-0.346 0.33696-7.907-0.57052-0.03 0.17651-3.962"/>
  <path id="Pierce__ND" class="38069" d="m459.31 67.833 10.063 0.417-0.13728 3.955-5.4734-0.216-0.34409 7.962 0.5616 0.03-0.15333 3.962-4.0097-0.162-2.0093-0.1 0.0361-3.987-0.4693-6e-3 0.18478-7.9839-0.43259-0.0041 0.16759-3.938 2.0164 0.07"/>
  <path id="Rolette__ND" class="38079" d="m459.31 67.833 0.17829-3.944-0.57052-0.03 0.2817-6.364 10.059 0.402-0.24782 6.388 0.51347 0.01-0.15155 3.945-10.063-0.417"/>
  <path id="Towner__ND" class="38095" d="m469.26 57.902 8.0514 0.273-0.15333 4.09-0.0464 2.305 0.44928 0.02-0.11945 3.953-0.13728 3.952-3.5444-0.119-4.5231-0.169 0.13728-3.955 0.15155-3.945-0.51347-0.01 0.24782-6.388"/>
  <path id="Benson__ND" class="38005" d="m469.23 72.205 4.5231 0.169-0.16046 4.901 0.11232 0.153 2.2026 1.2907 0.97982 2.2843 0.54734-0.119 2.1481-0.98236 0.8489 1.3104 1.9273 1.784 1.544 0.07-0.0321 1.566-12.038-0.385-8.0122-0.312 0.15333-3.962-0.5616-0.03 0.34409-7.962 5.4734 0.216"/>
  <path id="Eddy__ND" class="38027" d="m471.84 84.25 12.038 0.385 0.28882 3.977-0.0481 1.946-11.99-0.37 0.0642-1.945-0.48138-0.02 0.12837-3.97"/>
  <path id="Foster__ND" class="38031" d="m472.13 90.188 11.99 0.37-0.14442 5.954-12.054-0.378 0.2086-5.946"/>
  <path id="Stutsman__ND" class="38093" d="m468.55 96.015 3.3661 0.119 12.054 0.378 0.45159 0.0056-2e-3 1.9724-0.15155 5.97h0.44037l-0.19968 7.979-9.4902-0.257-6.5574-0.257 0.33696-7.987-0.54556-0.02 0.29774-7.914"/>
  <path id="LaMoure__ND" class="38045" d="m484.51 112.45 6.4362 0.162-0.18542 7.978-15.459-0.417-0.54734-0.03 0.26564-7.955 9.4902 0.257"/>
  <path id="Dickey__ND" class="38021" d="m475.3 120.17 15.459 0.417h0.4582l-0.20146 7.947-11.498-0.344-4.5089-0.161 0.29061-7.868"/>
  <path id="Sargent__ND" class="38081" d="m491.22 120.6 11.587 0.209h0.33875l-0.0731 5.149 0.12837 1.423 0.33696 1.39-12.045-0.217-0.47424-0.02 0.20146-7.947"/>
  <path id="Ransom__ND" class="38073" d="m490.95 112.61 5.5929 0.128 6.3809 0.113-0.1141 7.955-11.587-0.209h-0.4582l0.18542-7.978"/>
  <path id="Barnes__ND" class="38003" d="m492.39 98.675 4.0097 0.09-0.1018 5.943 0.38347 0.044-0.14442 7.987-5.5929-0.128-6.4362-0.162 0.19968-7.978h-0.44037l0.15155-5.971 7.9712 0.185"/>
  <path id="Griggs__ND" class="38039" d="m492.22 88.807 0.16759 9.868-7.9712-0.185 2e-3 -1.9724-0.45159-0.0056 0.19255-7.9 8.0604 0.195"/>
  <path id="Steele__ND" class="38091" d="m492.22 88.807 1.5992 0.03 6.4023 0.121 0.18542 9.89-8.0194-0.18-0.16759-9.868"/>
  <path id="Nelson__ND" class="38063" d="m487.7 76.778 6.035 0.135-0.0802 3.971h0.32805v0.03l-0.15868 7.914-1.5992-0.03-8.0604-0.194-0.28882-3.978 0.0321-1.565 0.0713-2.42 1.5992 0.04 0.11232-3.954 2.0093 0.04"/>
  <path id="Ramsey__ND" class="38071" d="m487.5 68.83-0.0713 2.669 0.37796 1.301-0.10519 3.978-2.0093-0.04-0.11232 3.954-1.5992-0.04-0.0713 2.419-1.544-0.07-1.9273-1.784-0.8489-1.3104-2.1481 0.98236-0.54734 0.119-0.97982-2.2843-2.2026-1.2907-0.11232-0.153 0.16046-4.901 3.5444 0.12 0.13728-3.953 10.059 0.289"/>
  <path id="Cavalier__ND" class="38019" d="m477.31 58.175 16.073 0.401-0.12123 6.421h0.34587l-0.0802 3.977-6.0279-0.153-10.059-0.289 0.11945-3.953-0.44928-0.02 0.0464-2.306 0.15333-4.09"/>
  <path id="Pembina__ND" class="38067" d="m493.38 58.576 11.048 0.177-0.0731 0.07-0.0713 0.337-0.0178 0.339 0.0892 0.481 1.1089 3.623 0.29774 0.884 0.67571 1.535-1.1268 3.126 0.0731 0.04-11.86-0.209 0.0802-3.978h-0.34587l0.12123-6.42"/>
  <path id="Walsh__ND" class="38099" d="m487.5 68.83 6.0279 0.153 11.86 0.209 0.12124 0.06 0.36014 0.442 0.0981 5.481-0.50634 1.952-11.724-0.218-6.035-0.135 0.10519-3.978-0.37796-1.301 0.0713-2.669"/>
  <path id="Grand_Forks__ND" class="38035" d="m505.46 77.131-9e-3 0.467v0.06l0.36192 1.398 1.4958 5.391 2.0236 4.622-9.1051-0.104-6.4023-0.121 0.15868-7.914v-0.03h-0.32805l0.0802-3.971 11.724 0.218"/>
  <path id="Traill__ND" class="38097" d="m500.23 88.96 9.1051 0.103 0.53843 3.962 0.2817 5.978-9.7398-0.153-0.18542-9.89"/>

 </g>
</svg>