<svg width="800" height="500" version="1.0" xmlns="http://www.w3.org/2000/svg">
 <g id="county_group" class="counties" transform="scale(5), translate(-380 -177)" style="fill:#d3d3d3;stroke-width:.17829;stroke:#000">
  <path id="Dawes__NE" class="31045" d="m397.54 191.53 8.4294 0.651 3.4873 0.265-0.36014 4.948 0.22465 1.344-0.46712 6.643-11.321-0.786-0.59548-0.05 0.61866-8.013-0.14441-0.898-0.0392-1.771 0.16759-2.335"/>
  <path id="Sioux__NE" class="31165" d="m397.54 191.53-0.16759 2.335 0.0392 1.771 0.14441 0.898-0.61866 8.013 0.59548 0.05-0.61866 7.987 0.71494 0.06-0.15333 2.002-11.04-0.854 1.9451-23.013 9.1586 0.749"/>
  <path id="Richardson__NE" class="31147" d="m523.08 259.89 7.9873-0.03 4.2985 6.044h-0.55447l-7.8428 0.03h-3.8974l9e-3 -6.042"/>
  <path id="Pawnee__NE" class="31133" d="m515.18 259.85 6.9193 0.02 0.98058 0.02-9e-3 6.042h-3.9936l-3.9277-0.02 0.0303-6.051"/>
  <path id="Nemaha__NE" class="31127" d="m522.1 253.82 6.2026-0.02 0.22643-0.491 0.65075 0.578-0.37797 0.676-0.19968 0.185 0.0963 0.408 1.1321 2.846 1.2141 1.182 0.0463 0.119-5e-3 0.04v0.03l-0.0178 0.418v0.06l-7.9873 0.03-0.98058-0.02v-6.051"/>
  <path id="Johnson__NE" class="31097" d="m522.1 253.82v6.051l-6.9193-0.02 0.025-6.037h6.8944"/>
  <path id="Otoe__NE" class="31131" d="m525.78 247.79 1.5511 4.598 0.97166 1.414-6.2026 0.02h-6.8944l0.0232-6.049 10.551 0.02"/>
  <path id="Cass__NE" class="31025" d="m517.76 241.73 0.12837 0.199 0.2496 0.227 1.2694 0.724 0.15332 0.02 0.46533-0.177 0.51347-0.256 0.26565-0.209 0.17828-0.241 0.3851-0.363 0.16938-0.111 0.75415-0.282h0.38688l2.3605 0.147 0.13015 0.02 0.3851 0.275 0.76485 3.358-0.54021 2.732-10.551-0.02 0.0321-5.376 2.426-0.0355 0.0736-0.62354"/>
  <path id="Sarpy__NE" class="31153" d="m517.62 238.37 6.9585-0.02 1.2052 0.724-0.23356 2.619-0.3851-0.275-0.13015-0.02-2.3605-0.147h-0.38688l-0.75415 0.282-0.16938 0.111-0.3851 0.363-0.17828 0.241-0.26565 0.209-0.51347 0.256-0.46533 0.177-0.15332-0.02-1.2694-0.724-0.2496-0.227-0.12837-0.199-0.13549-3.359"/>
  <path id="Douglas__NE" class="31055" d="m515.18 233.66 2.4354 0.02h6.7107l0.25674 4.677-6.9585 0.02-0.39048-2.5659-2.0538-2.1501"/>
  <path id="Washington__NE" class="31177" d="m515.66 226.94 5.5198 0.04 2.3962 4.065 0.74702 2.635h-6.7107l-0.0336-0.86666-1.1396-0.10066-0.47422-1.0987-0.16046-0.417-0.15333-0.555 9e-3 -3.696"/>
  <path id="Burt__NE" class="31021" d="m518.62 218.54 2.2589 4.195 0.30487 4.243-5.5198-0.04 0.0363-1.2651-1.9172-0.0929 0.0392-6.34 4.863 0.0545-0.0653-0.75346"/>
  <path id="Thurston__NE" class="31173" d="m510.95 213.16 6.4772 0.07-0.21038 1.422 1.4067 3.889 0.0653 0.75346-4.863-0.0545 0.0214-1.5632-4.5837-0.18977 0.0624-4.026 1.6242-0.303"/>
  <path id="Dakota__NE" class="31043" d="m512.52 207.48 3.2466 0.829 0.57765 0.04 0.22464 0.09 0.17829 0.248 0.0713 0.265 7e-3 0.355-0.11945 0.319 0.19968 2.646 0.51525 0.965-6.4772-0.07 0.17325-5.6622 1.4028-0.0208"/>
  <path id="Dixon__NE" class="31051" d="m506.16 202.01 3.5212 1.315 1.3728 0.869 0.18541 0.419 0.0963 0.385-0.0642 0.271-9e-3 0.21 0.0499 0.209 1.2052 1.792-1.4028 0.0208-0.17325 5.6622-1.6242 0.303-3.3298 2e-3 0.0439-2.0411 0.12837-9.417"/>
  <path id="Wayne__NE" class="31179" d="m500.11 211.33 5.9227 0.09-0.0439 2.0411 3.3298-2e-3 -0.0624 4.026-3.3197-0.04-5.9298-0.08 0.10341-6.033"/>
  <path id="Pierce__NE" class="31139" d="m492.09 217.26 0.15333-8.05 5.9066 0.09 1.9906-0.0217-0.0312 2.0547-0.10341 6.033-7.9159-0.103"/>
  <path id="Cedar__NE" class="31027" d="m498.3 199.3 1.0448 0.2426 0.81063-0.34897 0.81062-0.17405 1.05 0.45096 1.05 0.1303 0.0324 0.828 0.96527 0.68225 2.0952 0.88751-0.12837 9.417-5.9227-0.09 0.0312-2.0547-1.9906 0.0217 0.15155-9.9986"/>
  <path id="Knox__NE" class="31107" d="m484.47 198.79 2.3605 1.07 1.8328 1.582 0.36192 0.16 0.29774 0.05 0.27991-0.01 0.85221-0.128 0.22464-0.14 0.47425-0.431 0.353-0.506 0.43219-0.54489 0.19682-0.62334 0.79832-0.12645 0.51065 0.57968 0.56878 0.0513 0.50899-0.68617 0.51858 0.13525 0.41893 0.67338 0.65847-0.72603 0.62025 0.081 0.11689 0.48611 0.91491-0.23824 0.53431-0.18914-0.15155 9.9986-5.9066-0.09-7.866-0.153 0.0963-7.492-7e-3 -2.78"/>
  <path id="Dodge__NE" class="31053" d="m513.78 225.58 1.9172 0.0929-0.0363 1.2651-9e-3 3.696 0.15333 0.555 0.16046 0.417 0.47422 1.0987 1.1396 0.10066 0.0336 0.86666-2.4354-0.02-7.4488-1.448v-0.02l0.057-6.671 5.994 0.07"/>
  <path id="Colfax__NE" class="31037" d="m505.84 225.49 1.9451 0.02-0.057 6.671h-0.24782l-0.23355 0.06-2.5727 1.245-1.7989 0.41h-1.1339l0.13015-8.448 3.9687 0.05"/>
  <path id="Cuming__NE" class="31039" d="m505.94 217.45 3.3197 0.04 4.5837 0.18977-0.0214 1.5632-0.0392 6.34-5.994-0.07-1.9451-0.02 0.0963-8.042"/>
  <path id="Stanton__NE" class="31167" d="m505.94 217.45-0.0963 8.042-3.9687-0.05-1.9772-0.03 0.11232-8.046 5.9298 0.08"/>
  <path id="Madison__NE" class="31119" d="m492.09 217.26 7.9159 0.103-0.11232 8.046-7.8981-0.114 0.0392-4.028 0.0553-4.007"/>
  <path id="Antelope__NE" class="31003" d="m492.09 217.26-0.0553 4.007-7.8749-0.135 0.0161-4.024 0.20146-8.051 7.866 0.153-0.15333 8.05"/>
  <path id="Boone__NE" class="31011" d="m484.16 221.14 7.8749 0.135-0.0392 4.028-0.082 4.997h-0.9467l-2.8776 0.637-0.81121 0.328-3.2876-0.07 0.0731-6.034 0.0963-4.011"/>
  <path id="Platte__NE" class="31141" d="m499.9 225.41 1.9772 0.03-0.13015 8.448-1.9594-0.419-3.9794 1.374 0.0941-1.3823-1.877-0.0887 0.0867-3.0178-2.1923-0.0612 0.082-4.997 7.8981 0.114"/>
  <path id="Saunders__NE" class="31155" d="m507.73 232.21 7.4488 1.448 2.0538 2.1501 0.39048 2.5659 0.13549 3.359-0.0736 0.62354-2.426 0.0355 9e-3 -0.668-7.6752-0.08 0.13728-9.433"/>
  <path id="Seward__NE" class="31159" d="m507.55 241.64-0.11946 8.063-7.8838-0.107 0.11232-8.066 7.891 0.11"/>
  <path id="Butler__NE" class="31023" d="m499.66 241.53 0.12124-8.06 1.9594 0.419h1.1339l1.7989-0.41 2.5727-1.245 0.23355-0.06h0.24782v0.02l-0.13728 9.433h-0.0392l-7.891-0.11"/>
  <path id="Polk__NE" class="31143" d="m495.81 234.85 3.9794-1.374-0.12124 8.06-7.8981-0.128 0.0232-2.944 2.6552-3.0697 1.3616-0.54428"/>
  <path id="York__NE" class="31185" d="m499.66 241.53-0.11232 8.066-7.907-0.145h-0.025l0.14619-8.049 7.8981 0.128"/>
  <path id="Hamilton__NE" class="31081" d="m491.77 241.4-0.14619 8.049-7.8339-0.16h-0.0802l0.0963-4.026 0.85221-1.004 1.815-1.809 2.1466-1.714 0.65075-0.452 0.0963 0.149h0.025l0.37619-0.135 0.89322-0.426 0.21572-0.17 0.27456-0.31 0.49743-0.668 0.14441-0.268-0.0232 2.944"/>
  <path id="Nance__NE" class="31125" d="m483.99 231.18 3.2876 0.07 0.81121-0.328 2.8776-0.637h0.9467l2.1923 0.0612-0.0867 3.0178-0.0642 1.985-2.4514-0.02-2.619 0.272-1.519 0.321-0.73989 0.309-2.127-0.04h-0.35479l0.0963-2.997-0.21751-0.01h-0.0874l0.0553-2.007"/>
  <path id="Merrick__NE" class="31121" d="m484.03 233.19 0.21751 0.01-0.0963 2.997h0.35479l2.127 0.04 0.73989-0.309 1.519-0.321 2.619-0.272 2.4514 0.02 0.0642-1.985 1.877 0.0887-0.0941 1.3823-1.3616 0.54428-2.6552 3.0697-0.14441 0.267-0.49743 0.669-0.27456 0.31-0.21572 0.17-0.89322 0.426-0.37619 0.135h-0.025l-0.0963-0.15-0.65075 0.453-2.1466 1.714-1.815 1.809-0.85221 1.004 0.025-4.033 0.19968-8.046"/>
  <path id="Hall__NE" class="31079" d="m476.33 241.03 7.497 0.201-0.025 4.033-0.0963 4.026-7.6004-0.216 0.22464-8.044"/>
  <path id="Howard__NE" class="31093" d="m476.18 232.97 7.7626 0.216h0.0874l-0.19968 8.046-7.497-0.201-0.45819-0.02 0.30487-8.045"/>
  <path id="Sherman__NE" class="31163" d="m476.05 232.97h0.12837l-0.30487 8.045-7.916-0.259 0.34588-8.026 7.7466 0.24"/>
  <path id="Boyd__NE" class="31015" d="m468.7 195.63 12.671 0.371 3.104 2.784 7e-3 2.78-2.6511-0.185-1.8096-0.337-2.7474-0.931-1.5101-0.522-1.7044-0.979-0.41006-0.419-0.20146-0.07h-0.26387l-0.19255 0.05-2.9007 1.205-1.4548 0.622-0.12837 0.104 0.19255-4.466"/>
  <path id="Holt__NE" class="31089" d="m468.5 200.1 0.12837-0.104 1.4548-0.622 2.9007-1.205 0.19255-0.05h0.26387l0.20146 0.07 0.41006 0.419 1.7044 0.978 1.5101 0.523 2.7474 0.931 1.8096 0.336 2.6511 0.186-0.0963 7.492-0.20146 8.051-7.8268-0.203-7.8428-0.234h-0.19969l0.25674-7.367 0.0713-7.939-0.1355-1.262"/>
  <path id="Valley__NE" class="31175" d="m468.42 224.71 7.7288 0.25h0.12123l-0.22464 8.01-7.7466-0.24 0.12123-8.02"/>
  <path id="Greeley__NE" class="31077" d="m484.07 225.15-0.0731 6.034-0.0553 2.007-7.7626-0.216h-0.12837l0.22464-8.01 7.7947 0.185"/>
  <path id="Wheeler__NE" class="31183" d="m484.18 217.11-0.0161 4.024-0.0963 4.011-7.7947-0.185h-0.12123l0.20146-8.053 7.8268 0.203"/>
  <path id="Garfield__NE" class="31071" d="m468.25 224.7 0.25674-8.028 7.8428 0.234-0.20146 8.053-7.7288-0.25h-0.16937"/>
  <path id="Loup__NE" class="31115" d="m468.31 216.67h0.19969l-0.25674 8.028-7.9302-0.279 0.30487-7.995 0.41719 0.02 7.2652 0.217"/>
  <path id="Rock__NE" class="31149" d="m468.31 216.67-7.2652-0.217 0.28882-8.059h-0.20859l0.24247-6.853 1.2676 0.271 0.93244 0.105 0.33874-0.05 0.5937-0.219 3.6888-1.339 0.14441-0.07 0.16937-0.144 0.1355 1.262-0.0713 7.939-0.25674 7.367"/>
  <path id="Keya_Paha__NE" class="31103" d="m452.88 195 11.129 0.467 4.6854 0.168-0.19255 4.466-0.16937 0.144-0.14441 0.07-3.6888 1.339-0.5937 0.219-0.33874 0.05-0.93244-0.105-1.2676-0.271-0.1462 0.06h-0.312l-1.2391-0.218-4.6194-1.349-0.96453-0.392-0.32092-0.186-1.0465-0.932 0.16224-3.518"/>
  <path id="Brown__NE" class="31017" d="m461.37 201.54-0.24247 6.853h0.20859l-0.28882 8.059-0.41719-0.02-8.1566-0.331 0.35301-8.027-0.10519-9.554 1.0465 0.932 0.32092 0.186 0.96453 0.392 4.6194 1.349 1.2391 0.218h0.312l0.1462-0.06"/>
  <path id="Blaine__NE" class="31009" d="m450.78 216.02 1.6955 0.08 8.1566 0.331-0.30487 7.995-9.6275-0.387-0.24782-0.02 0.32805-8.004"/>
  <path id="Custer__NE" class="31041" d="m460.32 224.42 7.9302 0.279h0.16937l-0.12123 8.02-0.34588 8.026-3.7601-0.117-13.757-0.557h-0.24247l0.13728-2.685 0.15332-2.312 0.0963-2.926-0.2496-0.105 0.36192-8.012 9.6275 0.387"/>
  <path id="Buffalo__NE" class="31019" d="m464.2 240.64 3.7601 0.117 7.916 0.259 0.45819 0.02-0.22464 8.044-0.057 0.216-0.54734 0.06-1.2534 0.25-0.66501 0.313-0.7078 0.136-2.1145-0.07-2.4657-0.209-0.1462-0.06-4.1131-0.378 0.16046-8.702"/>
  <path id="Dawson__NE" class="31047" d="m450.44 240.08 13.757 0.557-0.16046 8.702-3.9063-0.475-5.8425-0.579-4.1862-0.193 0.33875-8.012"/>
  <path id="Phelps__NE" class="31137" d="m460.13 248.87 3.9063 0.475 4.1131 0.378-0.24068 7.174-7.8589-0.289h-0.20146l0.28169-7.729"/>
  <path id="Kearney__NE" class="31099" d="m476.05 249.29-0.2086 7.859h-0.0571l-7.8749-0.25 0.24068-7.174 0.1462 0.06 2.4657 0.209 2.1145 0.07 0.7078-0.136 0.66501-0.313 1.2534-0.25 0.54734-0.06"/>
  <path id="Adams__NE" class="31001" d="m476.05 249.29 0.057-0.216 7.6004 0.216h0.0802l-0.19255 8.062-7.7537-0.203 0.2086-7.859"/>
  <path id="Clay__NE" class="31035" d="m491.62 249.45h0.025l-0.14442 8.07-7.8268-0.168h-0.0802l0.19255-8.062 7.8339 0.16"/>
  <path id="Fillmore__NE" class="31059" d="m499.55 249.6-0.11945 8.06-7.8767-0.135h-0.0553l0.14442-8.07 7.907 0.145"/>
  <path id="Saline__NE" class="31151" d="m499.55 249.6 7.8838 0.107-0.0321 4.04-0.0963 4.025-7.8749-0.112 0.11945-8.06"/>
  <path id="Lancaster__NE" class="31109" d="m507.59 241.64 7.6752 0.08-9e-3 0.668-0.0321 5.376-0.0232 6.049-7.8018-0.07 0.0321-4.04 0.11946-8.062h0.0392"/>
  <path id="Gage__NE" class="31067" d="m515.2 253.82-0.025 6.037-0.0303 6.051-5.9797-0.05-1.9362-0.02 0.0731-8.061 0.0963-4.025 7.8018 0.07"/>
  <path id="Jefferson__NE" class="31095" d="m499.43 257.66 7.8749 0.112-0.0731 8.061-7.932-0.105 0.13015-8.068"/>
  <path id="Thayer__NE" class="31169" d="m499.43 257.66-0.13015 8.068-7.9142-0.127 0.16759-8.076 7.8767 0.135"/>
  <path id="Nuckolls__NE" class="31129" d="m491.5 257.52h0.0553l-0.16759 8.076-1.9291-0.04-5.9869-0.144 0.20146-8.057 7.8268 0.168"/>
  <path id="Webster__NE" class="31181" d="m475.84 257.15 7.7537 0.203h0.0802l-0.20146 8.057-4.0328-0.09-3.8813-0.105 0.22464-8.067h0.0571"/>
  <path id="Franklin__NE" class="31061" d="m475.78 257.14-0.22464 8.067-5.9548-0.185-1.9594-0.06 0.26387-8.076 7.8749 0.25"/>
  <path id="Harlan__NE" class="31083" d="m460.05 256.61 7.8589 0.289-0.26387 8.076-7.8197-0.281h-0.041l0.26564-8.084"/>
  <path id="Gosper__NE" class="31073" d="m460.13 248.87-0.28169 7.729-7.8749-0.322 0.082-2.022 1.9843 0.09 0.24782-6.058 5.8425 0.579"/>
  <path id="Furnas__NE" class="31065" d="m450.18 256.22 1.79 0.05 7.8749 0.322h0.20146l-0.26564 8.084-9.6097-0.385-0.27278-0.02 0.28169-8.066"/>
  <path id="Red_Willow__NE" class="31145" d="m440.43 255.77 9.7559 0.451-0.28169 8.066-9.5294-0.457-0.34766-0.03 0.40293-8.035"/>
  <path id="Hitchcock__NE" class="31087" d="m430.61 255.23 9.4991 0.531h0.32092l-0.40293 8.035-9.8824-0.529 0.46533-8.044"/>
  <path id="Dundy__NE" class="31057" d="m430.27 255.22 0.33696 0.01-0.46533 8.044-1.519-0.08-11.186-0.694 0.50634-8.001 12.327 0.716"/>
  <path id="Frontier__NE" class="31063" d="m440.5 247.64 9.6025 0.452 4.1862 0.193-0.24782 6.058-1.9843-0.09-0.082 2.022-1.79-0.05-9.7559-0.451h-0.32092l0.39223-8.119"/>
  <path id="Hayes__NE" class="31085" d="m440.5 247.64-0.39223 8.119-9.4991-0.531-0.33696-0.01 0.41006-8.046 1.6866 0.1 8.1317 0.375"/>
  <path id="Chase__NE" class="31029" d="m418.46 246.45 12.214 0.722-0.41006 8.046-12.327-0.716 0.52238-8.052"/>
  <path id="Perkins__NE" class="31135" d="m418.91 239.4 7e-3 -0.03 13.807 0.82-0.35479 7.08-1.6866-0.1-12.214-0.722 0.0802-1.207 0.36192-5.842"/>
  <path id="Lincoln__NE" class="31111" d="m442.41 231.66 7.9231 0.385 0.2496 0.105-0.0963 2.926-0.15332 2.312-0.13728 2.685h0.24247l-0.33875 8.012-9.6025-0.452-8.1317-0.375 0.35479-7.08 0.16046-9.055 9.5294 0.53"/>
  <path id="Keith__NE" class="31101" d="m420.63 230.41 9.8914 0.581 2.3552 0.144-0.16046 9.055-13.807-0.82 0.2496-5.029 0.2075-4.0395 1.2634 0.10853"/>
  <path id="Logan__NE" class="31113" d="m442.84 223.67 7.6111 0.353 0.24782 0.02-0.36192 8.012-7.9231-0.385 0.42611-7.996"/>
  <path id="McPherson__NE" class="31117" d="m430.99 222.95 4.3787 0.265 3.0041 0.209 2.2357 0.112 2.225 0.129-0.42611 7.996-9.5294-0.53-2.3552-0.144 0.46711-8.037"/>
  <path id="Arthur__NE" class="31005" d="m421.12 222.38 9.5384 0.553 0.32983 0.02-0.46711 8.037-9.8914-0.581 0.49029-8.025"/>
  <path id="Thomas__NE" class="31171" d="m440.96 215.49 9.82 0.522-0.32805 8.004-7.6111-0.353-2.225-0.129 0.34409-8.044"/>
  <path id="Hooker__NE" class="31091" d="m431.11 214.88 9.8432 0.617-0.34409 8.044-2.2357-0.112-3.0041-0.209-4.3787-0.265-0.32983-0.02 0.44929-8.059"/>
  <path id="Grant__NE" class="31075" d="m420.14 216.13 0.99756 0.0773 0.15774-2.0223 9.82 0.692-0.44929 8.059-9.5384-0.553-1.4067-0.08 0.41898-6.171"/>
  <path id="Deuel__NE" class="31049" d="m409.64 233.7 9.5223 0.644-0.2496 5.029-7e-3 0.03-9.8022-0.656 0.53664-5.048"/>
  <path id="Garden__NE" class="31069" d="m420.14 216.13-0.41898 6.171 1.4067 0.08-0.49029 8.025-1.2634-0.10853-0.2075 4.0395-9.5223-0.644 0.32864-3.6436-0.51641-0.0367 0.0844-1.3737 0.39223-5.721-0.37797-1.336-0.11054-0.672-0.025-0.412 0.0571-1.228 0.28883-3.744 10.375 0.602"/>
  <path id="Cheyenne__NE" class="31033" d="m409.54 228.64-0.0844 1.3737 0.51641 0.0367-0.32864 3.6436-0.53664 5.048-0.55626-0.03-12.551-0.918 0.79516-9.055 0.16755 0.0217 0.0589-1.0107 12.519 0.893"/>
  <path id="Morrill__NE" class="31123" d="m409.42 215.51 0.34588 0.02-0.28883 3.744-0.0571 1.228 0.025 0.412 0.11054 0.672 0.37797 1.336-0.39223 5.721-12.519-0.893 0.44037-6.032 0.66858-6.999 11.289 0.793"/>
  <path id="Kimball__NE" class="31105" d="m396.79 228.74-0.79516 9.055-3.3019-0.255-8.2279-0.674 0.77911-9.033 11.546 0.907"/>
  <path id="Banner__NE" class="31007" d="m397.46 221.72-0.44037 6.032-0.0589 1.0107-0.16755-0.0217-11.546-0.907 0.58657-7.03 11.626 0.916"/>
  <path id="Scotts_Bluff__NE" class="31157" d="m397.47 214.65 0.65253 0.06-0.66858 6.999-11.626-0.916 0.60261-7.002 11.04 0.854"/>
  <path id="Box_Butte__NE" class="31013" d="m409.42 215.51-11.289-0.793-0.65253-0.06 0.15333-2.002-0.71494-0.06 0.61866-7.987 11.321 0.786 0.40293 0.02-0.50944 8.2476 0.79532 0.1174-0.12542 1.735"/>
  <path id="Cherry__NE" class="31031" d="m421.33 193.27 3.4623 0.226 4.179 0.321 6.6608 0.346 5.3771 0.282 6.0742 0.281 3.2626 0.154 1.1981 0.06 1.3336 0.07-0.16224 3.518 0.10519 9.554-0.35301 8.027-1.6955-0.08-9.82-0.522-9.8432-0.617-9.82-0.692-0.57765-0.05 0.61449-9.3401-0.29654-0.0317 0.24365-7.2-0.14913-4e-3 0.20621-4.2945"/>
  <path id="Sheridan__NE" class="31161" d="m421.33 193.27-0.20621 4.2945 0.14913 4e-3 -0.24365 7.2 0.29654 0.0317-0.61449 9.3401 0.57765 0.05-0.15774 2.0223-0.99756-0.0773-10.375-0.602-0.34588-0.02 0.12542-1.735-0.79532-0.1184 0.50944-8.2466-0.40293-0.02 0.46712-6.643-0.22465-1.344 0.36014-4.948 11.877 0.817"/>
  
 </g>
  <text x="10" y="50" font-size="50" fill="black" visibility="hidden">Dawes
    <set attributeName="visibility" from="visible" to="hidden" begin="county_group.mouseover"/>
    <set attributeName="visibility" from="hidden" to="visible" begin="Dawes__NE.mouseover" end="Dawes__NE.mouseout"/>
  </text>
  <text x="10" y="50" font-size="50" fill="black" visibility="hidden">Sioux
    <set attributeName="visibility" from="visible" to="hidden" begin="county_group.mouseover"/>
    <set attributeName="visibility" from="hidden" to="visible" begin="Sioux__NE.mouseover" end="Sioux__NE.mouseout"/>
  </text>
  <text x="10" y="50" font-size="50" fill="black" visibility="hidden">Richardson
    <set attributeName="visibility" from="visible" to="hidden" begin="county_group.mouseover"/>
    <set attributeName="visibility" from="hidden" to="visible" begin="Richardson__NE.mouseover" end="Richardson__NE.mouseout"/>
  </text>
  <text x="10" y="50" font-size="50" fill="black" visibility="hidden">Pawnee
    <set attributeName="visibility" from="visible" to="hidden" begin="county_group.mouseover"/>
    <set attributeName="visibility" from="hidden" to="visible" begin="Pawnee__NE.mouseover" end="Pawnee__NE.mouseout"/>
  </text>
  <text x="10" y="50" font-size="50" fill="black" visibility="hidden">Nemaha
    <set attributeName="visibility" from="visible" to="hidden" begin="county_group.mouseover"/>
    <set attributeName="visibility" from="hidden" to="visible" begin="Nemaha__NE.mouseover" end="Nemaha__NE.mouseout"/>
  </text>
  <text x="10" y="50" font-size="50" fill="black" visibility="hidden">Johnson
    <set attributeName="visibility" from="visible" to="hidden" begin="county_group.mouseover"/>
    <set attributeName="visibility" from="hidden" to="visible" begin="Johnson__NE.mouseover" end="Johnson__NE.mouseout"/>
  </text>
  <text x="10" y="50" font-size="50" fill="black" visibility="hidden">Otoe
    <set attributeName="visibility" from="visible" to="hidden" begin="county_group.mouseover"/>
    <set attributeName="visibility" from="hidden" to="visible" begin="Otoe__NE.mouseover" end="Otoe__NE.mouseout"/>
  </text>
  <text x="10" y="50" font-size="50" fill="black" visibility="hidden">Cass
    <set attributeName="visibility" from="visible" to="hidden" begin="county_group.mouseover"/>
    <set attributeName="visibility" from="hidden" to="visible" begin="Cass__NE.mouseover" end="Cass__NE.mouseout"/>
  </text>
  <text x="10" y="50" font-size="50" fill="black" visibility="hidden">Sarpy
    <set attributeName="visibility" from="visible" to="hidden" begin="county_group.mouseover"/>
    <set attributeName="visibility" from="hidden" to="visible" begin="Sarpy__NE.mouseover" end="Sarpy__NE.mouseout"/>
  </text>
  <text x="10" y="50" font-size="50" fill="black" visibility="hidden">Douglas
    <set attributeName="visibility" from="visible" to="hidden" begin="county_group.mouseover"/>
    <set attributeName="visibility" from="hidden" to="visible" begin="Douglas__NE.mouseover" end="Douglas__NE.mouseout"/>
  </text>
  <text x="10" y="50" font-size="50" fill="black" visibility="hidden">Washington
    <set attributeName="visibility" from="visible" to="hidden" begin="county_group.mouseover"/>
    <set attributeName="visibility" from="hidden" to="visible" begin="Washington__NE.mouseover" end="Washington__NE.mouseout"/>
  </text>
  <text x="10" y="50" font-size="50" fill="black" visibility="hidden">Burt
    <set attributeName="visibility" from="visible" to="hidden" begin="county_group.mouseover"/>
    <set attributeName="visibility" from="hidden" to="visible" begin="Burt__NE.mouseover" end="Burt__NE.mouseout"/>
  </text>
  <text x="10" y="50" font-size="50" fill="black" visibility="hidden">Thurston
    <set attributeName="visibility" from="visible" to="hidden" begin="county_group.mouseover"/>
    <set attributeName="visibility" from="hidden" to="visible" begin="Thurston__NE.mouseover" end="Thurston__NE.mouseout"/>
  </text>
  <text x="10" y="50" font-size="50" fill="black" visibility="hidden">Dakota
    <set attributeName="visibility" from="visible" to="hidden" begin="county_group.mouseover"/>
    <set attributeName="visibility" from="hidden" to="visible" begin="Dakota__NE.mouseover" end="Dakota__NE.mouseout"/>
  </text>
  <text x="10" y="50" font-size="50" fill="black" visibility="hidden">Dixon
    <set attributeName="visibility" from="visible" to="hidden" begin="county_group.mouseover"/>
    <set attributeName="visibility" from="hidden" to="visible" begin="Dixon__NE.mouseover" end="Dixon__NE.mouseout"/>
  </text>
  <text x="10" y="50" font-size="50" fill="black" visibility="hidden">Wayne
    <set attributeName="visibility" from="visible" to="hidden" begin="county_group.mouseover"/>
    <set attributeName="visibility" from="hidden" to="visible" begin="Wayne__NE.mouseover" end="Wayne__NE.mouseout"/>
  </text>
  <text x="10" y="50" font-size="50" fill="black" visibility="hidden">Pierce
    <set attributeName="visibility" from="visible" to="hidden" begin="county_group.mouseover"/>
    <set attributeName="visibility" from="hidden" to="visible" begin="Pierce__NE.mouseover" end="Pierce__NE.mouseout"/>
  </text>
  <text x="10" y="50" font-size="50" fill="black" visibility="hidden">Cedar
    <set attributeName="visibility" from="visible" to="hidden" begin="county_group.mouseover"/>
    <set attributeName="visibility" from="hidden" to="visible" begin="Cedar__NE.mouseover" end="Cedar__NE.mouseout"/>
  </text>
  <text x="10" y="50" font-size="50" fill="black" visibility="hidden">Knox
    <set attributeName="visibility" from="visible" to="hidden" begin="county_group.mouseover"/>
    <set attributeName="visibility" from="hidden" to="visible" begin="Knox__NE.mouseover" end="Knox__NE.mouseout"/>
  </text>
  <text x="10" y="50" font-size="50" fill="black" visibility="hidden">Dodge
    <set attributeName="visibility" from="visible" to="hidden" begin="county_group.mouseover"/>
    <set attributeName="visibility" from="hidden" to="visible" begin="Dodge__NE.mouseover" end="Dodge__NE.mouseout"/>
  </text>
  <text x="10" y="50" font-size="50" fill="black" visibility="hidden">Colfax
    <set attributeName="visibility" from="visible" to="hidden" begin="county_group.mouseover"/>
    <set attributeName="visibility" from="hidden" to="visible" begin="Colfax__NE.mouseover" end="Colfax__NE.mouseout"/>
  </text>
  <text x="10" y="50" font-size="50" fill="black" visibility="hidden">Cuming
    <set attributeName="visibility" from="visible" to="hidden" begin="county_group.mouseover"/>
    <set attributeName="visibility" from="hidden" to="visible" begin="Cuming__NE.mouseover" end="Cuming__NE.mouseout"/>
  </text>
  <text x="10" y="50" font-size="50" fill="black" visibility="hidden">Stanton
    <set attributeName="visibility" from="visible" to="hidden" begin="county_group.mouseover"/>
    <set attributeName="visibility" from="hidden" to="visible" begin="Stanton__NE.mouseover" end="Stanton__NE.mouseout"/>
  </text>
  <text x="10" y="50" font-size="50" fill="black" visibility="hidden">Madison
    <set attributeName="visibility" from="visible" to="hidden" begin="county_group.mouseover"/>
    <set attributeName="visibility" from="hidden" to="visible" begin="Madison__NE.mouseover" end="Madison__NE.mouseout"/>
  </text>
  <text x="10" y="50" font-size="50" fill="black" visibility="hidden">Antelope
    <set attributeName="visibility" from="visible" to="hidden" begin="county_group.mouseover"/>
    <set attributeName="visibility" from="hidden" to="visible" begin="Antelope__NE.mouseover" end="Antelope__NE.mouseout"/>
  </text>
  <text x="10" y="50" font-size="50" fill="black" visibility="hidden">Boone
    <set attributeName="visibility" from="visible" to="hidden" begin="county_group.mouseover"/>
    <set attributeName="visibility" from="hidden" to="visible" begin="Boone__NE.mouseover" end="Boone__NE.mouseout"/>
  </text>
  <text x="10" y="50" font-size="50" fill="black" visibility="hidden">Platte
    <set attributeName="visibility" from="visible" to="hidden" begin="county_group.mouseover"/>
    <set attributeName="visibility" from="hidden" to="visible" begin="Platte__NE.mouseover" end="Platte__NE.mouseout"/>
  </text>
  <text x="10" y="50" font-size="50" fill="black" visibility="hidden">Saunders
    <set attributeName="visibility" from="visible" to="hidden" begin="county_group.mouseover"/>
    <set attributeName="visibility" from="hidden" to="visible" begin="Saunders__NE.mouseover" end="Saunders__NE.mouseout"/>
  </text>
  <text x="10" y="50" font-size="50" fill="black" visibility="hidden">Seward
    <set attributeName="visibility" from="visible" to="hidden" begin="county_group.mouseover"/>
    <set attributeName="visibility" from="hidden" to="visible" begin="Seward__NE.mouseover" end="Seward__NE.mouseout"/>
  </text>
  <text x="10" y="50" font-size="50" fill="black" visibility="hidden">Butler
    <set attributeName="visibility" from="visible" to="hidden" begin="county_group.mouseover"/>
    <set attributeName="visibility" from="hidden" to="visible" begin="Butler__NE.mouseover" end="Butler__NE.mouseout"/>
  </text>
  <text x="10" y="50" font-size="50" fill="black" visibility="hidden">Polk
    <set attributeName="visibility" from="visible" to="hidden" begin="county_group.mouseover"/>
    <set attributeName="visibility" from="hidden" to="visible" begin="Polk__NE.mouseover" end="Polk__NE.mouseout"/>
  </text>
  <text x="10" y="50" font-size="50" fill="black" visibility="hidden">York
    <set attributeName="visibility" from="visible" to="hidden" begin="county_group.mouseover"/>
    <set attributeName="visibility" from="hidden" to="visible" begin="York__NE.mouseover" end="York__NE.mouseout"/>
  </text>
  <text x="10" y="50" font-size="50" fill="black" visibility="hidden">Hamilton
    <set attributeName="visibility" from="visible" to="hidden" begin="county_group.mouseover"/>
    <set attributeName="visibility" from="hidden" to="visible" begin="Hamilton__NE.mouseover" end="Hamilton__NE.mouseout"/>
  </text>
  <text x="10" y="50" font-size="50" fill="black" visibility="hidden">Nance
    <set attributeName="visibility" from="visible" to="hidden" begin="county_group.mouseover"/>
    <set attributeName="visibility" from="hidden" to="visible" begin="Nance__NE.mouseover" end="Nance__NE.mouseout"/>
  </text>
  <text x="10" y="50" font-size="50" fill="black" visibility="hidden">Merrick
    <set attributeName="visibility" from="visible" to="hidden" begin="county_group.mouseover"/>
    <set attributeName="visibility" from="hidden" to="visible" begin="Merrick__NE.mouseover" end="Merrick__NE.mouseout"/>
  </text>
  <text x="10" y="50" font-size="50" fill="black" visibility="hidden">Hall
    <set attributeName="visibility" from="visible" to="hidden" begin="county_group.mouseover"/>
    <set attributeName="visibility" from="hidden" to="visible" begin="Hall__NE.mouseover" end="Hall__NE.mouseout"/>
  </text>
  <text x="10" y="50" font-size="50" fill="black" visibility="hidden">Howard
    <set attributeName="visibility" from="visible" to="hidden" begin="county_group.mouseover"/>
    <set attributeName="visibility" from="hidden" to="visible" begin="Howard__NE.mouseover" end="Howard__NE.mouseout"/>
  </text>
  <text x="10" y="50" font-size="50" fill="black" visibility="hidden">Sherman
    <set attributeName="visibility" from="visible" to="hidden" begin="county_group.mouseover"/>
    <set attributeName="visibility" from="hidden" to="visible" begin="Sherman__NE.mouseover" end="Sherman__NE.mouseout"/>
  </text>
  <text x="10" y="50" font-size="50" fill="black" visibility="hidden">Boyd
    <set attributeName="visibility" from="visible" to="hidden" begin="county_group.mouseover"/>
    <set attributeName="visibility" from="hidden" to="visible" begin="Boyd__NE.mouseover" end="Boyd__NE.mouseout"/>
  </text>
  <text x="10" y="50" font-size="50" fill="black" visibility="hidden">Holt
    <set attributeName="visibility" from="visible" to="hidden" begin="county_group.mouseover"/>
    <set attributeName="visibility" from="hidden" to="visible" begin="Holt__NE.mouseover" end="Holt__NE.mouseout"/>
  </text>
  <text x="10" y="50" font-size="50" fill="black" visibility="hidden">Valley
    <set attributeName="visibility" from="visible" to="hidden" begin="county_group.mouseover"/>
    <set attributeName="visibility" from="hidden" to="visible" begin="Valley__NE.mouseover" end="Valley__NE.mouseout"/>
  </text>
  <text x="10" y="50" font-size="50" fill="black" visibility="hidden">Greeley
    <set attributeName="visibility" from="visible" to="hidden" begin="county_group.mouseover"/>
    <set attributeName="visibility" from="hidden" to="visible" begin="Greeley__NE.mouseover" end="Greeley__NE.mouseout"/>
  </text>
  <text x="10" y="50" font-size="50" fill="black" visibility="hidden">Wheeler
    <set attributeName="visibility" from="visible" to="hidden" begin="county_group.mouseover"/>
    <set attributeName="visibility" from="hidden" to="visible" begin="Wheeler__NE.mouseover" end="Wheeler__NE.mouseout"/>
  </text>
  <text x="10" y="50" font-size="50" fill="black" visibility="hidden">Garfield
    <set attributeName="visibility" from="visible" to="hidden" begin="county_group.mouseover"/>
    <set attributeName="visibility" from="hidden" to="visible" begin="Garfield__NE.mouseover" end="Garfield__NE.mouseout"/>
  </text>
  <text x="10" y="50" font-size="50" fill="black" visibility="hidden">Loup
    <set attributeName="visibility" from="visible" to="hidden" begin="county_group.mouseover"/>
    <set attributeName="visibility" from="hidden" to="visible" begin="Loup__NE.mouseover" end="Loup__NE.mouseout"/>
  </text>
  <text x="10" y="50" font-size="50" fill="black" visibility="hidden">Rock
    <set attributeName="visibility" from="visible" to="hidden" begin="county_group.mouseover"/>
    <set attributeName="visibility" from="hidden" to="visible" begin="Rock__NE.mouseover" end="Rock__NE.mouseout"/>
  </text>
  <text x="10" y="50" font-size="50" fill="black" visibility="hidden">Keya Paha
    <set attributeName="visibility" from="visible" to="hidden" begin="county_group.mouseover"/>
    <set attributeName="visibility" from="hidden" to="visible" begin="Keya_Paha__NE.mouseover" end="Keya_Paha__NE.mouseout"/>
  </text>
  <text x="10" y="50" font-size="50" fill="black" visibility="hidden">Brown
    <set attributeName="visibility" from="visible" to="hidden" begin="county_group.mouseover"/>
    <set attributeName="visibility" from="hidden" to="visible" begin="Brown__NE.mouseover" end="Brown__NE.mouseout"/>
  </text>
  <text x="10" y="50" font-size="50" fill="black" visibility="hidden">Blaine
    <set attributeName="visibility" from="visible" to="hidden" begin="county_group.mouseover"/>
    <set attributeName="visibility" from="hidden" to="visible" begin="Blaine__NE.mouseover" end="Blaine__NE.mouseout"/>
  </text>
  <text x="10" y="50" font-size="50" fill="black" visibility="hidden">Custer
    <set attributeName="visibility" from="visible" to="hidden" begin="county_group.mouseover"/>
    <set attributeName="visibility" from="hidden" to="visible" begin="Custer__NE.mouseover" end="Custer__NE.mouseout"/>
  </text>
  <text x="10" y="50" font-size="50" fill="black" visibility="hidden">Buffalo
    <set attributeName="visibility" from="visible" to="hidden" begin="county_group.mouseover"/>
    <set attributeName="visibility" from="hidden" to="visible" begin="Buffalo__NE.mouseover" end="Buffalo__NE.mouseout"/>
  </text>
  <text x="10" y="50" font-size="50" fill="black" visibility="hidden">Dawson
    <set attributeName="visibility" from="visible" to="hidden" begin="county_group.mouseover"/>
    <set attributeName="visibility" from="hidden" to="visible" begin="Dawson__NE.mouseover" end="Dawson__NE.mouseout"/>
  </text>
  <text x="10" y="50" font-size="50" fill="black" visibility="hidden">Phelps
    <set attributeName="visibility" from="visible" to="hidden" begin="county_group.mouseover"/>
    <set attributeName="visibility" from="hidden" to="visible" begin="Phelps__NE.mouseover" end="Phelps__NE.mouseout"/>
  </text>
  <text x="10" y="50" font-size="50" fill="black" visibility="hidden">Kearney
    <set attributeName="visibility" from="visible" to="hidden" begin="county_group.mouseover"/>
    <set attributeName="visibility" from="hidden" to="visible" begin="Kearney__NE.mouseover" end="Kearney__NE.mouseout"/>
  </text>
  <text x="10" y="50" font-size="50" fill="black" visibility="hidden">Adams
    <set attributeName="visibility" from="visible" to="hidden" begin="county_group.mouseover"/>
    <set attributeName="visibility" from="hidden" to="visible" begin="Adams__NE.mouseover" end="Adams__NE.mouseout"/>
  </text>
  <text x="10" y="50" font-size="50" fill="black" visibility="hidden">Clay
    <set attributeName="visibility" from="visible" to="hidden" begin="county_group.mouseover"/>
    <set attributeName="visibility" from="hidden" to="visible" begin="Clay__NE.mouseover" end="Clay__NE.mouseout"/>
  </text>
  <text x="10" y="50" font-size="50" fill="black" visibility="hidden">Fillmore
    <set attributeName="visibility" from="visible" to="hidden" begin="county_group.mouseover"/>
    <set attributeName="visibility" from="hidden" to="visible" begin="Fillmore__NE.mouseover" end="Fillmore__NE.mouseout"/>
  </text>
  <text x="10" y="50" font-size="50" fill="black" visibility="hidden">Saline
    <set attributeName="visibility" from="visible" to="hidden" begin="county_group.mouseover"/>
    <set attributeName="visibility" from="hidden" to="visible" begin="Saline__NE.mouseover" end="Saline__NE.mouseout"/>
  </text>
  <text x="10" y="50" font-size="50" fill="black" visibility="hidden">Lancaster
    <set attributeName="visibility" from="visible" to="hidden" begin="county_group.mouseover"/>
    <set attributeName="visibility" from="hidden" to="visible" begin="Lancaster__NE.mouseover" end="Lancaster__NE.mouseout"/>
  </text>
  <text x="10" y="50" font-size="50" fill="black" visibility="hidden">Gage
    <set attributeName="visibility" from="visible" to="hidden" begin="county_group.mouseover"/>
    <set attributeName="visibility" from="hidden" to="visible" begin="Gage__NE.mouseover" end="Gage__NE.mouseout"/>
  </text>
  <text x="10" y="50" font-size="50" fill="black" visibility="hidden">Jefferson
    <set attributeName="visibility" from="visible" to="hidden" begin="county_group.mouseover"/>
    <set attributeName="visibility" from="hidden" to="visible" begin="Jefferson__NE.mouseover" end="Jefferson__NE.mouseout"/>
  </text>
  <text x="10" y="50" font-size="50" fill="black" visibility="hidden">Thayer
    <set attributeName="visibility" from="visible" to="hidden" begin="county_group.mouseover"/>
    <set attributeName="visibility" from="hidden" to="visible" begin="Thayer__NE.mouseover" end="Thayer__NE.mouseout"/>
  </text>
  <text x="10" y="50" font-size="50" fill="black" visibility="hidden">Nuckolls
    <set attributeName="visibility" from="visible" to="hidden" begin="county_group.mouseover"/>
    <set attributeName="visibility" from="hidden" to="visible" begin="Nuckolls__NE.mouseover" end="Nuckolls__NE.mouseout"/>
  </text>
  <text x="10" y="50" font-size="50" fill="black" visibility="hidden">Webster
    <set attributeName="visibility" from="visible" to="hidden" begin="county_group.mouseover"/>
    <set attributeName="visibility" from="hidden" to="visible" begin="Webster__NE.mouseover" end="Webster__NE.mouseout"/>
  </text>
  <text x="10" y="50" font-size="50" fill="black" visibility="hidden">Franklin
    <set attributeName="visibility" from="visible" to="hidden" begin="county_group.mouseover"/>
    <set attributeName="visibility" from="hidden" to="visible" begin="Franklin__NE.mouseover" end="Franklin__NE.mouseout"/>
  </text>
  <text x="10" y="50" font-size="50" fill="black" visibility="hidden">Harlan
    <set attributeName="visibility" from="visible" to="hidden" begin="county_group.mouseover"/>
    <set attributeName="visibility" from="hidden" to="visible" begin="Harlan__NE.mouseover" end="Harlan__NE.mouseout"/>
  </text>
  <text x="10" y="50" font-size="50" fill="black" visibility="hidden">Gosper
    <set attributeName="visibility" from="visible" to="hidden" begin="county_group.mouseover"/>
    <set attributeName="visibility" from="hidden" to="visible" begin="Gosper__NE.mouseover" end="Gosper__NE.mouseout"/>
  </text>
  <text x="10" y="50" font-size="50" fill="black" visibility="hidden">Furnas
    <set attributeName="visibility" from="visible" to="hidden" begin="county_group.mouseover"/>
    <set attributeName="visibility" from="hidden" to="visible" begin="Furnas__NE.mouseover" end="Furnas__NE.mouseout"/>
  </text>
  <text x="10" y="50" font-size="50" fill="black" visibility="hidden">Red Willow
    <set attributeName="visibility" from="visible" to="hidden" begin="county_group.mouseover"/>
    <set attributeName="visibility" from="hidden" to="visible" begin="Red_Willow__NE.mouseover" end="Red_Willow__NE.mouseout"/>
  </text>
  <text x="10" y="50" font-size="50" fill="black" visibility="hidden">Hitchcock
    <set attributeName="visibility" from="visible" to="hidden" begin="county_group.mouseover"/>
    <set attributeName="visibility" from="hidden" to="visible" begin="Hitchcock__NE.mouseover" end="Hitchcock__NE.mouseout"/>
  </text>
  <text x="10" y="50" font-size="50" fill="black" visibility="hidden">Dundy
    <set attributeName="visibility" from="visible" to="hidden" begin="county_group.mouseover"/>
    <set attributeName="visibility" from="hidden" to="visible" begin="Dundy__NE.mouseover" end="Dundy__NE.mouseout"/>
  </text>
  <text x="10" y="50" font-size="50" fill="black" visibility="hidden">Frontier
    <set attributeName="visibility" from="visible" to="hidden" begin="county_group.mouseover"/>
    <set attributeName="visibility" from="hidden" to="visible" begin="Frontier__NE.mouseover" end="Frontier__NE.mouseout"/>
  </text>
  <text x="10" y="50" font-size="50" fill="black" visibility="hidden">Hayes
    <set attributeName="visibility" from="visible" to="hidden" begin="county_group.mouseover"/>
    <set attributeName="visibility" from="hidden" to="visible" begin="Hayes__NE.mouseover" end="Hayes__NE.mouseout"/>
  </text>
  <text x="10" y="50" font-size="50" fill="black" visibility="hidden">Chase
    <set attributeName="visibility" from="visible" to="hidden" begin="county_group.mouseover"/>
    <set attributeName="visibility" from="hidden" to="visible" begin="Chase__NE.mouseover" end="Chase__NE.mouseout"/>
  </text>
  <text x="10" y="50" font-size="50" fill="black" visibility="hidden">Perkins
    <set attributeName="visibility" from="visible" to="hidden" begin="county_group.mouseover"/>
    <set attributeName="visibility" from="hidden" to="visible" begin="Perkins__NE.mouseover" end="Perkins__NE.mouseout"/>
  </text>
  <text x="10" y="50" font-size="50" fill="black" visibility="hidden">Lincoln
    <set attributeName="visibility" from="visible" to="hidden" begin="county_group.mouseover"/>
    <set attributeName="visibility" from="hidden" to="visible" begin="Lincoln__NE.mouseover" end="Lincoln__NE.mouseout"/>
  </text>
  <text x="10" y="50" font-size="50" fill="black" visibility="hidden">Keith
    <set attributeName="visibility" from="visible" to="hidden" begin="county_group.mouseover"/>
    <set attributeName="visibility" from="hidden" to="visible" begin="Keith__NE.mouseover" end="Keith__NE.mouseout"/>
  </text>
  <text x="10" y="50" font-size="50" fill="black" visibility="hidden">Logan
    <set attributeName="visibility" from="visible" to="hidden" begin="county_group.mouseover"/>
    <set attributeName="visibility" from="hidden" to="visible" begin="Logan__NE.mouseover" end="Logan__NE.mouseout"/>
  </text>
  <text x="10" y="50" font-size="50" fill="black" visibility="hidden">McPherson
    <set attributeName="visibility" from="visible" to="hidden" begin="county_group.mouseover"/>
    <set attributeName="visibility" from="hidden" to="visible" begin="McPherson__NE.mouseover" end="McPherson__NE.mouseout"/>
  </text>
  <text x="10" y="50" font-size="50" fill="black" visibility="hidden">Arthur
    <set attributeName="visibility" from="visible" to="hidden" begin="county_group.mouseover"/>
    <set attributeName="visibility" from="hidden" to="visible" begin="Arthur__NE.mouseover" end="Arthur__NE.mouseout"/>
  </text>
  <text x="10" y="50" font-size="50" fill="black" visibility="hidden">Thomas
    <set attributeName="visibility" from="visible" to="hidden" begin="county_group.mouseover"/>
    <set attributeName="visibility" from="hidden" to="visible" begin="Thomas__NE.mouseover" end="Thomas__NE.mouseout"/>
  </text>
  <text x="10" y="50" font-size="50" fill="black" visibility="hidden">Hooker
    <set attributeName="visibility" from="visible" to="hidden" begin="county_group.mouseover"/>
    <set attributeName="visibility" from="hidden" to="visible" begin="Hooker__NE.mouseover" end="Hooker__NE.mouseout"/>
  </text>
  <text x="10" y="50" font-size="50" fill="black" visibility="hidden">Grant
    <set attributeName="visibility" from="visible" to="hidden" begin="county_group.mouseover"/>
    <set attributeName="visibility" from="hidden" to="visible" begin="Grant__NE.mouseover" end="Grant__NE.mouseout"/>
  </text>
  <text x="10" y="50" font-size="50" fill="black" visibility="hidden">Deuel
    <set attributeName="visibility" from="visible" to="hidden" begin="county_group.mouseover"/>
    <set attributeName="visibility" from="hidden" to="visible" begin="Deuel__NE.mouseover" end="Deuel__NE.mouseout"/>
  </text>
  <text x="10" y="50" font-size="50" fill="black" visibility="hidden">Garden
    <set attributeName="visibility" from="visible" to="hidden" begin="county_group.mouseover"/>
    <set attributeName="visibility" from="hidden" to="visible" begin="Garden__NE.mouseover" end="Garden__NE.mouseout"/>
  </text>
  <text x="10" y="50" font-size="50" fill="black" visibility="hidden">Cheyenne
    <set attributeName="visibility" from="visible" to="hidden" begin="county_group.mouseover"/>
    <set attributeName="visibility" from="hidden" to="visible" begin="Cheyenne__NE.mouseover" end="Cheyenne__NE.mouseout"/>
  </text>
  <text x="10" y="50" font-size="50" fill="black" visibility="hidden">Morrill
    <set attributeName="visibility" from="visible" to="hidden" begin="county_group.mouseover"/>
    <set attributeName="visibility" from="hidden" to="visible" begin="Morrill__NE.mouseover" end="Morrill__NE.mouseout"/>
  </text>
  <text x="10" y="50" font-size="50" fill="black" visibility="hidden">Kimball
    <set attributeName="visibility" from="visible" to="hidden" begin="county_group.mouseover"/>
    <set attributeName="visibility" from="hidden" to="visible" begin="Kimball__NE.mouseover" end="Kimball__NE.mouseout"/>
  </text>
  <text x="10" y="50" font-size="50" fill="black" visibility="hidden">Banner
    <set attributeName="visibility" from="visible" to="hidden" begin="county_group.mouseover"/>
    <set attributeName="visibility" from="hidden" to="visible" begin="Banner__NE.mouseover" end="Banner__NE.mouseout"/>
  </text>
  <text x="10" y="50" font-size="50" fill="black" visibility="hidden">Scotts Bluff
    <set attributeName="visibility" from="visible" to="hidden" begin="county_group.mouseover"/>
    <set attributeName="visibility" from="hidden" to="visible" begin="Scotts_Bluff__NE.mouseover" end="Scotts_Bluff__NE.mouseout"/>
  </text>
  <text x="10" y="50" font-size="50" fill="black" visibility="hidden">Box Butte
    <set attributeName="visibility" from="visible" to="hidden" begin="county_group.mouseover"/>
    <set attributeName="visibility" from="hidden" to="visible" begin="Box_Butte__NE.mouseover" end="Box_Butte__NE.mouseout"/>
  </text>
  <text x="10" y="50" font-size="50" fill="black" visibility="hidden">Cherry
    <set attributeName="visibility" from="visible" to="hidden" begin="county_group.mouseover"/>
    <set attributeName="visibility" from="hidden" to="visible" begin="Cherry__NE.mouseover" end="Cherry__NE.mouseout"/>
  </text>
  <text x="10" y="50" font-size="50" fill="black" visibility="hidden">Sheridan
    <set attributeName="visibility" from="visible" to="hidden" begin="county_group.mouseover"/>
    <set attributeName="visibility" from="hidden" to="visible" begin="Sheridan__NE.mouseover" end="Sheridan__NE.mouseout"/>
  </text>

</svg>