<svg width="300" height="550" version="1.0" xmlns="http://www.w3.org/2000/svg">
 <g id="county_group" class="counties" transform="scale(7), translate(-910 -80)" style="fill:#d3d3d3;stroke-width:.17829;stroke:#000">
<path id="Coos__NH" class="33007" d="m922.53 90.736 0.61865 1.767 3.3999 10.253 0.24068 0.772 3.0148 9.586-0.23534 1.181-3.1554 0.6777-0.34945 2.4208 0.20206 1.2258-0.42315 0.24557-0.59353-1.5541-0.47862-0.26719-0.54756-0.74977-0.44689 0.15617-0.65075-0.708-0.48315-0.128-1.6195 0.50533-0.51642-1.0113-1.765-0.298-1.6509-1.23 0.34409 0.03 0.51525-0.378 0.041-0.06 0.22464-0.29 0.0945-0.137 0.066-0.104 0.79516-1.398 0.0802-0.137 0.18542-0.515-0.32106-1.0665 0.53678-0.93451-0.41719-0.673-0.0713-0.115-0.40293-0.499-0.73811-0.907-0.60439-0.596-0.1355-0.383 1.155-4.1131-1.1318-1.5299 0.38688-0.795-0.1355-1.366 0.3851-4.154 1.2926-1.688 0.17829-0.127 0.34409 0.177 0.14442 0.287 0.0731 0.08 0.51525 0.257 0.8433 0.06 0.70602-0.147 0.10519-0.09 0.3851-1.526"/>
  <path id="Grafton__NH" class="33009" d="m916.01 114.98 1.0768-1.398 1.6509 1.23 1.765 0.298 0.51642 1.0113 1.6195-0.50533 0.48315 0.128 0.65075 0.708 0.78981 1.139 1.1553 1.76 0.6668 3.487-3.1093 1.35 0.9057 2.074 0.36192 0.65 0.62303 1.2126-1.8673 0.95167 0.20478 1.5779-0.91985 1.5779-1.2235 0.37752-1.0104-0.93852-0.47424 1.003-0.42611 1.213-1.0555 0.08-1.8453 0.07-1.872-0.289-1.9932 0.161-0.36612-0.42147 0.28888-1.2862-0.22848-0.58191 0.4165-0.84518 0.33092-0.18948 0.57805-1.0067 0.0553-1.1591-0.26783-1.1591 0.62544-1.2732 0.11229-1.1971-0.40087-0.47492 0.32135-1.6913 0.29371-0.84564-0.35248-0.31348 0.0553-1.1591-0.27277-0.217-0.29953-0.403-0.52773-1.84v-0.144l0.0553-0.234 0.53843-0.972 0.0499-0.04 0.0838-0.08 1.1125-0.692 1.125-0.707"/>
  <path id="Strafford__NH" class="33017" d="m931.8 130.37 0.4557-1.068 0.63087 1.2678 0.44305-0.0229 0.38859-0.59269 0.42836 6e-3 0.23707 0.82303 0.35382-0.63656 0.37154-0.88595 0.27991 3.135 0.12302 0.513 0.15154 0.323 0.46712 0.649 0.29595 0.153 0.80586 0.401 1.9433 1.159 0.0499 0.06 0.624 2.507-0.62065 0.0834 0.11432 0.90658-1.0673 0.0234-2.2537 0.72355 0.41006-1.456-4.4006-1.791 0.12123-0.289 0.79516-1.913-0.79516-1.784-0.65074-1.568 0.29774-0.722"/>
  <path id="Rockingham__NH" class="33015" d="m942.1 139.06-0.69532 4.685-0.59191 0.37101-0.59191-0.30101-0.48851 0.03-0.11232 0.06-0.13193 0.06h-7e-3l-1.5493 1.15-0.22913 1.276-1.3523 0.073-0.21751 0.227-0.35774 0.71899 0.39716 1.0555-0.9469 0.0475-2.0717-0.40557-0.70376-1.0455-0.75995 0.0564-0.92532-2.2728 1.2543-0.62921-0.75507-1.0223 0.7702-6.541 4.4006 1.791-0.41006 1.456 2.2537-0.72355 1.0673-0.0234-0.11432-0.90658 0.62065-0.0834 2.2482 0.901"/>
  <path id="Cheshire__NH" class="33005" d="m913.2 144.24 0.47602 0.489 0.98771-0.168-0.13722-0.8331 0.61143-0.20422 2.7622-1.1261-0.14378 0.58779 0.0178 0.408 2.3201-0.14235 0.30487 2.54 0.48547 1.402 0.91639-0.218 1.3276 2.9967 0.54031-0.0288 0.61157 2.1701-5.8318 1.263-2.8936 0.618-1.8381-1.478-0.59742-0.87938-0.37658-0.55571 0.37153-1.0535-0.25933-0.9314 1.0153-1.0528-0.45882-1.2846 0.16662-1.4531-0.37836-1.0656"/>
  <path id="Sullivan__NH" class="33019" d="m912.68 133.91 1.9932-0.161 1.872 0.289 1.8453-0.07 1.0555-0.08-0.58176 2.1721-0.84754 3e-3 -0.0126 0.4797 0.41229 0.28345 0.13396 0.42261-0.41302 1.8886 0.75535 1.1579 0.37792-0.15431 0.22349 1.0194 0.72385 0.653-0.13015 1.437-2.3201 0.14235-0.0178-0.408 0.14378-0.58779-2.7622 1.1261-0.61143 0.20422 0.13722 0.8331-0.98771 0.168-0.47602-0.489-0.0642-1.695 0.0731-2.01-0.40962-0.26945 0.0655-0.63055-0.35096 0.0211-0.44598-3.685-0.14681-1.209 0.76546-0.84795"/>
  <path id="Hillsborough__NH" class="33011" d="m920.22 141.81 1.5605-0.95955 1.3398 1.5327 2.8898-1.4114 0.89081 1.8619 2.0636-0.70345 1.1821 0.79499 1.1146 0.26587 0.75507 1.0223-1.2543 0.62921 0.92532 2.2728 0.75995-0.0564 0.70376 1.0455 2.0717 0.40557-0.10698 0.242-0.41541 0.988-5.5465 1.278-0.0713 0.02-0.2496 0.06-4.0649 0.909-0.49208 0.11-0.61157-2.1701-0.54031 0.0288-1.3276-2.9967-0.91639 0.218-0.48547-1.402-0.30487-2.54 0.13015-1.437"/>
  <path id="Belknap__NH" class="33001" d="m924.54 126.91 1.4138 0.885 4.0828 2.266 1.7615 0.313-0.29774 0.722 0.65074 1.568 0.79516 1.784-0.79516 1.913-2.0831-1.0193-3.9287-1.5716-0.75416 0.62-0.86466-1.1433-0.27856 0.19102-0.75146-0.48186-0.0598-0.37907-0.84994-0.35183 0.91985-1.5779-0.20478-1.5779 1.8673-0.95167-0.62303-1.2126"/>
  <path id="Merrimack__NH" class="33013" d="m922.58 132.23 0.84994 0.35183 0.0598 0.37907 0.75146 0.48186 0.27856-0.19102 0.86466 1.1433 0.75416-0.62 3.9287 1.5716 2.0831 1.0193-0.12123 0.289-0.7702 6.541-1.1146-0.26537-1.1821-0.79449-2.0636 0.70295-0.89081-1.8624-2.8898 1.4114-1.3398-1.5327-1.5605 0.95955-0.72385-0.653-0.22349-1.0194-0.37792 0.15431-0.75535-1.1579 0.41302-1.8886-0.13396-0.42261-0.41229-0.28345 0.0126-0.4797 0.84754-3e-3 0.58176-2.1721 0.42611-1.212 0.47424-1.004 1.0104 0.93852 1.2235-0.37752"/>
  <path id="Carroll__NH" class="33003" d="m929.8 113.11 3.284 10.872 2.0253 5.279-0.37154 0.88595-0.35382 0.63666-0.23707-0.82293-0.42835-6e-3 -0.3886 0.59269-0.44305 0.0229-0.63087-1.2678-0.4557 1.068-1.7615-0.313-4.0828-2.266-1.4138-0.885-0.36192-0.65-0.9057-2.074 3.1093-1.35-0.6668-3.487-1.1553-1.76-0.78981-1.139 0.44689-0.15617 0.54756 0.74977 0.47862 0.26719 0.59353 1.5541 0.42315-0.24557-0.20206-1.2258 0.34945-2.4208 3.1554-0.6777 0.23534-1.181"/>
  
 </g>
  <text x="10" y="50" font-size="50" fill="black" visibility="hidden">Coos
    <set attributeName="visibility" from="visible" to="hidden" begin="county_group.mouseover"/>
    <set attributeName="visibility" from="hidden" to="visible" begin="Coos__NH.mouseover" end="Coos__NH.mouseout"/>
  </text>
  <text x="10" y="50" font-size="50" fill="black" visibility="hidden">Grafton
    <set attributeName="visibility" from="visible" to="hidden" begin="county_group.mouseover"/>
    <set attributeName="visibility" from="hidden" to="visible" begin="Grafton__NH.mouseover" end="Grafton__NH.mouseout"/>
  </text>
  <text x="10" y="50" font-size="50" fill="black" visibility="hidden">Strafford
    <set attributeName="visibility" from="visible" to="hidden" begin="county_group.mouseover"/>
    <set attributeName="visibility" from="hidden" to="visible" begin="Strafford__NH.mouseover" end="Strafford__NH.mouseout"/>
  </text>
  <text x="10" y="50" font-size="50" fill="black" visibility="hidden">Rockingham
    <set attributeName="visibility" from="visible" to="hidden" begin="county_group.mouseover"/>
    <set attributeName="visibility" from="hidden" to="visible" begin="Rockingham__NH.mouseover" end="Rockingham__NH.mouseout"/>
  </text>
  <text x="10" y="50" font-size="50" fill="black" visibility="hidden">Cheshire
    <set attributeName="visibility" from="visible" to="hidden" begin="county_group.mouseover"/>
    <set attributeName="visibility" from="hidden" to="visible" begin="Cheshire__NH.mouseover" end="Cheshire__NH.mouseout"/>
  </text>
  <text x="10" y="50" font-size="50" fill="black" visibility="hidden">Sullivan
    <set attributeName="visibility" from="visible" to="hidden" begin="county_group.mouseover"/>
    <set attributeName="visibility" from="hidden" to="visible" begin="Sullivan__NH.mouseover" end="Sullivan__NH.mouseout"/>
  </text>
  <text x="10" y="50" font-size="50" fill="black" visibility="hidden">Hillsborough
    <set attributeName="visibility" from="visible" to="hidden" begin="county_group.mouseover"/>
    <set attributeName="visibility" from="hidden" to="visible" begin="Hillsborough__NH.mouseover" end="Hillsborough__NH.mouseout"/>
  </text>
  <text x="10" y="50" font-size="50" fill="black" visibility="hidden">Belknap
    <set attributeName="visibility" from="visible" to="hidden" begin="county_group.mouseover"/>
    <set attributeName="visibility" from="hidden" to="visible" begin="Belknap__NH.mouseover" end="Belknap__NH.mouseout"/>
  </text>
  <text x="10" y="50" font-size="50" fill="black" visibility="hidden">Merrimack
    <set attributeName="visibility" from="visible" to="hidden" begin="county_group.mouseover"/>
    <set attributeName="visibility" from="hidden" to="visible" begin="Merrimack__NH.mouseover" end="Merrimack__NH.mouseout"/>
  </text>
  <text x="10" y="50" font-size="50" fill="black" visibility="hidden">Carroll
    <set attributeName="visibility" from="visible" to="hidden" begin="county_group.mouseover"/>
    <set attributeName="visibility" from="hidden" to="visible" begin="Carroll__NH.mouseover" end="Carroll__NH.mouseout"/>
  </text>

</svg>