<svg width="400" height="750" version="1.0" xmlns="http://www.w3.org/2000/svg">
 <g id="county_group" class="counties" transform="scale(12), translate(-878 -188)" style="fill:#d3d3d3;stroke-width:.17829;stroke:#000">
<path id="Monmouth__NJ" class="34025" d="m898.58 212.14 0.25882 0.14827 0.31288-0.54635 0.76227-9e-3 0.9291 0.0802 0.91853 0.42381 0.894 0.0209-0.25498-0.98692-0.19763-0.0205-0.0144-0.16906-0.28589-0.17119-7e-3 -0.14852 0.0887-0.10463 0.0553-0.07h0.12123l0.23178 0.107 0.63942 0.83487 0.38462 1.5501 0.13015 0.535 0.0107 0.04 0.14441 1.075 0.0392 0.467 0.025 0.99-0.0451 3.287-0.66948 0.23552-0.66947-0.77422-0.37395 0.80195-0.57096 0.0877-1.1441 0.11851-0.14849-0.60901-0.71493-0.5105-2.4443 0.483-2.0075 2.676-0.89322-1.196-0.66501-0.901 0.89143-0.659 1.0341-1.221v-0.06l-0.0945-0.168 1.5588-1.1658 1.8544-3.136-0.0839-1.3465"/>
  <path id="Ocean__NJ" class="34029" d="m894.98 221.99 2.0075-2.676 2.4443-0.483 0.71493 0.5105 0.14849 0.60901 1.1441-0.11851 0.57096-0.0877 0.37395-0.8019 0.66947 0.77427 0.66948-0.23547-9e-3 0.426 0.0981 1.879 0.0303 0.523 0.1355 1.59-0.69418 2.3452-0.23724 1.4184 0.61508 0.62613-0.22563 0.95645-1.7014 3.1897 0.90965 1.219-0.52416 0.546-2.1341-0.967 0.24069-0.415 0.0571-0.562-0.92531-4.009-4.0418-5.804-0.33696-0.458"/>
  <path id="Richmond__NY" class="36085" d="m899.52 209.93-0.0713 0.03-0.16224 0.226-0.25316 0.225h-0.0731l-0.25852 0.272-0.16224 0.1-0.11945 0.191-0.41185 0.168-0.0945-0.06-0.12224-0.12562-0.0355-0.15955 0.0819-0.16807-0.17284-0.54233 0.21137-0.35414 0.18179-8e-3 0.16217-0.29212 5e-3 -0.73473-0.10127-0.22746-0.10155-0.55605 0.22549-0.30172 0.40369-0.0943 0.31382-0.0397 0.22354-0.0578 0.17713-0.05 0.53033-0.2189 0.18721-0.03 0.13728 0.137 0.12836 0.378 0.35123 0.401-0.0464 0.25-0.64183 1.261-0.41184 0.411-0.0802-0.02"/>
  <path id="Essex__NJ" class="34013" d="m895.48 202.42 2.7973 1.189-0.12124 0.829-0.15799 0.93904 0.28549 0.21333 0.16454-0.32088 0.43423-0.0449 0.11169 0.4691 0.12177 0.23728-0.0705 0.37062-0.21125 0.4815-0.56608-0.25869-0.55242 0.2061-0.48219-0.36384-0.94453-0.0883-0.37037 0.25341-1.3-0.15669-0.21138-1.122 0.3586-0.88446 0.0736-1.0586-0.30638-0.15615-0.0855-0.87792 1.0322 0.1441"/>
  <path id="Union__NJ" class="34039" d="m894.62 206.38 1.3 0.15669 0.37037-0.25341 0.94453 0.0883 0.48219 0.36384 0.55242-0.2061 0.56608 0.25869-0.18618 0.66597-0.35596 0.14095-0.0802 0.03-0.0392 0.06-0.17593 0.23245 0.0558 0.23558 0.10728 0.515 0.0122 0.346-0.60403-0.0335-0.58899 0.24606-0.37138-0.17138-2.349 0.63641-0.48316 0.12467 0.59526-0.66065 0.10313-1.0297-0.75809 0.22792-0.29331-0.25054 1.1963-1.7193"/>
  <path id="Hudson__NJ" class="34017" d="m900.8 203.52-0.16224 2.161-0.21971-0.0502-0.44538 0.49233 0.18702 0.47435-0.37271 0.22328 0.0787 0.26895-1.2175 0.35729 0.28697-0.54502 0.27173-0.44118 0.01-0.60244-0.22256-0.16673-0.11169-0.4691-0.43423 0.0449-0.16454 0.32088-0.28549-0.21333 0.15799-0.93904 0.87972 0.0581 0.41494-0.89884 0.61999-0.57075 0.72935 0.49552"/>
  <path id="Bergen__NJ" class="34003" d="m895.22 196.86 6.0814 1.819 0.0268 1.884-0.0713 0.74685-0.45998 2.2112-0.72935-0.49552-0.61999 0.57075-0.41494 0.89884-0.87972-0.0581 0.12124-0.829 0.0802-0.08 0.10519-0.85-0.025-0.122-0.69889-1.228-0.16625-0.79481-0.6048-0.38378-1.173 0.18194-0.94953-0.73235 0.37797-2.739"/>
  <path id="Middlesex__NJ" class="34023" d="m898.17 209.01 0.016 0.129-9e-3 0.273-0.0765 0.19457-0.041 0.0942-0.11232 6e-3 -0.11945 0.01-0.24247 0.28-7e-3 0.176 0.19968 0.457-0.13517 0.73743-0.0107 0.03-0.0232 0.257 0.15075 0.23123 0.34331 0.0855 0.47108 0.17589h0.01l0.0839 1.3465-1.8544 3.136-1.5588 1.1658-0.1242-0.54752-1.2038-0.11384-1.3976-0.51984-0.20724-1.0458 0.10519-0.03 0.2086-0.241 0.0992-0.68607 1.8015-2.3494-0.68663-0.41449-0.43502-0.353-0.44928-0.481-0.025-0.168 0.11232-0.331 0.10519-0.129 0.61687-0.56769 0.48316-0.12467 2.349-0.63641 0.37138 0.17138 0.58899-0.24606 0.60403 0.0335"/>
  <path id="Somerset__NJ" class="34035" d="m893.42 208.09 0.29331 0.25054 0.75809-0.22792-0.10313 1.0297-0.59526 0.66065-0.61687 0.56769-0.10519 0.129-0.11232 0.331 0.025 0.168 0.44928 0.481 0.43502 0.353 0.68663 0.41449-1.8015 2.3494-0.0992 0.68607-0.2086 0.241-0.10519 0.03-0.10162-0.191-0.51525-0.06-1.1268 0.644-0.68997-1.004-0.10698-0.144-1.263-1.8838 0.48688 0.1322 0.31254-1.0384 0.11945-0.191 0.19255-1.494-0.47526-0.42357-0.16836-1.3954-0.12836-0.24-0.11232-0.08 2.6761-1.519 0.29944 0.35552 0.66377 0.68828-0.12886 0.76087 0.27466 0.52433 0.89143-0.90869"/>
  <path id="Morris__NJ" class="34027" d="m890.61 199.06 0.43786 0.26633 0.11278 0.85553 0.62072-0.52605 0.58008 0.46951 0.97992 0.0397h1.2715l0.19578 0.48473 0.29737-0.12479 0.23641 0.91139 0.13484 0.99267-1.0322-0.1441 0.0855 0.87792 0.30638 0.15615-0.0736 1.0586-0.3586 0.88446 0.21138 1.122-1.1963 1.7193-0.89143 0.90869-0.27466-0.52433 0.12886-0.76087-0.66377-0.68828-0.29944-0.35552-2.6761 1.519-1.6875-0.0777-1.4307-0.82834 0.99412-1.3607 0.42861-1.9113 0.49087-0.42506 0.65049 0.50981 1.0381-1.1091-0.21598-0.67588 1.5987-3.2508"/>
  <path id="Passaic__NJ" class="34031" d="m894.82 196.74 0.40114 0.121-0.37797 2.739 0.94953 0.73235 1.173-0.18194 0.6048 0.38378 0.16625 0.79481 0.69889 1.228 0.025 0.122-0.10519 0.85-0.0802 0.08-2.7973-1.189-0.13483-0.99267-0.23642-0.91139-0.29737 0.12479-0.19578-0.48473h-1.2715l-0.97992-0.0397-0.58008-0.46951-0.62072 0.52605-0.11278-0.85553-0.43786-0.26633 1.6937-3.173 2.5156 0.852"/>
  <path id="Sussex__NJ" class="34037" d="m892.3 195.89-1.6937 3.173-1.5987 3.2508 0.21598 0.67588-1.0381 1.1091-0.65049-0.50981-0.49087 0.42506-4.3556-3.432-0.0963-0.119 0.68462-0.963 0.47425-1.118 0.1034-0.692-0.0321-0.378-0.0713-0.07 0.0321-0.313 0.20859-0.892 0.0874-0.257 0.41006-0.843 0.48138-0.522 1.0144-0.731 6.3149 2.209"/>
  <path id="Warren__NJ" class="34041" d="m882.69 200.58 4.3556 3.432-0.42861 1.9113-0.99412 1.3607-0.16581 0.44-0.7488 1.439-0.13729 0.185-0.97879 0.983-1.6884 1.884-0.37618 0.644-0.18721-0.362-0.1141-0.209-0.42432-1.64-0.17829-1.387 0.29239-0.686 0.1355-0.04 0.25673 0.03 0.2603-0.04 0.35123-0.486 0.57765-1.771 9e-3 -0.135-0.0571-0.136-1.6313-1.922 1.872-3.496"/>
  <path id="Hunterdon__NJ" class="34019" d="m885.63 207.28 1.4307 0.82834 1.6875 0.0777 0.11232 0.08 0.12836 0.24 0.16836 1.3954 0.47526 0.42357-0.19255 1.494-0.11945 0.191-0.31254 1.0384-0.48688-0.1322 1.263 1.8838 0.10698 0.144-0.89593 0.30357 0.23084 0.7497-1.1413 0.41594 0.17892 0.32694 0.20117 0.37885-1.2106 0.435h-0.16759l-0.1141-0.06-1.6706-1.013-1.3015-2.619-2.4657-1.005 0.37618-0.644 1.6884-1.884 0.97879-0.983 0.13729-0.185 0.7488-1.439 0.16581-0.44"/>
  <path id="Mercer__NJ" class="34021" d="m889.89 214.95 0.68997 1.004 1.1268-0.644 0.51525 0.06 0.10162 0.191 0.20724 1.0458 1.3976 0.51984 1.2038 0.11384 0.1242 0.54752 0.0945 0.168v0.06l-1.0341 1.221-0.89143 0.659 0.66501 0.901-2.0964-0.58812-0.27305 0.91812-4.6355-3.561h0.16759l1.2106-0.435-0.20117-0.37885-0.17892-0.32694 1.1413-0.41594-0.23084-0.7497 0.89593-0.30357"/>
  <path id="Camden__NJ" class="34007" d="m885.53 228.36 1.3086-2.433 2.5617 1.6983 1.4395 2.3775 1.1147-0.5756 1.7053 1.1668-1.8007 3.288-1.3035-1.662-1.0938-0.32094-0.84346-0.61673-1.1051-0.58261-0.377-1.3107-0.93957-0.685-0.66679-0.344"/>
  <path id="Gloucester__NJ" class="34015" d="m884.85 229.34 0.68641-0.981 0.66679 0.344 0.93957 0.685 0.377 1.3107 1.1051 0.58261 0.84346 0.61673 1.0938 0.32094 1.3035 1.662-1.371 2.54-1.5921-0.925-2.8226-1.6608-1.0061 0.0733-2.052-0.49099-1.7767-1.0965 0.25633-0.25515 0.14937-0.48861 1.1384-1.4517 2.0608-0.78553"/>
  <path id="Salem__NJ" class="34033" d="m881.24 232.32 1.7767 1.0965 2.052 0.49099 1.0061-0.0733 2.8226 1.6608 0.21038 2.007v0.476l-0.025 0.113-3.1896-1.696-2.0016 2.684-0.54154 0.33577 0.13372 1.6323-0.63182-0.66038-0.29071-0.35126-0.47304-0.0906-0.28745-0.24847-0.4015-0.0954-0.44741-0.64426 0.33226-0.0972-0.28382-1.2227 0.35318-0.66558-1.057-0.51142-0.125-0.56049 0.53344-1.007-0.0634-0.7124 0.26904-0.57829 0.32934-1.2816"/>
  <path id="Cumberland__NJ" class="34011" d="m893.6 240.26-0.41253 2.044 0.23781 1.466-2.0097-0.0115-0.18233-0.36716-1.3113 0.35863-0.43868 0.67415-0.59078-0.23209-0.18288-0.73052-1.0063-0.51342-0.46855-0.0986 0.15484-0.33794-0.25765-0.28954-0.6585 0.157-0.078 0.29392-0.54348-0.30301-0.52229-0.78312-0.64848 0.13037-0.36992-0.20624-0.23596-0.37709-0.58844-0.0899-0.13372-1.6323 0.54154-0.33577 2.0016-2.684 3.1896 1.696 0.025-0.113v-0.476l-0.21038-2.007 1.5921 0.925 2.6918 1.4147 0.41569 2.4263"/>
  <path id="Cape_May__NJ" class="34009" d="m893.6 240.26 5.6036-0.701-0.73276 1.134-0.21751 0.387-0.24782 0.617-0.39401 1.067-0.43324 1.53v0.07l7e-3 0.01 0.0232 0.03-0.65075 2.323-0.47246 1.148-0.60439 1.038-0.89144 0.497-0.22464 0.06-0.52951 0.06-0.082-0.04-0.11233-0.137-0.025-1.437 0.0321-0.355 0.0891-0.481 0.33875-1.318 0.0392-0.28 0.0988-0.38014 9e-3 -0.68186-0.22705-0.339-0.3958-0.289-0.17472-0.02-0.23781-1.466 0.41253-2.044"/>
  <path id="Atlantic__NJ" class="34001" d="m902.12 234.2 0.35675 0.79244-1.0565 2.3256-2.2206 2.241-5.6036 0.701-0.41569-2.4263-2.6918-1.4147 1.371-2.54 1.8007-3.288 0.24247 0.128 0.98593 0.507 1.273 1.255 1.5903 0.738 0.4261 0.128 0.7702 0.154 1.0376-0.268 2.1341 0.967"/>
  <path id="Burlington__NJ" class="34005" d="m891.72 221.12 0.27305-0.91812 2.0964 0.58812 0.89322 1.196 0.33696 0.458 4.0418 5.804 0.92531 4.009-0.0571 0.562-0.24069 0.415-1.0376 0.268-0.7702-0.154-0.4261-0.128-1.5903-0.738-1.273-1.255-0.98593-0.507-0.24247-0.128-1.7053-1.1668-1.1147 0.5756-1.4395-2.3775-2.5617-1.6983 1.109-1.616 1.8845-1.5945 0.23559-0.74286 0.70665-0.0544 0.94225-0.79725"/>
  
 </g>
  <text x="10" y="50" font-size="50" fill="black" visibility="hidden">Monmouth
    <set attributeName="visibility" from="visible" to="hidden" begin="county_group.mouseover"/>
    <set attributeName="visibility" from="hidden" to="visible" begin="Monmouth__NJ.mouseover" end="Monmouth__NJ.mouseout"/>
  </text>
  <text x="10" y="50" font-size="50" fill="black" visibility="hidden">Ocean
    <set attributeName="visibility" from="visible" to="hidden" begin="county_group.mouseover"/>
    <set attributeName="visibility" from="hidden" to="visible" begin="Ocean__NJ.mouseover" end="Ocean__NJ.mouseout"/>
  </text>
  <text x="10" y="50" font-size="50" fill="black" visibility="hidden">Richmond
    <set attributeName="visibility" from="visible" to="hidden" begin="county_group.mouseover"/>
    <set attributeName="visibility" from="hidden" to="visible" begin="Richmond__NY.mouseover" end="Richmond__NY.mouseout"/>
  </text>
  <text x="10" y="50" font-size="50" fill="black" visibility="hidden">Essex
    <set attributeName="visibility" from="visible" to="hidden" begin="county_group.mouseover"/>
    <set attributeName="visibility" from="hidden" to="visible" begin="Essex__NJ.mouseover" end="Essex__NJ.mouseout"/>
  </text>
  <text x="10" y="50" font-size="50" fill="black" visibility="hidden">Union
    <set attributeName="visibility" from="visible" to="hidden" begin="county_group.mouseover"/>
    <set attributeName="visibility" from="hidden" to="visible" begin="Union__NJ.mouseover" end="Union__NJ.mouseout"/>
  </text>
  <text x="10" y="50" font-size="50" fill="black" visibility="hidden">Hudson
    <set attributeName="visibility" from="visible" to="hidden" begin="county_group.mouseover"/>
    <set attributeName="visibility" from="hidden" to="visible" begin="Hudson__NJ.mouseover" end="Hudson__NJ.mouseout"/>
  </text>
  <text x="10" y="50" font-size="50" fill="black" visibility="hidden">Bergen
    <set attributeName="visibility" from="visible" to="hidden" begin="county_group.mouseover"/>
    <set attributeName="visibility" from="hidden" to="visible" begin="Bergen__NJ.mouseover" end="Bergen__NJ.mouseout"/>
  </text>
  <text x="10" y="50" font-size="50" fill="black" visibility="hidden">Middlesex
    <set attributeName="visibility" from="visible" to="hidden" begin="county_group.mouseover"/>
    <set attributeName="visibility" from="hidden" to="visible" begin="Middlesex__NJ.mouseover" end="Middlesex__NJ.mouseout"/>
  </text>
  <text x="10" y="50" font-size="50" fill="black" visibility="hidden">Somerset
    <set attributeName="visibility" from="visible" to="hidden" begin="county_group.mouseover"/>
    <set attributeName="visibility" from="hidden" to="visible" begin="Somerset__NJ.mouseover" end="Somerset__NJ.mouseout"/>
  </text>
  <text x="10" y="50" font-size="50" fill="black" visibility="hidden">Morris
    <set attributeName="visibility" from="visible" to="hidden" begin="county_group.mouseover"/>
    <set attributeName="visibility" from="hidden" to="visible" begin="Morris__NJ.mouseover" end="Morris__NJ.mouseout"/>
  </text>
  <text x="10" y="50" font-size="50" fill="black" visibility="hidden">Passaic
    <set attributeName="visibility" from="visible" to="hidden" begin="county_group.mouseover"/>
    <set attributeName="visibility" from="hidden" to="visible" begin="Passaic__NJ.mouseover" end="Passaic__NJ.mouseout"/>
  </text>
  <text x="10" y="50" font-size="50" fill="black" visibility="hidden">Sussex
    <set attributeName="visibility" from="visible" to="hidden" begin="county_group.mouseover"/>
    <set attributeName="visibility" from="hidden" to="visible" begin="Sussex__NJ.mouseover" end="Sussex__NJ.mouseout"/>
  </text>
  <text x="10" y="50" font-size="50" fill="black" visibility="hidden">Warren
    <set attributeName="visibility" from="visible" to="hidden" begin="county_group.mouseover"/>
    <set attributeName="visibility" from="hidden" to="visible" begin="Warren__NJ.mouseover" end="Warren__NJ.mouseout"/>
  </text>
  <text x="10" y="50" font-size="50" fill="black" visibility="hidden">Hunterdon
    <set attributeName="visibility" from="visible" to="hidden" begin="county_group.mouseover"/>
    <set attributeName="visibility" from="hidden" to="visible" begin="Hunterdon__NJ.mouseover" end="Hunterdon__NJ.mouseout"/>
  </text>
  <text x="10" y="50" font-size="50" fill="black" visibility="hidden">Mercer
    <set attributeName="visibility" from="visible" to="hidden" begin="county_group.mouseover"/>
    <set attributeName="visibility" from="hidden" to="visible" begin="Mercer__NJ.mouseover" end="Mercer__NJ.mouseout"/>
  </text>
  <text x="10" y="50" font-size="50" fill="black" visibility="hidden">Camden
    <set attributeName="visibility" from="visible" to="hidden" begin="county_group.mouseover"/>
    <set attributeName="visibility" from="hidden" to="visible" begin="Camden__NJ.mouseover" end="Camden__NJ.mouseout"/>
  </text>
  <text x="10" y="50" font-size="50" fill="black" visibility="hidden">Gloucester
    <set attributeName="visibility" from="visible" to="hidden" begin="county_group.mouseover"/>
    <set attributeName="visibility" from="hidden" to="visible" begin="Gloucester__NJ.mouseover" end="Gloucester__NJ.mouseout"/>
  </text>
  <text x="10" y="50" font-size="50" fill="black" visibility="hidden">Salem
    <set attributeName="visibility" from="visible" to="hidden" begin="county_group.mouseover"/>
    <set attributeName="visibility" from="hidden" to="visible" begin="Salem__NJ.mouseover" end="Salem__NJ.mouseout"/>
  </text>
  <text x="10" y="50" font-size="50" fill="black" visibility="hidden">Cumberland
    <set attributeName="visibility" from="visible" to="hidden" begin="county_group.mouseover"/>
    <set attributeName="visibility" from="hidden" to="visible" begin="Cumberland__NJ.mouseover" end="Cumberland__NJ.mouseout"/>
  </text>
  <text x="10" y="50" font-size="50" fill="black" visibility="hidden">Cape May
    <set attributeName="visibility" from="visible" to="hidden" begin="county_group.mouseover"/>
    <set attributeName="visibility" from="hidden" to="visible" begin="Cape_May__NJ.mouseover" end="Cape_May__NJ.mouseout"/>
  </text>
  <text x="10" y="50" font-size="50" fill="black" visibility="hidden">Atlantic
    <set attributeName="visibility" from="visible" to="hidden" begin="county_group.mouseover"/>
    <set attributeName="visibility" from="hidden" to="visible" begin="Atlantic__NJ.mouseover" end="Atlantic__NJ.mouseout"/>
  </text>
  <text x="10" y="50" font-size="50" fill="black" visibility="hidden">Burlington
    <set attributeName="visibility" from="visible" to="hidden" begin="county_group.mouseover"/>
    <set attributeName="visibility" from="hidden" to="visible" begin="Burlington__NJ.mouseover" end="Burlington__NJ.mouseout"/>
  </text>

</svg>