<svg width="700" height="730" version="1.0" xmlns="http://www.w3.org/2000/svg">
 <g id="county_group" class="counties" transform="scale(5), translate(-265 -307)" style="fill:#d3d3d3;stroke-width:.17829;stroke:#000">
<path id="Lea__NM" class="35025" d="m388.92 409.84-0.39402 4.195-0.8843 9.868-1.4869 20.056-0.15154 1.993-0.47603-0.03-1.0911-0.09-1.3675-0.106-1.0038-0.07-1.141-0.09-7.6913-0.603 0.98236-12.004-1.7526-0.135 0.82012-10.182 0.92353 0.07 0.81121-9.902 0.8319-0.028 0.36618-3.909 4.0008 0.307 8.704 0.658"/>
  <path id="Eddy__NM" class="35015" d="m352.48 431.11 0.18541 0.01 0.96454-10.168 19.647 1.689-0.82012 10.182 1.7526 0.135-0.98236 12.004-4.9813-0.408-0.85934-0.07-15.95-1.43 0.54556-5.794h-0.0731l0.57052-6.14"/>
  <path id="Los_Alamos__NM" class="35028" d="m334.21 349.21-0.0392 0.822-0.24247 1.727-0.52951-0.05 0.45106 0.369 0.0392 0.06-0.2086 1.929-0.26565-0.588-0.27278-0.321-0.74702-0.433-0.56339-0.273-0.11232 0.103-0.37797 0.03-0.33696-0.02-0.18542-0.1-0.12123-0.224 0.62044-2.363 0.312-0.625 1.6242-0.17 0.6668 0.02 0.28882 0.102"/>
  <path id="Rio_Arriba__NM" class="35039" d="m315.54 322.98 7.6111 0.9 2.3445 0.451 4.582 0.505 2.5548 0.274 8.5168 0.876 0.20146 1.59-0.16937 2.491-0.22464 4.951 0.10519 1.365 0.0642 1.439-0.0161 0.466-0.51346 2.242-0.15333 0.321-0.24069 0.195-0.57943 0.231-0.4582 0.03-0.23177 0.06-0.37084 0.442-0.0642 0.176 3.5265 1.922 1.4958 2.459 0.18542 0.385 0.23356 0.385 3.5657 2.394-3.5176 0.443 0.0713-0.548-6.4682-0.667 0.0232 0.298 0.1765 0.03 0.025 0.09-0.12837 1.261-3.5194-0.385 0.0392-0.822 0.041-0.159 0.0642-0.644-11.724-1.251 0.29774-2.74 0.27991-2.268-6.4522-0.747-7.062-0.931 0.62579-5.425 0.23356-1.776 0.87539-5.996 0.48137-0.875 2.9186-2.411 0.75415-1.012"/>
  <path id="San_Juan__NM" class="35045" d="m298.2 320.81 16.24 2.032 1.1 0.136-0.75415 1.012-2.9186 2.411-0.48137 0.875-0.87539 5.996-0.23356 1.776-0.62579 5.425-0.65966 5.037-8.4775-1.118-17.517-2.323 3.1735-22.867 12.029 1.608"/>
  <path id="McKinley__NM" class="35031" d="m283 342.07 17.517 2.323 8.4775 1.118 5.8336 0.747-1.9362 15.935-5.053-0.61073 0.16145-1.1179-2.7576-0.33953-0.20084 1.1202-13.58-1.785-0.041 0.323-1.0216 7.659-10.703-1.464 3.3037-23.908"/>
  <path id="Bernalillo__NM" class="35001" d="m314.77 364.42 4.3235 0.52 3.7048 0.435 3.0451 0.353 4.4358 0.498 2.1216 0.29-0.41897 4.026-0.21573 1.993 1.7508 0.184-0.20147 1.92-1.4851-0.135-3.3839-0.394-9e-3 -0.516-0.14441-0.231-0.15155-0.06-4.7246-0.594-0.58835 0.538-0.15154 0.218-5.666-0.653-0.54556-2.087-1.6955-6.308"/>
  <path id="Valencia__NM" class="35061" d="m316.46 370.73 0.54556 2.087 5.666 0.653 0.15154-0.218 0.58835-0.538 4.7246 0.594 0.15155 0.06 0.14441 0.231 9e-3 0.516-0.97831-0.10204-0.17165 1.396-0.6347 4.587-0.19968 2.026 0.98058 0.1-0.19433 1.881-1.5012-0.515-4.9261-2.377-1.9291-1.303-0.5206-0.08-5.4984-0.603 1.0608-8.711 2.5317 0.323"/>
  <path id="Cibola__NM" class="35006" d="m314.77 364.42 1.6955 6.308-2.5317-0.323-1.0608 8.711-9.722-1.166-1.2712-0.184-6.2097-0.822-4.4679-0.529-12.705-1.719 1.2052-8.718 10.703 1.464 1.0216-7.659 0.041-0.323 13.58 1.785 0.20084-1.1202 2.7576 0.33953-0.16145 1.1179 5.053 0.61073 1.3488 0.15028 0.52319 2.0767"/>
  <path id="Sierra__NM" class="35051" d="m300.24 403.24 12.494 1.471 2.0984 0.298 6.019 0.708 2.7242 0.287 2.0735 0.13-0.22529 2.0389 0.52302 0.0661-0.74702 7.77-11.05 4.099-0.11232 0.995-7.8678-0.94-0.48138 4.003-5.9138-0.715-2.0414-0.651-0.30487-0.253 0.0481-0.246 0.2086-0.401 0.34588-1.35 0.0963-0.973-0.0321-0.344-0.49098-2.8533 0.09-2.6458-1.3453-0.62647 0.61235-3.2955-0.0321-0.182-0.23355-0.412-0.16046-0.05-2.5459-0.305 0.80408-6.332 5.4467 0.707"/>
  <path id="Socorro__NM" class="35053" d="m312.87 379.12 5.4984 0.603 0.5206 0.08 1.9291 1.303 4.9261 2.377 1.5012 0.515-0.43324 4.138 9.2406 0.988-0.65788 5.971-0.40292 4.018-2.4176-0.267-0.43323 4.036-1.8417-0.194-0.16046-0.07-2.0574-0.4-1.9915-0.226-0.44215 4.147-2.0735-0.13-2.7242-0.287-6.019-0.708-2.0984-0.298-12.494-1.471 0.47425-3.76 1.6884-14.199-0.1765-0.03 0.66501-5.512 0.25852-1.792 9.722 1.166"/>
  <path id="Catron__NM" class="35003" d="m303.15 377.95-0.25852 1.792-0.66501 5.512 0.1765 0.03-1.6884 14.199-0.47425 3.76-5.4467-0.707-0.80408 6.332-8.5328-1.093-1.7615-0.394-1.9522-0.299-7.6022-1.018 4.3556-31.363 12.705 1.719 4.4679 0.53 6.2097 0.821 1.2712 0.184"/>
  <path id="Grant__NM" class="35017" d="m274.14 406.06 7.6022 1.018 1.9522 0.299 1.7615 0.394 8.5328 1.093 2.5459 0.305 0.16046 0.05 0.23355 0.412 0.0321 0.182-0.61235 3.2955 1.3453 0.62647-0.09 2.6458 0.49098 2.8533 0.0321 0.344-0.0963 0.973-0.34588 1.35-0.2086 0.401-0.0481 0.246 0.30487 0.253 2.0414 0.651-6.0421-0.731-0.2496 1.991-5.8674-0.738-1.3015 9.986 9e-3 1.223-0.22464 2.418-0.17651 1.328-5.9387-0.772 0.71494-7.224 1.0198-7.733-2.0778-0.23744 0.25395-2.0206-3.9526-0.537 0.51347-3.971-3.6798-0.515 1.3657-9.857"/>
  <path id="Hidalgo__NM" class="35023" d="m272.77 415.92 3.6798 0.515-0.51347 3.971 3.9526 0.537-0.25395 2.0206 2.0778 0.23744-1.0198 7.733-0.71494 7.224 5.9387 0.772-0.0642 1.856-0.84508 6.484-0.48851 3.8-12.496-1.632-0.19255-0.03-1.5422-0.21-2.1305-0.298 3.4962-24.959 1.1161-8.021"/>
  <path id="Luna__NM" class="35029" d="m305.69 424.16-2.1947 18.811-17.636-2.193 0.0642-1.856 0.17651-1.328 0.22464-2.418-9e-3 -1.223 1.3015-9.986 5.8674 0.738 0.2496-1.991 6.0421 0.731 5.9138 0.715"/>
  <path id="Dona_Ana__NM" class="35013" d="m325.2 416.01-0.24247 2.17-0.68284-0.07-2.4104 21.92-4.2272-0.447-0.79852-0.0621h-7e-3l-0.32589 0.14926-0.0378 0.32313 0.3169 0.12626-0.21057 1.2122-0.43812 0.28139 0.10674 0.45615 3e-3 0.29066 0.43546 0.46799 0.18542 0.249 1.5101 1.615-14.883-1.711 2.1947-18.811 0.48138-4.003 7.8678 0.94 0.11232-0.995 11.05-4.099"/>
  <path id="Taos__NM" class="35055" d="m346.38 326.52 9.032 0.915-0.0731 1.415-0.56161 3.657-1.15 1.084-0.64183 0.241-0.57943 0.267-0.42433 0.305-0.24247 1.678-0.041 1.246 0.14619 2.314-0.28169 4.475-4.0507 5.4-3.5657-2.394-0.23356-0.385-0.18542-0.385-1.4958-2.459-3.5265-1.922 0.0642-0.176 0.37084-0.442 0.23177-0.06 0.4582-0.03 0.57943-0.231 0.24069-0.195 0.15333-0.321 0.51346-2.242 0.0161-0.466-0.0642-1.439-0.10519-1.365 0.22464-4.951 0.16937-2.491-0.20146-1.59 5.2238 0.538"/>
  <path id="Santa_Fe__NM" class="35049" d="m334.17 350.04 3.5194 0.385 0.12837-1.261-0.025-0.09-0.1765-0.03-0.0232-0.298 6.4682 0.667-0.0713 0.548-0.30666 2.474-1.847 19.111-9.861-1.006 0.41897-4.026 1.2854-12.446 0.24782-2.307 0.24247-1.727"/>
  <path id="Otero__NM" class="35035" d="m325.94 408.24 6.5556 0.73 5.1917 0.522-0.16937 1.97 7.7466 0.77-0.35301 3.978-0.45324 4.0551-0.53982-0.0591-1.1054 10.019 3.9384 0.387 0.74703 0.03 4.9813 0.472-0.57052 6.141h0.0731l-0.54556 5.794-1.3675-0.128-20.885-2.131-7.3276-0.772 2.4104-21.92 0.68284 0.07 0.24247-2.17 0.74702-7.77"/>
  <path id="Torrance__NM" class="35057" d="m341.84 371.55 7.8821 0.777-0.96454 10.004-0.4261-0.03-0.5937 5.994-0.20146 1.992-11.483-1.164-9.2406-0.988 0.43324-4.138 0.19433-1.881-0.98058-0.1 0.19968-2.026 0.6347-4.587 0.17165-1.396 0.97831 0.10204 3.3839 0.394 1.4851 0.135 0.20147-1.92-1.7508-0.184 0.21573-1.993 9.861 1.006"/>
  <path id="Lincoln__NM" class="35027" d="m347.74 388.29 7.9142 0.755-0.58656 5.947-0.5937 6.075h0.0392l0.016 0.06-0.82012 8.536-0.93244 7.158-1.9362-0.08-5.9209-0.531 0.35301-3.978-7.7466-0.77 0.16937-1.97-5.1917-0.522-6.5556-0.73-0.52302-0.0661 0.22529-2.0389 0.44215-4.147 1.9915 0.226 2.0574 0.4 0.16046 0.07 1.8417 0.194 0.43323-4.036 2.4176 0.267 0.40292-4.018 0.65788-5.971 11.483 1.164 0.20146-1.991"/>
  <path id="Colfax__NM" class="35007" d="m356.6 327.55 2.8044 0.315 4.8708 0.448 13.161 1.1-1.5422 17.961-7.8428-0.692-7.8749-0.706 0.1034-0.99-8.7182-0.868 0.28169-4.475-0.14619-2.314 0.041-1.246 0.24247-1.678 0.42433-0.305 0.57943-0.267 0.64183-0.241 1.15-1.084 0.56161-3.657 0.0731-1.415 1.1892 0.114"/>
  <path id="Mora__NM" class="35033" d="m351.56 344.12 8.7182 0.868-0.1034 0.99 7.8749 0.706 1.6257 6.3988-0.96591 1.6943-0.28178 2.1048-7.0816-0.556-4.7228-0.298-1.8239-0.995-4.22-1.881-6.8944-0.715 0.30666-2.474 3.5176-0.443 4.0507-5.4"/>
  <path id="Union__NM" class="35059" d="m394.19 330.66 1.5261 0.113-0.85043 11.547-0.75594 0.449-0.27991 3.705-0.43502 6.074-0.54734 7.298-6.1705-0.491 0.46711-5.97 0.21572-0.409 0.12124-1.599-7.8999-0.62 0.17651-2.033-3.9455-0.346 0.082-1.003 1.5422-17.961 16.754 1.246"/>
  <path id="Harding__NM" class="35021" d="m368.05 346.68 7.8428 0.692-0.082 1.003 3.9455 0.346-0.17651 2.033 7.8999 0.62-0.12124 1.599-0.21572 0.409-0.46711 5.97-0.23356 2.019-0.47424 5.872-0.19969 0.168-4.5891-0.36 0.066-0.74-1.6242-0.137-3.9455-9.145-0.60654 0.39763-2.1747-0.17263-4.4661-0.376 0.28178-2.1048 0.96591-1.6943-1.6257-6.3988"/>
  <path id="San_Miguel__NM" class="35047" d="m343.69 352.44 6.8944 0.715 4.22 1.881 1.8239 0.995 4.7228 0.298 7.0816 0.556 4.4661 0.376 2.1747 0.17263 0.60654-0.39763 3.9455 9.145 1.6242 0.137-0.066 0.74-0.27278 3.439-4.0988-0.369 0.041-0.506-5.2078 2.392 0.13015-1.697-21.665-2.008-0.3851 4.019-7.8821-0.777 1.847-19.111"/>
  <path id="Quay__NM" class="35037" d="m386.68 359.36 6.1705 0.491-0.2086 2.694-0.76307 10.139-0.40114 5.286-3.728-0.28-0.23578 2.0508-2.123-0.1993-0.27207 2.0145-2.0867-0.16301-0.2501 1.9853-4.1696-0.33734-0.24439 1.9639-0.53473 4e-3 -3.9455-0.328-3.375-0.289 0.32983-4.017 0.18364-2.107 0.4261-4.09 0.19255-2.163 5.2078-2.392-0.041 0.506 4.0988 0.369 0.27278-3.439 4.5891 0.36 0.19969-0.168 0.47424-5.872 0.23356-2.019"/>
  <path id="Guadalupe__NM" class="35019" d="m371.64 372.01-0.19255 2.163-0.4261 4.09-0.18364 2.107-3.9384-0.333-0.17026 1.9859-1.9722-0.15503-0.1806 2.0041-8.3724-0.754-0.55448 5.928-7.9142-0.755 0.5937-5.994 0.4261 0.03 1.3496-14.023 21.665 2.008-0.13015 1.697"/>
  <path id="De_Baca__NM" class="35011" d="m370.84 380.37-0.32983 4.017 3.375 0.289-0.57051 6.716-0.0499 1.239-0.33697 4.081-3.9615-0.353-0.18542 2.025-4.1363-0.371-7.7484-0.795 0.18541-2.025-2.0164-0.2 0.58656-5.947 0.55448-5.928 8.3724 0.754 0.1806-2.0041 1.9722 0.15503 0.17026-1.9859 3.9384 0.333"/>
  <path id="Curry__NM" class="35009" d="m391.47 377.97-0.35301 4.766-0.77198 10.021-0.0161 0.241-13.106-1.036 0.60261-6.953 0.53473-4e-3 0.24439-1.9639 4.1696 0.33734 0.2501-1.9853 2.0867 0.16301 0.27207-2.0145 2.123 0.1993 0.23578-2.0508 3.728 0.28"/>
  <path id="Roosevelt__NM" class="35041" d="m377.83 385-0.60261 6.953 13.106 1.036-0.8843 11.009-0.52951 5.841-8.704-0.658 0.16938-2.002-3.9615-0.289 0.33696-3.755-2.3694-0.199 0.50633-6.044-1.9701-0.184 0.33697-4.081 0.0499-1.239 0.57051-6.716 3.9455 0.328"/>
  <path id="Chaves__NM" class="35005" d="m372.93 396.71 1.9701 0.184-0.50633 6.044 2.3694 0.199-0.33696 3.755 3.9615 0.289-0.16938 2.002-4.0008-0.307-0.36618 3.909-0.8319 0.028-0.81121 9.902-0.92353-0.07-19.647-1.689-0.96454 10.168-0.18541-0.01-4.9813-0.472-0.74703-0.03-3.9384-0.387 1.1054-10.019 0.53981 0.0591 0.45324-4.0551 5.9209 0.531 1.9362 0.08 0.93244-7.158 0.82012-8.536-0.016-0.06h-0.0392l0.5937-6.074 2.0164 0.2-0.18541 2.025 7.7484 0.795 4.1363 0.371 0.18542-2.025 3.9615 0.353"/>
  <path id="Sandoval__NM" class="35043" d="m309.66 340.47 7.062 0.931 6.4522 0.747-0.27991 2.268-0.29774 2.74 11.724 1.251-0.0642 0.644-0.041 0.159-0.28882-0.102-0.6668-0.02-1.6242 0.17-0.312 0.625-0.62044 2.363 0.12123 0.224 0.18542 0.1 0.33696 0.02 0.37797-0.03 0.11232-0.103 0.56339 0.273 0.74702 0.433 0.27278 0.321 0.26565 0.588-1.2854 12.446-2.1216-0.29-4.4358-0.498-3.0451-0.353-3.7048-0.435-4.3235-0.52-0.5232-2.0767-1.3488-0.15028 1.9362-15.935-5.8336-0.747 0.65966-5.037m24.235 11.667-0.0392-0.06-0.45106-0.369 0.52951 0.05-0.0392 0.378"/>

 </g>
  <text x="10" y="50" font-size="50" fill="black" visibility="hidden">Lea
    <set attributeName="visibility" from="visible" to="hidden" begin="county_group.mouseover"/>
    <set attributeName="visibility" from="hidden" to="visible" begin="Lea__NM.mouseover" end="Lea__NM.mouseout"/>
  </text>
  <text x="10" y="50" font-size="50" fill="black" visibility="hidden">Eddy
    <set attributeName="visibility" from="visible" to="hidden" begin="county_group.mouseover"/>
    <set attributeName="visibility" from="hidden" to="visible" begin="Eddy__NM.mouseover" end="Eddy__NM.mouseout"/>
  </text>
  <text x="10" y="50" font-size="50" fill="black" visibility="hidden">Los Alamos
    <set attributeName="visibility" from="visible" to="hidden" begin="county_group.mouseover"/>
    <set attributeName="visibility" from="hidden" to="visible" begin="Los_Alamos__NM.mouseover" end="Los_Alamos__NM.mouseout"/>
  </text>
  <text x="10" y="50" font-size="50" fill="black" visibility="hidden">Rio Arriba
    <set attributeName="visibility" from="visible" to="hidden" begin="county_group.mouseover"/>
    <set attributeName="visibility" from="hidden" to="visible" begin="Rio_Arriba__NM.mouseover" end="Rio_Arriba__NM.mouseout"/>
  </text>
  <text x="10" y="50" font-size="50" fill="black" visibility="hidden">San Juan
    <set attributeName="visibility" from="visible" to="hidden" begin="county_group.mouseover"/>
    <set attributeName="visibility" from="hidden" to="visible" begin="San_Juan__NM.mouseover" end="San_Juan__NM.mouseout"/>
  </text>
  <text x="10" y="50" font-size="50" fill="black" visibility="hidden">McKinley
    <set attributeName="visibility" from="visible" to="hidden" begin="county_group.mouseover"/>
    <set attributeName="visibility" from="hidden" to="visible" begin="McKinley__NM.mouseover" end="McKinley__NM.mouseout"/>
  </text>
  <text x="10" y="50" font-size="50" fill="black" visibility="hidden">Bernalillo
    <set attributeName="visibility" from="visible" to="hidden" begin="county_group.mouseover"/>
    <set attributeName="visibility" from="hidden" to="visible" begin="Bernalillo__NM.mouseover" end="Bernalillo__NM.mouseout"/>
  </text>
  <text x="10" y="50" font-size="50" fill="black" visibility="hidden">Valencia
    <set attributeName="visibility" from="visible" to="hidden" begin="county_group.mouseover"/>
    <set attributeName="visibility" from="hidden" to="visible" begin="Valencia__NM.mouseover" end="Valencia__NM.mouseout"/>
  </text>
  <text x="10" y="50" font-size="50" fill="black" visibility="hidden">Cibola
    <set attributeName="visibility" from="visible" to="hidden" begin="county_group.mouseover"/>
    <set attributeName="visibility" from="hidden" to="visible" begin="Cibola__NM.mouseover" end="Cibola__NM.mouseout"/>
  </text>
  <text x="10" y="50" font-size="50" fill="black" visibility="hidden">Sierra
    <set attributeName="visibility" from="visible" to="hidden" begin="county_group.mouseover"/>
    <set attributeName="visibility" from="hidden" to="visible" begin="Sierra__NM.mouseover" end="Sierra__NM.mouseout"/>
  </text>
  <text x="10" y="50" font-size="50" fill="black" visibility="hidden">Socorro
    <set attributeName="visibility" from="visible" to="hidden" begin="county_group.mouseover"/>
    <set attributeName="visibility" from="hidden" to="visible" begin="Socorro__NM.mouseover" end="Socorro__NM.mouseout"/>
  </text>
  <text x="10" y="50" font-size="50" fill="black" visibility="hidden">Catron
    <set attributeName="visibility" from="visible" to="hidden" begin="county_group.mouseover"/>
    <set attributeName="visibility" from="hidden" to="visible" begin="Catron__NM.mouseover" end="Catron__NM.mouseout"/>
  </text>
  <text x="10" y="50" font-size="50" fill="black" visibility="hidden">Grant
    <set attributeName="visibility" from="visible" to="hidden" begin="county_group.mouseover"/>
    <set attributeName="visibility" from="hidden" to="visible" begin="Grant__NM.mouseover" end="Grant__NM.mouseout"/>
  </text>
  <text x="10" y="50" font-size="50" fill="black" visibility="hidden">Hidalgo
    <set attributeName="visibility" from="visible" to="hidden" begin="county_group.mouseover"/>
    <set attributeName="visibility" from="hidden" to="visible" begin="Hidalgo__NM.mouseover" end="Hidalgo__NM.mouseout"/>
  </text>
  <text x="10" y="50" font-size="50" fill="black" visibility="hidden">Luna
    <set attributeName="visibility" from="visible" to="hidden" begin="county_group.mouseover"/>
    <set attributeName="visibility" from="hidden" to="visible" begin="Luna__NM.mouseover" end="Luna__NM.mouseout"/>
  </text>
  <text x="10" y="50" font-size="50" fill="black" visibility="hidden">Dona Ana
    <set attributeName="visibility" from="visible" to="hidden" begin="county_group.mouseover"/>
    <set attributeName="visibility" from="hidden" to="visible" begin="Dona_Ana__NM.mouseover" end="Dona_Ana__NM.mouseout"/>
  </text>
  <text x="10" y="50" font-size="50" fill="black" visibility="hidden">Taos
    <set attributeName="visibility" from="visible" to="hidden" begin="county_group.mouseover"/>
    <set attributeName="visibility" from="hidden" to="visible" begin="Taos__NM.mouseover" end="Taos__NM.mouseout"/>
  </text>
  <text x="10" y="50" font-size="50" fill="black" visibility="hidden">Santa Fe
    <set attributeName="visibility" from="visible" to="hidden" begin="county_group.mouseover"/>
    <set attributeName="visibility" from="hidden" to="visible" begin="Santa_Fe__NM.mouseover" end="Santa_Fe__NM.mouseout"/>
  </text>
  <text x="10" y="50" font-size="50" fill="black" visibility="hidden">Otero
    <set attributeName="visibility" from="visible" to="hidden" begin="county_group.mouseover"/>
    <set attributeName="visibility" from="hidden" to="visible" begin="Otero__NM.mouseover" end="Otero__NM.mouseout"/>
  </text>
  <text x="10" y="50" font-size="50" fill="black" visibility="hidden">Torrance
    <set attributeName="visibility" from="visible" to="hidden" begin="county_group.mouseover"/>
    <set attributeName="visibility" from="hidden" to="visible" begin="Torrance__NM.mouseover" end="Torrance__NM.mouseout"/>
  </text>
  <text x="10" y="50" font-size="50" fill="black" visibility="hidden">Lincoln
    <set attributeName="visibility" from="visible" to="hidden" begin="county_group.mouseover"/>
    <set attributeName="visibility" from="hidden" to="visible" begin="Lincoln__NM.mouseover" end="Lincoln__NM.mouseout"/>
  </text>
  <text x="10" y="50" font-size="50" fill="black" visibility="hidden">Colfax
    <set attributeName="visibility" from="visible" to="hidden" begin="county_group.mouseover"/>
    <set attributeName="visibility" from="hidden" to="visible" begin="Colfax__NM.mouseover" end="Colfax__NM.mouseout"/>
  </text>
  <text x="10" y="50" font-size="50" fill="black" visibility="hidden">Mora
    <set attributeName="visibility" from="visible" to="hidden" begin="county_group.mouseover"/>
    <set attributeName="visibility" from="hidden" to="visible" begin="Mora__NM.mouseover" end="Mora__NM.mouseout"/>
  </text>
  <text x="10" y="50" font-size="50" fill="black" visibility="hidden">Union
    <set attributeName="visibility" from="visible" to="hidden" begin="county_group.mouseover"/>
    <set attributeName="visibility" from="hidden" to="visible" begin="Union__NM.mouseover" end="Union__NM.mouseout"/>
  </text>
  <text x="10" y="50" font-size="50" fill="black" visibility="hidden">Harding
    <set attributeName="visibility" from="visible" to="hidden" begin="county_group.mouseover"/>
    <set attributeName="visibility" from="hidden" to="visible" begin="Harding__NM.mouseover" end="Harding__NM.mouseout"/>
  </text>
  <text x="10" y="50" font-size="50" fill="black" visibility="hidden">San Miguel
    <set attributeName="visibility" from="visible" to="hidden" begin="county_group.mouseover"/>
    <set attributeName="visibility" from="hidden" to="visible" begin="San_Miguel__NM.mouseover" end="San_Miguel__NM.mouseout"/>
  </text>
  <text x="10" y="50" font-size="50" fill="black" visibility="hidden">Quay
    <set attributeName="visibility" from="visible" to="hidden" begin="county_group.mouseover"/>
    <set attributeName="visibility" from="hidden" to="visible" begin="Quay__NM.mouseover" end="Quay__NM.mouseout"/>
  </text>
  <text x="10" y="50" font-size="50" fill="black" visibility="hidden">Guadalupe
    <set attributeName="visibility" from="visible" to="hidden" begin="county_group.mouseover"/>
    <set attributeName="visibility" from="hidden" to="visible" begin="Guadalupe__NM.mouseover" end="Guadalupe__NM.mouseout"/>
  </text>
  <text x="10" y="50" font-size="50" fill="black" visibility="hidden">De Baca
    <set attributeName="visibility" from="visible" to="hidden" begin="county_group.mouseover"/>
    <set attributeName="visibility" from="hidden" to="visible" begin="De_Baca__NM.mouseover" end="De_Baca__NM.mouseout"/>
  </text>
  <text x="10" y="50" font-size="50" fill="black" visibility="hidden">Curry
    <set attributeName="visibility" from="visible" to="hidden" begin="county_group.mouseover"/>
    <set attributeName="visibility" from="hidden" to="visible" begin="Curry__NM.mouseover" end="Curry__NM.mouseout"/>
  </text>
  <text x="10" y="50" font-size="50" fill="black" visibility="hidden">Roosevelt
    <set attributeName="visibility" from="visible" to="hidden" begin="county_group.mouseover"/>
    <set attributeName="visibility" from="hidden" to="visible" begin="Roosevelt__NM.mouseover" end="Roosevelt__NM.mouseout"/>
  </text>
  <text x="10" y="50" font-size="50" fill="black" visibility="hidden">Chaves
    <set attributeName="visibility" from="visible" to="hidden" begin="county_group.mouseover"/>
    <set attributeName="visibility" from="hidden" to="visible" begin="Chaves__NM.mouseover" end="Chaves__NM.mouseout"/>
  </text>
  <text x="10" y="50" font-size="50" fill="black" visibility="hidden">Sandoval
    <set attributeName="visibility" from="visible" to="hidden" begin="county_group.mouseover"/>
    <set attributeName="visibility" from="hidden" to="visible" begin="Sandoval__NM.mouseover" end="Sandoval__NM.mouseout"/>
  </text>

</svg>