<svg width="900" height="700" version="1.0" xmlns="http://www.w3.org/2000/svg">
 <g id="county-group" class="counties" transform="scale(6), translate(-795 -105)" style="fill:#d3d3d3;stroke-width:.17829;stroke:#000">
<path id="Clinton__NY" class="36019" d="m888.66 106.39-0.025 0.394 0.623 0.63939 0.16872 0.83409-0.32883 1.072 0.0389 0.96389 1.0042 0.71828-0.11906 1.7884 0.0825 1.5937 0.13199 0.89134 0.28669 0.9659 0.26564 0.224 0.46711 0.273-1.9362 0.69 0.0624 0.428-0.30309 0.843-1.1179 0.788-1.4299 0.892-1.2462 0.264-2.5156 0.909-0.56338-1.64-0.58657-1.559-1.2284-2.852-2.0895-5.119-0.40114-1.077 2.3944-0.691 3.9455-1.004 4.4197-1.23"/>
  <path id="Essex__NY" class="36031" d="m882.77 121.56 2.5156-0.909 1.2462-0.264 1.4299-0.892 1.1179-0.788 0.30309-0.843-0.0624-0.428 1.9362-0.69 0.76486 0.924 0.22999 0.499 0.29774 0.804 9e-3 0.01 0.025 0.25-0.17599 1.381 0.62531 2.379-0.67392 1.922-9e-3 1.902v0.749l0.0392 0.765 0.50652 0.36255 1.4457 4.2424 0.27991 0.507-0.92174 0.338-9.6667 3.703-0.0161-0.868-0.0963-0.337-1.8257-0.353-0.59192 0.266-0.19255 0.126-0.15511 0.266-2.5869-2.106 1.0697-1.299-1.1981-3.295 2.9364-1.086-2.1894-5.874 3.5836-1.373"/>
  <path id="Orleans__NY" class="36073" d="m822.77 164.99-1.0947 0.249-5.6963 1.095-0.89144 0.216-0.98949-5.522 7.7074-1.309 0.96453 5.271"/>
  <path id="Genesee__NY" class="36037" d="m822.77 164.99 1.5013-0.26837-0.44407 2.2094 0.82553-0.12503 0.19073 1.206-0.19434 2.98-8.4365 1.478-0.93065-5.013-0.19434-0.907 0.89144-0.216 5.6963-1.095 1.0947-0.249"/>
  <path id="Wyoming__NY" class="36121" d="m816.21 172.47 8.4365-1.478 0.82904 4.42-0.30665 1.189-0.61688 0.539-0.13906 0.781-0.10341 0.825 0.0232 0.07 0.41184 0.193-4.4768 0.852-2.5349 0.61664-0.10736-0.47964-1.0216-5.553-0.41898 0.07-0.33696-1.985 0.36192-0.07"/>
  <path id="Livingston__NY" class="36051" d="m824.84 168.01 2.9471-0.587 0.19255 0.16 0.0802 0.145-0.0945 0.635-0.016 0.05-0.4261 0.1-0.025 0.03 0.041 0.06 2.0022-0.376 0.91461-0.275 0.25851 0.209 0.15155 0.241 0.25673 0.595 0.19968 0.868v0.03l-0.58656 0.119 0.513 1.9774-0.5023 0.16058 0.61865 2.025 1.6456-0.289 0.37084 0.997 0.20859 1.084-2.7094 0.61912 0.15205 1.1018-0.98566 0.17094 0.15204 1.2742-1.9612 0.298-0.19255-0.981-3.3019 0.562-0.41184-0.193-0.0232-0.07 0.10341-0.825 0.13906-0.781 0.61688-0.539 0.30665-1.189-0.82904-4.419 0.19434-2.981"/>
  <path id="Schenectady__NY" class="36093" d="m887.61 155.37 0.63292-0.1 2.2179 0.609 0.73811 0.532 0.19433 0.545 1.4709 1.246 0.11232 0.06 0.21751-0.02-5.8175 2.531-0.13379 0.61639-1.2065 0.16131-0.3326-0.75009 0.38254-0.91261-0.43012-0.295-0.0321-0.06 0.0571-0.307 2.3855-2.587-0.45642-1.269"/>
  <path id="Montgomery__NY" class="36057" d="m887.4 154.76 0.20681 0.603 0.45642 1.269-2.3855 2.587-0.0571 0.307 0.0321 0.06-1.1571 0.61-1.8488 0.651-1.9594-0.491-1.503-0.06-2.0574-0.33-0.89143-4.163 3.8813 0.58 0.87539-0.193 6.4076-1.439"/>
  <path id="Fulton__NY" class="36035" d="m875.78 150.26 3.1985 0.644 3.1223-0.95368 0.47698 0.5408 1.6306-0.26878-0.0492-0.85572 0.19363-0.24854 0.90856-0.28808 2.1323 5.93-6.4076 1.439-0.87539 0.193-3.8813-0.58-0.35324-0.99377 0.74184-1.9136-0.83788-2.6446"/>
  <path id="Seneca__NY" class="36099" d="m844.34 163.27-0.10341 1.503 0.77198 3.897 0.0963 0.433 0.36014 1.093 0.082 0.17 0.1248 0.176 1.3193 1.632 1.821 1.3288-1.9654 0.51016-3.2626 0.796-0.74325-3.1159-1.0029-0.65617-0.55199-1.0169-0.60261-2.227 0.025-0.112 0.0392-0.05 0.19433-0.1-0.65075-3.18 4.0489-1.086"/>
  <path id="Ontario__NY" class="36069" d="m840.29 164.36 0.65075 3.18-0.19433 0.1-0.0392 0.05-0.025 0.112 0.60261 2.227-5.6 1.196-0.2817 0.731-0.0802 0.476-0.11233 1.091 0.42611 2.067-2.0485 0.385-0.20859-1.084-0.37084-0.997-1.6456 0.289-0.61865-2.025 0.5023-0.16058-0.513-1.9774 0.58656-0.12v-0.03l-0.19968-0.868-0.25673-0.595-0.15155-0.241-0.25851-0.209 1.6135-0.297-0.44928-2.065 1.8738-0.369 2.0253-0.522 1.847-0.378 0.13728 0.618 2.7884-0.577"/>
  <path id="Yates__NY" class="36123" d="m841.29 170.02 0.55199 1.0169 1.0029 0.65617 0.74325 3.1159 0.20729 1.008 0.22091 1.0185-1.2896 0.20691-0.56816-0.49197-1.8081 0.27454-0.65788-0.128-0.1141-0.104-0.2086-1.037-0.0553-0.53 9e-3 -0.192-3.6816 0.747-0.42611-2.067 0.11233-1.091 0.0802-0.476 0.2817-0.731 5.6-1.196"/>
  <path id="Schuyler__NY" class="36097" d="m843.58 174.81 3.2626-0.796 0.39402 1.543 0.50633 1.961 0.016 0.403 0.3958 2.016 1.2052-0.208 0.15867 0.77-0.30665 0.419-0.73811 0.06-0.85756-0.207-0.21038-0.893-1.7597 0.36-2.0414 0.563 0.0392 0.202-2.0307 0.562-0.17829 0.03-0.61866-2.635-0.47424-2.131 1.8081-0.27454 0.56816 0.49197 1.2896-0.20691-0.22091-1.0185-0.20729-1.008"/>
  <path id="Tompkins__NY" class="36109" d="m846.99 172.18 3.3928-0.788 0.0642 0.185 3.1575-0.779 1.2373 4.844-0.51636 0.47913 0.27234 0.52121 0.65569-0.085 0.26007 0.65973-0.0657 0.56664 0.28334 0.38047-0.79814 0.17215-0.14655-0.27002-0.44655 0.13005-1.5868 0.0137 0.2516 1.2471-0.9818 0.24641-0.33019-0.42846-0.98179 0.19987-1.3478 0.259-1.2052 0.208-0.3958-2.016-0.016-0.403-0.50633-1.961-0.39402-1.543 1.9654-0.51016-1.821-1.3288"/>
  <path id="Cayuga__NY" class="36011" d="m844.06 154.03 0.73097 2.635 0.18159 1.0684 0.67954-0.17644 1.412-0.337 0.17116 0.651 0.47424 1.777 0.22464 0.972-0.025 0.02h-0.29774l-0.0874 0.103-9e-3 0.122 0.56338 2.073 0.46685-0.0983 0.9648 3.5533 1.5172-0.403 1.1589 0.747 0.51346 0.532 0.0553 0.201 0.85221 3.311-3.1575 0.779-0.0642-0.185-3.3928 0.788-1.3193-1.632-0.1248-0.176-0.082-0.17-0.36014-1.092-0.0963-0.434-0.77198-3.897 0.10341-1.503-1.6224-7.199 1.3407-2.042"/>
  <path id="Onondaga__NY" class="36067" d="m855.4 157.19 0.31913 0.314 0.47229 1.9559 0.71154-0.35689 0.78624 2.186 1.2052 4.426-6.1384 1.769-0.0553-0.201-0.51346-0.532-1.1589-0.747-1.5172 0.403-0.9648-3.5533-0.46685 0.0983-0.56338-2.074 9e-3 -0.121 0.0874-0.103h0.29774l0.025-0.02-0.22464-0.972-0.47424-1.778 2.5667-0.60376 0.74337 0.2921 0.27863-0.6443 0.63598 0.39949-0.0478-1.0513 2.5481 0.49077 1.4388 0.435"/>
  <path id="Cortland__NY" class="36023" d="m858.89 165.71 0.42611 1.496 1.9219 6.87-4.3716 1.06-2.0253 0.498-1.2373-4.844-0.85221-3.311 6.1384-1.769"/>
  <path id="Chenango__NY" class="36017" d="m859.32 167.21 6.413-1.825 1.1179-0.152 2.1448-0.611 0.16759 10.14 0.54021 2.702-1.897 0.408-1.7276 0.371-0.28922-1.3374-3.0127 0.79739-0.24247 0.163-0.20146-0.33-1.0911-3.455-1.9219-6.87"/>
  <path id="Madison__NY" class="36053" d="m855.4 157.19 1.9184 0.249 1.6991-0.756 0.82547 0.09 0.39401 0.209 1.0287 0.587 0.51257 0.3395 0.63221 0.53888 0.27332 0.57875 0.6322-0.0991 0.60261 2.04 0.0642 0.323 1.8458-0.22001 0.25082 1.375 3.0612-0.867-0.14442 3.045-2.1448 0.612-1.1179 0.152-6.413 1.825-0.42611-1.496-1.2052-4.426-0.78624-2.186-0.71154 0.35639-0.47229-1.9564-0.31913-0.313"/>
  <path id="Oneida__NY" class="36065" d="m867.65 144.31 1.9772 6.29-0.36739 0.72788-0.62301 0.40408 0.1609 0.91533 1.4731 0.25071-0.90926 2.805-0.65966 1.686 0.98236 3.867-0.54734 0.321-3.0612 0.867-0.25082-1.375-1.8458 0.22001-0.0642-0.323-0.60261-2.04-0.6322 0.0991-0.27332-0.57875-0.63221-0.53888-0.51257-0.3395-1.0287-0.587-0.39401-0.208-0.82547-0.09-1.6991 0.756-0.4475-3.769-0.41898-0.05 0.41363-3.833 1.0091 0.1 3.8706 0.355 5.9084-5.93"/>
  <path id="Lewis__NY" class="36049" d="m859.21 131.95 5.0455 1.727 3.391 10.633-5.9084 5.93-3.8706-0.355-1.3675-4.869-0.60057-2.032-1.2016 0.29525 0.13995-0.50967-0.23567-1.4219 1.3205-0.50967 2.2699-2.3728 0.75627-0.18663-0.34409-0.82326 0.76033-0.23543-0.0909-1.8059-1.1018-0.532 1.0376-2.932"/>
  <path id="Herkimer__NY" class="36043" d="m864.26 133.68 2.0392 0.68546 3.1846-1.2235 4.2522 12.842-0.74881 3.648 2.7973 0.634 0.83788 2.6446-0.74184 1.9136 0.35324 0.99377 0.89143 4.163-2.0735-0.362 0.11232 1.519-0.19968 0.234-3.6014-1.166-0.39223 1.237-1.15 0.337-0.1355-0.521-0.98236-3.867 0.65966-1.686 0.90926-2.805-1.4731-0.25071-0.1609-0.91533 0.62301-0.40408 0.36739-0.72788-1.9772-6.29-3.391-10.633"/>
  <path id="Otsego__NY" class="36077" d="m879.18 160.31-0.0892 0.907 0.0963 0.635 0.0802 0.307 1.0305 2.104 0.21573 0.547-0.36192 1.535-0.40828 1.219-2.1537 0.621-2.8936 2.603-1.4637 1.382-0.68997 0.804-1.6331 1.237-0.42432 0.169-1.3265 0.385-0.16759-10.14 0.14442-3.046 0.54734-0.321 0.1355 0.521 1.15-0.337 0.39223-1.237 3.6014 1.166 0.19968-0.234-0.11232-1.519 2.0735 0.362 2.0574 0.33"/>
  <path id="Schoharie__NY" class="36095" d="m885.65 159.59 0.43012 0.295-0.38254 0.91261 0.3326 0.75009 1.2065-0.16131 0.13379-0.61639 0.32091 0.225 0.17651 1.141-0.12837 1.182-0.1141 2.161-0.0143 2.597 0.0874 0.28 0.14441-0.06 0.01 1.0829-2.8517 0.83713-2.8144-0.82505-2.4416-1.837 0.40828-1.219 0.36192-1.535-0.21573-0.547-1.0305-2.104-0.0802-0.307-0.0963-0.635 0.0892-0.907 1.503 0.06 1.9594 0.491 1.8488-0.651 1.1571-0.61"/>
  <path id="Albany__NY" class="36001" d="m893.19 158.24 1.3816-1.2006 0.29069 0.54538 0.47255 0.0362-0.041 7.595-7.4488 3.086-0.14441 0.06-0.0874-0.279 0.0143-2.598 0.1141-2.161 0.12837-1.182-0.17651-1.141-0.32091-0.225 5.8175-2.531"/>
  <path id="Saratoga__NY" class="36091" d="m884.33 146.27 4.3538-1.648 0.2086 0.266 1.0305 1.599 0.32805 1.245 0.16402 0.09 1.0893 0.296 1.3657-1.318 0.98236-1.237 0.12837 0.201 1.3247 4.308 0.0731 0.433 0.0713 1.576-0.0802 0.811-0.2086 1.02 0.1765 3.712-0.47255-0.0362-0.29069-0.54539-1.3816 1.2006-0.21751 0.02-0.11232-0.06-1.4709-1.246-0.19433-0.546-0.73811-0.531-2.2179-0.61-0.63292 0.1-0.20681-0.603-2.1323-5.93-0.93957-2.563"/>
  <path id="Warren__NY" class="36113" d="m884.03 137.49 9.6667-3.703-0.041 1.871-0.10341 1.39-0.92352 2.25-0.29952 0.797-0.17473 0.835-0.0178 0.153 0.0481 0.321 1.6652 4.154-0.98236 1.237-1.3657 1.318-1.0893-0.296-0.16402-0.09-0.32805-1.245-1.0305-1.599-0.2086-0.266-4.3538 1.648-2.7545-7.827 2.4568-0.949"/>
  <path id="Hamilton__NY" class="36041" d="m878.44 129.89 1.1981 3.295-1.0697 1.299 2.5869 2.106 0.15511-0.266 0.19255-0.126 0.59192-0.266 1.8257 0.353 0.0963 0.337 0.0161 0.868-2.4568 0.949 2.7545 7.827 0.93957 2.563-0.90856 0.28808-0.19363 0.24854 0.0492 0.85572-1.6306 0.26878-0.47698-0.5408-3.1223 0.95368-3.1985-0.644-2.7973-0.634 0.74881-3.648-4.2522-12.842 4.9903-1.824 3.9615-1.421"/>
  <path id="Franklin__NY" class="36033" d="m882.77 121.56-3.5836 1.373 2.1894 5.874-2.9364 1.086-3.9615 1.421-0.2193-1.639-0.58478-1.743-3.2537-9.314-2.0432-6.074-1.2444 0.28-0.39223-1.173 0.42432-0.02 6.5752-1.253 2.2963-0.515 1.6795-0.49 0.18542-0.06 0.40114 1.077 2.0895 5.119 1.2284 2.852 0.58657 1.559 0.56338 1.64"/>
  <path id="St_Lawrence__NY" class="36089" d="m866.74 111.65 0.39223 1.173 1.2444-0.28 2.0432 6.074 3.2537 9.314 0.58478 1.743 0.2193 1.639-4.9903 1.824-3.1846 1.2235-2.0392-0.68546-5.0455-1.727-1.1981-0.457-3.5194-1.207-2.8437-1.075 0.50455-1.72 0.46711-1.15 0.85222-1.398 2.5709-3.987 0.74702-1.035 5.8728-6.67 0.29774-0.209 2.1537-1.244 0.40293-0.06 1.2141-0.08"/>
  <path id="Jefferson__NY" class="36045" d="m851.65 129.21 2.8437 1.075 3.5194 1.207 1.1981 0.457-1.0376 2.932 1.1018 0.532 0.0909 1.8059-0.76033 0.23543 0.34409 0.82326-0.75627 0.18663-2.2699 2.3728-1.3205 0.50967 0.23567 1.4219-0.13995 0.50967 1.2016-0.29525 0.60057 2.032-3.3429 0.385-0.73811 0.337 0.15333 0.612-2.94 0.362-1.0626-2.717-1.0754-0.42424 0.41766-0.63147 0.58942-0.0423 0.88107-0.57775 0.3212-0.66228 0.0731-0.128-0.0339-0.346-0.35301-0.916-0.11232-0.145-0.13015-0.04-1.4049-0.119-0.99484-0.419-1.56-1.123-0.24782-0.644-0.0107-0.264 0.0339-0.517 0.3851-1.629 3.6745-3.907 2.6262-2.248"/>
  <path id="Oswego__NY" class="36075" d="m849.64 146.71 2.94-0.362-0.15333-0.612 0.73811-0.337 3.3429-0.385 1.3675 4.869-1.0091-0.1-0.41363 3.833 0.41898 0.05 0.4475 3.769-1.9184-0.249-1.4388-0.435-2.5481-0.49077 0.0478 1.0513-0.63598-0.39949-0.27863 0.6443-0.74337-0.2921-2.5667 0.60476-0.17116-0.651-1.412 0.337-0.67954 0.17644-0.18159-1.0684-0.73097-2.635 0.77376-0.868 2.0236-2.138 0.10519-0.06 0.66679-0.209 0.44037 0.202 0.24247-0.02 0.54556-0.137 0.92531-0.58 0.0963-0.112 0.11945-0.305 0.0571-0.369 0.0321-0.355-0.0481-0.594-0.19255-1.117-0.20859-0.658"/>
  <path id="Wayne__NY" class="36117" d="m842.72 156.07 1.6224 7.199-4.0489 1.086-2.7884 0.577-0.13728-0.618-1.847 0.378-2.0253 0.522-1.15-5.497 0.97344-0.272 2.7706-0.708 0.51525-0.112h0.76307l0.58657 0.112 1.2462-0.227 0.0963-0.03 2.3944-1.405 0.38688-0.29 0.64184-0.722"/>
  <path id="Monroe__NY" class="36055" d="m822.77 164.99-0.96453-5.271 0.68997-0.1 2.6529 0.05 1.7116 0.41 0.78625 0.442 0.12123 0.06 1.4138 0.579 0.46711 0.08 0.27991-0.03 2.4194-1.494 1.15 5.497-1.8738 0.369 0.44928 2.065-1.6135 0.297-0.91461 0.275-2.0022 0.376-0.041-0.06 0.025-0.03 0.4261-0.1 0.016-0.05 0.0945-0.634-0.0802-0.145-0.19255-0.16-2.9471 0.586-0.19073-1.206-0.82553 0.12503 0.44407-2.2094-1.5013 0.26837"/>
  <path id="Niagara__NY" class="36063" d="m815.08 166.55 0.19434 0.907-0.37976 0.202-1.7436 0.57-3.011 0.87842-0.7392 1.3603-0.80804 0.12114-1.1523-1.1869-1.3692 0.257-0.53129-0.104-0.19077-0.338-0.77198-3.882 3.6549-1.961 3.1111-1.51 1.3746-0.538 0.93957-0.298h0.43324l0.98949 5.522"/>
  <path id="Erie__NY" class="36029" d="m815.28 167.46 0.93065 5.013-0.36192 0.07 0.33696 1.985 0.41898-0.07 1.0216 5.553-2.1448 0.981-1.8488 0.989-1.9237 1.277-0.40828 0.168-0.41006 0.105-0.98771-0.507-2.1965-1.237-0.38418-0.67809-1.0029 0.18809 0.0321-0.483 0.2086-0.596 0.72206-1.902 0.45107-0.378 1.1089-0.916 0.41185-0.193 0.68818-0.9 0.19434-0.362v-0.184l-0.60261-1.334-0.94136-1.704-0.21751-0.282-0.25495-0.16-0.70958-0.128-0.72206-0.305-0.17651-0.193-0.13728-0.499-0.29774-1.109 1.3692-0.257 1.1523 1.1869 0.80804-0.12114 0.7392-1.3603 3.011-0.87842 1.7436-0.57 0.37976-0.202"/>
  <path id="Chautauqua__NY" class="36013" d="m807.7 181.78 2.2036 12.263-9.1925 1.629-0.25673 0.05-2.2821 0.394-0.52951-3.011-0.44216-2.549-0.098-0.61 0.6757-0.465 1.084-0.917 1.4637-1.376 1.3586-1.355 0.33696-0.467 0.28883-0.637 0.74702-0.964 1.6492-1.3 1.6064-1.173 1.0029-0.18809 0.38418 0.67809"/>
  <path id="Cattaraugus__NY" class="36009" d="m817.62 180 0.10736 0.47964 2.5349-0.61664 2.2446 11.853-4.8334 0.889-4.6426 0.902-0.7399 0.129-2.3873 0.403-2.2036-12.263 2.1965 1.237 0.98771 0.507 0.41006-0.105 0.40828-0.168 1.9237-1.277 1.8488-0.989 2.1448-0.981"/>
  <path id="Allegany__NY" class="36003" d="m824.74 179.01 3.3019-0.562 0.19255 0.981 1.9612-0.298 1.6385 10.808-7.6342 1.44-1.6919 0.336-2.2446-11.853 4.4768-0.852"/>
  <path id="Steuben__NY" class="36101" d="m833.59 175.97 2.0485-0.385 3.6816-0.747-9e-3 0.192 0.0553 0.53 0.2086 1.037 0.1141 0.104 0.65788 0.128 0.47424 2.131 0.61866 2.635 0.17829-0.03 2.0307-0.562 1.2623 6.29-10.735 2.18-2.3391 0.473-1.6385-10.808-0.15204-1.2742 0.98566-0.17094-0.15206-1.1018 2.7095-0.61912"/>
  <path id="Chemung__NY" class="36015" d="m850.71 179.47 0.9984 6.445-6.1562 1.23-0.64361 0.143-1.2623-6.29-0.0392-0.202 2.0414-0.563 1.7597-0.36 0.21038 0.893 0.85756 0.207 0.73811-0.06 0.30665-0.419-0.15867-0.77 1.3478-0.259"/>
  <path id="Tioga__NY" class="36107" d="m856.87 175.14 0.13014 0.17 1.38 2.956 0.041 0.144 0.18542 0.901 0.0464 0.738-0.47425 0.13 1.0679 4.186-0.68106 0.144-6.8534 1.407-0.9984-6.445 0.98179-0.19987 0.33019 0.42846 0.9818-0.24641-0.2516-1.2471 1.5868-0.0137 0.44655-0.13005 0.14655 0.27002 0.79814-0.17215-0.28334-0.38047 0.0657-0.56664-0.26007-0.65973-0.65569 0.085-0.27234-0.52121 0.51636-0.47913 2.0253-0.498"/>
  <path id="Broome__NY" class="36007" d="m861.24 174.08 1.0911 3.455 0.20146 0.33 0.24247-0.163 3.0127-0.79739 0.28922 1.3374 1.7276-0.371 1.897-0.408 1.9505 4.202-2.0556 0.456-10.351 2.243-1.0679-4.186 0.47425-0.13-0.0464-0.738-0.18542-0.901-0.041-0.144-1.38-2.956-0.13014-0.17 4.3716-1.06"/>
  <path id="Delaware__NY" class="36025" d="m879.75 167.56 2.4416 1.837 2.8144 0.82505 0.28704 0.07-1.0358 3.745 1.5832 0.402-4.6604 4.692-5.2398 5.103-1.9612 0.0389-0.68278-1.5349-0.30487-0.289-1.0127-0.713-0.3227-0.07-1.9505-4.202-0.54021-2.702 1.3265-0.385 0.42432-0.169 1.6331-1.237 0.68997-0.804 1.4637-1.382 2.8936-2.603 2.1537-0.621"/>
  <path id="Sullivan__NY" class="36105" d="m875.94 184.24 5.2398-5.103 2.3552 0.715 3.7993 1.214-0.34588 1.036-0.65787 1.51-0.33697 0.859 1.6456 0.765 1.8649 0.811 0.74703 1.109-0.58657 0.523-0.32091 0.692-0.44216 1.157-4.5713 1.292-0.12124 0.1-0.016 0.06 0.2086 0.87 0.22464 0.503-0.75415 0.08-1.3514 0.07-0.29774-0.137-1.831-0.95-0.52239-0.497-0.7381-0.723-0.45998-1.053-2.7314-4.901"/>
  <path id="Greene__NY" class="36039" d="m895.29 165.22h0.0891l0.0571 0.04 0.13015 0.378 0.63292 3.199 0.0642 0.577-0.041 0.314-0.65075 1.631-0.50633 1.6-0.0713 0.337-1.6545-0.699-0.74702 0.242-0.14442 1.79-2.6422 0.339-1.2962 0.16-2.6761-0.682-1.5832-0.402 1.0358-3.745-0.28704-0.07 2.8516-0.84551-0.12421-1.0363 7.5633-3.1242"/>
  <path id="New_York__NY" class="36061" transform="translate(0 -.10698)" d="m901.26 201.42-0.45898 2.2109-0.15137 2.1631 0.0459 0.2334-3e-3 0.1897 0.10306 4e-3 0.12695-0.1543-0.0125-0.16979-0.0207-0.10267 0.23242-0.26465 0.26758-0.15429 0.0918-0.625 0.0234-0.27149 0.34375-0.81054 0.22852-0.42188-0.34961-0.11719-0.28125-0.58789 0.17383-1.0879z"/>
  <path id="Ulster__NY" class="36111" d="m894.94 174.46 0.33161 3.938 0.96702 0.43776 0.18755 2.4124 0.36192 0.738 0.36088 3.5768-1.6224 0.603-0.0191-0.74495-1.6135 0.31618 0.13683 0.60613-0.30487 0.0605-0.75896 0.20384-1.2391-0.69609-1.4804 1.2464-0.74703-1.109-1.8649-0.811-1.6456-0.765 0.33697-0.859 0.65787-1.51 0.34588-1.036-3.7993-1.214-2.3552-0.715 4.6604-4.692 2.6761 0.682 1.2962-0.16 2.6422-0.339 0.14442-1.79 0.74702-0.242 1.6545 0.699-0.0571 1.166"/>
  <path id="Bronx__NY" class="36005" d="m901.33 200.56 2.4497 0.291 0.0865 0.31583 0.30677 0.0197-0.035 0.26234-0.14332 0.26209-0.13036 0.012-0.12312-0.21047-0.14711-0.17795-0.21742 0.12614 0.14562 0.61339 0.11504-0.0101 0.1919 0.17217 0.20862 0.19963-0.0435 0.0342-0.32152-0.0825-0.2734 0.0707-0.0692 0.13902-0.23642-0.13608-0.095 0.24687-0.26483-0.0294-0.0453 0.21174-3e-3 0.28395-0.14147 0.0874-0.17895-0.0487-0.0239-0.22101 0.0732-0.0652-0.12182-0.0739-0.12106 0.1037-0.0972 0.17723-0.34928-0.11812-0.2821-0.58834 0.1747-1.0871-0.35856-0.0332 0.0713-0.74685"/>
  <path id="Kings__NY" class="36047" d="m900.91 206.01 0.20891-0.58893 0.26912-0.1541 0.09-0.62431 0.2765-0.0895 0.4227 0.30341 0.4052 0.45268 0.29663 0.24459 0.38708-0.33446 0.4052 0.61553 7e-3 0.25364 0.10662 0.27173 0.13022-0.0768 0.37273 0.34163-7e-3 0.52257-0.40004 0.62459-0.98993 0.27517-1.1433 0.46102-0.55569 0.0626-7e-3 -0.23505 0.32263-0.11176 4e-3 -0.23236-0.37477-0.12707-0.25937 9e-3 -0.24136-0.61254 0.31597-0.72319-0.19184-0.33685z"/>
  <path id="Rockland__NY" class="36087" d="m898.09 191.72 0.55626 1.166 1.0269 1.406 0.91639 1.036 0.10519 0.264 0.60796 3.09-6.0814-1.819-0.40114-0.121 3.2698-5.092v0.07"/>
  <path id="Nassau__NY" class="36059" transform="translate(0 -.10698)" d="m907.92 198.98-0.40626 0.1875-0.33007 0.0566-1.0234 0.57226-0.35156 0.66406 0.45898 1.2383-0.69726-0.83398-0.59571-0.0586-0.27734 0.22461-0.0508 0.36718 0.20117 0.23438 0.4375-0.01-0.11328 0.35157-0.81445-0.20508-0.0156 0.58203 0.43359 0.5918 1.0606 0.47461 0.0684 0.50195-0.36719 0.19531 0.38477 1.5352-0.19531 0.22265 2e-3 0.28907-0.32227 0.2871 0.0645 0.23438 0.22265 0.0625 0.12891-0.0176 0.22266 0.3125-0.16993 0.0117-0.0527 0.23633 0.77539-0.11328 1.3398-0.32617 0.85352-0.27149 2e-3 -0.32226-0.61523 0.14648-0.23633 0.20898-0.30469 0.0117-0.85351 0.36524-0.72461 0.0508 0.77148-0.39063 0.24024-0.0566 1.0449-0.51758 0.60156-0.1582 0.34766 0.1836 0.77228-0.60845 0.27329-0.19426 0.2255-0.12893-0.13947-0.16677-0.27614-0.24727 0.69335-0.2539 0.34375-0.20313-1.7129-4.377-0.33203-0.10938-0.3125-0.20117-0.0976-0.2168-0.40625 0.16407 0.0469-0.28907zm3.1891 5.7329-0.24876 0.39429-0.53993 0.31037-0.47657 0.41992-0.51367 0.44336-0.26953 0.16601-0.16602 0.2793 0.0664 0.0606 0.74219-0.50586 0.56836-0.22852 1.1135-0.6404z"/>
  <path id="Orange__NY" class="36071" d="m897.15 185.56-0.3392 2.5773 0.67794 0.93672 0.84269 0.74512-0.24008 1.8279-3.2698 5.092-2.5156-0.852-6.3149-2.209-1.3675-1.337-0.22464-0.503-0.2086-0.87 0.016-0.06 0.12124-0.1 4.5713-1.292 0.44216-1.157 0.32091-0.692 0.58657-0.523 1.4804-1.2464 1.2391 0.69609 0.75896-0.20384 0.30487-0.0605-0.13683-0.60613 1.6135-0.31618 0.0191 0.74495 1.6224-0.603"/>
  <path id="Queens__NY" class="36081" d="m902.07 203.14 0.28447 0.16514 0.0216 0.19712 0.12733 0.017 0.0592-0.15468 0.15616-0.02 0.42078 0.28102 0.063-0.11059-0.18951-0.37484 0.11515-0.22406 0.16979-0.0359 0.14067-0.19805 0.25803 0.0563 0.2232-0.0551 0.14278 0.11851 0.15611-0.19232 0.47818 0.40384 0.0765-0.17028 1.0615 0.47448 0.0683 0.50096-0.36877 0.19638 0.38609 1.5339-0.1966 0.22286 2e-3 0.28908-0.32063 0.28747 0.0634 0.23449 0.22233 0.0623 0.12962-0.0171 0.22717 0.31556-0.30596 0.19338-0.19903 2e-3 -1.0344 0.66659-0.96811 0.69417-0.64919 0.44472-0.0157-0.32387 0.48567-0.39458 0.5154-0.45272 0.40004-0.62459 7e-3 -0.52257-0.37273-0.34163-0.13022 0.0768-0.10662-0.27173-7e-3 -0.25364-0.4052-0.61553-0.38708 0.33446-0.29663-0.24459-0.4052-0.45268-0.4227-0.30341-0.2765 0.0895 0.0234-0.27078 0.34558-0.8111 0.2272-0.42169"/>
  <path id="Suffolk__NY" class="36103" transform="translate(0 -.10698)" d="m928.48 187.77 0.29512 0.14121 0.15585-0.36379 0.33835-0.25205-0.51272 0.0444zm-0.34191 0.55072-0.701 0.0555-0.74218 0.67773-0.4375 0.082-0.42774 1.2695-0.71094 0.32227-0.35742 0.80273-0.70312 0.54102-0.8125 1.3438-1.7754 0.80469-1.293 0.50976-1.9883 0.51367-2.4395 0.60547-1.3672 0.16992-0.70508 0.37696 0.3457 0.83008-1.0957 0.80859-1.3809-0.18945-0.79492 0.16211-0.65821-0.27539-0.39257-0.11915 0.0977 0.81641 0.82617-0.17969 0.0899 0.2461-1.2715 0.23047-0.16992-0.44532-0.92578-0.0957-0.15039 0.36328 1.0527 1.3711 1.7129 4.3789 0.92774-0.39258 1.3457-0.86328 0.54688-0.82422 0.24218 0.17969 1.2109-0.0332 0.0977-0.63867 1.0664-0.15235 0.76368-0.70117 0.57226-0.34961 0.75391 0.0137 0.23242-0.48633 0.61328-0.0957 0.16016 0.27735 0.51758-0.19141 0.29101-0.34375 0.3457-0.19922 0.20118-0.54688 0.65234-0.0508 0.36914-0.74218 0.56445 0.10351 0.51368-0.32422 0.20312 0.11524-1.4102 0.9707 0.0723 0.082 1.6406-1.0391 1.8145-1.2324 0.36498-0.20438 0.25707-0.20209-0.0435-0.10753 0.1174-0.32553-0.15302-6e-3 -0.25585 0.28806-0.13314-0.0433 0.0584-0.54687-0.12118-0.13663 0.41997-0.16553 0.52775 0.0189 0.084 0.31451-0.44556 0.5439 0.0601 0.1078 1.1494-0.81054 4.1074-3.5664 1.8281-1.5156 1.7617-1.4668 0.2168-0.49219-0.89648-0.0781-0.78907 0.58984-0.10547 0.69141-0.27148-0.18555-0.50781 0.90234-0.41407 0.1211-0.37695 0.4082-0.19141 0.39258-0.25 2e-3 -0.63085-0.55859-0.0781-0.40821-0.48437-0.18164-0.375 0.60157-0.82422-0.1211-0.0274 0.8086-0.22851 0.082-0.11328 0.27344-0.44336 0.0859-0.4375-0.66601-0.31641 0.16211 0.34961 0.66211-0.80664 0.27343-0.33399 1.0938-0.55273 0.47071-0.17383 0.84179-0.51758 0.4375-1.2676-0.0996-0.75782 0.15039 0.0449-0.38281 0.45703-0.10547 0.375-0.65625 0.0879-0.52929 0.81836-0.51758 0.0879-0.48438 0.63281 0.32618-0.31836-0.73243 0.12891-0.34179 0.78906-0.15235-0.0156-0.3125-0.61132 0.0273 0.36132-0.77735 0.36914-0.61328 0.2129-0.48828 0.35937-0.46875 0.49805 0.37695 0.52344-0.51172zm2.0021 0.26056v0.56055l0.37695 0.18359 0.28516-0.0137 0.31055 0.63282 0.16601-0.12696-0.10742-0.99609zm-3.1836 1.2227-0.6914 1.0293 0.55664 0.48242 0.38476-0.0156 0.34766-0.34179 0.6836 0.32617-0.0645-0.58399-0.27148-0.49414-0.64844-0.11914zm-5.3808 9.3262-1.3574 0.97461-0.48632 0.23242-0.47461 0.34375-0.24024 0.0488-0.22461 0.24805-0.41797 0.27734-1.3711 1.2031-1.4219 0.80468-0.42773 0.28711-0.44336 0.14649-0.22461 0.28125-0.64453 0.33008-0.37891 0.0957-0.21875-0.0859-0.28125 0.16602 0.0977 0.29297 0.84961-0.19922 0.90234-0.5957 0.5293-0.29102 0.38477-0.29297 1.3867-0.74023 1.1699-1.0098 1.1309-0.81641 0.54101-0.40429 1.7285-1.1836zm-7.6465 4.3496-0.80273 0.49024-1.0332 0.28906-0.97851 0.45508 0.27539 0.79882 1.3711-1.0449 0.27344-0.22656 0.91797-0.1543 0.43359-0.27148-0.10547-0.21289-0.14257-0.0566z"/>
  <path id="Westchester__NY" class="36119" d="m898.09 191.72 7.0709-2.748 0.2817 1.623 1.6114 1.4831-2.264 2.3339-1.2516 1.278 1.7971 2.312-1.5564 2.855-2.4497-0.291-0.0268-1.884-0.60796-3.09-0.10519-0.264-0.91639-1.036-1.0269-1.406-0.55626-1.166"/>
  <path id="Putnam__NY" class="36079" d="m904.53 185.29 0.62757 3.68-7.0709 2.748v-0.07l0.24008-1.8279-0.84269-0.74512 0.5313-1.303 5.7052-2.266 0.80942-0.216"/>
  <path id="Dutchess__NY" class="36027" d="m902.41 173.37 1.5743 8.743 0.54556 3.182-0.80942 0.216-5.7052 2.266-0.5313 1.303-0.67794-0.93672 0.3392-2.5773-0.36088-3.5768-0.36192-0.738-0.18755-2.4124-0.96702-0.43776-0.33161-3.938 0.22642-0.1h0.21573l2.7207 0.65 0.84686 0.234 3.1913-0.113 0.11232-1.736 0.16046-0.04"/>
  <path id="Columbia__NY" class="36021" d="m895.29 165.22 6.8284-2.733-0.25317 10.141 0.3851 0.779-0.11232 1.736-3.1913 0.113-0.84686-0.234-2.7207-0.651h-0.21573l-0.22642 0.1 0.0571-1.166 0.0713-0.337 0.50633-1.6 0.65075-1.631 0.041-0.314-0.0642-0.577-0.63292-3.199-0.13015-0.378-0.0571-0.04h-0.0891"/>
  <path id="Rensselaer__NY" class="36083" d="m895.16 153.91 5.8817-1.478 0.44574 1.9647-0.34887 1.0319 0.68757 1.5386 0.44574-0.13121-0.14798 5.648-6.8284 2.733 0.041-7.595-0.1765-3.712"/>
  <path id="Washington__NY" class="36115" d="m894.62 133.45 0.59548 1.157-0.31022 1.704-0.0909 0.933 0.16224 1.342 0.0642 0.09 0.54556 0.226-5e-3 -1.532 1.077-0.15436 0.44863 0.90683 0.79749 0.26665 0.44493 1.1229 0.97345 4.525 1.7187 8.397-5.8817 1.478 0.2086-1.02 0.0802-0.811-0.0713-1.576-0.0731-0.433-1.3247-4.308-0.12837-0.201-1.6652-4.154-0.0481-0.321 0.0178-0.153 0.17473-0.835 0.29952-0.797 0.92352-2.25 0.10341-1.39 0.041-1.871 0.92174-0.338"/>
  
 </g>

  <text x="10" y="50" font-size="50" fill="black" visibility="hidden">Clinton
    <set attributeName="visibility" from="visible" to="hidden" begin="county_group.mouseover"/>
    <set attributeName="visibility" from="hidden" to="visible" begin="Clinton__NY.mouseover" end="Clinton__NY.mouseout"/>
  </text>
  <text x="10" y="50" font-size="50" fill="black" visibility="hidden">Essex
    <set attributeName="visibility" from="visible" to="hidden" begin="county_group.mouseover"/>
    <set attributeName="visibility" from="hidden" to="visible" begin="Essex__NY.mouseover" end="Essex__NY.mouseout"/>
  </text>
  <text x="10" y="50" font-size="50" fill="black" visibility="hidden">Orleans
    <set attributeName="visibility" from="visible" to="hidden" begin="county_group.mouseover"/>
    <set attributeName="visibility" from="hidden" to="visible" begin="Orleans__NY.mouseover" end="Orleans__NY.mouseout"/>
  </text>
  <text x="10" y="50" font-size="50" fill="black" visibility="hidden">Genesee
    <set attributeName="visibility" from="visible" to="hidden" begin="county_group.mouseover"/>
    <set attributeName="visibility" from="hidden" to="visible" begin="Genesee__NY.mouseover" end="Genesee__NY.mouseout"/>
  </text>
  <text x="10" y="50" font-size="50" fill="black" visibility="hidden">Wyoming
    <set attributeName="visibility" from="visible" to="hidden" begin="county_group.mouseover"/>
    <set attributeName="visibility" from="hidden" to="visible" begin="Wyoming__NY.mouseover" end="Wyoming__NY.mouseout"/>
  </text>
  <text x="10" y="50" font-size="50" fill="black" visibility="hidden">Livingston
    <set attributeName="visibility" from="visible" to="hidden" begin="county_group.mouseover"/>
    <set attributeName="visibility" from="hidden" to="visible" begin="Livingston__NY.mouseover" end="Livingston__NY.mouseout"/>
  </text>
  <text x="10" y="50" font-size="50" fill="black" visibility="hidden">Schenectady
    <set attributeName="visibility" from="visible" to="hidden" begin="county_group.mouseover"/>
    <set attributeName="visibility" from="hidden" to="visible" begin="Schenectady__NY.mouseover" end="Schenectady__NY.mouseout"/>
  </text>
  <text x="10" y="50" font-size="50" fill="black" visibility="hidden">Montgomery
    <set attributeName="visibility" from="visible" to="hidden" begin="county_group.mouseover"/>
    <set attributeName="visibility" from="hidden" to="visible" begin="Montgomery__NY.mouseover" end="Montgomery__NY.mouseout"/>
  </text>
  <text x="10" y="50" font-size="50" fill="black" visibility="hidden">Fulton
    <set attributeName="visibility" from="visible" to="hidden" begin="county_group.mouseover"/>
    <set attributeName="visibility" from="hidden" to="visible" begin="Fulton__NY.mouseover" end="Fulton__NY.mouseout"/>
  </text>
  <text x="10" y="50" font-size="50" fill="black" visibility="hidden">Seneca
    <set attributeName="visibility" from="visible" to="hidden" begin="county_group.mouseover"/>
    <set attributeName="visibility" from="hidden" to="visible" begin="Seneca__NY.mouseover" end="Seneca__NY.mouseout"/>
  </text>
  <text x="10" y="50" font-size="50" fill="black" visibility="hidden">Ontario
    <set attributeName="visibility" from="visible" to="hidden" begin="county_group.mouseover"/>
    <set attributeName="visibility" from="hidden" to="visible" begin="Ontario__NY.mouseover" end="Ontario__NY.mouseout"/>
  </text>
  <text x="10" y="50" font-size="50" fill="black" visibility="hidden">Yates
    <set attributeName="visibility" from="visible" to="hidden" begin="county_group.mouseover"/>
    <set attributeName="visibility" from="hidden" to="visible" begin="Yates__NY.mouseover" end="Yates__NY.mouseout"/>
  </text>
  <text x="10" y="50" font-size="50" fill="black" visibility="hidden">Schuyler
    <set attributeName="visibility" from="visible" to="hidden" begin="county_group.mouseover"/>
    <set attributeName="visibility" from="hidden" to="visible" begin="Schuyler__NY.mouseover" end="Schuyler__NY.mouseout"/>
  </text>
  <text x="10" y="50" font-size="50" fill="black" visibility="hidden">Tompkins
    <set attributeName="visibility" from="visible" to="hidden" begin="county_group.mouseover"/>
    <set attributeName="visibility" from="hidden" to="visible" begin="Tompkins__NY.mouseover" end="Tompkins__NY.mouseout"/>
  </text>
  <text x="10" y="50" font-size="50" fill="black" visibility="hidden">Cayuga
    <set attributeName="visibility" from="visible" to="hidden" begin="county_group.mouseover"/>
    <set attributeName="visibility" from="hidden" to="visible" begin="Cayuga__NY.mouseover" end="Cayuga__NY.mouseout"/>
  </text>
  <text x="10" y="50" font-size="50" fill="black" visibility="hidden">Onondaga
    <set attributeName="visibility" from="visible" to="hidden" begin="county_group.mouseover"/>
    <set attributeName="visibility" from="hidden" to="visible" begin="Onondaga__NY.mouseover" end="Onondaga__NY.mouseout"/>
  </text>
  <text x="10" y="50" font-size="50" fill="black" visibility="hidden">Cortland
    <set attributeName="visibility" from="visible" to="hidden" begin="county_group.mouseover"/>
    <set attributeName="visibility" from="hidden" to="visible" begin="Cortland__NY.mouseover" end="Cortland__NY.mouseout"/>
  </text>
  <text x="10" y="50" font-size="50" fill="black" visibility="hidden">Chenango
    <set attributeName="visibility" from="visible" to="hidden" begin="county_group.mouseover"/>
    <set attributeName="visibility" from="hidden" to="visible" begin="Chenango__NY.mouseover" end="Chenango__NY.mouseout"/>
  </text>
  <text x="10" y="50" font-size="50" fill="black" visibility="hidden">Madison
    <set attributeName="visibility" from="visible" to="hidden" begin="county_group.mouseover"/>
    <set attributeName="visibility" from="hidden" to="visible" begin="Madison__NY.mouseover" end="Madison__NY.mouseout"/>
  </text>
  <text x="10" y="50" font-size="50" fill="black" visibility="hidden">Oneida
    <set attributeName="visibility" from="visible" to="hidden" begin="county_group.mouseover"/>
    <set attributeName="visibility" from="hidden" to="visible" begin="Oneida__NY.mouseover" end="Oneida__NY.mouseout"/>
  </text>
  <text x="10" y="50" font-size="50" fill="black" visibility="hidden">Lewis
    <set attributeName="visibility" from="visible" to="hidden" begin="county_group.mouseover"/>
    <set attributeName="visibility" from="hidden" to="visible" begin="Lewis__NY.mouseover" end="Lewis__NY.mouseout"/>
  </text>
  <text x="10" y="50" font-size="50" fill="black" visibility="hidden">Herkimer
    <set attributeName="visibility" from="visible" to="hidden" begin="county_group.mouseover"/>
    <set attributeName="visibility" from="hidden" to="visible" begin="Herkimer__NY.mouseover" end="Herkimer__NY.mouseout"/>
  </text>
  <text x="10" y="50" font-size="50" fill="black" visibility="hidden">Otsego
    <set attributeName="visibility" from="visible" to="hidden" begin="county_group.mouseover"/>
    <set attributeName="visibility" from="hidden" to="visible" begin="Otsego__NY.mouseover" end="Otsego__NY.mouseout"/>
  </text>
  <text x="10" y="50" font-size="50" fill="black" visibility="hidden">Schoharie
    <set attributeName="visibility" from="visible" to="hidden" begin="county_group.mouseover"/>
    <set attributeName="visibility" from="hidden" to="visible" begin="Schoharie__NY.mouseover" end="Schoharie__NY.mouseout"/>
  </text>
  <text x="10" y="50" font-size="50" fill="black" visibility="hidden">Albany
    <set attributeName="visibility" from="visible" to="hidden" begin="county_group.mouseover"/>
    <set attributeName="visibility" from="hidden" to="visible" begin="Albany__NY.mouseover" end="Albany__NY.mouseout"/>
  </text>
  <text x="10" y="50" font-size="50" fill="black" visibility="hidden">Saratoga
    <set attributeName="visibility" from="visible" to="hidden" begin="county_group.mouseover"/>
    <set attributeName="visibility" from="hidden" to="visible" begin="Saratoga__NY.mouseover" end="Saratoga__NY.mouseout"/>
  </text>
  <text x="10" y="50" font-size="50" fill="black" visibility="hidden">Warren
    <set attributeName="visibility" from="visible" to="hidden" begin="county_group.mouseover"/>
    <set attributeName="visibility" from="hidden" to="visible" begin="Warren__NY.mouseover" end="Warren__NY.mouseout"/>
  </text>
  <text x="10" y="50" font-size="50" fill="black" visibility="hidden">Hamilton
    <set attributeName="visibility" from="visible" to="hidden" begin="county_group.mouseover"/>
    <set attributeName="visibility" from="hidden" to="visible" begin="Hamilton__NY.mouseover" end="Hamilton__NY.mouseout"/>
  </text>
  <text x="10" y="50" font-size="50" fill="black" visibility="hidden">Franklin
    <set attributeName="visibility" from="visible" to="hidden" begin="county_group.mouseover"/>
    <set attributeName="visibility" from="hidden" to="visible" begin="Franklin__NY.mouseover" end="Franklin__NY.mouseout"/>
  </text>
  <text x="10" y="50" font-size="50" fill="black" visibility="hidden">St. Lawrence
    <set attributeName="visibility" from="visible" to="hidden" begin="county_group.mouseover"/>
    <set attributeName="visibility" from="hidden" to="visible" begin="St_Lawrence__NY.mouseover" end="St_Lawrence__NY.mouseout"/>
  </text>
  <text x="10" y="50" font-size="50" fill="black" visibility="hidden">Jefferson
    <set attributeName="visibility" from="visible" to="hidden" begin="county_group.mouseover"/>
    <set attributeName="visibility" from="hidden" to="visible" begin="Jefferson__NY.mouseover" end="Jefferson__NY.mouseout"/>
  </text>
  <text x="10" y="50" font-size="50" fill="black" visibility="hidden">Oswego
    <set attributeName="visibility" from="visible" to="hidden" begin="county_group.mouseover"/>
    <set attributeName="visibility" from="hidden" to="visible" begin="Oswego__NY.mouseover" end="Oswego__NY.mouseout"/>
  </text>
  <text x="10" y="50" font-size="50" fill="black" visibility="hidden">Wayne
    <set attributeName="visibility" from="visible" to="hidden" begin="county_group.mouseover"/>
    <set attributeName="visibility" from="hidden" to="visible" begin="Wayne__NY.mouseover" end="Wayne__NY.mouseout"/>
  </text>
  <text x="10" y="50" font-size="50" fill="black" visibility="hidden">Monroe
    <set attributeName="visibility" from="visible" to="hidden" begin="county_group.mouseover"/>
    <set attributeName="visibility" from="hidden" to="visible" begin="Monroe__NY.mouseover" end="Monroe__NY.mouseout"/>
  </text>
  <text x="10" y="50" font-size="50" fill="black" visibility="hidden">Niagara
    <set attributeName="visibility" from="visible" to="hidden" begin="county_group.mouseover"/>
    <set attributeName="visibility" from="hidden" to="visible" begin="Niagara__NY.mouseover" end="Niagara__NY.mouseout"/>
  </text>
  <text x="10" y="50" font-size="50" fill="black" visibility="hidden">Erie
    <set attributeName="visibility" from="visible" to="hidden" begin="county_group.mouseover"/>
    <set attributeName="visibility" from="hidden" to="visible" begin="Erie__NY.mouseover" end="Erie__NY.mouseout"/>
  </text>
  <text x="10" y="50" font-size="50" fill="black" visibility="hidden">Chautauqua
    <set attributeName="visibility" from="visible" to="hidden" begin="county_group.mouseover"/>
    <set attributeName="visibility" from="hidden" to="visible" begin="Chautauqua__NY.mouseover" end="Chautauqua__NY.mouseout"/>
  </text>
  <text x="10" y="50" font-size="50" fill="black" visibility="hidden">Cattaraugus
    <set attributeName="visibility" from="visible" to="hidden" begin="county_group.mouseover"/>
    <set attributeName="visibility" from="hidden" to="visible" begin="Cattaraugus__NY.mouseover" end="Cattaraugus__NY.mouseout"/>
  </text>
  <text x="10" y="50" font-size="50" fill="black" visibility="hidden">Allegany
    <set attributeName="visibility" from="visible" to="hidden" begin="county_group.mouseover"/>
    <set attributeName="visibility" from="hidden" to="visible" begin="Allegany__NY.mouseover" end="Allegany__NY.mouseout"/>
  </text>
  <text x="10" y="50" font-size="50" fill="black" visibility="hidden">Steuben
    <set attributeName="visibility" from="visible" to="hidden" begin="county_group.mouseover"/>
    <set attributeName="visibility" from="hidden" to="visible" begin="Steuben__NY.mouseover" end="Steuben__NY.mouseout"/>
  </text>
  <text x="10" y="50" font-size="50" fill="black" visibility="hidden">Chemung
    <set attributeName="visibility" from="visible" to="hidden" begin="county_group.mouseover"/>
    <set attributeName="visibility" from="hidden" to="visible" begin="Chemung__NY.mouseover" end="Chemung__NY.mouseout"/>
  </text>
  <text x="10" y="50" font-size="50" fill="black" visibility="hidden">Tioga
    <set attributeName="visibility" from="visible" to="hidden" begin="county_group.mouseover"/>
    <set attributeName="visibility" from="hidden" to="visible" begin="Tioga__NY.mouseover" end="Tioga__NY.mouseout"/>
  </text>
  <text x="10" y="50" font-size="50" fill="black" visibility="hidden">Broome
    <set attributeName="visibility" from="visible" to="hidden" begin="county_group.mouseover"/>
    <set attributeName="visibility" from="hidden" to="visible" begin="Broome__NY.mouseover" end="Broome__NY.mouseout"/>
  </text>
  <text x="10" y="50" font-size="50" fill="black" visibility="hidden">Delaware
    <set attributeName="visibility" from="visible" to="hidden" begin="county_group.mouseover"/>
    <set attributeName="visibility" from="hidden" to="visible" begin="Delaware__NY.mouseover" end="Delaware__NY.mouseout"/>
  </text>
  <text x="10" y="50" font-size="50" fill="black" visibility="hidden">Sullivan
    <set attributeName="visibility" from="visible" to="hidden" begin="county_group.mouseover"/>
    <set attributeName="visibility" from="hidden" to="visible" begin="Sullivan__NY.mouseover" end="Sullivan__NY.mouseout"/>
  </text>
  <text x="10" y="50" font-size="50" fill="black" visibility="hidden">Greene
    <set attributeName="visibility" from="visible" to="hidden" begin="county_group.mouseover"/>
    <set attributeName="visibility" from="hidden" to="visible" begin="Greene__NY.mouseover" end="Greene__NY.mouseout"/>
  </text>
  <text x="10" y="50" font-size="50" fill="black" visibility="hidden">New York
    <set attributeName="visibility" from="visible" to="hidden" begin="county_group.mouseover"/>
    <set attributeName="visibility" from="hidden" to="visible" begin="New_York__NY.mouseover" end="New_York__NY.mouseout"/>
  </text>
  <text x="10" y="50" font-size="50" fill="black" visibility="hidden">Ulster
    <set attributeName="visibility" from="visible" to="hidden" begin="county_group.mouseover"/>
    <set attributeName="visibility" from="hidden" to="visible" begin="Ulster__NY.mouseover" end="Ulster__NY.mouseout"/>
  </text>
  <text x="10" y="50" font-size="50" fill="black" visibility="hidden">Bronx
    <set attributeName="visibility" from="visible" to="hidden" begin="county_group.mouseover"/>
    <set attributeName="visibility" from="hidden" to="visible" begin="Bronx__NY.mouseover" end="Bronx__NY.mouseout"/>
  </text>
  <text x="10" y="50" font-size="50" fill="black" visibility="hidden">Kings
    <set attributeName="visibility" from="visible" to="hidden" begin="county_group.mouseover"/>
    <set attributeName="visibility" from="hidden" to="visible" begin="Kings__NY.mouseover" end="Kings__NY.mouseout"/>
  </text>
  <text x="10" y="50" font-size="50" fill="black" visibility="hidden">Rockland
    <set attributeName="visibility" from="visible" to="hidden" begin="county_group.mouseover"/>
    <set attributeName="visibility" from="hidden" to="visible" begin="Rockland__NY.mouseover" end="Rockland__NY.mouseout"/>
  </text>
  <text x="10" y="50" font-size="50" fill="black" visibility="hidden">Nassau
    <set attributeName="visibility" from="visible" to="hidden" begin="county_group.mouseover"/>
    <set attributeName="visibility" from="hidden" to="visible" begin="Nassau__NY.mouseover" end="Nassau__NY.mouseout"/>
  </text>
  <text x="10" y="50" font-size="50" fill="black" visibility="hidden">Orange
    <set attributeName="visibility" from="visible" to="hidden" begin="county_group.mouseover"/>
    <set attributeName="visibility" from="hidden" to="visible" begin="Orange__NY.mouseover" end="Orange__NY.mouseout"/>
  </text>
  <text x="10" y="50" font-size="50" fill="black" visibility="hidden">Queens
    <set attributeName="visibility" from="visible" to="hidden" begin="county_group.mouseover"/>
    <set attributeName="visibility" from="hidden" to="visible" begin="Queens__NY.mouseover" end="Queens__NY.mouseout"/>
  </text>
  <text x="10" y="50" font-size="50" fill="black" visibility="hidden">Suffolk
    <set attributeName="visibility" from="visible" to="hidden" begin="county_group.mouseover"/>
    <set attributeName="visibility" from="hidden" to="visible" begin="Suffolk__NY.mouseover" end="Suffolk__NY.mouseout"/>
  </text>
  <text x="10" y="50" font-size="50" fill="black" visibility="hidden">Westchester
    <set attributeName="visibility" from="visible" to="hidden" begin="county_group.mouseover"/>
    <set attributeName="visibility" from="hidden" to="visible" begin="Westchester__NY.mouseover" end="Westchester__NY.mouseout"/>
  </text>
  <text x="10" y="50" font-size="50" fill="black" visibility="hidden">Putnam
    <set attributeName="visibility" from="visible" to="hidden" begin="county_group.mouseover"/>
    <set attributeName="visibility" from="hidden" to="visible" begin="Putnam__NY.mouseover" end="Putnam__NY.mouseout"/>
  </text>
  <text x="10" y="50" font-size="50" fill="black" visibility="hidden">Dutchess
    <set attributeName="visibility" from="visible" to="hidden" begin="county_group.mouseover"/>
    <set attributeName="visibility" from="hidden" to="visible" begin="Dutchess__NY.mouseover" end="Dutchess__NY.mouseout"/>
  </text>
  <text x="10" y="50" font-size="50" fill="black" visibility="hidden">Columbia
    <set attributeName="visibility" from="visible" to="hidden" begin="county_group.mouseover"/>
    <set attributeName="visibility" from="hidden" to="visible" begin="Columbia__NY.mouseover" end="Columbia__NY.mouseout"/>
  </text>
  <text x="10" y="50" font-size="50" fill="black" visibility="hidden">Rensselaer
    <set attributeName="visibility" from="visible" to="hidden" begin="county_group.mouseover"/>
    <set attributeName="visibility" from="hidden" to="visible" begin="Rensselaer__NY.mouseover" end="Rensselaer__NY.mouseout"/>
  </text>
  <text x="10" y="50" font-size="50" fill="black" visibility="hidden">Washington
    <set attributeName="visibility" from="visible" to="hidden" begin="county_group.mouseover"/>
    <set attributeName="visibility" from="hidden" to="visible" begin="Washington__NY.mouseover" end="Washington__NY.mouseout"/>
  </text>

</svg>