<svg width="800" height="600" version="1.0" xmlns="http://www.w3.org/2000/svg">
 <g id="county-group" class="counties" transform="scale(6), translate(-385 -120)" style="fill:#d3d3d3;stroke-width:.17829;stroke:#000">
<path id="Perkins__SD" class="46105" d="m411.91 124.61 15.076 1.045-0.67571 10.824-0.62757 9.962-15.548-1.084 0.28883-3.977 0.29774-3.978 0.69888-7.939h0.12124l0.36905-4.86"/>
  <path id="Harding__SD" class="46063" d="m394.25 123.21 16.802 1.334 0.85934 0.06-0.36905 4.86h-0.12124l-0.69888 7.939-0.29774 3.978-17.517-1.389 1.2373-15.326 0.10519-1.453"/>
  <path id="Custer__SD" class="46033" d="m390.01 171.16 11.225 0.843 11.369 0.868-0.0464 0.337-0.24247 0.869-2.0253 2.499-0.41623 0.70763-1.2632-0.50763-0.64192 1.3764-0.97336 0.0876-0.21751 2.973-17.492-1.413 0.0481-0.58 0.67571-8.06"/>
  <path id="Fall_River__SD" class="46047" d="m389.29 179.8 17.492 1.413-0.81121 10.969-8.4294-0.651-9.1586-0.749 0.90748-10.982"/>
  <path id="Oglala_Lakota__SD" class="46102" d="m421.43 177.05-0.32805 5.166 0.46533 0.02-0.12837 2.001-0.353 6.01 0.45641 0.03-0.2086 2.986-11.877-0.817-3.4873-0.265 0.81121-10.969 0.21751-2.973 0.97336-0.0875 0.64192-1.3764 1.2632 0.50763 0.41623-0.70763 10.471 0.731 0.66679-0.265"/>
  <path id="Bennett__SD" class="46007" d="m436.13 185.13-0.49207 9.03-6.6608-0.346-4.179-0.321-3.4623-0.226 0.2086-2.986-0.45641-0.03 0.353-6.01 14.689 0.893"/>
  <path id="Mellette__SD" class="46095" d="m439.42 174.85 0.1141-0.122 0.37619-0.09 4.0735 3.1232 1.5568 0.35277 1.7823-0.8403 1.9858 0.96646 1.1801-0.0824 0.63928-0.11477 0.15332 0.275 1.7918 0.151-0.0571 7.474-16.889-0.818 0.49029-8.92 0.23177-0.522 0.13728-0.195 1.2373-0.698 0.82726-0.138 0.27277 0.105 0.0963 0.09"/>
  <path id="Todd__SD" class="46121" d="m436.13 185.13 16.889 0.818-0.1355 9.05-1.3336-0.07-1.1981-0.06-3.2626-0.154-6.0742-0.281-5.3771-0.282 0.49207-9.03"/>
  <path id="Tripp__SD" class="46123" d="m453.07 178.47 0.47424 0.459 1.8741 0.46584 1.2106-0.45105 2.5796 0.61256 1.9812-0.78063 1.2723-0.58812 0.68474 0.0384-0.20147 5.601 1.4958 0.06-0.43502 11.574-11.129-0.467 0.1355-9.05 0.0571-7.474"/>
  <path id="Gregory__SD" class="46053" d="m468.37 184.03-0.2169 0.87449 0.84464 0.69732 1.6275 0.0745 0.50353 0.67054 0.62422 0.99611 1.7298 2.5201 1.79 0.40089 0.2557 1.8255 1.6728 0.7826 1.2882 1.3912 2.2269 0.4656 0.65424 1.279-12.671-0.371-4.6854-0.168 0.43502-11.574 3.9205 0.137"/>
  <path id="Brule__SD" class="46015" d="m474.84 174.18 1.9772 0.06-0.0802 10.054-8.3652-0.273 0.0963-0.114 0.1355-0.239 0.0571-0.21-0.7025-0.95933 0.0134-1.2636-0.45201-0.54109-0.82208-0.22221-0.59073 0.0702-0.34783-0.49658 0.32018-0.37513 0.68454-0.27392 0.0368-1.6302 0.74527-0.43586 0.62382-0.77998 0.44163-0.53708-0.0967-0.46984-0.84804-0.58529 0.0866-0.97314 7.0869 0.192"/>
  <path id="Aurora__SD" class="46003" d="m484.69 174.39 0.0571 2.008-0.12124 8.124-6.4041-0.174-1.4851-0.05 0.0802-10.054 7.8732 0.146"/>
  <path id="Davison__SD" class="46035" d="m490.67 176.55-0.11232 8.1-2.4996-0.03-3.432-0.09 0.12124-8.124 5.9227 0.146"/>
  <path id="Douglas__SD" class="46043" d="m478.22 184.35 6.4041 0.174 3.432 0.09-0.0713 6.949-9.1622-4.168-0.27278-0.08h-0.43502l0.025-1.334 0.0802-1.645"/>
  <path id="Charles_Mix__SD" class="46023" d="m468.37 184.03 8.3652 0.273 1.4851 0.05-0.0802 1.645-0.025 1.334h0.43502l0.27278 0.08 9.1622 4.168 0.66547 0.24547-0.18409 0.44153-0.0785 0.67708-0.22093 1.3714-0.1229 1.6655 0.37764 0.89312-0.43924 1.3833-0.0167 0.6933-0.89896 0.88936-0.24068 0.03-2.3605-1.07-3.104-2.784-0.65424-1.279-2.2269-0.4656-1.2882-1.3912-1.6728-0.7826-0.2557-1.8255-1.79-0.40089-1.7298-2.5201-0.62422-0.99611-0.50353-0.67054-1.6275-0.0746-0.84464-0.69732 0.2169-0.87449h9e-3"/>
  <path id="Bon_Homme__SD" class="46009" d="m488.47 192.25 7.6225 0.135 0.0255 6.7757-0.65847 0.72603-0.41893-0.67338-0.51858-0.13525-0.50899 0.68617-0.56878-0.0513-0.51065-0.57968-0.79832 0.12645-0.19682 0.62334-0.43219 0.54489-0.353 0.506-0.47425 0.431-0.22464 0.14-0.85221 0.128-0.27991 0.01-0.29774-0.05-0.36192-0.16-1.8328-1.582 0.24068-0.03 0.89896-0.88936 0.0167-0.6933 0.43924-1.3833-0.37764-0.89312 0.1229-1.6655 0.22093-1.3714 0.0785-0.67708"/>
  <path id="Yankton__SD" class="46135" d="m496.09 192.39 3.7629 0.05 4.2151 0.0254 0.0116 1.9734-0.0142 6.6858-0.96526-0.68225-0.0324-0.828-1.05-0.1303-1.05-0.45096-0.81062 0.17405-0.81063 0.34897-1.0448-0.2426-0.53431 0.18914-0.91491 0.23824-0.11689-0.48611-0.62025-0.081-0.0255-6.7757"/>
  <path id="Hutchinson__SD" class="46067" d="m488.06 184.62 2.4996 0.03 5.9459 0.103 3.4231 0.06-0.0731 7.628-3.7629-0.05-7.6225-0.135 0.18409-0.44153-0.66547-0.24547 0.0713-6.949"/>
  <path id="Hanson__SD" class="46061" d="m492.6 176.6 4.0168 0.1-0.11232 8.051-5.9459-0.103 0.11232-8.1 1.9291 0.06"/>
  <path id="McCook__SD" class="46087" d="m500.58 176.77 3.9776 0.06-0.1034 8.044-4.5249-0.07-3.4231-0.06 0.11232-8.051 3.9615 0.07"/>
  <path id="Turner__SD" class="46125" d="m504.45 184.87 3.4142 0.02-0.0891 9.628-3.6963-0.0813-0.0116-1.9734-4.2151-0.0254 0.0731-7.628 4.5249 0.07"/>
  <path id="Clay__SD" class="46027" d="m507.78 194.52 1.9861 0.02-0.0802 8.782-3.5212-1.315-2.0952-0.88751 0.0142-6.6858 3.6963 0.0813"/>
  <path id="Union__SD" class="46127" d="m515.64 194.58-1.1642 4.019-0.6757 1.801-0.67393 3.084 0.44037 0.337 0.55447 0.515 0.43502 0.699 0.60975 1.606 0.60439 1.666-3.2466-0.829-1.2052-1.792-0.0499-0.209 9e-3 -0.21 0.0642-0.271-0.0963-0.385-0.18541-0.419-1.3728-0.869 0.0802-8.782 5.8728 0.04"/>
  <path id="Lincoln__SD" class="46083" d="m507.87 184.89 5.4253 0.04 0.0718 1.388 1.1389 1.2892 0.0458 1.6821-1.0214 0.0616 0.052 1.1311 0.37083 0.836h1.1981l0.15868 0.08 0.64361 2.314-0.0481 0.158-0.26565 0.708-5.8728-0.04-1.9861-0.02 0.0891-9.628"/>
  <path id="Minnehaha__SD" class="46099" d="m508.54 176.87 7.2081 0.02-0.0321 8.06-2.4247-0.02-5.4253-0.04-3.4142-0.02 0.1034-8.044 3.9847 0.04"/>
  <path id="Lyman__SD" class="46085" d="m464.33 167.89 0.6598 1.0993-0.34931 0.8046-0.0947 0.41711 0.29774 0.443 0.44215 0.442 0.46533 0.112 0.54734 0.07 0.36192 0.147 0.81121 0.747 0.36905 0.394 0.12124 0.32-9e-3 0.275-0.0874 0.528-0.11232 0.297-0.0866 0.97414 0.84804 0.58529 0.0967 0.46984-0.44163 0.53707-0.62382 0.77999-0.74527 0.43585-0.0368 1.6302-0.68454 0.27391-0.32018 0.37514 0.34783 0.49658 0.59073-0.0702 0.82208 0.22221 0.45201 0.54109-0.0134 1.2636 0.7025 0.95933-0.0571 0.21-0.1355 0.239-0.0963 0.114h-9e-3l-3.9205-0.137-1.4958-0.06 0.20147-5.601-0.68474-0.0384-1.2723 0.58812-1.9812 0.78063-2.5796-0.61256-1.2106 0.45105-1.8741-0.46584-0.47424-0.459-1.7918-0.151 0.10519-2.468-0.41897-0.545 0.3227-7.41 0.0321-0.602 7.0637 0.297 0.0392 0.161 0.54556 1.084 0.57592 0.62163 1.2614-0.20607 0.6818-4e-3 1.2656 0.79212 0.61892-9e-3 0.29774-0.12 0.37975-0.38111-0.33853-0.67001-0.94963-0.36611-0.46943-0.217-0.0675-0.40331 0.20803-0.31836 0.4903-0.3041 1.4067 0.635"/>
  <path id="Jones__SD" class="46075" d="m451.29 167.9-0.3227 7.41 0.41897 0.545-0.10519 2.468-0.15332-0.275-0.63928 0.11477-1.1801 0.0824-1.9858-0.96646-1.7823 0.8403-1.5568-0.35277-4.0735-3.1232-0.37619 0.09-0.1141 0.122 0.18542-3.529 0.49029-3.977 11.195 0.554"/>
  <path id="Jackson__SD" class="46071" d="m424.04 170.42 15.564 0.9-0.18542 3.529-0.0963-0.09-0.27277-0.106-0.82726 0.138-1.2373 0.699-0.13728 0.194-0.23177 0.522-0.49029 8.92-14.689-0.893 0.12837-2.001-0.46533-0.02 0.32805-5.166 0.69888 0.345h0.71488l0.58835-0.387 0.41719-6.596h0.19255"/>
  <path id="Stanley__SD" class="46117" d="m446.21 153.76 1.3407 0.796 0.0499 0.05 0.23356 0.706v0.314l-0.24247 0.955-0.17651 0.46-0.16046 0.248-0.0642 0.515 0.0731 0.328 0.11232 0.193 0.18363 0.217 0.21038 0.147 0.23178 0.103 1.0768 0.266 0.32953 0.66825-1.0694 0.38275-0.11945 0.17-0.0963 0.362-0.025 0.256 0.0161 0.09 0.15332 0.208 0.46681 0.32522 1.2234-0.31716 1.3233 0.53935 0.28123 1.9526 0.0642 0.06 0.35301 0.161 1.5261 0.442 0.58835 0.09 0.67393 0.01 0.2496 0.07 1.0519 0.355 1.7754 1.1586 0.99692-5e-3 0.22465 0.2 0.12123 0.314-0.016 0.05-0.78625 0.989-7.0637-0.297-0.0321 0.602-11.195-0.554-1.9683-0.1 0.21573-4.034 0.6347-7.962 0.35479-1.302 1.8399 0.635 0.54556-0.154 0.25851-0.433 1.0127-0.403 1.3568-0.216 0.89908 0.57269 0.9658-0.19469"/>
  <path id="Haakon__SD" class="46055" d="m430.41 157.34 0.92077 0.26172 1.5461 0.18156 0.95141-0.73453 0.21005-0.72426 1.4874-0.32904 0.22723-0.6391 2.5085-0.22869 0.64313-0.625 0.42611-0.555-0.35479 1.302-0.6347 7.962-0.21573 4.035 1.9683 0.1-0.49029 3.977-15.564-0.9 0.50634-8.035h0.1034l0.25048-3.8505 1.2829-0.27664 2.114 0.1089z"/>
  <path id="Pennington__SD" class="46103" d="m390.58 164.56 9.8985 0.82 17.51 1.286-0.23397-1.0805 0.82767-1.0805 0.20218-2.1052 0.7778-0.627 0.37143-1.6808 0.21751-0.233 0.91545-0.11187 0.44203 0.74797 0.59346-0.0484 0.10555-0.41431 0.8585 0.1312 1.2231-1.4836 0.60261-0.137-0.24248 3.849h-0.1034l-0.50634 8.036h-0.19255l-0.41719 6.596-0.58835 0.387h-0.71488l-0.69888-0.345-0.66679 0.265-10.471-0.731 2.0253-2.499 0.24247-0.869 0.0464-0.337-11.369-0.868-11.225-0.843 0.57051-6.606"/>
  <path id="Lawrence__SD" class="46081" d="m391.4 154.69 2.5317-0.339 1.3746-0.121 4.1291 0.346-0.60975 6.324-0.13728 1.663 1.9932 0.144-0.20146 2.669-9.8985-0.82 0.0784-0.898 0.73989-8.968"/>
  <path id="Butte__SD" class="46019" d="m410.42 141.38-0.28883 3.977h-0.0232l-0.51524 7.055-0.29774 2.926-9.8593-0.756-4.1291-0.346-1.3746 0.121-2.5317 0.339 0.80408-9.788 0.69888-4.917 17.517 1.389"/>
  <path id="Meade__SD" class="46093" d="m425.68 146.44-0.7702 12.102h-0.016l-0.60261 0.138-1.2231 1.4836-0.8585-0.1302-0.10555 0.41431-0.59346 0.0484-0.44203-0.74797-0.91545 0.11087-0.21751 0.234-0.37143 1.6798-0.7778 0.627-0.20218 2.1052-0.82767 1.0805 0.23397 1.0805-17.51-1.285 0.20146-2.669-1.9932-0.145 0.13728-1.663 0.60975-6.324 9.8593 0.756 0.29774-2.926 0.51524-7.055h0.0232l15.548 1.084"/>
  <path id="Ziebach__SD" class="46137" d="m426.31 136.47 8.5489 0.513-1.0751 9.941-0.0571 1.027 5.9227 0.323-0.31378 5.673-0.42611 0.555-0.64313 0.625-2.5085 0.22869-0.22723 0.6391-1.4874 0.32904-0.21005 0.72426-0.95141 0.73453-1.5461-0.18156-0.92077-0.26172-2.1119 1.03-2.1119-0.10927-1.2789 0.27589 0.7702-12.102 0.62757-9.962"/>
  <path id="Dewey__SD" class="46041" d="m453.08 137.92 0.14025 1.1099 0.86351 1.0441-7e-3 0.137-0.16225 0.459-0.44215 0.513-0.0802 0.12-0.0713 0.194 0.12837 0.61 0.71493 1.069 0.0321 0.257-0.42611 1.744-0.82012 1.92 0.64394 1.2135-0.16803 0.4239-0.97242-0.37644-0.97257 0.15105-0.23356 0.401-0.0232 0.435 0.0713 1.148 0.041 0.25 0.2817 0.884-0.025 0.176-0.15333 0.234-0.27278 0.296-1.9059 1.695-0.30308 0.122-0.6044-0.138-0.40827-0.144-0.47425-0.522-0.25851-0.443-0.12837-0.151-0.19255-0.186-0.29774-0.119h-0.0713l-0.20147 0.128-0.16046 0.289-0.0642 0.177-0.0571 0.233 9e-3 0.234 0.0553 0.144 0.10519 0.105-0.9658 0.19469-0.89908-0.57269-1.3568 0.216-1.0127 0.403-0.25851 0.433-0.54556 0.154-1.8399-0.635 0.31378-5.673-5.9227-0.323 0.0571-1.027 1.0751-9.941 18.226 0.932"/>
  <path id="Walworth__SD" class="46129" d="m451.78 135.05 11.5 0.529h0.15333l-0.33874 7.988-8.9268-0.402-0.71493-1.069-0.12837-0.61 0.0713-0.194 0.0802-0.12 0.44215-0.513 0.16225-0.458 7e-3 -0.138-0.86351-1.0436-0.14025-1.1094-0.46431-0.71989-1.2227-0.0932-0.59827-0.55116 0.71995-0.91886 0.26204-0.58585"/>
  <path id="Potter__SD" class="46107" d="m454.17 143.18 8.9268 0.402 2.1947 0.09-0.28169 8.003-1.6545-0.07-11.901-0.507-0.11233-0.353-0.041-0.249-0.0713-1.148 0.0232-0.435 0.23356-0.401 0.97257-0.15105 0.97242 0.37644 0.16803-0.4239-0.64394-1.2135 0.82012-1.92 0.42611-1.744-0.0321-0.257"/>
  <path id="Sully__SD" class="46119" d="m463.35 151.6-0.34587 8.044-13.926-0.586-1.0768-0.266-0.23178-0.103-0.21038-0.147-0.18363-0.217-0.11232-0.193-0.0731-0.328 0.0642-0.515 0.16046-0.248 0.17651-0.46 0.24247-0.955v-0.314l-0.23356-0.706-0.0499-0.05-1.3407-0.795-0.10519-0.106-0.0553-0.144-9e-3 -0.234 0.0571-0.233 0.0642-0.177 0.16046-0.289 0.20147-0.128h0.0713l0.29774 0.12 0.19255 0.185 0.12837 0.152 0.25851 0.442 0.47425 0.522 0.40827 0.144 0.6044 0.138 0.30308-0.121 1.9059-1.696 0.27278-0.296 0.15333-0.233 0.025-0.177-0.16937-0.531 11.901 0.506"/>
  <path id="Hughes__SD" class="46065" d="m463.01 159.64-0.0802 7.618-0.4903 0.3041-0.20803 0.31836 0.0675 0.40331 0.46943 0.217 0.94963 0.36611 0.33853 0.67001-0.37975 0.38111-0.29774 0.12-0.61892 9e-3 -1.2656-0.79212-0.6818 4e-3 -1.2614 0.20607-0.57592-0.62163-0.54556-1.084-0.0392-0.161 0.78625-0.989 0.016-0.05-0.12123-0.314-0.22465-0.2-0.99692 5e-3 -1.7754-1.1586-1.0519-0.355-0.2496-0.07-0.67393-0.01-0.58835-0.09-1.5261-0.442-0.35301-0.161-0.0642-0.06-0.28123-1.9526-1.3233-0.53935-1.2234 0.31716-0.46681-0.32522-0.15332-0.208-0.0161-0.09 0.025-0.257 0.0963-0.362 0.11945-0.169 1.0694-0.38325-0.32953-0.66875 13.926 0.586"/>
  <path id="Buffalo__SD" class="46017" d="m464.33 167.89 4.5642 0.112 6.1456 0.152-0.19968 6.026-7.0869-0.193 0.11232-0.297 0.0874-0.528 9e-3 -0.275-0.12124-0.32-0.36905-0.394-0.81121-0.747-0.36192-0.147-0.54734-0.07-0.46533-0.112-0.44215-0.442-0.29774-0.443 0.0947-0.41711 0.34931-0.8046-0.6598-1.0993"/>
  <path id="Jerauld__SD" class="46073" d="m475.04 168.16 3.7208 0.112 6.076 0.161-0.14619 5.963-7.8732-0.146-1.9772-0.06 0.19968-6.026"/>
  <path id="Sanborn__SD" class="46111" d="m484.84 168.43 7.8749 0.208h0.0713l-0.18363 7.964-1.9291-0.06-5.9227-0.146-0.0571-2.008 0.14619-5.963"/>
  <path id="Miner__SD" class="46097" d="m500.69 168.78-0.10519 7.995-3.9615-0.07-4.0168-0.1 0.18363-7.964 7.8999 0.139"/>
  <path id="Lake__SD" class="46079" d="m500.69 168.78 3.9598 0.03 3.9633 0.05-0.066 8.01-3.9847-0.04-3.9776-0.06 0.10519-7.995"/>
  <path id="Moody__SD" class="46101" d="m515.8 168.88-0.0481 8.003-7.2081-0.02 0.066-8.01 7.1903 0.02"/>
  <path id="Brookings__SD" class="46011" d="m504.77 160.81 3.9776 0.02 7.1047 0.06-0.0499 7.987-7.1903-0.02-3.9633-0.05 0.12124-7.995"/>
  <path id="Hamlin__SD" class="46057" d="m508.82 154.83-0.0731 6.002-3.9776-0.02-5.969-0.105 0.11232-5.987 9.9074 0.113"/>
  <path id="Kingsbury__SD" class="46077" d="m498.8 160.71 5.969 0.105-0.12124 7.995-3.9598-0.03-7.8999-0.139h-0.0713l0.16759-8.042 5.9156 0.112"/>
  <path id="Beadle__SD" class="46005" d="m490.88 158.54 2.0516 0.097-0.0513 1.961-0.16759 8.042-7.8749-0.208-6.076-0.161 0.20146-10.077 11.917 0.346"/>
  <path id="Hyde__SD" class="46069" d="m465.01 151.67 4.2593 0.16-0.29774 8.043h0.20147l-0.27278 8.124-4.5642-0.112-1.4067-0.635 0.0802-7.618 0.34587-8.044 1.6545 0.07"/>
  <path id="Hand__SD" class="46059" d="m469.27 151.83 9.6988 0.305v6.058l-0.20146 10.077-3.7208-0.112-6.1456-0.152 0.27278-8.124h-0.20147l0.29774-8.043"/>
  <path id="Edmunds__SD" class="46045" d="m463.43 135.59 15.853 0.587-0.19255 7.98-13.805-0.49-2.1947-0.09 0.33874-7.988"/>
  <path id="Faulk__SD" class="46049" d="m479.09 144.16h0.0802l-0.2086 7.971-9.6988-0.305-4.2593-0.16 0.28169-8.003 13.805 0.49"/>
  <path id="Spink__SD" class="46115" d="m491.11 144.53-0.0481 2.009-0.1462 5.666v0.328h0.0891l-0.12836 5.994-11.917-0.345v-6.059l0.2086-7.971 11.942 0.369"/>
  <path id="Clark__SD" class="46025" d="m498.98 146.73-0.0713 7.994-0.11232 5.987-5.9156-0.112 0.0512-1.961-2.0516-0.097 0.12836-5.994h-0.0891v-0.328l0.1462-5.666 7.9142 0.186"/>
  <path id="Codington__SD" class="46029" d="m498.98 146.73 4.3556 0.06 5.5697 0.1-0.0178 3.985-0.0713 3.969-9.9074-0.113 0.0713-7.994"/>
  <path id="Deuel__SD" class="46039" d="m515.89 150.9-7e-3 3.962-0.025 4.018-0.0143 2.017-7.1047-0.06 0.0731-6.002 0.0713-3.969 7.0067 0.03"/>
  <path id="Grant__SD" class="46051" d="m515.65 142.87 0.26565 1.326-0.0178 6.702-7.0067-0.03 0.0178-3.985-5.5697-0.1 0.0392-3.361 3.5533 0.06 0.35011-0.90393 8.3681 0.29693"/>
  <path id="Day__SD" class="46037" d="m491.31 136.53 9.7862 0.201 0.12836 0.66 2.2268 0.05-0.11232 9.346-4.3556-0.06-7.9142-0.186 0.24068-10.012"/>
  <path id="Roberts__SD" class="46109" d="m514.22 128.88-0.0891 1.004v0.05l-9e-3 0.03-0.0713 0.61-0.0571 0.497-0.0392 0.209-0.016 0.114-0.016 0.05-0.016 0.03-0.025 0.06-1.125 1.671-0.32805 0.33-0.61866 0.337-0.55625 0.362-1.4691 1.18-0.025 0.03-0.0321 0.04-0.025 0.02-0.0553 0.128-0.22464 0.771 0.0642 0.09 0.28883 0.369 1.125 1.503 1.1134 2.4603 1.2488 0.15868 1.5511 0.756 0.52951 0.426 0.30665 0.706-8.3681-0.29693-0.35011 0.90393-3.5533-0.06 0.0731-5.985 0.0874-8.663 10.681 0.105"/>
  <path id="Marshall__SD" class="46091" d="m503.54 128.78-0.0874 8.663-2.2268-0.05-0.12836-0.66-9.7862-0.201 0.18364-7.971 12.045 0.217"/>
  <path id="Brown__SD" class="46013" d="m479.52 128.2 11.498 0.345 0.47424 0.02-0.18364 7.971-0.19255 8.003-11.942-0.369h-0.0802l0.19255-7.98 0.23356-7.978"/>
  <path id="McPherson__SD" class="46089" d="m463.58 127.6 11.434 0.435 4.5089 0.16-0.23356 7.979-15.853-0.587h-0.15333l0.29774-7.978"/>
  <path id="Campbell__SD" class="46021" d="m460.97 127.48 2.603 0.119-0.29774 7.978-11.5-0.529 0.25852-0.908 0.1765-0.338 0.32092-0.209 0.69175 0.26213 0.41072-0.29213 0.33994-0.87602-0.61162-0.5579-0.0535-0.81326-0.6539-1.2034 0.49772-1.0293-0.38036-0.28613-0.5631-0.20289 0.032-0.73698-0.82101 0.1283-0.3755-0.97943 9.9252 0.483"/>
  <path id="Corson__SD" class="46031" d="m427.02 125.65h0.14261l0.25852 0.02 1.9362 0.121 2.3052 0.136 2.4283 0.153 2.0093 0.112 0.93244 0.06 6.2989 0.346 1.4548 0.08 1.9273 0.1h0.13015l0.36192 0.02 3.6478 0.185h0.19968l0.3755 0.97993 0.82101-0.12805-0.032 0.7371 0.5631 0.20302 0.38036 0.28613-0.49772 1.0293 0.6539 1.2034 0.0535 0.81326 0.61162 0.5579-0.33994 0.87602-0.41072 0.29213-0.69175-0.26213-0.32092 0.208-0.1765 0.339-0.25852 0.908-0.26204 0.58572-0.71995 0.91874 0.59827 0.55103 1.2227 0.0931 0.46431 0.71939-18.226-0.932-8.5489-0.514 0.67571-10.823h0.0321"/>
  
 </g>
</svg>