<svg width="700" height="720" version="1.0" xmlns="http://www.w3.org/2000/svg">
 <g id="county_group" class="counties" transform="scale(8), translate(-760 -222)" style="fill:#d3d3d3;stroke-width:.17829;stroke:#000">
  <path id="Berkeley__WV" class="54003" d="m837.64 244.95 0.49145 0.54089 0.83697-0.31276 0.67437-0.0282 0.8573-0.31277 0.63373-0.0892 0.0831 0.60581-0.77054 0.32126 0.776 1.2116 0.51177 0.27666-0.31449 1.0657-0.15154 0.321-0.94136 1.43-0.33518 0.224-0.10697 0.245-0.82012 2.118-0.0321 0.137-0.0414 0.48259-3.9526-2.1407 0.66715-5.0279 0.041-0.103 1.8934-0.965"/>
  <path id="Jefferson__WV" class="54037" d="m841.73 247.16 0.49876 0.0152 0.21889 1.2474 1.1538 0.14987-0.0704 1.7835 0.68169 0.36071-1.0626 4.66-4.1634-2.1934 0.0414-0.48259 0.0321-0.137 0.82012-2.118 0.10697-0.245 0.33518-0.224 0.94136-1.43 0.15154-0.321 0.3145-1.0657"/>
  <path id="Cabell__WV" class="54011" d="m768.35 281.01 2.9661 2.0974 0.20977 1.2059 0.27338 1.0575-0.34975-4e-3 -0.12033 0.24825-0.40124 0.0721-0.0801 0.14089-0.19477 0.33589-1.0659 0.36855-0.32025 0.38002 9.4e-4 0.32266-0.26289-0.01 0.0927 0.64385-0.50378 0.56356-0.1826 0.80444-0.27653 0.0614-0.62067-0.45478-0.10446-0.69568 0.10203-0.27123 0.45764-0.29418-0.32241-0.21388-0.41901-0.35173-0.31577 0.21037-0.0404 0.29067-0.13223 0.17596-3.0067-1.9231 1.491-0.81495 0.61454 0.032 0.82453-0.31568 0.30947-0.47668 0.0321-0.153 0.0321-0.167 0.0802-1.648 7e-3 -0.05 7e-3 -1.005 0.25965-0.24121 0.95936 0.0768"/>
  <path id="Mingo__WV" class="54059" d="m768.71 295.75 1.8853-0.86662-0.0749 0.298 0.74412 1.0735 0.71495 0.24858 0.13627 0.3218-0.0781 0.1263 0.21239 0.43293-0.48156 0.44908 0.27695 0.23927 0.0349 0.41679 0.30923-0.0189 0.27695 0.27154 0.14784 0.6266-0.17926 0.12033 0.0317 0.36599 0.16075-0.0455 0.33022 0.33371 0.2576 0.69684 0.68527-0.15045 0.0478 0.17233 0.38919 0.3134 0.0261 0.25692 0.41339 0.18429 0.13338 0.30849 0.11724-0.0546-0.028-0.23215 0.13337-0.27251 0.35125-0.0223 0.11724-0.24829 0.206 0.01 0.0772-0.16822 0.43224-0.0633-0.0438 0.20297 0.33541 0.20298 0.18209-0.18436 0.15789-0.023 0.0772-0.28926 0.10947-0.031 0.16325 0.27912 0.23897 2e-3 0.2067-0.20742 0.0745 0.20648 0.2278 0.0935 0.27939-0.0814 0.20833 1.004-0.25398 0.10303 7e-3 0.26899-0.20871 0.32804-0.0665 0.50586-0.29169 0.13837 0.0639 0.3399-1.0516 0.79991-0.61561-0.23406-0.47543-0.21776-1.0688 0.37538-1.1747-0.26062h-4e-3l-1.1657-1.0033-0.54941-1.0489-0.61789 0.36623-1.3255-0.77503-0.67214-1.035-0.0339-0.113 7e-3 -0.02-2.0915-2.5642 1.5664-2.2514"/>
  <path id="Wayne__WV" class="54099" d="m763.73 285.77 3.0067 1.9231 0.13222-0.17596 0.0404-0.29067 0.31577-0.21037 0.41901 0.35173 0.32242 0.21388-0.45765 0.29418-0.10202 0.27123 0.10445 0.69568 0.62068 0.45478 0.27652-0.0614-0.12728 0.71035 0.0522 1.3568 0.47171 0.23463-0.10433 0.36353 0.24036 0.23708 0.3743 0.031 0.0215 0.45077 0.24811 0.152 0.41254 0.0554-0.0408 0.32326 0.26872 0.0387 0.0137 0.40192-1.5307 2.1634-1.5664 2.2514-1.6364-1.6768 0.46533-0.804v-0.129l-7e-3 -0.02-0.025-0.03-1.2152-0.44384-0.90506-1.442-0.53578-0.22658-0.33398-0.62528v-0.02l-0.80496-0.43682 0.0189-0.50545 0.44929-1.967 0.24776-0.7956-0.0405-0.9397-0.60486-0.69952-0.14853-1.2279 0.63191 0.19913 1.032-0.4411"/>
  <path id="Wyoming__WV" class="54109" d="m781.57 297.58 0.51891 0.17931 0.0861 0.26587 0.25125-0.0501 0.25125-0.28977 0.28454-0.32306 0.21796-0.0168 0.0128-0.11367 0.44103 0.0457 0.16645 0.12132 0.27494-0.0236 0.21211-0.11705 0.52663 0.6808 0.29311 0.0817 2.1995 2.9698 0.0548 0.17703 0.27406 0.22468 0.23532 0.864 0.69285 0.29209 0.48971 0.0123 0.49328 0.34859-0.27867 0.11295-0.0975 0.13417-0.22556 0.0701-0.16304 0.36436-3e-3 0.30033-0.29108 0.24699-0.0653 0.1663-0.23598 0.17698 0.26553 0.0916 0.24418 0.49709-0.0973 0.20899-0.25732-0.10045-0.45069-0.2122-0.87878-0.16102-0.18697-0.25516-0.25307-0.12758-0.58746 0.35879-0.39975-0.14877-0.11097-0.42235-0.33748-0.1086-0.44389 0.37768-0.48948 0.013-0.19481-0.22181-0.514-9e-3 -0.69639 0.14298-0.13402-0.23701-0.14921-0.26741-0.0732-0.2218-0.14501 4e-3 -0.14501 0.12543-0.0994 0.15583-0.26661-0.0722-0.0842-0.10256-0.17541 0.019-0.12982 0.15583-0.2514 0.0494 0.0222 0.27742-0.25141 0.0646-0.0842 0.20143-0.373 0.019-0.12981 0.12543-0.4794-0.28495-0.11461 0.12543-0.20751-0.045-0.13151 0.16777-0.16191-0.0146-0.13151-0.18181-0.2683 0.10698-0.2987-0.12101 0.0133-0.44918-0.22127-0.0352-0.0553-0.26279-0.28854 0.0255-0.0639-0.3399 0.29169-0.13837 0.0665-0.50586 0.20872-0.32804-7e-3 -0.26899 0.25398-0.10303-0.20833-1.004 0.31834-0.414 0.58201-0.188 0.43715-0.43683 0.32414-0.17317-1.2873-0.984 0.1725-0.163 0.15367-0.12533 0.34131 0.0188 0.83099-0.50859 0.69915-0.16958 0.47315-0.32025"/>
  <path id="Logan__WV" class="54045" d="m774.89 293.08-0.4582 0.499-0.18602 0.38962 0.10495 0.14998 0.43901 0.17996 0.33039-0.16521 0.53712 0.0849-0.11574 0.32496 0.36157 0.14905 0.46652-0.13582 0.24163 0.0591 0.78136-0.0458 0.18166 0.16403 0.34657-8.8e-4 0.54148 0.46389 0.0917 0.56884-0.26654 0.43757 0.13825 0.28765 0.51307 0.22767 0.0483 0.31763 0.21322 0.0328 0.0183 0.1827 0.27319 0.13772 0.73172-0.58026 0.49183-0.0555 0.40188 0.55917 0.22197 0.0344 0.22464 0.232-0.47315 0.32025-0.69915 0.16958-0.83099 0.50859-0.34131-0.0188-0.15367 0.12533-0.1725 0.163 1.2873 0.984-0.32414 0.17317-0.43715 0.43683-0.58201 0.188-0.31834 0.414-0.27939 0.0814-0.2278-0.0935-0.0745-0.20648-0.2067 0.20742-0.23897-2e-3 -0.16325-0.27911-0.10947 0.031-0.0772 0.28926-0.15789 0.023-0.18209 0.18435-0.33541-0.20297 0.0439-0.20298-0.43225 0.0633-0.0772 0.16821-0.206-0.01-0.11724 0.24829-0.35124 0.0224-0.13338 0.2725 0.028 0.23215-0.11724 0.0546-0.13338-0.30849-0.41339-0.18429-0.0261-0.25692-0.38919-0.3134-0.0478-0.17233-0.68527 0.15044-0.2576-0.69683-0.33022-0.33371-0.16076 0.0455-0.0317-0.36599 0.17926-0.12033-0.14784-0.6266-0.27695-0.27154-0.30923 0.0189-0.0349-0.41679-0.27695-0.23927 0.48156-0.44908-0.21239-0.43293 0.0781-0.1263-0.13627-0.3218-0.71495-0.24858-0.74412-1.0735 0.0749-0.298 2.3836-1.2932 0.27917 4e-3 0.7311-0.35087 0.36709 0.0132 0.5408-0.17846"/>
  <path id="McDowell__WV" class="54047" d="m777.98 303.73 0.28854-0.0255 0.0553 0.26279 0.22127 0.0352-0.0133 0.44918 0.2987 0.12101 0.2683-0.10698 0.13151 0.18181 0.16191 0.0146 0.13151-0.16777 0.20751 0.045 0.11461-0.12543 0.4794 0.28495 0.12981-0.12543 0.373-0.019 0.0842-0.20143 0.25141-0.0646-0.0222-0.27742 0.2514-0.0494 0.12982-0.15583 0.17541-0.019 0.0842 0.10256 0.26661 0.0722 0.0994-0.15583 0.14501-0.12543 0.14501-4e-3 0.0732 0.2218 0.14921 0.26741 0.13402 0.23701 0.69639-0.14298 0.514 9e-3 0.19481 0.22181 0.48948-0.013 0.44389-0.37768 0.33748 0.1086 0.11097 0.42235 0.39975 0.14877 0.58746-0.35879 0.25307 0.12758 0.18697 0.25516 0.87878 0.16102 0.45069 0.2122-0.65775 1.9583-0.73081 1.4797-1.3182 1.3973-0.0143 0.02-0.78803 0.724-0.0571 0.03-2.1056 0.417-1.2034-0.715-2.0432-0.738-0.2086-0.107h-7e-3l-1.5119-1.317-0.25279-1.4587-1.2983-0.74333-0.12837-0.344 0.0481-0.153 0.8112-0.731 0.0558-0.36194 1.0516-0.79991"/>
  <path id="Mercer__WV" class="54055" d="m791.54 300.66 5.0098 3.0384 0.0637 0.64462-0.30226 0.53279 0.78543 0.69544-0.91469 0.95821-1.2885 0.64194-2.0984 0.75374-2.0984 1.2713-3.0126-2.066 0.65775-1.9583 0.25732 0.10045 0.0973-0.20899-0.24418-0.49709-0.26553-0.0916 0.23598-0.17698 0.0653-0.16631 0.29108-0.24698 3e-3 -0.30033 0.16304-0.36436 0.22556-0.0701 0.0975-0.13416 0.27867-0.11296 0.24371-0.12574-0.0215-0.35911 0.11397-0.35763-0.22549-0.42128 0.15844-0.36257 0.32817-0.10797 0.19027-0.2671 0.29635-0.20344 0.48525 0.0773 0.42405-0.11513"/>
  <path id="Monroe__WV" class="54063" d="m798.73 296.2 2.9263 0.45091 0.66879-0.18868 0.22956 0.13341 0.31741-0.0569 0.80055-0.81823 0.0105 0.28476 0.21551 0.0359 0.0691 0.22619 0.36423-0.0176 0.11534-0.45681 0.12998 0.041-2e-3 0.27522 0.29102 0.0849 0.75953-0.13472 1.585 1.239-1.0358 1.254-0.61483 0.583 0.19841 0.51441-0.32403 0.25313 0.48918 0.13554 0.27483-0.33694 0.20625 0.12356-0.17587 0.51549-0.35996 0.37137-0.71269 0.38118-0.0758 0.28319-0.77148 0.56734-0.86531 0.79473-0.86112-1.237-1.8078 1.429-0.18542 0.147-2.2339 1.677-1.7846-1.021 0.7202-2.5588 0.41859-0.99384 1.0474-3.2127-0.027-0.76794"/>
  <path id="Summers__WV" class="54089" d="m796.59 293.91 0.68842 0.54544 0.21376 0.27423 1.0562 0.72477 0.17469 0.74737 0.027 0.76794-1.0474 3.2127-0.41859 0.99384-0.7202 2.5588-0.0214-0.03-5.0098-3.0384 0.40718-0.45039 0.0336-0.83147 0.79694-1.0166 0.48897-0.42367-0.13525-0.23408-0.027-0.2127 0.29911 8e-3 0.4058-0.11163 0.31245 0.25517 0.29243-0.0516 0.26676 0.27234 0.0474 0.29676 0.32025-0.20568 0.014-0.28926-0.25273-0.15588-0.2794-0.52268-0.49282-0.29593 0.40849-0.47311 0.0319-0.3349-0.51928-0.33399-0.11913-0.4407-0.22464-0.137-0.14441-0.03 2.2348-1.467z"/>
  <path id="Raleigh__WV" class="54081" d="m783.67 292.65 0.0561 0.20099 0.62698 0.15419 0.14029-0.20148 0.59891 0.0138 0.5259-0.23506 0.4262 0.17817 0.0541 0.28449 0.53251 0.12502 0.0143 0.36421 0.16044 0.4971-0.0256 0.32435 0.93116 0.0187 3.2699-0.32679-0.029 0.28591-0.48167 0.15342 0.1163 0.18001 0.63455-0.20536 0.22261 0.087-0.21591 0.27303 0.15617 0.15342 0.32891-0.0592 0.17775 0.0568 1.0124-0.244 0.56061 0.2078 0.14441 0.03 0.22464 0.137 0.11913 0.4407 0.51928 0.33399-0.0319 0.3349-0.40848 0.47311 0.49281 0.29593 0.27941 0.52268 0.25273 0.15588-0.014 0.28926-0.32025 0.20568-0.0474-0.29676-0.26676-0.27234-0.29243 0.0516-0.31245-0.25513-0.4058 0.11167-0.29911-8e-3 0.027 0.2127 0.13525 0.23408-0.48897 0.42367-0.79694 1.0166-0.0336 0.83147-0.40718 0.45039-0.42405 0.11513-0.48525-0.0773-0.29635 0.20344-0.19027 0.2671-0.32817 0.10797-0.15844 0.36257 0.22549 0.42128-0.11397 0.35763 0.0215 0.35911-0.24371 0.12574-0.49328-0.34859-0.48971-0.0123-0.69285-0.29209-0.23532-0.864-0.27406-0.22468-0.0548-0.17703-2.1995-2.9698-0.29311-0.0817-0.52663-0.6808-0.21211 0.11705-0.27494 0.0236-0.16645-0.12132-0.44103-0.0457-0.18051-0.23454 0.0725-0.39118-0.28896-0.12609-0.26485 0.0788-0.4938-0.94545 0.18097-0.60807-0.11444-0.1227-0.0301-0.41188-0.27108-0.11065 0.31934-1.0746 0.36753-0.23114 0.24704-0.38779 0.41573 0.20264 0.0784-0.195 0.44605-0.0177"/>
  <path id="Boone__WV" class="54005" d="m783.67 292.65-0.44605 0.0177-0.0784 0.195-0.41573-0.20264-0.24704 0.38779-0.36753 0.23114-0.31934 1.0746 0.27108 0.11065 0.0301 0.41188 0.11444 0.1227-0.18097 0.60807 0.4938 0.94545 0.26485-0.0788 0.28896 0.12609-0.0725 0.39118 0.18051 0.23454-0.0129 0.11367-0.21796 0.0168-0.28454 0.32306-0.25125 0.28977-0.25125 0.0501-0.0861-0.26587-0.51891-0.17931-0.22464-0.232-0.22197-0.0344-0.40188-0.55917-0.49183 0.0555-0.73172 0.58026-0.27319-0.13772-0.0183-0.1827-0.21322-0.0328-0.0483-0.31763-0.51307-0.22767-0.13825-0.28765 0.26654-0.43757-0.0917-0.56884-0.54148-0.46389-0.34657 8.8e-4 -0.18166-0.16403-0.78136 0.0459-0.24163-0.0591-0.46652 0.13582-0.36157-0.14905 0.11574-0.32496-0.53712-0.0849-0.33039 0.16521-0.43901-0.17996-0.10495-0.14998 0.18602-0.38962 0.4582-0.499 0.26505-0.13812 0.24297-0.0507-0.24788-0.12428-0.4344-3e-3 -0.42212-0.11358-0.18898-0.70259 0.40004-0.71486-0.18223-0.31063 0.30862-0.7892 0.63993 0.10658-0.12838-0.25865 0.15385-0.24639-0.018-0.36909 0.60788-0.11141 0.24051-0.71486 0.21419 0.20394 0.0607 0.25691 0.40799 0.14517-0.21456-0.23874-0.0589-0.31137 0.40799-0.19724-0.0382-0.47738 0.55326 0.15554 0.16934 0.39419 0.24985 0.11152 0.23948-0.32427-0.0724-0.16926 0.39449-0.3249 0.2596 0.17314 0.66427-0.16926 0.29136 0.96234 0.21256 0.13427 0.1503-0.1355 0.29557 0.0201 0.46159 0.60119 0.29556 0.072 0.24369-0.094 0.25407 0.15502 0.0492 0.32653 0.485 0.16052 5e-3 0.21919-0.25424 0.23993 0.0259 0.40595 0.31644 0.0636 0.0259 0.16731 0.3372 0.0117 0.19192-0.16472 0.0882 0.11543 0.20778 0.0531 0.0418 0.19841 0.14014 0.22599 0.20239 0.13261-0.11926 0.309 0.33729 0.23636 0.021 0.46818"/>
  <path id="Lincoln__WV" class="54043" d="m771.79 285.37 0.25633 0.92807-0.0234 1.028 0.23364 0.0519 0.12036 0.13393 0.2727-0.0419 0.0422 0.13772 0.15942-0.0185 0.19458 0.0127 0.05-0.15916 0.17505-0.0615 1.0629-1.2568 0.20426-0.0155 0.23473 0.15716 0.68152-0.0309 0.31582-0.27474 0.40817 0.14127 0.0342 0.33334 0.12559 0.0997 0.0342 0.21144 0.14683 0.0839 0.0148 0.1753-0.11728 0.12451 0.12652 0.14483-0.097 0.1042 0.15699 0.1753-0.24934 0.27689 0.12839 0.0819 0.15886 0.18344-0.0646 0.092-0.27795-0.0908 0.0167 0.1936-0.19668-0.0705-0.0748 0.0819 0.0824 0.23843-0.24051 0.71486-0.60788 0.11141 0.018 0.36909-0.15385 0.24639 0.12838 0.25865-0.63993-0.10658-0.30862 0.7892 0.18223 0.31063-0.40004 0.71486 0.18898 0.70259 0.42212 0.11358 0.4344 3e-3 0.24788 0.12428-0.24297 0.0507-0.26505 0.13812-0.5408 0.17846-0.36709-0.0131-0.7311 0.35086-0.27917-4e-3 -2.3836 1.2932-1.8853 0.86662 1.5307-2.1634-0.0137-0.40192-0.26872-0.0387 0.0408-0.32326-0.41254-0.0554-0.24811-0.152-0.0215-0.45077-0.3743-0.031-0.24036-0.23708 0.10433-0.36353-0.47171-0.23463-0.0522-1.3568 0.12728-0.71035 0.1826-0.80444 0.50378-0.56356-0.0927-0.64385 0.26289 0.01-9.4e-4 -0.32266 0.32025-0.38002 1.0659-0.36855 0.19477-0.33589 0.0801-0.14089 0.40124-0.0721 0.12033-0.24825 0.34975 4e-3"/>
  <path id="Putnam__WV" class="54079" d="m777.18 278.68-0.39632 0.67612-0.30135 0.0657-0.15823 0.41179 0.18233 0.70966-0.0236 0.55889 0.20595 0.15078 0.0841 0.297 0.19887 0.0292 0.24706 0.8054-2.8648 2.0298-0.016 1.712-1.0629 1.2568-0.17504 0.0615-0.05 0.15915-0.19458-0.0127-0.15942 0.0185-0.0422-0.13771-0.27271 0.0418-0.12035-0.13393-0.23364-0.0519 0.0234-1.028-0.25633-0.92807-0.27338-1.0575-0.20977-1.2059-0.59746-3.0274 1.8356-1.4554 3.0719-1.0653 0.38198-0.12055 1.1772 1.2409"/>
  <path id="Mason__WV" class="54053" d="m772.61 273.62-0.025 0.05 0.1765 0.273 2.3666 2.5124-0.36251 0.48314 0.85437 0.61567-3.0719 1.0653-1.8356 1.4554 0.59746 3.0274-2.9661-2.0974 0.48075-0.29264 0.15439-0.65961-0.58401-1.27 0.1326-0.76881-0.3162-0.42721-0.18931-0.57821-0.436-0.441 0.0418-0.46301 0.51741-0.3752 0.54204-0.58761 0.0866-0.63721-0.20486-0.71432h-5e-3l0.25498-0.35095 0.35654-1.3438 0.0553-0.32 0.50086-0.50071 0.31926-0.88829 0.34364 0.0586 0.53115 0.74639h9e-3l0.65553-0.11682 0.79983 1.1684-0.43812 0.81403 0.0642 0.178 0.59427 0.3921"/>
  <path id="Jackson__WV" class="54035" d="m777.9 269.25 0.92566 0.33025-0.0274 0.36238 0.1439 0.23388-0.37013 0.36238 0.32596 0.33025 0.22958 0.0947 0.13319 0.3838 0.30454 0.11608-0.0142 0.3353-0.35702 0.11495 0.40044 2.0242 0.15559 2.367-0.12954 0.86547 0.67134 1.3147-0.23607 0.27586-0.56137 0.64935-0.97102 0.73369-1.3445-1.4711-1.1772-1.2409-0.38198 0.12056-0.85437-0.61567 0.36251-0.48314-2.3666-2.5124-0.1765-0.273 0.025-0.05 0.89662-0.36071 0.20808-1.0764 0.15641-0.35294 0.71903 0.39442 0.58984-0.19985-0.0589-0.53743-0.42066-0.30488 0.29838-1.0002-0.32542-0.52738-0.61309-0.40438-0.19255-0.252-0.0874-0.313 0.63156-0.0762 0.46937-0.40138 3.019 1.0487"/>
  <path id="Kanawha__WV" class="54039" d="m777.18 278.68 1.3445 1.4711 0.97102-0.73369 0.56137-0.64935 0.23607-0.27586 0.42491 0.73978 0.64443 0.63215 0.22102-0.1117 2.7615-0.11169 0.76852 0.2703 0.83719-0.34766 0.48138 0.02-1.3263 1.4799 0.86647 2.5512 0.69256 2.0378h-8e-3l-1.0996 2.0021-0.3033 0.0611-0.15867 5.0992-0.59891-0.0138-0.14029 0.20148-0.62698-0.15419-0.0561-0.20099-0.021-0.46818-0.33728-0.23637 0.11926-0.30899-0.2024-0.13261-0.14014-0.22599-0.0418-0.19841-0.20778-0.0531-0.0882-0.11543-0.19194 0.16473-0.33719-0.0117-0.0259-0.1673-0.31644-0.0636-0.0259-0.40595 0.25424-0.23993-5e-3 -0.21919-0.485-0.16052-0.0492-0.32653-0.25407-0.15502-0.24369 0.094-0.29556-0.072-0.46159-0.60119-0.29557-0.0201-0.1503 0.1355-0.21256-0.13427-0.29136-0.96234-0.66426 0.16926-0.25961-0.17315-0.39449 0.32486 0.0724 0.16926-0.23947 0.32427-0.24986-0.11151-0.16935-0.3942-0.55324-0.15554 0.0382 0.47738-0.40798 0.19724 0.0589 0.31137 0.21457 0.23873-0.408-0.14516-0.0607-0.25691-0.21419-0.20394-0.0824-0.23843 0.0748-0.0819 0.19668 0.0705-0.0166-0.1936 0.27795 0.0908 0.0646-0.092-0.15886-0.18344-0.12839-0.0819 0.24934-0.27689-0.15699-0.1753 0.097-0.1042-0.12652-0.14483 0.11728-0.12451-0.0148-0.1753-0.14683-0.0839-0.0342-0.21144-0.12559-0.0997-0.0342-0.33334-0.40817-0.14127-0.31582 0.27474-0.68152 0.0309-0.23473-0.15716-0.20426 0.0155 0.016-1.712 2.8648-2.0298-0.24706-0.8054-0.19887-0.0292-0.0841-0.297-0.20595-0.15078 0.0236-0.55889-0.18233-0.70966 0.15823-0.41179 0.30135-0.0657 0.39632-0.67612"/>
  <path id="Fayette__WV" class="54019" d="m793.53 288.32-0.0875 0.61677 0.3959 0.35433 0.67213 0.0367 0.0368-0.28102 0.50639-0.0738-0.0185 0.16097-0.17257 0.10316 0.0423 0.22036-0.25071 0.13247 0.11066 0.23013 0.55017 0.0446 0.0496 0.23334 0.27427 0.14543-0.0187 0.40913 0.28404 0.10637-0.55347 0.98217 1.351 1.6561-0.99914 0.0781-2.2348 1.4635-0.5606-0.20779-1.0124 0.24401-0.17775-0.0568-0.32891 0.0592-0.15617-0.15342 0.21591-0.27303-0.22261-0.087-0.63455 0.20536-0.1163-0.18001 0.48167-0.15342 0.029-0.28591-3.2699 0.32679-0.93116-0.0187 0.0256-0.32435-0.16044-0.4971-0.0143-0.36421-0.53251-0.12502-0.0541-0.28449-0.4262-0.17817-0.5259 0.23506 0.15867-5.0992 0.3033-0.061 1.0996-2.0021 0.80047 0.29063 0.0806 0.2806 0.6397 0.0626 0.29045-0.28958 0.82567 0.54171 0.18349 7e-3 0.17396 0.1799 0.19196-0.0213-0.12533-0.35034 0.24486-0.017-0.14831-0.24351 0.29151-0.0569 0.0849-0.34347 0.11825-0.0769 0.0516 0.10301-0.0417 0.33624 0.27152 0.16298 0.0449 0.16298 0.0983 0.0564 0.0982-0.0903-0.035-0.31682 0.39146-0.0703 0.3315 0.12966 0.0516 0.26295 0.22469-0.0471 0.18471 0.15281 0.0314 0.57264 0.24468 0.27943 0.34465 0.22612 0.26467 0.0195-7e-3 0.23146 0.2261 0.12482 0.0928-0.25501 0.14971-0.0742-0.0102 0.47225 0.21136 0.2661"/>
  <path id="Clay__WV" class="54015" d="m788.11 277.22 0.71666-1.3406 1.0512 0.78604 0.0113 0.3203 0.19836 0.071 0.0746 0.29776 0.67721 0.19387 0.38632 0.33931 0.11621 0.46398 0.45904 0.23543 0.28243 0.58865 0.98391 0.11764 0.19255 0.339-1.2547 1.6741-5.3411 4.3456-0.69256-2.0378-0.86647-2.5512 1.3263-1.4799 0.97662-1.0785 0.70196-1.2845"/>
  <path id="Roane__WV" class="54087" d="m779.57 271.47 0.13612-0.19455 0.3572-0.0437 0.31437-0.38642 0.76795 0.33019 1.3462 0.37303 0.55896-0.40576 0.50691-0.19766 0.30985 0.0718 0.17751 0.42904 0.30657 0.22356-8e-5 0.58353 0.17324 0.13023 0.11991-0.0964 0.31989 0.35688-0.0134 0.99684 0.30656 0.0636 0.8166 1.0092 3e-3 0.35587 0.19082 0.47894-0.0758 0.47895 0.2554 0.15281 0.14874 0.57944 0.67078 0.22563 0.34996-0.2041 0.49659 0.44201-0.70196 1.2845-0.97662 1.0785-0.48138-0.02-0.83718 0.34766-0.76853-0.2703-2.7615 0.1117-0.22102 0.11169-0.64443-0.63215-0.42491-0.73978-0.67134-1.3147 0.12954-0.86547-0.15559-2.367-0.40044-2.0242 0.35702-0.11495 0.0142-0.3353"/>
  <path id="Calhoun__WV" class="54013" d="m787.59 268.22-3e-3 0.35003 0.54051 0.34022 0.21699 0.83694-0.0899 0.30912 0.38313 1.5931-0.10344 0.7146-0.31968 0.13342 0.0588 0.21452-0.37375 0.41725 0.11606 0.25975 0.1566 0.03 0.0485 0.23271 0.21147 0.0616 0.1439-0.12766 0.0956 0.20986 0.14966-0.0199 0.24527 0.12238 0.39664 0.70108-0.64005 1.28-0.71666 1.3406-0.49659-0.44201-0.34996 0.2041-0.67078-0.22563-0.14874-0.57945-0.2554-0.15281 0.0758-0.47894-0.19082-0.47894-3e-3 -0.35587-0.81659-1.0092-0.30657-0.0636 0.0134-0.99684-0.31989-0.35687-0.11991 0.0964-0.17324-0.13023 8e-5 -0.58353-0.30657-0.22356-0.17751-0.42904-0.30985-0.0718-9e-3 -0.25146 0.15592-0.0573-0.10613-0.22234 1.6312-2.4158 0.17837-0.24896 0.5919-0.18004 0.15319 0.32352 0.35995 0.22506 0.64057 0.0971 0.33013-0.12869 0.11351 0.13715"/>
  <path id="Wirt__WV" class="54105" d="m785.23 267.99-1.6312 2.4158 0.10613 0.22234-0.15592 0.0573 9e-3 0.25146-0.50691 0.19766-0.55896 0.40576-1.3462-0.37303-0.76795-0.33019-0.31437 0.38642-0.3572 0.0437-0.13612 0.19455-0.30454-0.11608-0.13319-0.3838-0.22958-0.0947-0.32596-0.33025 0.37013-0.36238-0.1439-0.23388 0.0274-0.36238-0.92566-0.33025 0.39574-0.68266 1.9582-2.332 0.36102-6e-3 1.5763-1.3771-0.28117 1.0077 0.699 0.19084 0.67622 0.74887 0.0349 0.54012-0.16465 0.2461 0.3919 0.10959 0.0874 0.2986 0.40802 0.13596 0.198-0.28408 0.60753-0.0111z"/>
  <path id="Wood__WV" class="54107" d="m780.58 261.64 0.29676 0.13303 0.18791 0.0885 0.22303-0.0872-2e-3 0.26477 0.1826 0.25598 0.4285-0.0426 0.63928-0.0514 0.12111 0.37016 0.29677 0.13303-0.39667 0.34898-0.0969 0.63158-0.2254 0.41749-0.0456 0.75147-1.5763 1.3771-0.36102 6e-3 -1.9582 2.332-0.39574 0.68266-3.019-1.0487-0.0805-1.1703-0.25733-0.95418 0.35419-0.78091 0.37399-0.15526 0.01-0.40555 0.11075-0.64801 0.36444-0.23575 1.6012-0.10891-0.0478-1.7262 0.93392-0.84213 0.46015-0.84476 0.33743-0.0942 0.20147 0.02 0.31833 0.31636 0.50444 0.93337 0.51657 0.1381"/>
  <path id="Pleasants__WV" class="54073" d="m786.76 260.27-0.38097 0.059-0.15871 0.42412-0.24603 0.2495-0.42066-0.0839-0.29804 0.22062-0.21865 0.0619-0.32185 0.27619-0.21866-0.0255-0.40916 0.29207-0.39329-0.14452-0.0281 0.18093-0.43298 0.0142-0.14488 0.47158 0.0319 0.40025-0.16299 0.0391-0.29677-0.13303-0.12111-0.37016-0.63928 0.0514-0.4285 0.0426-0.1826-0.25598 2e-3 -0.26477-0.22303 0.0872-0.18791-0.0885-0.29676-0.13303 1.7216-1.514 0.75571 0.0273 0.16549-0.72393 0.41144-0.61617 0.70217-0.33358 0.23267-0.42748 0.41959 0.0142 0.23178-0.28091 0.38418-0.17397 0.51832 0.14797 0.63422 2.5093"/>
  <path id="Ritchie__WV" class="54085" d="m786.76 260.27 0.23818 0.16935 0.15276-0.17234 0.51581 0.0732 0.22749-0.65285-0.0288-0.22574 0.0566-0.32184 0.56675 0.13844 0.48133 0.38404 0.0435 0.36268-0.10597 0.48013 0.20885 0.61942-0.40951 0.54387 2.4202 3.5675 8e-3 0.22064-0.10354 0.15009-0.20097 0.086-0.0407 0.17042-0.35285-0.0237-0.0406 0.24636-0.0782 0.15009-0.1373-0.0777-0.1779 0.27127-0.20321 0.0519-0.0214 0.19388-0.36738 0.2867-0.25768 0.0589-0.18175 0.22763-0.24591 0.0325-0.11934 0.28558-0.22904 7e-3 -0.0265 0.14215-0.12601 0.0373-0.15133 0.26514-0.17664 0.0289-0.30321 0.17233-0.11351-0.13714-0.33013 0.1287-0.64057-0.0971-0.35995-0.22506-0.15319-0.32352-0.5919 0.18004-0.17837 0.24896-0.37652-0.15701-0.60753 0.011-0.198 0.28402-0.40802-0.13601-0.0874-0.29859-0.3919-0.10957 0.16465-0.24609-0.0349-0.54011-0.67622-0.74882-0.699-0.19074 0.28117-1.0076 0.0456-0.75147 0.2254-0.41749 0.0969-0.63158 0.39667-0.34898 0.16299-0.0391-0.0319-0.40025 0.14488-0.47158 0.43298-0.0142 0.0281-0.18093 0.39329 0.14452 0.40916-0.29207 0.21866 0.0255 0.32185-0.27619 0.21865-0.0619 0.29804-0.22062 0.42066 0.0839 0.24603-0.2495 0.15871-0.42412 0.38097-0.059"/>
  <path id="Gilmer__WV" class="54021" d="m791.13 265.24 1.4986 0.0162 0.53089 1.9951 2.4163 1.9951-0.35257 0.14689-0.18185 0.20232-0.082 0.21771-0.24086-0.0196-0.1199 0.17047-0.15446-0.11466-0.17174-0.11465-2.9559 3.1455-1.8467 1.737-0.39664-0.70108-0.24527-0.12238-0.14966 0.0199-0.0956-0.20988-0.1439 0.12766-0.21147-0.0616-0.0485-0.23271-0.1566-0.03-0.11606-0.25975 0.37375-0.41725-0.0588-0.21452 0.31968-0.13342 0.10344-0.7146-0.38313-1.5931 0.0899-0.30912-0.21699-0.83694-0.54051-0.34022 3e-3 -0.35003 0.30321-0.17233 0.17664-0.0289 0.15133-0.26514 0.12601-0.0373 0.0265-0.14215 0.22904-7e-3 0.11934-0.28558 0.24591-0.0325 0.18175-0.22763 0.25768-0.0589 0.36738-0.2867 0.0214-0.19388 0.20321-0.0519 0.1779-0.27127 0.1373 0.0777 0.0782-0.15009 0.0406-0.24636 0.35285 0.0237 0.0406-0.17042 0.20097-0.086 0.10354-0.15009-8e-3 -0.22064"/>
  <path id="Braxton__WV" class="54007" d="m795.57 269.24 0.42037 0.97049 0.50736-0.21635 0.19696 0.24305 0.1597-0.0239 0.16591-0.20393 0.35216 0.11889 0.13487 0.17475 0.22179 0.0196 0.18453 0.21201 0.16592 0.063-0.10104 0.39205 0.0169 0.31134 0.11625 0.1313 0.17832-0.0984 0.18454 0.13751-0.0265 0.18717 0.12246 0.13131 0.21156-0.0582 0.0755 0.12634-0.14648 0.27233 0.0961 0.26738-0.0731 0.266-0.61171 2.2369-2.0708 3.1054-1.2005 0.0227-0.44207 0.30322-0.83686-0.65256-1.4914 1.498-0.28243-0.58865-0.45904-0.23542-0.11621-0.46398-0.38632-0.33932-0.67721-0.19387-0.0746-0.29776-0.19836-0.071-0.0113-0.3203-1.0512-0.78604 0.64005-1.28 1.8467-1.737 2.9559-3.1455 0.17174 0.11465 0.15446 0.11466 0.1199-0.17047 0.24086 0.0196 0.082-0.21771 0.18185-0.20232 0.35257-0.14689"/>
  <path id="Nicholas__WV" class="54067" d="m796.06 278-0.34766 0.676 0.90909 1.6429-0.34537 0.39996 0.87775 1.1174 0.11059-0.19361 3.6895 1.6684-1.4459 1.849-2.3962 2.908-0.33697 0.348-3.2399-0.0967-0.21136-0.26611 0.0102-0.47225-0.14971 0.0742-0.0928 0.255-0.2261-0.12482 7e-3 -0.23146-0.26467-0.0195-0.34465-0.22613-0.24468-0.27944-0.0314-0.57265-0.18471-0.15283-0.22469 0.0471-0.0516-0.26301-0.3315-0.12972-0.39146 0.0702 0.035 0.31676-0.0983 0.0902-0.0983-0.0564-0.0449-0.16304-0.27152-0.16304 0.0417-0.33631-0.0516-0.10307-0.11825 0.0769-0.0849 0.34341-0.29151 0.0569 0.14831 0.24345-0.24486 0.0169 0.12533 0.35134-0.19196 0.0213-0.17396-0.1799-0.18349-7e-3 -0.82567-0.54171-0.29045 0.28958-0.6397-0.0626-0.0806-0.2806-0.80047-0.29063h7e-3l5.3411-4.3456 1.2547-1.6741-0.19255-0.339-0.98391-0.11764 1.4914-1.498 0.83686 0.65256 0.44207-0.30322 1.2005-0.0227"/>
  <path id="Greenbrier__WV" class="54025" d="m802.46 284.04 0.36371 2.564 2.0093 1.253 0.98593 0.06 0.74702-0.102 1.0216-0.637 2.578-0.618-1.2444 2.836-2.0018 3.132-1.2947 3.536-0.75953 0.13472-0.29102-0.0849 2e-3 -0.27522-0.12998-0.041-0.11534 0.45681-0.36423 0.0176-0.0691-0.22619-0.21551-0.0359-0.0105-0.28476-0.80055 0.81823-0.31741 0.0569-0.22956-0.13341-0.66878 0.18868-2.9264-0.45091-0.17468-0.74737-1.0562-0.72477-0.21376-0.27422-0.68842-0.54545-0.89183-0.43244 0.99914-0.0781-1.351-1.6561 0.55348-0.98217-0.28405-0.10637 0.0187-0.40913-0.27427-0.14543-0.0496-0.23334-0.55017-0.0446-0.11066-0.23013 0.25071-0.13247-0.0423-0.22036 0.17257-0.10317 0.0185-0.16096-0.50639 0.0738-0.0368 0.28102-0.67213-0.0367-0.3959-0.35433 0.0875-0.61677 3.2399 0.0967 0.33697-0.348 2.3962-2.908 1.4459-1.849 1.5101 0.724"/>
  <path id="Webster__WV" class="54101" d="m798.74 272.66 1.2379 9e-3 0.37947-0.19095 0.67243 0.26475 0.41202 0.65535 0.63987-0.32115 2.3409 3.593-0.56339 3.309-1.2926 1.456-0.42789-0.151 0.3227 2.754-1.5101-0.724-3.6895-1.6684-0.11058 0.19361-0.87775-1.1174 0.34537-0.39996-0.90909-1.6429 0.34766-0.676 2.0708-3.1054 0.61171-2.2369"/>
  <path id="Upshur__WV" class="54097" d="m800.17 263.79 0.85882-5e-3 0.13272-0.41022 0.24398-2e-3 0.27726 0.36902 0.84689 0.011 0.84689 1.1502 1.1516-0.16001 0.3704 0.53982-0.13412 0.9467-0.23177 0.50727-0.18753 1.3697 0.36582 1.1093-0.12302 2.248-1.9362 0.371-0.5723 1.244-0.63987 0.32115-0.41203-0.65535-0.67242-0.26475-0.37947 0.19095-0.45106-0.885-5e-3 -2.506 0.016-0.241 0.53438-1.0628-0.0903-0.36177 0.36238-0.40078-0.45982-0.8448 0.27982-0.49944 8e-3 -2.0734"/>
  <path id="Lewis__WV" class="54041" d="m794.76 263.2 0.81435 0.12265 0.21283 0.18665 1.1431-0.20743 0.34958 0.17651 2.8876 0.31462-8e-3 2.0734-0.27982 0.49944 0.45982 0.8448-0.36238 0.40078 0.0903 0.36177-0.53438 1.0628-0.016 0.241 5e-3 2.506 0.45106 0.885-1.2379-9e-3 0.0731-0.266-0.0961-0.26738 0.14648-0.27233-0.0755-0.12634-0.21156 0.0582-0.12246-0.13131 0.0265-0.18717-0.18454-0.13751-0.17832 0.0984-0.11625-0.1313-0.0169-0.31134 0.10104-0.39205-0.16592-0.063-0.18453-0.21201-0.22179-0.0196-0.13487-0.17475-0.35216-0.11889-0.16591 0.20393-0.1597 0.0239-0.19696-0.24305-0.50736 0.21635-0.42037-0.97049-2.4163-1.9951-0.53089-1.9951 0.4308 0.0194 0.24114-0.39442 0.12906-0.39442 0.19803-0.20476 0.0687-0.25648 0.52564-0.041 0.16354-0.37718 0.25851-0.0981 0.12057-0.30498"/>
  <path id="Doddridge__WV" class="54017" d="m793.31 256.78 0.34187 0.21057 0.0296-0.16961 0.23325-0.0474 0.17712 0.28685 0.0821-0.12726 0.16662-0.0229 0.058 0.16719 0.27895-0.0254-0.0195 0.65923 0.36626 0.92626-0.36532 1.0811-0.24664 0.0426-0.24663 0.78437 0.37645-2e-3 -0.0686 0.53217 0.77702 0.41348 6e-3 0.20579-0.29114-0.0316 0.0946 0.27997 0.65833 0.0871 0.0204 0.39865-0.42467 0.19095-0.0686 0.25029-0.49884 0.0871 0.0204 0.23546-0.12057 0.30498-0.25851 0.0981-0.16354 0.37718-0.52564 0.041-0.0687 0.25648-0.19803 0.20476-0.12906 0.39442-0.24114 0.39442-0.4308-0.0194-1.4986-0.0163-2.4202-3.5675 0.40951-0.54387 0.814-1.196 1.5504-1.5274 0.21676-0.74529 0.85496-0.25437 0.75263-0.61919"/>
  <path id="Tyler__WV" class="54095" d="m787.07 254.11 1.054 0.50084 0.5763-0.56215 0.0269 0.29779 0.42104 0.21419 0.15827 0.42917 0.24187-0.15606 0.25474 0.0858 0.18307 0.20523 0.0517 0.27689 0.33835 0.15746 0.57702 0.2118 0.49343 0.82092 0.35113-0.0366 0.3715-0.1724 0.0864 0.27566 0.45976-0.13846 0.58925 0.25895-0.75263 0.61919-0.85496 0.25437-0.21676 0.74529-1.5504 1.5274-0.81399 1.196-0.20884-0.61942 0.10596-0.48014-0.0435-0.36268-0.48133-0.38403-0.56675-0.13844-0.0566 0.32184 0.0288 0.22573-0.2275 0.65286-0.51581-0.0732-0.15276 0.17234-0.23818-0.16935-0.63422-2.5093-0.51832-0.14797-0.38418 0.17397-0.23178 0.28091-0.41959-0.0142 1.092-2.1562 1.4067-1.784"/>
  <path id="Harrison__WV" class="54033" d="m795.4 255.99 4.0564 0.31669 1.3083 0.61326 0.48034 2.8049 0.7284 0.51716-0.80985 1.8426 0.23754 1.2914-0.24398 2e-3 -0.13272 0.41022-0.85882 5e-3 -2.8876-0.31462-0.34958-0.17651-1.1431 0.20743-0.21283-0.18665-0.81435-0.12265-0.0204-0.23546 0.49884-0.0871 0.0686-0.25029 0.42467-0.19095-0.0204-0.39865-0.65833-0.0871-0.0946-0.27997 0.29114 0.0316-6e-3 -0.20579-0.77702-0.41348 0.0686-0.53217-0.37645 2e-3 0.24663-0.78437 0.24664-0.0426 0.36532-1.0811-0.36626-0.92626 0.0195-0.65923 0.37716-0.18171-4e-3 -0.50054 0.28384-0.1195 0.0739-0.26725"/>
  <path id="Hancock__WV" class="54029" d="m790.58 229.32 0.60974 3.688 0.30488 1.792-1.8805 0.4556 0.21234-0.35525-0.10813-0.50727 0.16628-0.65819-0.0944-0.56215-0.44508-0.50746-0.22254-0.55556-0.3323-0.39093-0.51482-0.42386-0.0346-0.27293 0.44758-0.64502 0.61222-0.38434 0.37471 0.0685 0.31983-0.31565 0.58478-0.4255"/>
  <path id="Brooke__WV" class="54009" d="m791.49 234.8 0.88786 5.474-2.818-0.154 0.11983-0.7105 0.15399-0.6422 0.64346-0.61943-0.11922-0.39177 0.2109-0.81295-0.39241-0.72188 6e-3 -0.55114-0.57455-0.41453 1.8805-0.4556"/>
  <path id="Ohio__WV" class="54069" d="m789.56 240.12 2.818 0.154 0.53487 3.277-3.744 0.217 0.0251-0.5696-0.21775-0.31327 0.4838-0.77197-0.24474-1.2712 0.34479-0.722"/>
  <path id="Marshall__WV" class="54051" d="m792.91 243.56 1.1018 6.742-5.3611 0.892-0.7387-0.78355 0.62791-1.1185-0.16258-0.75676 0.15898-0.3682 0.34666-0.42593-0.42372-0.8837 0.61463 0.0765 0.31317-0.25845-0.32324-0.78322 0.32434-0.61574-0.30091-0.95069 0.0787-0.54875 3.744-0.217"/>
  <path id="Wetzel__WV" class="54103" d="m795.72 250.02 0.51906 0.9103 0.23509 0.9387-0.16189 0.21595-0.19029-0.15323-0.41747 0.35794 0.12209 0.15915-0.19029 0.17335-7.1e-4 0.37132-0.2279 0.0305-0.29889 0.14414 0.0987 0.21512-0.24209 0.51331 0.085 0.37326 0.22701 0.23127 0.028 0.34895 0.32587 0.37131-7.1e-4 0.37132-0.23289 0.13076 8e-3 0.25854-0.0739 0.26725-0.28384 0.1195 4e-3 0.50054-0.37716 0.18171-0.27895 0.0254-0.058-0.16719-0.16663 0.0229-0.0821 0.12726-0.17712-0.28685-0.23324 0.0474-0.0296 0.16961-0.34186-0.21057-0.58925-0.25894-0.45976 0.13846-0.0864-0.27567-0.3715 0.17241-0.35113 0.0366-0.49343-0.82092-0.57702-0.2118-0.33835-0.15746-0.0517-0.27689-0.18307-0.20523-0.25474-0.0858-0.24187 0.15607-0.15827-0.42918-0.42103-0.21419-0.0269-0.29779-0.5763 0.56215-1.054-0.50084 0.90124-0.14132 0.35969-0.74303-0.0735-1.3086 0.45062-0.20905-0.0548-0.52195 5.3611-0.892 1.7026-0.274"/>
  <path id="Marion__WV" class="54049" d="m796.47 251.87 0.52748 0.0374 0.41388 0.40659 3.3678-0.534 1.3728 1.054 0.87539 0.772 2.0895 1.15-1.0875 0.98065-0.19173 0.50029-1.0356 0.5652-0.19723-0.25792-0.32706-0.2709-0.19724 0.28736-1.3137 0.35227-1.3083-0.61326-4.0564-0.31669-8e-3 -0.25854 0.23289-0.13076 7.1e-4 -0.37132-0.32587-0.37131-0.028-0.34895-0.22701-0.23127-0.085-0.37326 0.24209-0.51331-0.0987-0.21513 0.29889-0.14412 0.2279-0.0306 7.1e-4 -0.37132 0.19029-0.17335-0.12209-0.15915 0.41747-0.35794 0.19029 0.15323 0.16189-0.21595"/>
  <path id="Barbour__WV" class="54001" d="m808.24 259.44-0.0499 2.3612 0.23711 0.30785-0.34766 0.554-0.0642 0.161-0.21573 1.904-0.0161 0.668-0.0481 0.184-3.1985 1.155 0.23177-0.50727 0.13412-0.9467-0.3704-0.53982-1.1516 0.16001-0.84689-1.1502-0.84689-0.011-0.27726-0.36902-0.23754-1.2914 0.80985-1.8426 0.30257 0.17618 2.1824-0.65929 1.0336-0.76373 0.19313-0.49118 0.10175-0.13871 0.48032 0.0832 0.20619-0.32147 0.75325 0.3295 0.20041 0.70303 0.72336 0.0755 0.0809 0.20997"/>
  <path id="Taylor__WV" class="54091" d="m805.12 254.76 0.83617 0.255 0.52238 3.109-0.20619 0.32147-0.48032-0.0832-0.10175 0.13871-0.19313 0.49118-1.0336 0.76373-2.1824 0.65929-0.30257-0.17618-0.7284-0.51716-0.48034-2.8049 1.3137-0.35227 0.19724-0.28735 0.32706 0.27089 0.19723 0.25792 1.0356-0.5652 0.19173-0.50029 1.0875-0.98065"/>
  <path id="Monongalia__WV" class="54061" d="m807.1 248.11 0.0981 0.545-0.15154 1.742-1.3603 3.569 0.26743 1.045-0.83617-0.255-2.0895-1.15-0.87539-0.772-1.3728-1.054-3.3678 0.534-0.41388-0.40659-0.52748-0.0374-0.23509-0.9387-0.51906-0.9103 8.7503-1.462 2.6333-0.449"/>
  <path id="Pocahontas__WV" class="54075" d="m813.61 271.86 0.18994 0.16359-0.127 0.516 0.306 0.324-0.40934 0.68913-0.0303 1.904-0.0891 1.625-0.47425 1.688-1.1 1.71-9e-3 0.08v0.03l0.43324 0.875-0.64439 0.94408-1.3262 1.6039 0.32339 1.6039-0.49043 0.94408-2.578 0.618-1.0216 0.637-0.74702 0.102-0.98593-0.06-2.0093-1.253-0.36371-2.564-0.3227-2.754 0.42789 0.151 1.2926-1.456 1.8718-2.2634 1.6886 5e-3 2.5477-2.587 0.11946-1.85 0.0571-0.399 0.52951-2.267 0.0963-0.07 0.38689 0.07 0.51526 0.34254-0.13366 0.74188 0.22979 0.062 0.31298-0.15434 0.22979 0.0453 0.1466 0.29491 0.28688-0.0184-0.0126-0.31785 0.22033-0.31786 0.59845 0.22607 0.0642 0.336"/>
  <path id="Preston__WV" class="54077" d="m812.08 247.23 1.8881 11.789 0.0339 0.258-0.44215-0.426-3.3429-0.715-1.979 1.3-0.0809-0.20997-0.72336-0.0755-0.20041-0.70303-0.75325-0.3295-0.52238-3.109-0.26743-1.045 1.3603-3.569 0.15154-1.742-0.0981-0.545 4.976-0.878"/>
  <path id="Randolph__WV" class="54083" d="m817.19 264.14 0.16759 0.139-0.27259 0.88544-0.69427 0.0812-0.32378-0.1933v0.03l-0.39392 0.13991 0.29563 0.63461-0.54787 0.39202-0.65073-3e-3 0.1842 0.62914-0.29549 0.62072 0.23694 0.10492-0.0792 0.43769 0.53644 0.47098-1.2569 2.8824 0.0912 0.27974-0.57436 0.1799-0.0642-0.336-0.59845-0.22607-0.22033 0.31786 0.0126 0.31785-0.28688 0.0184-0.1466-0.29491-0.22979-0.0453-0.31298 0.15434-0.22979-0.062 0.13366-0.74188-0.51526-0.34254-0.38689-0.07-0.0963 0.07-0.52951 2.267-0.0571 0.399-0.11946 1.85-2.5477 2.587-1.6886-5e-3 -1.8718 2.2634 0.56339-3.309-2.3409-3.593 0.5723-1.244 1.9362-0.371 0.12302-2.248-0.36582-1.1093 0.18753-1.3697 3.1985-1.155 0.0481-0.184 0.0161-0.668 0.21573-1.904 0.0642-0.161 0.34766-0.554 0.41574 0.10394 0.36054 0.23641 0.27223 0.402-4e-3 0.86565 5.2684 0.554 2.4532-0.13"/>
  <path id="Pendleton__WV" class="54071" d="m817.36 264.28 4.3573 2.611 1.5582 0.948-1.8078 6.976-1.2462 1.799-3.079-0.522-1.0911-1.617-0.33697-0.337-0.36192-0.161-1.7775-0.426 0.40935-0.6894-0.306-0.32373 0.127-0.50599-0.18995-0.1736 0.57435-0.1799-0.0912-0.27974 1.2569-2.8824-0.53644-0.47098 0.0792-0.43769-0.23694-0.10492 0.29549-0.62072-0.1842-0.62914 0.65073 3e-3 0.54787-0.39202-0.29563-0.63461 0.39392-0.13991v-0.03l0.32378 0.1933 0.69427-0.0812 0.27259-0.88544"/>
  <path id="Tucker__WV" class="54093" d="m808.24 259.44 1.979-1.3 3.3429 0.715 0.44215 0.426 0.43603 0.30252 0.72042-0.49377 0.36107 0.0972 0.41794-0.55115 0.3042 0.13137-0.0143-0.23264 0.49161-0.20134 0.41198 0.0717 0.42337 0.32192-0.27054 0.20818-0.0885 0.24229 0.048 0.20817-0.15679 0.0831-0.0961 0.41037 0.12006 0.27386-0.24395 1.1725 0.92771 0.14873 7e-3 0.621-0.0392 0.656-0.17829 0.781-0.39223 0.609-2.4532 0.13-5.2684-0.554 4e-3 -0.86565-0.27223-0.402-0.36054-0.23641-0.41574-0.10394-0.23711-0.30785 0.0499-2.3612"/>
  <path id="Grant__WV" class="54023" d="m816.84 255.57 2.8679-0.21543 2.9496 1.3794-0.0981 0.241-0.47246 1.874 0.0697 0.94018-0.59381 1.8378 0.31379 0.30093-0.0374 0.49607 1.0328 1.5723-0.52827 0.79173 0.11284 0.52513-0.74576 1.5789-4.3573-2.611-0.16759-0.139 0.39223-0.609 0.17829-0.781 0.0392-0.656-7e-3 -0.621-0.92771-0.14873 0.24395-1.1725-0.12006-0.27386 0.0961-0.41037 0.15679-0.0831-0.048-0.20817 0.0885-0.24229 0.27054-0.20818-0.42337-0.32192-0.41198-0.0717-0.49161 0.20134 0.0143 0.23264-0.3042-0.13137-0.41794 0.55115-0.36107-0.0972-0.72042 0.49377-0.43603-0.30252-0.0339-0.258 0.5375-0.20301 1.4158-1.5436 0.92423-1.7074"/>
  <path id="Hardy__WV" class="54031" d="m822.66 256.73 1.5743 0.628 3.1058 0.59829 0.82506-0.17642 0.33943 0.083 0.23577 0.30065 0.44308-0.1347 0.33943 0.083 0.22054-0.36177 0.64718 0.06 0.47425 0.291 0.6347 0.514-0.50308 0.97514-0.33335 0.75587 0.29825 0.14899-0.57439 1.3902-0.42026-0.25996-0.43149 0.61665-0.21626 0.77995-0.67694 0.69487-0.0905-0.55151-0.47482 0.19207-0.16213 0.57755-0.38773 0.38263-0.96914 2.8846-2.4631-1.2747-0.8227 1.9097-1.5582-0.948 0.74576-1.5789-0.11284-0.52513 0.52827-0.79173-1.0328-1.5723 0.0374-0.49607-0.31379-0.30093 0.59381-1.8378-0.0697-0.94018 0.47246-1.874 0.0981-0.24"/>
  <path id="Mineral__WV" class="54057" d="m827.02 248.92-0.41602 0.90287-0.3243 0.82948-0.61783 0.64603-0.26926 0.62768-0.50775 1.5817-0.2876 0.59099-0.48941 0.13235-0.52596 0.84488 6e-3 0.53301-0.56265 0.49631-0.36084 0.62474-2.9496-1.3794-2.8679 0.21543 3.2698-3.945 1.897 0.426 2.8847-3.971 2.1216 0.844"/>
  <path id="Hampshire__WV" class="54027" d="m827.02 248.92 3.35-0.184 2.3231 0.763-0.0346 1.7571 0.33981 0.3889-0.16539 0.7579 0.42405 0.0357-0.18668 0.86704-0.48961 0.85345-0.13458 0.55749-0.15146 0.16959 0.40511 0.10213-0.42129 1.1478 0.21959 0.13585 0.0341 0.20332 0.40512 0.28765-0.46564 0.65485-0.0602 0.4521-0.37023 0.40441-0.53719 0.34477-0.6347-0.514-0.47425-0.291-0.64718-0.06-0.22054 0.36177-0.33943-0.083-0.44308 0.1347-0.23577-0.30065-0.33943-0.083-0.82506 0.17642-3.1058-0.59829-1.5743-0.628 0.36085-0.62474 0.56264-0.49631-6e-3 -0.53301 0.52595-0.84488 0.48941-0.13235 0.2876-0.59099 0.50775-1.5817 0.26926-0.62768 0.61783-0.64603 0.3243-0.82948 0.41602-0.90287"/>
  <path id="Morgan__WV" class="54065" d="m832.21 245.59 0.93244 0.185 0.20859-0.03 0.62044-1.143 0.45642-0.722 0.12123-0.137 0.10519-0.04 0.59548 0.02 0.64896 0.07 0.64362 0.241 0.80229 0.581 0.29596 0.328-1.8934 0.965-0.041 0.103-0.66715 5.0279-2.2953-1.1844-2.3737-1.1175 1.8399-3.15"/>
  
 </g>
  <text x="10" y="50" font-size="50" fill="black" visibility="hidden">Berkeley
    <set attributeName="visibility" from="visible" to="hidden" begin="county_group.mouseover"/>
    <set attributeName="visibility" from="hidden" to="visible" begin="Berkeley__WV.mouseover" end="Berkeley__WV.mouseout"/>
  </text>
  <text x="10" y="50" font-size="50" fill="black" visibility="hidden">Jefferson
    <set attributeName="visibility" from="visible" to="hidden" begin="county_group.mouseover"/>
    <set attributeName="visibility" from="hidden" to="visible" begin="Jefferson__WV.mouseover" end="Jefferson__WV.mouseout"/>
  </text>
  <text x="10" y="50" font-size="50" fill="black" visibility="hidden">Cabell
    <set attributeName="visibility" from="visible" to="hidden" begin="county_group.mouseover"/>
    <set attributeName="visibility" from="hidden" to="visible" begin="Cabell__WV.mouseover" end="Cabell__WV.mouseout"/>
  </text>
  <text x="10" y="50" font-size="50" fill="black" visibility="hidden">Mingo
    <set attributeName="visibility" from="visible" to="hidden" begin="county_group.mouseover"/>
    <set attributeName="visibility" from="hidden" to="visible" begin="Mingo__WV.mouseover" end="Mingo__WV.mouseout"/>
  </text>
  <text x="10" y="50" font-size="50" fill="black" visibility="hidden">Wayne
    <set attributeName="visibility" from="visible" to="hidden" begin="county_group.mouseover"/>
    <set attributeName="visibility" from="hidden" to="visible" begin="Wayne__WV.mouseover" end="Wayne__WV.mouseout"/>
  </text>
  <text x="10" y="50" font-size="50" fill="black" visibility="hidden">Wyoming
    <set attributeName="visibility" from="visible" to="hidden" begin="county_group.mouseover"/>
    <set attributeName="visibility" from="hidden" to="visible" begin="Wyoming__WV.mouseover" end="Wyoming__WV.mouseout"/>
  </text>
  <text x="10" y="50" font-size="50" fill="black" visibility="hidden">Logan
    <set attributeName="visibility" from="visible" to="hidden" begin="county_group.mouseover"/>
    <set attributeName="visibility" from="hidden" to="visible" begin="Logan__WV.mouseover" end="Logan__WV.mouseout"/>
  </text>
  <text x="10" y="50" font-size="50" fill="black" visibility="hidden">McDowell
    <set attributeName="visibility" from="visible" to="hidden" begin="county_group.mouseover"/>
    <set attributeName="visibility" from="hidden" to="visible" begin="McDowell__WV.mouseover" end="McDowell__WV.mouseout"/>
  </text>
  <text x="10" y="50" font-size="50" fill="black" visibility="hidden">Mercer
    <set attributeName="visibility" from="visible" to="hidden" begin="county_group.mouseover"/>
    <set attributeName="visibility" from="hidden" to="visible" begin="Mercer__WV.mouseover" end="Mercer__WV.mouseout"/>
  </text>
  <text x="10" y="50" font-size="50" fill="black" visibility="hidden">Monroe
    <set attributeName="visibility" from="visible" to="hidden" begin="county_group.mouseover"/>
    <set attributeName="visibility" from="hidden" to="visible" begin="Monroe__WV.mouseover" end="Monroe__WV.mouseout"/>
  </text>
  <text x="10" y="50" font-size="50" fill="black" visibility="hidden">Summers
    <set attributeName="visibility" from="visible" to="hidden" begin="county_group.mouseover"/>
    <set attributeName="visibility" from="hidden" to="visible" begin="Summers__WV.mouseover" end="Summers__WV.mouseout"/>
  </text>
  <text x="10" y="50" font-size="50" fill="black" visibility="hidden">Raleigh
    <set attributeName="visibility" from="visible" to="hidden" begin="county_group.mouseover"/>
    <set attributeName="visibility" from="hidden" to="visible" begin="Raleigh__WV.mouseover" end="Raleigh__WV.mouseout"/>
  </text>
  <text x="10" y="50" font-size="50" fill="black" visibility="hidden">Boone
    <set attributeName="visibility" from="visible" to="hidden" begin="county_group.mouseover"/>
    <set attributeName="visibility" from="hidden" to="visible" begin="Boone__WV.mouseover" end="Boone__WV.mouseout"/>
  </text>
  <text x="10" y="50" font-size="50" fill="black" visibility="hidden">Lincoln
    <set attributeName="visibility" from="visible" to="hidden" begin="county_group.mouseover"/>
    <set attributeName="visibility" from="hidden" to="visible" begin="Lincoln__WV.mouseover" end="Lincoln__WV.mouseout"/>
  </text>
  <text x="10" y="50" font-size="50" fill="black" visibility="hidden">Putnam
    <set attributeName="visibility" from="visible" to="hidden" begin="county_group.mouseover"/>
    <set attributeName="visibility" from="hidden" to="visible" begin="Putnam__WV.mouseover" end="Putnam__WV.mouseout"/>
  </text>
  <text x="10" y="50" font-size="50" fill="black" visibility="hidden">Mason
    <set attributeName="visibility" from="visible" to="hidden" begin="county_group.mouseover"/>
    <set attributeName="visibility" from="hidden" to="visible" begin="Mason__WV.mouseover" end="Mason__WV.mouseout"/>
  </text>
  <text x="10" y="50" font-size="50" fill="black" visibility="hidden">Jackson
    <set attributeName="visibility" from="visible" to="hidden" begin="county_group.mouseover"/>
    <set attributeName="visibility" from="hidden" to="visible" begin="Jackson__WV.mouseover" end="Jackson__WV.mouseout"/>
  </text>
  <text x="10" y="50" font-size="50" fill="black" visibility="hidden">Kanawha
    <set attributeName="visibility" from="visible" to="hidden" begin="county_group.mouseover"/>
    <set attributeName="visibility" from="hidden" to="visible" begin="Kanawha__WV.mouseover" end="Kanawha__WV.mouseout"/>
  </text>
  <text x="10" y="50" font-size="50" fill="black" visibility="hidden">Fayette
    <set attributeName="visibility" from="visible" to="hidden" begin="county_group.mouseover"/>
    <set attributeName="visibility" from="hidden" to="visible" begin="Fayette__WV.mouseover" end="Fayette__WV.mouseout"/>
  </text>
  <text x="10" y="50" font-size="50" fill="black" visibility="hidden">Clay
    <set attributeName="visibility" from="visible" to="hidden" begin="county_group.mouseover"/>
    <set attributeName="visibility" from="hidden" to="visible" begin="Clay__WV.mouseover" end="Clay__WV.mouseout"/>
  </text>
  <text x="10" y="50" font-size="50" fill="black" visibility="hidden">Roane
    <set attributeName="visibility" from="visible" to="hidden" begin="county_group.mouseover"/>
    <set attributeName="visibility" from="hidden" to="visible" begin="Roane__WV.mouseover" end="Roane__WV.mouseout"/>
  </text>
  <text x="10" y="50" font-size="50" fill="black" visibility="hidden">Calhoun
    <set attributeName="visibility" from="visible" to="hidden" begin="county_group.mouseover"/>
    <set attributeName="visibility" from="hidden" to="visible" begin="Calhoun__WV.mouseover" end="Calhoun__WV.mouseout"/>
  </text>
  <text x="10" y="50" font-size="50" fill="black" visibility="hidden">Wirt
    <set attributeName="visibility" from="visible" to="hidden" begin="county_group.mouseover"/>
    <set attributeName="visibility" from="hidden" to="visible" begin="Wirt__WV.mouseover" end="Wirt__WV.mouseout"/>
  </text>
  <text x="10" y="50" font-size="50" fill="black" visibility="hidden">Wood
    <set attributeName="visibility" from="visible" to="hidden" begin="county_group.mouseover"/>
    <set attributeName="visibility" from="hidden" to="visible" begin="Wood__WV.mouseover" end="Wood__WV.mouseout"/>
  </text>
  <text x="10" y="50" font-size="50" fill="black" visibility="hidden">Pleasants
    <set attributeName="visibility" from="visible" to="hidden" begin="county_group.mouseover"/>
    <set attributeName="visibility" from="hidden" to="visible" begin="Pleasants__WV.mouseover" end="Pleasants__WV.mouseout"/>
  </text>
  <text x="10" y="50" font-size="50" fill="black" visibility="hidden">Ritchie
    <set attributeName="visibility" from="visible" to="hidden" begin="county_group.mouseover"/>
    <set attributeName="visibility" from="hidden" to="visible" begin="Ritchie__WV.mouseover" end="Ritchie__WV.mouseout"/>
  </text>
  <text x="10" y="50" font-size="50" fill="black" visibility="hidden">Gilmer
    <set attributeName="visibility" from="visible" to="hidden" begin="county_group.mouseover"/>
    <set attributeName="visibility" from="hidden" to="visible" begin="Gilmer__WV.mouseover" end="Gilmer__WV.mouseout"/>
  </text>
  <text x="10" y="50" font-size="50" fill="black" visibility="hidden">Braxton
    <set attributeName="visibility" from="visible" to="hidden" begin="county_group.mouseover"/>
    <set attributeName="visibility" from="hidden" to="visible" begin="Braxton__WV.mouseover" end="Braxton__WV.mouseout"/>
  </text>
  <text x="10" y="50" font-size="50" fill="black" visibility="hidden">Nicholas
    <set attributeName="visibility" from="visible" to="hidden" begin="county_group.mouseover"/>
    <set attributeName="visibility" from="hidden" to="visible" begin="Nicholas__WV.mouseover" end="Nicholas__WV.mouseout"/>
  </text>
  <text x="10" y="50" font-size="50" fill="black" visibility="hidden">Greenbrier
    <set attributeName="visibility" from="visible" to="hidden" begin="county_group.mouseover"/>
    <set attributeName="visibility" from="hidden" to="visible" begin="Greenbrier__WV.mouseover" end="Greenbrier__WV.mouseout"/>
  </text>
  <text x="10" y="50" font-size="50" fill="black" visibility="hidden">Webster
    <set attributeName="visibility" from="visible" to="hidden" begin="county_group.mouseover"/>
    <set attributeName="visibility" from="hidden" to="visible" begin="Webster__WV.mouseover" end="Webster__WV.mouseout"/>
  </text>
  <text x="10" y="50" font-size="50" fill="black" visibility="hidden">Upshur
    <set attributeName="visibility" from="visible" to="hidden" begin="county_group.mouseover"/>
    <set attributeName="visibility" from="hidden" to="visible" begin="Upshur__WV.mouseover" end="Upshur__WV.mouseout"/>
  </text>
  <text x="10" y="50" font-size="50" fill="black" visibility="hidden">Lewis
    <set attributeName="visibility" from="visible" to="hidden" begin="county_group.mouseover"/>
    <set attributeName="visibility" from="hidden" to="visible" begin="Lewis__WV.mouseover" end="Lewis__WV.mouseout"/>
  </text>
  <text x="10" y="50" font-size="50" fill="black" visibility="hidden">Doddridge
    <set attributeName="visibility" from="visible" to="hidden" begin="county_group.mouseover"/>
    <set attributeName="visibility" from="hidden" to="visible" begin="Doddridge__WV.mouseover" end="Doddridge__WV.mouseout"/>
  </text>
  <text x="10" y="50" font-size="50" fill="black" visibility="hidden">Tyler
    <set attributeName="visibility" from="visible" to="hidden" begin="county_group.mouseover"/>
    <set attributeName="visibility" from="hidden" to="visible" begin="Tyler__WV.mouseover" end="Tyler__WV.mouseout"/>
  </text>
  <text x="10" y="50" font-size="50" fill="black" visibility="hidden">Harrison
    <set attributeName="visibility" from="visible" to="hidden" begin="county_group.mouseover"/>
    <set attributeName="visibility" from="hidden" to="visible" begin="Harrison__WV.mouseover" end="Harrison__WV.mouseout"/>
  </text>
  <text x="10" y="50" font-size="50" fill="black" visibility="hidden">Hancock
    <set attributeName="visibility" from="visible" to="hidden" begin="county_group.mouseover"/>
    <set attributeName="visibility" from="hidden" to="visible" begin="Hancock__WV.mouseover" end="Hancock__WV.mouseout"/>
  </text>
  <text x="10" y="50" font-size="50" fill="black" visibility="hidden">Brooke
    <set attributeName="visibility" from="visible" to="hidden" begin="county_group.mouseover"/>
    <set attributeName="visibility" from="hidden" to="visible" begin="Brooke__WV.mouseover" end="Brooke__WV.mouseout"/>
  </text>
  <text x="10" y="50" font-size="50" fill="black" visibility="hidden">Ohio
    <set attributeName="visibility" from="visible" to="hidden" begin="county_group.mouseover"/>
    <set attributeName="visibility" from="hidden" to="visible" begin="Ohio__WV.mouseover" end="Ohio__WV.mouseout"/>
  </text>
  <text x="10" y="50" font-size="50" fill="black" visibility="hidden">Marshall
    <set attributeName="visibility" from="visible" to="hidden" begin="county_group.mouseover"/>
    <set attributeName="visibility" from="hidden" to="visible" begin="Marshall__WV.mouseover" end="Marshall__WV.mouseout"/>
  </text>
  <text x="10" y="50" font-size="50" fill="black" visibility="hidden">Wetzel
    <set attributeName="visibility" from="visible" to="hidden" begin="county_group.mouseover"/>
    <set attributeName="visibility" from="hidden" to="visible" begin="Wetzel__WV.mouseover" end="Wetzel__WV.mouseout"/>
  </text>
  <text x="10" y="50" font-size="50" fill="black" visibility="hidden">Marion
    <set attributeName="visibility" from="visible" to="hidden" begin="county_group.mouseover"/>
    <set attributeName="visibility" from="hidden" to="visible" begin="Marion__WV.mouseover" end="Marion__WV.mouseout"/>
  </text>
  <text x="10" y="50" font-size="50" fill="black" visibility="hidden">Barbour
    <set attributeName="visibility" from="visible" to="hidden" begin="county_group.mouseover"/>
    <set attributeName="visibility" from="hidden" to="visible" begin="Barbour__WV.mouseover" end="Barbour__WV.mouseout"/>
  </text>
  <text x="10" y="50" font-size="50" fill="black" visibility="hidden">Taylor
    <set attributeName="visibility" from="visible" to="hidden" begin="county_group.mouseover"/>
    <set attributeName="visibility" from="hidden" to="visible" begin="Taylor__WV.mouseover" end="Taylor__WV.mouseout"/>
  </text>
  <text x="10" y="50" font-size="50" fill="black" visibility="hidden">Monongalia
    <set attributeName="visibility" from="visible" to="hidden" begin="county_group.mouseover"/>
    <set attributeName="visibility" from="hidden" to="visible" begin="Monongalia__WV.mouseover" end="Monongalia__WV.mouseout"/>
  </text>
  <text x="10" y="50" font-size="50" fill="black" visibility="hidden">Pocahontas
    <set attributeName="visibility" from="visible" to="hidden" begin="county_group.mouseover"/>
    <set attributeName="visibility" from="hidden" to="visible" begin="Pocahontas__WV.mouseover" end="Pocahontas__WV.mouseout"/>
  </text>
  <text x="10" y="50" font-size="50" fill="black" visibility="hidden">Preston
    <set attributeName="visibility" from="visible" to="hidden" begin="county_group.mouseover"/>
    <set attributeName="visibility" from="hidden" to="visible" begin="Preston__WV.mouseover" end="Preston__WV.mouseout"/>
  </text>
  <text x="10" y="50" font-size="50" fill="black" visibility="hidden">Randolph
    <set attributeName="visibility" from="visible" to="hidden" begin="county_group.mouseover"/>
    <set attributeName="visibility" from="hidden" to="visible" begin="Randolph__WV.mouseover" end="Randolph__WV.mouseout"/>
  </text>
  <text x="10" y="50" font-size="50" fill="black" visibility="hidden">Pendleton
    <set attributeName="visibility" from="visible" to="hidden" begin="county_group.mouseover"/>
    <set attributeName="visibility" from="hidden" to="visible" begin="Pendleton__WV.mouseover" end="Pendleton__WV.mouseout"/>
  </text>
  <text x="10" y="50" font-size="50" fill="black" visibility="hidden">Tucker
    <set attributeName="visibility" from="visible" to="hidden" begin="county_group.mouseover"/>
    <set attributeName="visibility" from="hidden" to="visible" begin="Tucker__WV.mouseover" end="Tucker__WV.mouseout"/>
  </text>
  <text x="10" y="50" font-size="50" fill="black" visibility="hidden">Grant
    <set attributeName="visibility" from="visible" to="hidden" begin="county_group.mouseover"/>
    <set attributeName="visibility" from="hidden" to="visible" begin="Grant__WV.mouseover" end="Grant__WV.mouseout"/>
  </text>
  <text x="10" y="50" font-size="50" fill="black" visibility="hidden">Hardy
    <set attributeName="visibility" from="visible" to="hidden" begin="county_group.mouseover"/>
    <set attributeName="visibility" from="hidden" to="visible" begin="Hardy__WV.mouseover" end="Hardy__WV.mouseout"/>
  </text>
  <text x="10" y="50" font-size="50" fill="black" visibility="hidden">Mineral
    <set attributeName="visibility" from="visible" to="hidden" begin="county_group.mouseover"/>
    <set attributeName="visibility" from="hidden" to="visible" begin="Mineral__WV.mouseover" end="Mineral__WV.mouseout"/>
  </text>
  <text x="10" y="50" font-size="50" fill="black" visibility="hidden">Hampshire
    <set attributeName="visibility" from="visible" to="hidden" begin="county_group.mouseover"/>
    <set attributeName="visibility" from="hidden" to="visible" begin="Hampshire__WV.mouseover" end="Hampshire__WV.mouseout"/>
  </text>
  <text x="10" y="50" font-size="50" fill="black" visibility="hidden">Morgan
    <set attributeName="visibility" from="visible" to="hidden" begin="county_group.mouseover"/>
    <set attributeName="visibility" from="hidden" to="visible" begin="Morgan__WV.mouseover" end="Morgan__WV.mouseout"/>
  </text>

</svg>